<?xml version="1.0" encoding="UTF-8" standalone="no"?>
<!DOCTYPE svg PUBLIC "-//W3C//DTD SVG 1.1//EN"
 "http://www.w3.org/Graphics/SVG/1.1/DTD/svg11.dtd">
<!-- Generated by graphviz version 2.40.1 (20161225.0304)
 -->
<!-- Title: asd Pages: 1 -->
<svg width="375pt" height="289pt"
 viewBox="0.00 0.00 375.00 289.00" xmlns="http://www.w3.org/2000/svg" xmlns:xlink="http://www.w3.org/1999/xlink">
<g id="graph0" class="graph" transform="scale(1 1) rotate(0) translate(4 285)">
<title>asd</title>
<polygon fill="#00ffff" stroke="transparent" points="-4,4 -4,-285 371,-285 371,4 -4,4"/>
<text text-anchor="middle" x="183.5" y="-7.8" font-family="Times,serif" font-size="14.00" fill="#000000">调用结构</text>
<!-- html -->
<g id="node1" class="node">
<title>html</title>
<polygon fill="none" stroke="#000000" points="90,-63 90,-201 148,-201 148,-63 90,-63"/>
<text text-anchor="middle" x="119" y="-185.8" font-family="Times,serif" font-size="14.00" fill="#000000">future</text>
<polyline fill="none" stroke="#000000" points="90,-178 148,-178 "/>
<text text-anchor="middle" x="119" y="-162.8" font-family="Times,serif" font-size="14.00" fill="#000000">cs_skill</text>
<polyline fill="none" stroke="#000000" points="90,-155 148,-155 "/>
<text text-anchor="middle" x="119" y="-139.8" font-family="Times,serif" font-size="14.00" fill="#000000">link</text>
<polyline fill="none" stroke="#000000" points="90,-132 148,-132 "/>
<text text-anchor="middle" x="119" y="-116.8" font-family="Times,serif" font-size="14.00" fill="#000000">film</text>
<polyline fill="none" stroke="#000000" points="90,-109 148,-109 "/>
<text text-anchor="middle" x="119" y="-93.8" font-family="Times,serif" font-size="14.00" fill="#000000">two_de</text>
<polyline fill="none" stroke="#000000" points="90,-86 148,-86 "/>
<text text-anchor="middle" x="119" y="-70.8" font-family="Times,serif" font-size="14.00" fill="#000000">...</text>
</g>
<!-- note -->
<g id="node2" class="node">
<title>note</title>
<polygon fill="none" stroke="#000000" points="184.5,-165.5 184.5,-280.5 259.5,-280.5 259.5,-165.5 184.5,-165.5"/>
<text text-anchor="middle" x="222" y="-265.3" font-family="Times,serif" font-size="14.00" fill="#000000">bash</text>
<polyline fill="none" stroke="#000000" points="184.5,-257.5 259.5,-257.5 "/>
<text text-anchor="middle" x="222" y="-242.3" font-family="Times,serif" font-size="14.00" fill="#000000">markdown</text>
<polyline fill="none" stroke="#000000" points="184.5,-234.5 259.5,-234.5 "/>
<text text-anchor="middle" x="222" y="-219.3" font-family="Times,serif" font-size="14.00" fill="#000000">latex</text>
<polyline fill="none" stroke="#000000" points="184.5,-211.5 259.5,-211.5 "/>
<text text-anchor="middle" x="222" y="-196.3" font-family="Times,serif" font-size="14.00" fill="#000000">marx</text>
<polyline fill="none" stroke="#000000" points="184.5,-188.5 259.5,-188.5 "/>
<text text-anchor="middle" x="222" y="-173.3" font-family="Times,serif" font-size="14.00" fill="#000000">...</text>
</g>
<!-- html&#45;&gt;note -->
<g id="edge2" class="edge">
<title>html:a1&#45;&gt;note:a5</title>
<path fill="none" stroke="#000000" d="M148,-190C182.5153,-190 153.2122,-253.2147 174.2659,-266.5491"/>
<polygon fill="#000000" stroke="#000000" points="173.4481,-269.9523 184,-269 175.1573,-263.1642 173.4481,-269.9523"/>
</g>
<!-- html&#45;&gt;note -->
<g id="edge3" class="edge">
<title>html:a2&#45;&gt;note:a4</title>
<path fill="none" stroke="#000000" d="M148,-167C173.4273,-167 159.8868,-208.3574 174.3544,-219.9892"/>
<polygon fill="#000000" stroke="#000000" points="173.4113,-223.3613 184,-223 175.4971,-216.6793 173.4113,-223.3613"/>
</g>
<!-- algo -->
<g id="node3" class="node">
<title>algo</title>
<polygon fill="none" stroke="#000000" points="184,-77.5 184,-146.5 260,-146.5 260,-77.5 184,-77.5"/>
<text text-anchor="middle" x="222" y="-131.3" font-family="Times,serif" font-size="14.00" fill="#000000">deeplearn2</text>
<polyline fill="none" stroke="#000000" points="184,-123.5 260,-123.5 "/>
<text text-anchor="middle" x="222" y="-108.3" font-family="Times,serif" font-size="14.00" fill="#000000">learnjulia</text>
<polyline fill="none" stroke="#000000" points="184,-100.5 260,-100.5 "/>
<text text-anchor="middle" x="222" y="-85.3" font-family="Times,serif" font-size="14.00" fill="#000000">shang</text>
</g>
<!-- html&#45;&gt;algo -->
<g id="edge4" class="edge">
<title>html:a2&#45;&gt;algo:a3</title>
<path fill="none" stroke="#000000" d="M148,-167C172.8786,-167 160.3059,-127.1163 174.0661,-115.2758"/>
<polygon fill="#000000" stroke="#000000" points="175.5991,-118.4557 184,-112 173.4069,-111.8078 175.5991,-118.4557"/>
</g>
<!-- two_de -->
<g id="node5" class="node">
<title>two_de</title>
<polygon fill="none" stroke="#000000" points="250,-59 247,-63 226,-63 223,-59 194,-59 194,-23 250,-23 250,-59"/>
<text text-anchor="middle" x="222" y="-37.3" font-family="Times,serif" font-size="14.00" fill="#000000">two_de</text>
</g>
<!-- html&#45;&gt;two_de -->
<g id="edge5" class="edge">
<title>html:a6&#45;&gt;two_de</title>
<path fill="none" stroke="#000000" d="M148,-97C168.5456,-97 167.6183,-80.4002 184,-68 185.2099,-67.0842 186.4464,-66.1576 187.6991,-65.2269"/>
<polygon fill="#000000" stroke="#000000" points="190.0844,-67.8188 196.0922,-59.092 185.9536,-62.1675 190.0844,-67.8188"/>
</g>
<!-- pict_math -->
<g id="node6" class="node">
<title>pict_math</title>
<polygon fill="none" stroke="#000000" points="367,-241 364,-245 343,-245 340,-241 296,-241 296,-205 367,-205 367,-241"/>
<text text-anchor="middle" x="331.5" y="-219.3" font-family="Times,serif" font-size="14.00" fill="#000000">pict_math</text>
</g>
<!-- note&#45;&gt;pict_math -->
<g id="edge6" class="edge">
<title>note:a4&#45;&gt;pict_math</title>
<path fill="none" stroke="#000000" d="M260,-223C268.2955,-223 277.1324,-223 285.6627,-223"/>
<polygon fill="#000000" stroke="#000000" points="285.8588,-226.5001 295.8588,-223 285.8587,-219.5001 285.8588,-226.5001"/>
</g>
<!-- index -->
<g id="node4" class="node">
<title>index</title>
<polygon fill="none" stroke="#000000" points="54,-208 51,-212 30,-212 27,-208 0,-208 0,-172 54,-172 54,-208"/>
<text text-anchor="middle" x="27" y="-186.3" font-family="Times,serif" font-size="14.00" fill="#000000">index</text>
</g>
<!-- index&#45;&gt;html -->
<g id="edge1" class="edge">
<title>index&#45;&gt;html:a1</title>
<path fill="none" stroke="#000000" d="M54.2887,-190C62.254,-190 71.1718,-190 79.9035,-190"/>
<polygon fill="#000000" stroke="#000000" points="80,-193.5001 90,-190 80,-186.5001 80,-193.5001"/>
</g>
</g>
</svg>
