<?xml version="1.0" encoding="UTF-8" standalone="no"?>
<!DOCTYPE svg PUBLIC "-//W3C//DTD SVG 1.1//EN"
 "http://www.w3.org/Graphics/SVG/1.1/DTD/svg11.dtd">
<!-- Generated by graphviz version 2.40.1 (20161225.0304)
 -->
<!-- Title: asd Pages: 1 -->
<svg width="1120pt" height="747pt"
 viewBox="0.00 0.00 1120.00 747.00" xmlns="http://www.w3.org/2000/svg" xmlns:xlink="http://www.w3.org/1999/xlink">
<g id="graph0" class="graph" transform="scale(1 1) rotate(0) translate(4 743)">
<title>asd</title>
<polygon fill="#f5deb3" stroke="transparent" points="-4,4 -4,-743 1116,-743 1116,4 -4,4"/>
<text text-anchor="middle" x="556" y="-7.8" font-family="Times,serif" font-size="14.00" fill="#000000">晋国</text>
<g id="clust1" class="cluster">
<title>cluster_2</title>
<polygon fill="#f5deb3" stroke="#000000" points="8,-31 8,-731 1104,-731 1104,-31 8,-31"/>
</g>
<!-- 周公姬氏 -->
<g id="node1" class="node">
<title>周公姬氏</title>
<text text-anchor="middle" x="53" y="-701.3" font-family="Times,serif" font-size="14.00" fill="#000000">周公姬氏</text>
</g>
<!-- 成王 -->
<g id="node3" class="node">
<title>成王</title>
<text text-anchor="middle" x="230" y="-701.3" font-family="Times,serif" font-size="14.00" fill="#000000">成王</text>
</g>
<!-- 周公姬氏&#45;&gt;成王 -->
<g id="edge1" class="edge">
<title>周公姬氏&#45;&gt;成王</title>
<path fill="none" stroke="#000000" d="M90.105,-705C120.2107,-705 162.4593,-705 192.6347,-705"/>
<polygon fill="#000000" stroke="#000000" points="192.7649,-708.5001 202.7649,-705 192.7649,-701.5001 192.7649,-708.5001"/>
</g>
<!-- 武王 -->
<g id="node2" class="node">
<title>武王</title>
<text text-anchor="middle" x="53" y="-647.3" font-family="Times,serif" font-size="14.00" fill="#000000">武王</text>
</g>
<!-- 武王&#45;&gt;成王 -->
<g id="edge2" class="edge">
<title>武王&#45;&gt;成王</title>
<path fill="none" stroke="#000000" d="M80.2683,-659.3192C110.4995,-668.5422 159.4279,-683.4695 193.0766,-693.7352"/>
<polygon fill="#000000" stroke="#000000" points="192.405,-697.1895 202.9911,-696.76 194.4477,-690.4942 192.405,-697.1895"/>
</g>
<!-- 唐叔虞 -->
<g id="node4" class="node">
<title>唐叔虞</title>
<text text-anchor="middle" x="230" y="-647.3" font-family="Times,serif" font-size="14.00" fill="#000000">唐叔虞</text>
</g>
<!-- 武王&#45;&gt;唐叔虞 -->
<g id="edge3" class="edge">
<title>武王&#45;&gt;唐叔虞</title>
<path fill="none" stroke="#000000" d="M80.2683,-651C109.5817,-651 156.4742,-651 189.9705,-651"/>
<polygon fill="#000000" stroke="#000000" points="190.336,-654.5001 200.336,-651 190.336,-647.5001 190.336,-654.5001"/>
</g>
<!-- 晋侯燮 -->
<g id="node5" class="node">
<title>晋侯燮</title>
<text text-anchor="middle" x="386" y="-701.3" font-family="Times,serif" font-size="14.00" fill="#000000">晋侯燮</text>
</g>
<!-- 唐叔虞&#45;&gt;晋侯燮 -->
<g id="edge4" class="edge">
<title>唐叔虞&#45;&gt;晋侯燮</title>
<path fill="none" stroke="#000000" d="M259.7096,-661.2841C284.4319,-669.8418 319.8246,-682.0931 346.8557,-691.4501"/>
<polygon fill="#000000" stroke="#000000" points="345.8062,-694.7905 356.401,-694.7542 348.0961,-688.1756 345.8062,-694.7905"/>
</g>
<!-- 武侯宁族 -->
<g id="node6" class="node">
<title>武侯宁族</title>
<text text-anchor="middle" x="549" y="-701.3" font-family="Times,serif" font-size="14.00" fill="#000000">武侯宁族</text>
</g>
<!-- 晋侯燮&#45;&gt;武侯宁族 -->
<g id="edge5" class="edge">
<title>晋侯燮&#45;&gt;武侯宁族</title>
<path fill="none" stroke="#000000" d="M415.5181,-705C439.5162,-705 473.8346,-705 501.6639,-705"/>
<polygon fill="#000000" stroke="#000000" points="501.977,-708.5001 511.977,-705 501.9769,-701.5001 501.977,-708.5001"/>
</g>
<!-- 成侯服人 -->
<g id="node7" class="node">
<title>成侯服人</title>
<text text-anchor="middle" x="733" y="-701.3" font-family="Times,serif" font-size="14.00" fill="#000000">成侯服人</text>
</g>
<!-- 武侯宁族&#45;&gt;成侯服人 -->
<g id="edge6" class="edge">
<title>武侯宁族&#45;&gt;成侯服人</title>
<path fill="none" stroke="#000000" d="M586.2351,-705C614.9161,-705 654.7618,-705 685.699,-705"/>
<polygon fill="#000000" stroke="#000000" points="685.8203,-708.5001 695.8202,-705 685.8202,-701.5001 685.8203,-708.5001"/>
</g>
<!-- 厉侯福 -->
<g id="node8" class="node">
<title>厉侯福</title>
<text text-anchor="middle" x="882" y="-701.3" font-family="Times,serif" font-size="14.00" fill="#000000">厉侯福</text>
</g>
<!-- 成侯服人&#45;&gt;厉侯福 -->
<g id="edge7" class="edge">
<title>成侯服人&#45;&gt;厉侯福</title>
<path fill="none" stroke="#000000" d="M770.2146,-705C792.0918,-705 819.7485,-705 842.0789,-705"/>
<polygon fill="#000000" stroke="#000000" points="842.2435,-708.5001 852.2434,-705 842.2434,-701.5001 842.2435,-708.5001"/>
</g>
<!-- 靖侯宜臼 -->
<g id="node9" class="node">
<title>靖侯宜臼</title>
<text text-anchor="middle" x="1059" y="-701.3" font-family="Times,serif" font-size="14.00" fill="#000000">靖侯宜臼</text>
</g>
<!-- 厉侯福&#45;&gt;靖侯宜臼 -->
<g id="edge8" class="edge">
<title>厉侯福&#45;&gt;靖侯宜臼</title>
<path fill="none" stroke="#000000" d="M911.6258,-705C938.8586,-705 979.7031,-705 1011.4913,-705"/>
<polygon fill="#000000" stroke="#000000" points="1011.8917,-708.5001 1021.8916,-705 1011.8916,-701.5001 1011.8917,-708.5001"/>
</g>
<!-- 靖侯 -->
<g id="node10" class="node">
<title>靖侯</title>
<text text-anchor="middle" x="53" y="-593.3" font-family="Times,serif" font-size="14.00" fill="#000000">靖侯</text>
</g>
<!-- 釐侯司徒 -->
<g id="node11" class="node">
<title>釐侯司徒</title>
<text text-anchor="middle" x="230" y="-593.3" font-family="Times,serif" font-size="14.00" fill="#000000">釐侯司徒</text>
</g>
<!-- 靖侯&#45;&gt;釐侯司徒 -->
<g id="edge9" class="edge">
<title>靖侯&#45;&gt;釐侯司徒</title>
<path fill="none" stroke="#000000" d="M80.2683,-597C107.4816,-597 149.8455,-597 182.5765,-597"/>
<polygon fill="#000000" stroke="#000000" points="182.8335,-600.5001 192.8335,-597 182.8335,-593.5001 182.8335,-600.5001"/>
</g>
<!-- 献侯籍 -->
<g id="node12" class="node">
<title>献侯籍</title>
<text text-anchor="middle" x="386" y="-647.3" font-family="Times,serif" font-size="14.00" fill="#000000">献侯籍</text>
</g>
<!-- 釐侯司徒&#45;&gt;献侯籍 -->
<g id="edge10" class="edge">
<title>釐侯司徒&#45;&gt;献侯籍</title>
<path fill="none" stroke="#000000" d="M267.3659,-609.9343C291.3707,-618.2437 322.4993,-629.019 346.8467,-637.4469"/>
<polygon fill="#000000" stroke="#000000" points="345.893,-640.8205 356.4878,-640.7842 348.1829,-634.2056 345.893,-640.8205"/>
</g>
<!-- 穆侯费王 -->
<g id="node13" class="node">
<title>穆侯费王</title>
<text text-anchor="middle" x="549" y="-647.3" font-family="Times,serif" font-size="14.00" fill="#000000">穆侯费王</text>
</g>
<!-- 献侯籍&#45;&gt;穆侯费王 -->
<g id="edge11" class="edge">
<title>献侯籍&#45;&gt;穆侯费王</title>
<path fill="none" stroke="#000000" d="M415.5181,-651C439.5162,-651 473.8346,-651 501.6639,-651"/>
<polygon fill="#000000" stroke="#000000" points="501.977,-654.5001 511.977,-651 501.9769,-647.5001 501.977,-654.5001"/>
</g>
<!-- 文侯仇 -->
<g id="node14" class="node">
<title>文侯仇</title>
<text text-anchor="middle" x="733" y="-593.3" font-family="Times,serif" font-size="14.00" fill="#000000">文侯仇</text>
</g>
<!-- 穆侯费王&#45;&gt;文侯仇 -->
<g id="edge12" class="edge">
<title>穆侯费王&#45;&gt;文侯仇</title>
<path fill="none" stroke="#000000" d="M586.2351,-640.0723C617.4097,-630.9232 661.7747,-617.9031 693.553,-608.5768"/>
<polygon fill="#000000" stroke="#000000" points="694.786,-611.8627 703.3957,-605.6882 692.8148,-605.1459 694.786,-611.8627"/>
<text text-anchor="middle" x="644.5" y="-630.8" font-family="Times,serif" font-size="14.00" fill="#000000">太子</text>
</g>
<!-- 殇叔 -->
<g id="node25" class="node">
<title>殇叔</title>
<text text-anchor="middle" x="733" y="-647.3" font-family="Times,serif" font-size="14.00" fill="#000000">殇叔</text>
</g>
<!-- 穆侯费王&#45;&gt;殇叔 -->
<g id="edge22" class="edge">
<title>穆侯费王&#45;&gt;殇叔</title>
<path fill="none" stroke="#000000" d="M586.2351,-651C618.1239,-651 663.8143,-651 695.7169,-651"/>
<polygon fill="#000000" stroke="#000000" points="695.9676,-654.5001 705.9676,-651 695.9675,-647.5001 695.9676,-654.5001"/>
<text text-anchor="middle" x="644.5" y="-654.8" font-family="Times,serif" font-size="14.00" fill="#000000">弟弟</text>
</g>
<!-- 仇 -->
<g id="node15" class="node">
<title>仇</title>
<text text-anchor="middle" x="53" y="-521.3" font-family="Times,serif" font-size="14.00" fill="#000000">仇</text>
</g>
<!-- 昭侯伯 -->
<g id="node16" class="node">
<title>昭侯伯</title>
<text text-anchor="middle" x="230" y="-485.3" font-family="Times,serif" font-size="14.00" fill="#000000">昭侯伯</text>
</g>
<!-- 仇&#45;&gt;昭侯伯 -->
<g id="edge13" class="edge">
<title>仇&#45;&gt;昭侯伯</title>
<path fill="none" stroke="#000000" d="M80.2683,-519.4539C109.7086,-513.466 156.8805,-503.8718 190.4048,-497.0533"/>
<polygon fill="#000000" stroke="#000000" points="191.2342,-500.4563 200.336,-495.0334 189.839,-493.5967 191.2342,-500.4563"/>
</g>
<!-- 桓叔成师 -->
<g id="node22" class="node">
<title>桓叔成师</title>
<text text-anchor="middle" x="230" y="-539.3" font-family="Times,serif" font-size="14.00" fill="#000000">桓叔成师</text>
</g>
<!-- 仇&#45;&gt;桓叔成师 -->
<g id="edge19" class="edge">
<title>仇&#45;&gt;桓叔成师</title>
<path fill="none" stroke="#000000" d="M80.2683,-527.7731C107.4816,-530.5405 149.8455,-534.8487 182.5765,-538.1773"/>
<polygon fill="#000000" stroke="#000000" points="182.5307,-541.6906 192.8335,-539.2204 183.2389,-534.7265 182.5307,-541.6906"/>
<text text-anchor="middle" x="141.5" y="-538.8" font-family="Times,serif" font-size="14.00" fill="#000000">弟弟</text>
</g>
<!-- 孝侯平 -->
<g id="node17" class="node">
<title>孝侯平</title>
<text text-anchor="middle" x="386" y="-539.3" font-family="Times,serif" font-size="14.00" fill="#000000">孝侯平</text>
</g>
<!-- 昭侯伯&#45;&gt;孝侯平 -->
<g id="edge14" class="edge">
<title>昭侯伯&#45;&gt;孝侯平</title>
<path fill="none" stroke="#000000" d="M259.7096,-499.2841C284.4319,-507.8418 319.8246,-520.0931 346.8557,-529.4501"/>
<polygon fill="#000000" stroke="#000000" points="345.8062,-532.7905 356.401,-532.7542 348.0961,-526.1756 345.8062,-532.7905"/>
</g>
<!-- 鄂侯郄 -->
<g id="node18" class="node">
<title>鄂侯郄</title>
<text text-anchor="middle" x="549" y="-539.3" font-family="Times,serif" font-size="14.00" fill="#000000">鄂侯郄</text>
</g>
<!-- 孝侯平&#45;&gt;鄂侯郄 -->
<g id="edge15" class="edge">
<title>孝侯平&#45;&gt;鄂侯郄</title>
<path fill="none" stroke="#000000" d="M415.5181,-543C441.7464,-543 480.3021,-543 509.2407,-543"/>
<polygon fill="#000000" stroke="#000000" points="509.4266,-546.5001 519.4266,-543 509.4265,-539.5001 509.4266,-546.5001"/>
</g>
<!-- 哀侯光 -->
<g id="node19" class="node">
<title>哀侯光</title>
<text text-anchor="middle" x="733" y="-539.3" font-family="Times,serif" font-size="14.00" fill="#000000">哀侯光</text>
</g>
<!-- 鄂侯郄&#45;&gt;哀侯光 -->
<g id="edge16" class="edge">
<title>鄂侯郄&#45;&gt;哀侯光</title>
<path fill="none" stroke="#000000" d="M578.5628,-543C609.5881,-543 658.5504,-543 693.012,-543"/>
<polygon fill="#000000" stroke="#000000" points="693.2056,-546.5001 703.2055,-543 693.2055,-539.5001 693.2056,-546.5001"/>
</g>
<!-- 小子侯 -->
<g id="node20" class="node">
<title>小子侯</title>
<text text-anchor="middle" x="882" y="-539.3" font-family="Times,serif" font-size="14.00" fill="#000000">小子侯</text>
</g>
<!-- 哀侯光&#45;&gt;小子侯 -->
<g id="edge17" class="edge">
<title>哀侯光&#45;&gt;小子侯</title>
<path fill="none" stroke="#000000" d="M762.7943,-543C785.5331,-543 817.0894,-543 842.0223,-543"/>
<polygon fill="#000000" stroke="#000000" points="842.2574,-546.5001 852.2574,-543 842.2573,-539.5001 842.2574,-546.5001"/>
</g>
<!-- 缗 -->
<g id="node21" class="node">
<title>缗</title>
<text text-anchor="middle" x="1059" y="-539.3" font-family="Times,serif" font-size="14.00" fill="#000000">缗</text>
</g>
<!-- 小子侯&#45;&gt;缗 -->
<g id="edge18" class="edge">
<title>小子侯&#45;&gt;缗</title>
<path fill="none" stroke="#000000" d="M911.6258,-543C941.9075,-543 989.0194,-543 1021.7956,-543"/>
<polygon fill="#000000" stroke="#000000" points="1021.894,-546.5001 1031.8939,-543 1021.8939,-539.5001 1021.894,-546.5001"/>
<text text-anchor="middle" x="970.5" y="-546.8" font-family="Times,serif" font-size="14.00" fill="#000000">弟弟</text>
</g>
<!-- 曲沃庄伯鳝 -->
<g id="node23" class="node">
<title>曲沃庄伯鳝</title>
<text text-anchor="middle" x="386" y="-593.3" font-family="Times,serif" font-size="14.00" fill="#000000">曲沃庄伯鳝</text>
</g>
<!-- 桓叔成师&#45;&gt;曲沃庄伯鳝 -->
<g id="edge20" class="edge">
<title>桓叔成师&#45;&gt;曲沃庄伯鳝</title>
<path fill="none" stroke="#000000" d="M267.3659,-555.9343C286.7514,-562.6447 310.7828,-570.9633 332.1369,-578.3551"/>
<polygon fill="#000000" stroke="#000000" points="331.1387,-581.7133 341.7335,-581.677 333.4285,-575.0983 331.1387,-581.7133"/>
</g>
<!-- 曲沃武公称 -->
<g id="node24" class="node">
<title>曲沃武公称</title>
<text text-anchor="middle" x="549" y="-593.3" font-family="Times,serif" font-size="14.00" fill="#000000">曲沃武公称</text>
</g>
<!-- 曲沃庄伯鳝&#45;&gt;曲沃武公称 -->
<g id="edge21" class="edge">
<title>曲沃庄伯鳝&#45;&gt;曲沃武公称</title>
<path fill="none" stroke="#000000" d="M430.1101,-597C450.0423,-597 473.7837,-597 494.7905,-597"/>
<polygon fill="#000000" stroke="#000000" points="494.8546,-600.5001 504.8546,-597 494.8546,-593.5001 494.8546,-600.5001"/>
</g>
<!-- 晋武公称 -->
<g id="node26" class="node">
<title>晋武公称</title>
<text text-anchor="middle" x="53" y="-377.3" font-family="Times,serif" font-size="14.00" fill="#000000">晋武公称</text>
</g>
<!-- 献公诡诸 -->
<g id="node27" class="node">
<title>献公诡诸</title>
<text text-anchor="middle" x="230" y="-377.3" font-family="Times,serif" font-size="14.00" fill="#000000">献公诡诸</text>
</g>
<!-- 晋武公称&#45;&gt;献公诡诸 -->
<g id="edge23" class="edge">
<title>晋武公称&#45;&gt;献公诡诸</title>
<path fill="none" stroke="#000000" d="M90.105,-381C117.0096,-381 153.6121,-381 182.6287,-381"/>
<polygon fill="#000000" stroke="#000000" points="182.9439,-384.5001 192.9438,-381 182.9438,-377.5001 182.9439,-384.5001"/>
</g>
<!-- 太子申生 -->
<g id="node28" class="node">
<title>太子申生</title>
<text text-anchor="middle" x="386" y="-323.3" font-family="Times,serif" font-size="14.00" fill="#000000">太子申生</text>
</g>
<!-- 献公诡诸&#45;&gt;太子申生 -->
<g id="edge24" class="edge">
<title>献公诡诸&#45;&gt;太子申生</title>
<path fill="none" stroke="#000000" d="M267.3659,-368.0657C288.9767,-360.585 316.3613,-351.1057 339.3738,-343.1398"/>
<polygon fill="#000000" stroke="#000000" points="340.6341,-346.4074 348.939,-339.8288 338.3442,-339.7925 340.6341,-346.4074"/>
</g>
<!-- 文公重耳 -->
<g id="node29" class="node">
<title>文公重耳</title>
<text text-anchor="middle" x="386" y="-485.3" font-family="Times,serif" font-size="14.00" fill="#000000">文公重耳</text>
</g>
<!-- 献公诡诸&#45;&gt;文公重耳 -->
<g id="edge25" class="edge">
<title>献公诡诸&#45;&gt;文公重耳</title>
<path fill="none" stroke="#000000" d="M254.7005,-399.0153C284.9748,-421.072 333.3411,-456.2241 342,-462 343.6217,-463.0817 345.2854,-464.1745 346.9723,-465.2687"/>
<polygon fill="#000000" stroke="#000000" points="345.1978,-468.2881 355.5129,-470.7065 348.9573,-462.3833 345.1978,-468.2881"/>
</g>
<!-- 惠公夷吾 -->
<g id="node30" class="node">
<title>惠公夷吾</title>
<text text-anchor="middle" x="386" y="-431.3" font-family="Times,serif" font-size="14.00" fill="#000000">惠公夷吾</text>
</g>
<!-- 献公诡诸&#45;&gt;惠公夷吾 -->
<g id="edge26" class="edge">
<title>献公诡诸&#45;&gt;惠公夷吾</title>
<path fill="none" stroke="#000000" d="M267.3659,-393.9343C288.9767,-401.415 316.3613,-410.8943 339.3738,-418.8602"/>
<polygon fill="#000000" stroke="#000000" points="338.3442,-422.2075 348.939,-422.1712 340.6341,-415.5926 338.3442,-422.2075"/>
</g>
<!-- 奚齐 -->
<g id="node41" class="node">
<title>奚齐</title>
<text text-anchor="middle" x="386" y="-377.3" font-family="Times,serif" font-size="14.00" fill="#000000">奚齐</text>
</g>
<!-- 献公诡诸&#45;&gt;奚齐 -->
<g id="edge36" class="edge">
<title>献公诡诸&#45;&gt;奚齐</title>
<path fill="none" stroke="#000000" d="M267.3659,-381C291.9739,-381 324.0681,-381 348.669,-381"/>
<polygon fill="#000000" stroke="#000000" points="348.7098,-384.5001 358.7098,-381 348.7097,-377.5001 348.7098,-384.5001"/>
</g>
<!-- 曲沃 -->
<g id="node31" class="node">
<title>曲沃</title>
<text text-anchor="middle" x="549" y="-215.3" font-family="Times,serif" font-size="14.00" fill="#000000">曲沃</text>
</g>
<!-- 太子申生&#45;&gt;曲沃 -->
<g id="edge27" class="edge">
<title>太子申生&#45;&gt;曲沃</title>
<path fill="none" stroke="#000000" d="M416.0095,-308.9935C420.7281,-306.0452 425.5233,-302.9793 430,-300 464.1942,-277.2433 470.8058,-268.7567 505,-246 507.686,-244.2124 510.4867,-242.3937 513.3167,-240.5878"/>
<polygon fill="#000000" stroke="#000000" points="515.2029,-243.5363 521.8093,-235.2533 511.4795,-237.6087 515.2029,-243.5363"/>
</g>
<!-- 蒲(邻秦) -->
<g id="node33" class="node">
<title>蒲(邻秦)</title>
<text text-anchor="middle" x="549" y="-431.3" font-family="Times,serif" font-size="14.00" fill="#000000">蒲(邻秦)</text>
</g>
<!-- 文公重耳&#45;&gt;蒲(邻秦) -->
<g id="edge29" class="edge">
<title>文公重耳&#45;&gt;蒲(邻秦)</title>
<path fill="none" stroke="#000000" d="M423.3955,-476.6113C447.7075,-468.557 479.5126,-458.0204 505.0345,-449.5653"/>
<polygon fill="#000000" stroke="#000000" points="506.4418,-452.7862 514.8337,-446.3189 504.2404,-446.1413 506.4418,-452.7862"/>
</g>
<!-- 襄公欢 -->
<g id="node34" class="node">
<title>襄公欢</title>
<text text-anchor="middle" x="549" y="-485.3" font-family="Times,serif" font-size="14.00" fill="#000000">襄公欢</text>
</g>
<!-- 文公重耳&#45;&gt;襄公欢 -->
<g id="edge30" class="edge">
<title>文公重耳&#45;&gt;襄公欢</title>
<path fill="none" stroke="#000000" d="M423.3955,-489C449.0043,-489 482.9268,-489 509.0627,-489"/>
<polygon fill="#000000" stroke="#000000" points="509.3801,-492.5001 519.38,-489 509.38,-485.5001 509.3801,-492.5001"/>
</g>
<!-- 屈(邻翟) -->
<g id="node35" class="node">
<title>屈(邻翟)</title>
<text text-anchor="middle" x="549" y="-323.3" font-family="Times,serif" font-size="14.00" fill="#000000">屈(邻翟)</text>
</g>
<!-- 惠公夷吾&#45;&gt;屈(邻翟) -->
<g id="edge31" class="edge">
<title>惠公夷吾&#45;&gt;屈(邻翟)</title>
<path fill="none" stroke="#000000" d="M416.0095,-416.9935C420.7281,-414.0452 425.5233,-410.9793 430,-408 464.1942,-385.2433 470.8058,-376.7567 505,-354 506.6788,-352.8828 508.4023,-351.7533 510.1498,-350.6225"/>
<polygon fill="#000000" stroke="#000000" points="512.4263,-353.3229 518.9905,-345.0065 508.6729,-347.4143 512.4263,-353.3229"/>
</g>
<!-- 怀公圉 -->
<g id="node36" class="node">
<title>怀公圉</title>
<text text-anchor="middle" x="549" y="-377.3" font-family="Times,serif" font-size="14.00" fill="#000000">怀公圉</text>
</g>
<!-- 惠公夷吾&#45;&gt;怀公圉 -->
<g id="edge32" class="edge">
<title>惠公夷吾&#45;&gt;怀公圉</title>
<path fill="none" stroke="#000000" d="M423.3955,-422.6113C449.2319,-414.052 483.5305,-402.6893 509.7578,-394.0005"/>
<polygon fill="#000000" stroke="#000000" points="510.9881,-397.28 519.38,-390.8127 508.7867,-390.6352 510.9881,-397.28"/>
</g>
<!-- 翟之狐氏 -->
<g id="node32" class="node">
<title>翟之狐氏</title>
<text text-anchor="middle" x="230" y="-431.3" font-family="Times,serif" font-size="14.00" fill="#000000">翟之狐氏</text>
</g>
<!-- 翟之狐氏&#45;&gt;文公重耳 -->
<g id="edge28" class="edge">
<title>翟之狐氏&#45;&gt;文公重耳</title>
<path fill="none" stroke="#000000" d="M267.2342,-448.6769C273.1682,-450.817 279.2462,-452.9857 285,-455 302.663,-461.1834 322.1357,-467.7884 339.2306,-473.5165"/>
<polygon fill="#000000" stroke="#000000" points="338.3956,-476.9277 348.9894,-476.778 340.6145,-470.2887 338.3956,-476.9277"/>
</g>
<!-- 灵公夷皋 -->
<g id="node53" class="node">
<title>灵公夷皋</title>
<text text-anchor="middle" x="733" y="-485.3" font-family="Times,serif" font-size="14.00" fill="#000000">灵公夷皋</text>
</g>
<!-- 襄公欢&#45;&gt;灵公夷皋 -->
<g id="edge47" class="edge">
<title>襄公欢&#45;&gt;灵公夷皋</title>
<path fill="none" stroke="#000000" d="M578.5628,-489C607.4706,-489 651.9507,-489 685.7638,-489"/>
<polygon fill="#000000" stroke="#000000" points="685.886,-492.5001 695.886,-489 685.8859,-485.5001 685.886,-492.5001"/>
</g>
<!-- 齐桓公 -->
<g id="node37" class="node">
<title>齐桓公</title>
<text text-anchor="middle" x="53" y="-269.3" font-family="Times,serif" font-size="14.00" fill="#000000">齐桓公</text>
</g>
<!-- 齐姜 -->
<g id="node38" class="node">
<title>齐姜</title>
<text text-anchor="middle" x="230" y="-269.3" font-family="Times,serif" font-size="14.00" fill="#000000">齐姜</text>
</g>
<!-- 齐桓公&#45;&gt;齐姜 -->
<g id="edge33" class="edge">
<title>齐桓公&#45;&gt;齐姜</title>
<path fill="none" stroke="#000000" d="M82.6258,-273C112.9075,-273 160.0194,-273 192.7956,-273"/>
<polygon fill="#000000" stroke="#000000" points="192.894,-276.5001 202.8939,-273 192.8939,-269.5001 192.894,-276.5001"/>
<text text-anchor="middle" x="141.5" y="-276.8" font-family="Times,serif" font-size="14.00" fill="#000000">女儿</text>
</g>
<!-- 齐姜&#45;&gt;太子申生 -->
<g id="edge34" class="edge">
<title>齐姜&#45;&gt;太子申生</title>
<path fill="none" stroke="#000000" d="M257.1731,-282.4061C279.7975,-290.2376 312.527,-301.567 339.3341,-310.8464"/>
<polygon fill="#000000" stroke="#000000" points="338.318,-314.1984 348.9127,-314.1621 340.6078,-307.5835 338.318,-314.1984"/>
</g>
<!-- 秦穆公夫人 -->
<g id="node39" class="node">
<title>秦穆公夫人</title>
<text text-anchor="middle" x="386" y="-269.3" font-family="Times,serif" font-size="14.00" fill="#000000">秦穆公夫人</text>
</g>
<!-- 齐姜&#45;&gt;秦穆公夫人 -->
<g id="edge35" class="edge">
<title>齐姜&#45;&gt;秦穆公夫人</title>
<path fill="none" stroke="#000000" d="M257.1731,-273C277.6585,-273 306.4284,-273 331.5852,-273"/>
<polygon fill="#000000" stroke="#000000" points="331.7465,-276.5001 341.7465,-273 331.7465,-269.5001 331.7465,-276.5001"/>
</g>
<!-- 骊姬 -->
<g id="node40" class="node">
<title>骊姬</title>
<text text-anchor="middle" x="230" y="-323.3" font-family="Times,serif" font-size="14.00" fill="#000000">骊姬</text>
</g>
<!-- 骊姬&#45;&gt;奚齐 -->
<g id="edge37" class="edge">
<title>骊姬&#45;&gt;奚齐</title>
<path fill="none" stroke="#000000" d="M257.1731,-336.4061C282.7079,-345.2451 321.1148,-358.5397 349.3513,-368.3139"/>
<polygon fill="#000000" stroke="#000000" points="348.2822,-371.6476 358.877,-371.6113 350.572,-365.0326 348.2822,-371.6476"/>
</g>
<!-- (弟)悼子 -->
<g id="node42" class="node">
<title>(弟)悼子</title>
<text text-anchor="middle" x="549" y="-269.3" font-family="Times,serif" font-size="14.00" fill="#000000">(弟)悼子</text>
</g>
<!-- 奚齐&#45;&gt;(弟)悼子 -->
<g id="edge38" class="edge">
<title>奚齐&#45;&gt;(弟)悼子</title>
<path fill="none" stroke="#000000" d="M413.1907,-364.7467C418.7972,-361.275 424.628,-357.5752 430,-354 464.1942,-331.2433 470.8058,-322.7567 505,-300 506.6788,-298.8828 508.4023,-297.7533 510.1498,-296.6225"/>
<polygon fill="#000000" stroke="#000000" points="512.4263,-299.3229 518.9905,-291.0065 508.6729,-293.4143 512.4263,-299.3229"/>
</g>
<!-- 重耳 -->
<g id="node43" class="node">
<title>重耳</title>
<text text-anchor="middle" x="53" y="-215.3" font-family="Times,serif" font-size="14.00" fill="#000000">重耳</text>
</g>
<!-- 屈 -->
<g id="node44" class="node">
<title>屈</title>
<text text-anchor="middle" x="230" y="-215.3" font-family="Times,serif" font-size="14.00" fill="#000000">屈</text>
</g>
<!-- 重耳&#45;&gt;屈 -->
<g id="edge39" class="edge">
<title>重耳&#45;&gt;屈</title>
<path fill="none" stroke="#000000" d="M80.2683,-219C110.3692,-219 159.0065,-219 192.6406,-219"/>
<polygon fill="#000000" stroke="#000000" points="192.9912,-222.5001 202.9911,-219 192.9911,-215.5001 192.9912,-222.5001"/>
</g>
<!-- 狄 -->
<g id="node45" class="node">
<title>狄</title>
<text text-anchor="middle" x="386" y="-215.3" font-family="Times,serif" font-size="14.00" fill="#000000">狄</text>
</g>
<!-- 屈&#45;&gt;狄 -->
<g id="edge40" class="edge">
<title>屈&#45;&gt;狄</title>
<path fill="none" stroke="#000000" d="M257.1731,-219C282.4849,-219 320.4449,-219 348.6092,-219"/>
<polygon fill="#000000" stroke="#000000" points="348.877,-222.5001 358.877,-219 348.877,-215.5001 348.877,-222.5001"/>
</g>
<!-- 齐 -->
<g id="node46" class="node">
<title>齐</title>
<text text-anchor="middle" x="549" y="-161.3" font-family="Times,serif" font-size="14.00" fill="#000000">齐</text>
</g>
<!-- 狄&#45;&gt;齐 -->
<g id="edge41" class="edge">
<title>狄&#45;&gt;齐</title>
<path fill="none" stroke="#000000" d="M413.2825,-209.9616C440.3969,-200.9789 482.164,-187.142 512.2014,-177.191"/>
<polygon fill="#000000" stroke="#000000" points="513.5082,-180.4452 521.9002,-173.9779 511.3068,-173.8003 513.5082,-180.4452"/>
</g>
<!-- 曹 -->
<g id="node47" class="node">
<title>曹</title>
<text text-anchor="middle" x="733" y="-161.3" font-family="Times,serif" font-size="14.00" fill="#000000">曹</text>
</g>
<!-- 齐&#45;&gt;曹 -->
<g id="edge42" class="edge">
<title>齐&#45;&gt;曹</title>
<path fill="none" stroke="#000000" d="M576.1498,-165C607.6767,-165 659.8759,-165 695.3187,-165"/>
<polygon fill="#000000" stroke="#000000" points="695.7388,-168.5001 705.7388,-165 695.7387,-161.5001 695.7388,-168.5001"/>
</g>
<!-- 宋 -->
<g id="node48" class="node">
<title>宋</title>
<text text-anchor="middle" x="882" y="-161.3" font-family="Times,serif" font-size="14.00" fill="#000000">宋</text>
</g>
<!-- 曹&#45;&gt;宋 -->
<g id="edge43" class="edge">
<title>曹&#45;&gt;宋</title>
<path fill="none" stroke="#000000" d="M760.3289,-165C783.9578,-165 818.3413,-165 844.534,-165"/>
<polygon fill="#000000" stroke="#000000" points="844.8444,-168.5001 854.8444,-165 844.8443,-161.5001 844.8444,-168.5001"/>
</g>
<!-- 郑 -->
<g id="node49" class="node">
<title>郑</title>
<text text-anchor="middle" x="1059" y="-161.3" font-family="Times,serif" font-size="14.00" fill="#000000">郑</text>
</g>
<!-- 宋&#45;&gt;郑 -->
<g id="edge44" class="edge">
<title>宋&#45;&gt;郑</title>
<path fill="none" stroke="#000000" d="M909.2683,-165C939.3692,-165 988.0065,-165 1021.6406,-165"/>
<polygon fill="#000000" stroke="#000000" points="1021.9912,-168.5001 1031.9911,-165 1021.9911,-161.5001 1021.9912,-168.5001"/>
</g>
<!-- 郑国 -->
<g id="node50" class="node">
<title>郑国</title>
<text text-anchor="middle" x="53" y="-161.3" font-family="Times,serif" font-size="14.00" fill="#000000">郑国</text>
</g>
<!-- 楚 -->
<g id="node51" class="node">
<title>楚</title>
<text text-anchor="middle" x="230" y="-161.3" font-family="Times,serif" font-size="14.00" fill="#000000">楚</text>
</g>
<!-- 郑国&#45;&gt;楚 -->
<g id="edge45" class="edge">
<title>郑国&#45;&gt;楚</title>
<path fill="none" stroke="#000000" d="M80.2683,-165C110.3692,-165 159.0065,-165 192.6406,-165"/>
<polygon fill="#000000" stroke="#000000" points="192.9912,-168.5001 202.9911,-165 192.9911,-161.5001 192.9912,-168.5001"/>
</g>
<!-- 秦 -->
<g id="node52" class="node">
<title>秦</title>
<text text-anchor="middle" x="386" y="-161.3" font-family="Times,serif" font-size="14.00" fill="#000000">秦</text>
</g>
<!-- 楚&#45;&gt;秦 -->
<g id="edge46" class="edge">
<title>楚&#45;&gt;秦</title>
<path fill="none" stroke="#000000" d="M257.1731,-165C282.4849,-165 320.4449,-165 348.6092,-165"/>
<polygon fill="#000000" stroke="#000000" points="348.877,-168.5001 358.877,-165 348.877,-161.5001 348.877,-168.5001"/>
</g>
<!-- 成公黑臀 -->
<g id="node54" class="node">
<title>成公黑臀</title>
<text text-anchor="middle" x="882" y="-485.3" font-family="Times,serif" font-size="14.00" fill="#000000">成公黑臀</text>
</g>
<!-- 灵公夷皋&#45;&gt;成公黑臀 -->
<g id="edge48" class="edge">
<title>灵公夷皋&#45;&gt;成公黑臀</title>
<path fill="none" stroke="#000000" d="M770.2146,-489C789.6816,-489 813.7249,-489 834.5196,-489"/>
<polygon fill="#000000" stroke="#000000" points="834.7434,-492.5001 844.7434,-489 834.7433,-485.5001 834.7434,-492.5001"/>
</g>
<!-- 景公据 -->
<g id="node55" class="node">
<title>景公据</title>
<text text-anchor="middle" x="1059" y="-485.3" font-family="Times,serif" font-size="14.00" fill="#000000">景公据</text>
</g>
<!-- 成公黑臀&#45;&gt;景公据 -->
<g id="edge49" class="edge">
<title>成公黑臀&#45;&gt;景公据</title>
<path fill="none" stroke="#000000" d="M919.105,-489C948.3946,-489 989.1776,-489 1019.1545,-489"/>
<polygon fill="#000000" stroke="#000000" points="1019.2705,-492.5001 1029.2705,-489 1019.2705,-485.5001 1019.2705,-492.5001"/>
</g>
<!-- 晋景公 -->
<g id="node56" class="node">
<title>晋景公</title>
<text text-anchor="middle" x="53" y="-107.3" font-family="Times,serif" font-size="14.00" fill="#000000">晋景公</text>
</g>
<!-- 厉公寿曼 -->
<g id="node57" class="node">
<title>厉公寿曼</title>
<text text-anchor="middle" x="230" y="-107.3" font-family="Times,serif" font-size="14.00" fill="#000000">厉公寿曼</text>
</g>
<!-- 晋景公&#45;&gt;厉公寿曼 -->
<g id="edge50" class="edge">
<title>晋景公&#45;&gt;厉公寿曼</title>
<path fill="none" stroke="#000000" d="M82.6258,-111C109.8586,-111 150.7031,-111 182.4913,-111"/>
<polygon fill="#000000" stroke="#000000" points="182.8917,-114.5001 192.8916,-111 182.8916,-107.5001 182.8917,-114.5001"/>
</g>
<!-- 悼公周 -->
<g id="node58" class="node">
<title>悼公周</title>
<text text-anchor="middle" x="386" y="-107.3" font-family="Times,serif" font-size="14.00" fill="#000000">悼公周</text>
</g>
<!-- 厉公寿曼&#45;&gt;悼公周 -->
<g id="edge51" class="edge">
<title>厉公寿曼&#45;&gt;悼公周</title>
<path fill="none" stroke="#000000" d="M267.3659,-111C291.1573,-111 321.9464,-111 346.1959,-111"/>
<polygon fill="#000000" stroke="#000000" points="346.4879,-114.5001 356.4878,-111 346.4878,-107.5001 346.4879,-114.5001"/>
</g>
<!-- 平公彪 -->
<g id="node59" class="node">
<title>平公彪</title>
<text text-anchor="middle" x="549" y="-107.3" font-family="Times,serif" font-size="14.00" fill="#000000">平公彪</text>
</g>
<!-- 悼公周&#45;&gt;平公彪 -->
<g id="edge52" class="edge">
<title>悼公周&#45;&gt;平公彪</title>
<path fill="none" stroke="#000000" d="M415.5181,-111C441.7464,-111 480.3021,-111 509.2407,-111"/>
<polygon fill="#000000" stroke="#000000" points="509.4266,-114.5001 519.4266,-111 509.4265,-107.5001 509.4266,-114.5001"/>
</g>
<!-- 昭公夷 -->
<g id="node60" class="node">
<title>昭公夷</title>
<text text-anchor="middle" x="733" y="-107.3" font-family="Times,serif" font-size="14.00" fill="#000000">昭公夷</text>
</g>
<!-- 平公彪&#45;&gt;昭公夷 -->
<g id="edge53" class="edge">
<title>平公彪&#45;&gt;昭公夷</title>
<path fill="none" stroke="#000000" d="M578.5628,-111C609.5881,-111 658.5504,-111 693.012,-111"/>
<polygon fill="#000000" stroke="#000000" points="693.2056,-114.5001 703.2055,-111 693.2055,-107.5001 693.2056,-114.5001"/>
</g>
<!-- 顷公去疾 -->
<g id="node61" class="node">
<title>顷公去疾</title>
<text text-anchor="middle" x="882" y="-107.3" font-family="Times,serif" font-size="14.00" fill="#000000">顷公去疾</text>
</g>
<!-- 昭公夷&#45;&gt;顷公去疾 -->
<g id="edge54" class="edge">
<title>昭公夷&#45;&gt;顷公去疾</title>
<path fill="none" stroke="#000000" d="M762.7943,-111C783.3602,-111 811.1389,-111 834.7066,-111"/>
<polygon fill="#000000" stroke="#000000" points="834.8558,-114.5001 844.8558,-111 834.8558,-107.5001 834.8558,-114.5001"/>
</g>
<!-- 定公午 -->
<g id="node62" class="node">
<title>定公午</title>
<text text-anchor="middle" x="1059" y="-107.3" font-family="Times,serif" font-size="14.00" fill="#000000">定公午</text>
</g>
<!-- 顷公去疾&#45;&gt;定公午 -->
<g id="edge55" class="edge">
<title>顷公去疾&#45;&gt;定公午</title>
<path fill="none" stroke="#000000" d="M919.105,-111C948.3946,-111 989.1776,-111 1019.1545,-111"/>
<polygon fill="#000000" stroke="#000000" points="1019.2705,-114.5001 1029.2705,-111 1019.2705,-107.5001 1019.2705,-114.5001"/>
</g>
<!-- 晋定公 -->
<g id="node63" class="node">
<title>晋定公</title>
<text text-anchor="middle" x="53" y="-53.3" font-family="Times,serif" font-size="14.00" fill="#000000">晋定公</text>
</g>
<!-- 出公凿 -->
<g id="node64" class="node">
<title>出公凿</title>
<text text-anchor="middle" x="230" y="-53.3" font-family="Times,serif" font-size="14.00" fill="#000000">出公凿</text>
</g>
<!-- 晋定公&#45;&gt;出公凿 -->
<g id="edge56" class="edge">
<title>晋定公&#45;&gt;出公凿</title>
<path fill="none" stroke="#000000" d="M82.6258,-57C112.1083,-57 157.5443,-57 190.171,-57"/>
<polygon fill="#000000" stroke="#000000" points="190.2776,-60.5001 200.2775,-57 190.2775,-53.5001 190.2776,-60.5001"/>
</g>
<!-- 哀公骄 -->
<g id="node65" class="node">
<title>哀公骄</title>
<text text-anchor="middle" x="386" y="-53.3" font-family="Times,serif" font-size="14.00" fill="#000000">哀公骄</text>
</g>
<!-- 出公凿&#45;&gt;哀公骄 -->
<g id="edge57" class="edge">
<title>出公凿&#45;&gt;哀公骄</title>
<path fill="none" stroke="#000000" d="M259.7096,-57C284.215,-57 319.2045,-57 346.1425,-57"/>
<polygon fill="#000000" stroke="#000000" points="346.401,-60.5001 356.401,-57 346.401,-53.5001 346.401,-60.5001"/>
</g>
<!-- 幽公柳 -->
<g id="node66" class="node">
<title>幽公柳</title>
<text text-anchor="middle" x="549" y="-53.3" font-family="Times,serif" font-size="14.00" fill="#000000">幽公柳</text>
</g>
<!-- 哀公骄&#45;&gt;幽公柳 -->
<g id="edge58" class="edge">
<title>哀公骄&#45;&gt;幽公柳</title>
<path fill="none" stroke="#000000" d="M415.5181,-57C441.7464,-57 480.3021,-57 509.2407,-57"/>
<polygon fill="#000000" stroke="#000000" points="509.4266,-60.5001 519.4266,-57 509.4265,-53.5001 509.4266,-60.5001"/>
</g>
<!-- 烈公止 -->
<g id="node67" class="node">
<title>烈公止</title>
<text text-anchor="middle" x="733" y="-53.3" font-family="Times,serif" font-size="14.00" fill="#000000">烈公止</text>
</g>
<!-- 幽公柳&#45;&gt;烈公止 -->
<g id="edge59" class="edge">
<title>幽公柳&#45;&gt;烈公止</title>
<path fill="none" stroke="#000000" d="M578.5628,-57C609.5881,-57 658.5504,-57 693.012,-57"/>
<polygon fill="#000000" stroke="#000000" points="693.2056,-60.5001 703.2055,-57 693.2055,-53.5001 693.2056,-60.5001"/>
</g>
<!-- 孝公颀 -->
<g id="node68" class="node">
<title>孝公颀</title>
<text text-anchor="middle" x="882" y="-53.3" font-family="Times,serif" font-size="14.00" fill="#000000">孝公颀</text>
</g>
<!-- 烈公止&#45;&gt;孝公颀 -->
<g id="edge60" class="edge">
<title>烈公止&#45;&gt;孝公颀</title>
<path fill="none" stroke="#000000" d="M762.7943,-57C785.5331,-57 817.0894,-57 842.0223,-57"/>
<polygon fill="#000000" stroke="#000000" points="842.2574,-60.5001 852.2574,-57 842.2573,-53.5001 842.2574,-60.5001"/>
</g>
<!-- 静公俱酒 -->
<g id="node69" class="node">
<title>静公俱酒</title>
<text text-anchor="middle" x="1059" y="-53.3" font-family="Times,serif" font-size="14.00" fill="#000000">静公俱酒</text>
</g>
<!-- 孝公颀&#45;&gt;静公俱酒 -->
<g id="edge61" class="edge">
<title>孝公颀&#45;&gt;静公俱酒</title>
<path fill="none" stroke="#000000" d="M911.6258,-57C938.8586,-57 979.7031,-57 1011.4913,-57"/>
<polygon fill="#000000" stroke="#000000" points="1011.8917,-60.5001 1021.8916,-57 1011.8916,-53.5001 1011.8917,-60.5001"/>
</g>
</g>
</svg>
