<?xml version="1.0" encoding="UTF-8" standalone="no"?>
<!DOCTYPE svg PUBLIC "-//W3C//DTD SVG 1.1//EN"
 "http://www.w3.org/Graphics/SVG/1.1/DTD/svg11.dtd">
<!-- Generated by graphviz version 2.40.1 (20161225.0304)
 -->
<!-- Title: asd Pages: 1 -->
<svg width="617pt" height="685pt"
 viewBox="0.00 0.00 617.35 685.00" xmlns="http://www.w3.org/2000/svg" xmlns:xlink="http://www.w3.org/1999/xlink">
<g id="graph0" class="graph" transform="scale(1 1) rotate(0) translate(4 681)">
<title>asd</title>
<polygon fill="#f5deb3" stroke="transparent" points="-4,4 -4,-681 613.3466,-681 613.3466,4 -4,4"/>
<text text-anchor="middle" x="304.6733" y="-7.8" font-family="Times,serif" font-size="14.00" fill="#000000">类似物质能量循环的社会循环</text>
<g id="clust2" class="cluster">
<title>cluster_2</title>
<polygon fill="#f5deb3" stroke="#000000" points="276.3466,-31 276.3466,-669 448.3466,-669 448.3466,-31 276.3466,-31"/>
<text text-anchor="middle" x="362.3466" y="-653.8" font-family="Times,serif" font-size="14.00" fill="#000000">社会货币循环</text>
</g>
<g id="clust3" class="cluster">
<title>cluster_1</title>
<polygon fill="#f5deb3" stroke="#000000" points="456.3466,-31 456.3466,-669 598.3466,-669 598.3466,-31 456.3466,-31"/>
<text text-anchor="middle" x="527.3466" y="-653.8" font-family="Times,serif" font-size="14.00" fill="#000000">物质能量循环</text>
</g>
<!-- 没有人的自然界是可持续的 -->
<g id="node1" class="node">
<title>没有人的自然界是可持续的</title>
<ellipse fill="none" stroke="#000000" cx="133.3466" cy="-620" rx="122.3786" ry="18"/>
<text text-anchor="middle" x="133.3466" y="-616.3" font-family="Times,serif" font-size="14.00" fill="#000000">没有人的自然界是可持续的</text>
</g>
<!-- 可向一切可流动对象上套 -->
<g id="node2" class="node">
<title>可向一切可流动对象上套</title>
<ellipse fill="none" stroke="#000000" cx="133.3466" cy="-547" rx="112.3801" ry="18"/>
<text text-anchor="middle" x="133.3466" y="-543.3" font-family="Times,serif" font-size="14.00" fill="#000000">可向一切可流动对象上套</text>
</g>
<!-- 没有人的自然界是可持续的&#45;&gt;可向一切可流动对象上套 -->
<g id="edge1" class="edge">
<title>没有人的自然界是可持续的&#45;&gt;可向一切可流动对象上套</title>
<path fill="none" stroke="#000000" d="M133.3466,-601.9551C133.3466,-593.8828 133.3466,-584.1764 133.3466,-575.1817"/>
<polygon fill="#000000" stroke="#000000" points="136.8467,-575.0903 133.3466,-565.0904 129.8467,-575.0904 136.8467,-575.0903"/>
</g>
<!-- 循环外部持续输出 -->
<g id="node3" class="node">
<title>循环外部持续输出</title>
<ellipse fill="none" stroke="#000000" cx="133.3466" cy="-474" rx="85.2851" ry="18"/>
<text text-anchor="middle" x="133.3466" y="-470.3" font-family="Times,serif" font-size="14.00" fill="#000000">循环外部持续输出</text>
</g>
<!-- 可向一切可流动对象上套&#45;&gt;循环外部持续输出 -->
<g id="edge2" class="edge">
<title>可向一切可流动对象上套&#45;&gt;循环外部持续输出</title>
<path fill="none" stroke="#000000" d="M133.3466,-528.9551C133.3466,-520.8828 133.3466,-511.1764 133.3466,-502.1817"/>
<polygon fill="#000000" stroke="#000000" points="136.8467,-502.0903 133.3466,-492.0904 129.8467,-502.0904 136.8467,-502.0903"/>
</g>
<!-- 循环内部守恒 -->
<g id="node4" class="node">
<title>循环内部守恒</title>
<ellipse fill="none" stroke="#000000" cx="133.3466" cy="-401" rx="66.0889" ry="18"/>
<text text-anchor="middle" x="133.3466" y="-397.3" font-family="Times,serif" font-size="14.00" fill="#000000">循环内部守恒</text>
</g>
<!-- 循环外部持续输出&#45;&gt;循环内部守恒 -->
<g id="edge3" class="edge">
<title>循环外部持续输出&#45;&gt;循环内部守恒</title>
<path fill="none" stroke="#000000" d="M133.3466,-455.9551C133.3466,-447.8828 133.3466,-438.1764 133.3466,-429.1817"/>
<polygon fill="#000000" stroke="#000000" points="136.8467,-429.0903 133.3466,-419.0904 129.8467,-429.0904 136.8467,-429.0903"/>
</g>
<!-- 循环中断 -->
<g id="node5" class="node">
<title>循环中断</title>
<ellipse fill="none" stroke="#000000" cx="133.3466" cy="-328" rx="48.1917" ry="18"/>
<text text-anchor="middle" x="133.3466" y="-324.3" font-family="Times,serif" font-size="14.00" fill="#000000">循环中断</text>
</g>
<!-- 循环内部守恒&#45;&gt;循环中断 -->
<g id="edge4" class="edge">
<title>循环内部守恒&#45;&gt;循环中断</title>
<path fill="none" stroke="#000000" d="M133.3466,-382.9551C133.3466,-374.8828 133.3466,-365.1764 133.3466,-356.1817"/>
<polygon fill="#000000" stroke="#000000" points="136.8467,-356.0903 133.3466,-346.0904 129.8467,-356.0904 136.8467,-356.0903"/>
</g>
<!-- 缺资本 -->
<g id="node6" class="node">
<title>缺资本</title>
<ellipse fill="none" stroke="#000000" cx="38.3466" cy="-255" rx="38.1938" ry="18"/>
<text text-anchor="middle" x="38.3466" y="-251.3" font-family="Times,serif" font-size="14.00" fill="#000000">缺资本</text>
</g>
<!-- 循环中断&#45;&gt;缺资本 -->
<g id="edge5" class="edge">
<title>循环中断&#45;&gt;缺资本</title>
<path fill="none" stroke="#000000" d="M112.263,-311.7989C98.8286,-301.4756 81.2604,-287.9759 66.6223,-276.7277"/>
<polygon fill="#000000" stroke="#000000" points="68.4576,-273.724 58.3957,-270.4061 64.1925,-279.2745 68.4576,-273.724"/>
</g>
<!-- 缺资源 -->
<g id="node7" class="node">
<title>缺资源</title>
<ellipse fill="none" stroke="#000000" cx="133.3466" cy="-255" rx="38.1938" ry="18"/>
<text text-anchor="middle" x="133.3466" y="-251.3" font-family="Times,serif" font-size="14.00" fill="#000000">缺资源</text>
</g>
<!-- 循环中断&#45;&gt;缺资源 -->
<g id="edge6" class="edge">
<title>循环中断&#45;&gt;缺资源</title>
<path fill="none" stroke="#000000" d="M133.3466,-309.9551C133.3466,-301.8828 133.3466,-292.1764 133.3466,-283.1817"/>
<polygon fill="#000000" stroke="#000000" points="136.8467,-283.0903 133.3466,-273.0904 129.8467,-283.0904 136.8467,-283.0903"/>
</g>
<!-- 缺人 -->
<g id="node8" class="node">
<title>缺人</title>
<ellipse fill="none" stroke="#000000" cx="219.3466" cy="-255" rx="29.4969" ry="18"/>
<text text-anchor="middle" x="219.3466" y="-251.3" font-family="Times,serif" font-size="14.00" fill="#000000">缺人</text>
</g>
<!-- 循环中断&#45;&gt;缺人 -->
<g id="edge7" class="edge">
<title>循环中断&#45;&gt;缺人</title>
<path fill="none" stroke="#000000" d="M152.8613,-311.4352C165.0913,-301.0539 180.9775,-287.5692 194.1541,-276.3844"/>
<polygon fill="#000000" stroke="#000000" points="196.5925,-278.9055 201.9513,-269.7658 192.0625,-273.5688 196.5925,-278.9055"/>
</g>
<!-- 过剩 -->
<g id="node9" class="node">
<title>过剩</title>
<ellipse fill="none" stroke="#000000" cx="38.3466" cy="-182" rx="29.4969" ry="18"/>
<text text-anchor="middle" x="38.3466" y="-178.3" font-family="Times,serif" font-size="14.00" fill="#000000">过剩</text>
</g>
<!-- 缺资本&#45;&gt;过剩 -->
<g id="edge8" class="edge">
<title>缺资本&#45;&gt;过剩</title>
<path fill="none" stroke="#000000" d="M38.3466,-236.9551C38.3466,-228.8828 38.3466,-219.1764 38.3466,-210.1817"/>
<polygon fill="#000000" stroke="#000000" points="41.8467,-210.0903 38.3466,-200.0904 34.8467,-210.0904 41.8467,-210.0903"/>
</g>
<!-- 教育错位 -->
<g id="node10" class="node">
<title>教育错位</title>
<ellipse fill="none" stroke="#000000" cx="219.3466" cy="-182" rx="48.1917" ry="18"/>
<text text-anchor="middle" x="219.3466" y="-178.3" font-family="Times,serif" font-size="14.00" fill="#000000">教育错位</text>
</g>
<!-- 缺人&#45;&gt;教育错位 -->
<g id="edge9" class="edge">
<title>缺人&#45;&gt;教育错位</title>
<path fill="none" stroke="#000000" d="M219.3466,-236.9551C219.3466,-228.8828 219.3466,-219.1764 219.3466,-210.1817"/>
<polygon fill="#000000" stroke="#000000" points="222.8467,-210.0903 219.3466,-200.0904 215.8467,-210.0904 222.8467,-210.0903"/>
</g>
<!-- 国家 -->
<g id="node11" class="node">
<title>国家</title>
<text text-anchor="middle" x="382.3466" y="-616.3" font-family="Times,serif" font-size="14.00" fill="#000000">国家</text>
</g>
<!-- 货币 -->
<g id="node12" class="node">
<title>货币</title>
<text text-anchor="middle" x="413.3466" y="-470.3" font-family="Times,serif" font-size="14.00" fill="#000000">货币</text>
</g>
<!-- 国家&#45;&gt;货币 -->
<g id="edge10" class="edge">
<title>国家&#45;&gt;货币</title>
<path fill="none" stroke="#000000" d="M383.6717,-601.6756C385.2649,-583.1576 388.4876,-553.8143 394.3466,-529 396.4823,-519.9546 399.5369,-510.3073 402.574,-501.6589"/>
<polygon fill="#000000" stroke="#000000" points="405.9361,-502.6552 406.0752,-492.0613 399.36,-500.2562 405.9361,-502.6552"/>
<text text-anchor="middle" x="423.3466" y="-543.3" font-family="Times,serif" font-size="14.00" fill="#000000">通过央行</text>
</g>
<!-- 产品 -->
<g id="node15" class="node">
<title>产品</title>
<text text-anchor="middle" x="328.3466" y="-324.3" font-family="Times,serif" font-size="14.00" fill="#000000">产品</text>
</g>
<!-- 货币&#45;&gt;产品 -->
<g id="edge13" class="edge">
<title>货币&#45;&gt;产品</title>
<path fill="none" stroke="#000000" d="M402.7532,-455.8042C388.0556,-430.5589 361.3606,-384.7063 344.2609,-355.3351"/>
<polygon fill="#000000" stroke="#000000" points="347.1297,-353.3062 339.0735,-346.4251 341.0802,-356.8282 347.1297,-353.3062"/>
</g>
<!-- 资源 -->
<g id="node13" class="node">
<title>资源</title>
<text text-anchor="middle" x="319.3466" y="-53.3" font-family="Times,serif" font-size="14.00" fill="#000000">资源</text>
</g>
<!-- 资源&#45;&gt;产品 -->
<g id="edge11" class="edge">
<title>资源&#45;&gt;产品</title>
<path fill="none" stroke="#000000" d="M303.8129,-75.1178C295.2537,-86.9484 286.3466,-103.1805 286.3466,-119.5 286.3466,-255 286.3466,-255 286.3466,-255 286.3466,-272.0318 295.0423,-288.678 304.5203,-301.7633"/>
<polygon fill="#000000" stroke="#000000" points="301.8785,-304.0677 310.7782,-309.8162 307.4058,-299.7725 301.8785,-304.0677"/>
</g>
<!-- 人(劳动力) -->
<g id="node14" class="node">
<title>人(劳动力)</title>
<text text-anchor="middle" x="326.3466" y="-470.3" font-family="Times,serif" font-size="14.00" fill="#000000">人(劳动力)</text>
</g>
<!-- 人(劳动力)&#45;&gt;产品 -->
<g id="edge12" class="edge">
<title>人(劳动力)&#45;&gt;产品</title>
<path fill="none" stroke="#000000" d="M326.5959,-455.8042C326.9372,-430.8868 327.5535,-385.8938 327.9564,-356.4877"/>
<polygon fill="#000000" stroke="#000000" points="331.4568,-356.4721 328.0942,-346.4251 324.4575,-356.3762 331.4568,-356.4721"/>
</g>
<!-- 商品 -->
<g id="node16" class="node">
<title>商品</title>
<text text-anchor="middle" x="332.3466" y="-178.3" font-family="Times,serif" font-size="14.00" fill="#000000">商品</text>
</g>
<!-- 产品&#45;&gt;商品 -->
<g id="edge15" class="edge">
<title>产品&#45;&gt;商品</title>
<path fill="none" stroke="#000000" d="M328.8451,-309.8042C329.5278,-284.8868 330.7605,-239.8938 331.5661,-210.4877"/>
<polygon fill="#000000" stroke="#000000" points="335.0665,-210.5172 331.8418,-200.4251 328.0691,-210.3255 335.0665,-210.5172"/>
<text text-anchor="middle" x="359.3466" y="-251.3" font-family="Times,serif" font-size="14.00" fill="#000000">进入市场</text>
</g>
<!-- 商品&#45;&gt;资源 -->
<g id="edge14" class="edge">
<title>商品&#45;&gt;资源</title>
<path fill="none" stroke="#000000" d="M330.4563,-163.8239C328.3093,-143.1798 324.7799,-109.2431 322.2757,-85.1648"/>
<polygon fill="#000000" stroke="#000000" points="325.7549,-84.7823 321.2392,-75.198 318.7925,-85.5064 325.7549,-84.7823"/>
<text text-anchor="middle" x="355.3466" y="-115.8" font-family="Times,serif" font-size="14.00" fill="#000000">经过消费</text>
</g>
<!-- 地球 -->
<g id="node17" class="node">
<title>地球</title>
<text text-anchor="middle" x="532.3466" y="-616.3" font-family="Times,serif" font-size="14.00" fill="#000000">地球</text>
</g>
<!-- 能量 -->
<g id="node18" class="node">
<title>能量</title>
<text text-anchor="middle" x="563.3466" y="-470.3" font-family="Times,serif" font-size="14.00" fill="#000000">能量</text>
</g>
<!-- 地球&#45;&gt;能量 -->
<g id="edge16" class="edge">
<title>地球&#45;&gt;能量</title>
<path fill="none" stroke="#000000" d="M536.2101,-601.8042C541.5008,-576.8868 551.0541,-531.8938 557.2978,-502.4877"/>
<polygon fill="#000000" stroke="#000000" points="560.781,-502.934 559.4344,-492.4251 553.9337,-501.4801 560.781,-502.934"/>
<text text-anchor="middle" x="580.3466" y="-543.3" font-family="Times,serif" font-size="14.00" fill="#000000">通过太阳</text>
</g>
<!-- 新物质 -->
<g id="node21" class="node">
<title>新物质</title>
<text text-anchor="middle" x="516.3466" y="-324.3" font-family="Times,serif" font-size="14.00" fill="#000000">新物质</text>
</g>
<!-- 能量&#45;&gt;新物质 -->
<g id="edge19" class="edge">
<title>能量&#45;&gt;新物质</title>
<path fill="none" stroke="#000000" d="M557.489,-455.8042C549.4325,-430.7775 534.8565,-385.4988 525.393,-356.1017"/>
<polygon fill="#000000" stroke="#000000" points="528.674,-354.8715 522.278,-346.4251 522.0107,-357.0166 528.674,-354.8715"/>
</g>
<!-- 土地 -->
<g id="node19" class="node">
<title>土地</title>
<text text-anchor="middle" x="504.3466" y="-53.3" font-family="Times,serif" font-size="14.00" fill="#000000">土地</text>
</g>
<!-- 土地&#45;&gt;新物质 -->
<g id="edge17" class="edge">
<title>土地&#45;&gt;新物质</title>
<path fill="none" stroke="#000000" d="M497.189,-75.0124C492.9289,-87.3346 488.3466,-104.1552 488.3466,-119.5 488.3466,-255 488.3466,-255 488.3466,-255 488.3466,-270.838 494.1632,-287.4034 500.4942,-300.743"/>
<polygon fill="#000000" stroke="#000000" points="497.4639,-302.5054 505.1193,-309.8297 503.7023,-299.33 497.4639,-302.5054"/>
</g>
<!-- 植物 -->
<g id="node20" class="node">
<title>植物</title>
<text text-anchor="middle" x="491.3466" y="-470.3" font-family="Times,serif" font-size="14.00" fill="#000000">植物</text>
</g>
<!-- 植物&#45;&gt;新物质 -->
<g id="edge18" class="edge">
<title>植物&#45;&gt;新物质</title>
<path fill="none" stroke="#000000" d="M494.4623,-455.8042C498.729,-430.8868 506.4333,-385.8938 511.4686,-356.4877"/>
<polygon fill="#000000" stroke="#000000" points="514.9536,-356.8724 513.1916,-346.4251 508.054,-355.6909 514.9536,-356.8724"/>
</g>
<!-- 食物链 -->
<g id="node22" class="node">
<title>食物链</title>
<text text-anchor="middle" x="537.3466" y="-178.3" font-family="Times,serif" font-size="14.00" fill="#000000">食物链</text>
</g>
<!-- 新物质&#45;&gt;食物链 -->
<g id="edge20" class="edge">
<title>新物质&#45;&gt;食物链</title>
<path fill="none" stroke="#000000" d="M518.9638,-309.8042C522.5478,-284.8868 529.0194,-239.8938 533.2491,-210.4877"/>
<polygon fill="#000000" stroke="#000000" points="536.737,-210.8216 534.6964,-200.4251 529.8083,-209.8249 536.737,-210.8216"/>
</g>
<!-- 食物链&#45;&gt;土地 -->
<g id="edge21" class="edge">
<title>食物链&#45;&gt;土地</title>
<path fill="none" stroke="#000000" d="M532.5481,-163.8239C527.0981,-143.1798 518.1388,-109.2431 511.7821,-85.1648"/>
<polygon fill="#000000" stroke="#000000" points="515.0876,-83.9733 509.1509,-75.198 508.3194,-85.7602 515.0876,-83.9733"/>
</g>
</g>
</svg>
