<?xml version="1.0" encoding="UTF-8" standalone="no"?>
<!DOCTYPE svg PUBLIC "-//W3C//DTD SVG 1.1//EN"
 "http://www.w3.org/Graphics/SVG/1.1/DTD/svg11.dtd">
<!-- Generated by graphviz version 2.40.1 (20161225.0304)
 -->
<!-- Title: asd Pages: 1 -->
<svg width="570pt" height="369pt"
 viewBox="0.00 0.00 570.00 369.00" xmlns="http://www.w3.org/2000/svg" xmlns:xlink="http://www.w3.org/1999/xlink">
<g id="graph0" class="graph" transform="scale(1 1) rotate(0) translate(4 365)">
<title>asd</title>
<polygon fill="#f5deb3" stroke="transparent" points="-4,4 -4,-365 566,-365 566,4 -4,4"/>
<g id="clust1" class="cluster">
<title>cluster_2</title>
<polygon fill="#f5deb3" stroke="#000000" points="8,-8 8,-353 554,-353 554,-8 8,-8"/>
<text text-anchor="middle" x="281" y="-337.8" font-family="Times,serif" font-size="14.00" fill="#000000">计划结构</text>
</g>
<!-- 政治经济学批判 -->
<g id="node1" class="node">
<title>政治经济学批判</title>
<text text-anchor="middle" x="74" y="-165.3" font-family="Times,serif" font-size="14.00" fill="#000000">政治经济学批判</text>
</g>
<!-- 《世界市场》 -->
<g id="node2" class="node">
<title>《世界市场》</title>
<text text-anchor="middle" x="219" y="-30.3" font-family="Times,serif" font-size="14.00" fill="#000000">《世界市场》</text>
</g>
<!-- 政治经济学批判&#45;&gt;《世界市场》 -->
<g id="edge1" class="edge">
<title>政治经济学批判&#45;&gt;《世界市场》</title>
<path fill="none" stroke="#000000" d="M86.6127,-150.7326C103.2282,-127.6539 134.3131,-87.7295 168,-61 169.3759,-59.9083 170.8024,-58.8395 172.2664,-57.7956"/>
<polygon fill="#000000" stroke="#000000" points="174.5146,-60.5072 180.9656,-52.1027 170.6815,-54.6499 174.5146,-60.5072"/>
</g>
<!-- 《对外贸易》 -->
<g id="node3" class="node">
<title>《对外贸易》</title>
<text text-anchor="middle" x="219" y="-84.3" font-family="Times,serif" font-size="14.00" fill="#000000">《对外贸易》</text>
</g>
<!-- 政治经济学批判&#45;&gt;《对外贸易》 -->
<g id="edge2" class="edge">
<title>政治经济学批判&#45;&gt;《对外贸易》</title>
<path fill="none" stroke="#000000" d="M104.754,-150.9758C123.0397,-140.3486 146.7422,-126.7284 168,-115 170.3849,-113.6842 172.8384,-112.3434 175.3191,-110.9976"/>
<polygon fill="#000000" stroke="#000000" points="177.1996,-113.9603 184.3468,-106.1393 173.8823,-107.7962 177.1996,-113.9603"/>
</g>
<!-- 《国家》 -->
<g id="node4" class="node">
<title>《国家》</title>
<text text-anchor="middle" x="219" y="-138.3" font-family="Times,serif" font-size="14.00" fill="#000000">《国家》</text>
</g>
<!-- 政治经济学批判&#45;&gt;《国家》 -->
<g id="edge3" class="edge">
<title>政治经济学批判&#45;&gt;《国家》</title>
<path fill="none" stroke="#000000" d="M132.1416,-158.1736C145.3215,-155.7194 159.161,-153.1424 171.8221,-150.7848"/>
<polygon fill="#000000" stroke="#000000" points="172.4981,-154.2192 181.6883,-148.9477 171.2166,-147.3375 172.4981,-154.2192"/>
</g>
<!-- 《雇佣劳动》 -->
<g id="node5" class="node">
<title>《雇佣劳动》</title>
<text text-anchor="middle" x="219" y="-192.3" font-family="Times,serif" font-size="14.00" fill="#000000">《雇佣劳动》</text>
</g>
<!-- 政治经济学批判&#45;&gt;《雇佣劳动》 -->
<g id="edge4" class="edge">
<title>政治经济学批判&#45;&gt;《雇佣劳动》</title>
<path fill="none" stroke="#000000" d="M132.1416,-179.8264C140.636,-181.4081 149.4044,-183.0408 157.9548,-184.633"/>
<polygon fill="#000000" stroke="#000000" points="157.3907,-188.088 167.8625,-186.4778 158.6722,-181.2063 157.3907,-188.088"/>
</g>
<!-- 《地产》 -->
<g id="node6" class="node">
<title>《地产》</title>
<text text-anchor="middle" x="219" y="-246.3" font-family="Times,serif" font-size="14.00" fill="#000000">《地产》</text>
</g>
<!-- 政治经济学批判&#45;&gt;《地产》 -->
<g id="edge5" class="edge">
<title>政治经济学批判&#45;&gt;《地产》</title>
<path fill="none" stroke="#000000" d="M104.754,-187.0242C123.0397,-197.6514 146.7422,-211.2716 168,-223 170.3849,-224.3158 172.8384,-225.6566 175.3191,-227.0024"/>
<polygon fill="#000000" stroke="#000000" points="173.8823,-230.2038 184.3468,-231.8607 177.1996,-224.0397 173.8823,-230.2038"/>
</g>
<!-- 《资本》 -->
<g id="node7" class="node">
<title>《资本》</title>
<text text-anchor="middle" x="219" y="-300.3" font-family="Times,serif" font-size="14.00" fill="#000000">《资本》</text>
</g>
<!-- 政治经济学批判&#45;&gt;《资本》 -->
<g id="edge6" class="edge">
<title>政治经济学批判&#45;&gt;《资本》</title>
<path fill="none" stroke="#000000" d="M86.6127,-187.2674C103.2282,-210.3461 134.3131,-250.2705 168,-277 169.5892,-278.261 171.2461,-279.4914 172.9501,-280.6883"/>
<polygon fill="#000000" stroke="#000000" points="171.4662,-283.8962 181.7662,-286.3782 175.2621,-278.0148 171.4662,-283.8962"/>
</g>
<!-- 股份资本 -->
<g id="node8" class="node">
<title>股份资本</title>
<text text-anchor="middle" x="350" y="-138.3" font-family="Times,serif" font-size="14.00" fill="#000000">股份资本</text>
</g>
<!-- 《资本》&#45;&gt;股份资本 -->
<g id="edge7" class="edge">
<title>《资本》&#45;&gt;股份资本</title>
<path fill="none" stroke="#000000" d="M256.076,-288.8199C261.249,-285.5063 266.1146,-281.5866 270,-277 302.7043,-238.3939 274.5375,-208.6246 306,-169 306.4807,-168.3946 306.9789,-167.7994 307.493,-167.2143"/>
<polygon fill="#000000" stroke="#000000" points="310.0688,-169.5955 314.9267,-160.1801 305.2575,-164.511 310.0688,-169.5955"/>
</g>
<!-- 信用 -->
<g id="node9" class="node">
<title>信用</title>
<text text-anchor="middle" x="350" y="-192.3" font-family="Times,serif" font-size="14.00" fill="#000000">信用</text>
</g>
<!-- 《资本》&#45;&gt;信用 -->
<g id="edge8" class="edge">
<title>《资本》&#45;&gt;信用</title>
<path fill="none" stroke="#000000" d="M256.1247,-287.1984C261.0557,-284.1694 265.8375,-280.7616 270,-277 291.4006,-257.6606 285.2239,-243.0089 306,-223 308.5297,-220.5637 311.316,-218.2406 314.221,-216.0531"/>
<polygon fill="#000000" stroke="#000000" points="316.3648,-218.8262 322.6079,-210.2661 312.3893,-213.0647 316.3648,-218.8262"/>
</g>
<!-- 资本的竞争 -->
<g id="node10" class="node">
<title>资本的竞争</title>
<text text-anchor="middle" x="350" y="-246.3" font-family="Times,serif" font-size="14.00" fill="#000000">资本的竞争</text>
</g>
<!-- 《资本》&#45;&gt;资本的竞争 -->
<g id="edge9" class="edge">
<title>《资本》&#45;&gt;资本的竞争</title>
<path fill="none" stroke="#000000" d="M256.1889,-288.6702C268.8497,-283.4513 283.258,-277.512 296.9183,-271.881"/>
<polygon fill="#000000" stroke="#000000" points="298.3138,-275.0915 306.2252,-268.0446 295.646,-268.6198 298.3138,-275.0915"/>
</g>
<!-- 资本 -->
<g id="node11" class="node">
<title>资本</title>
<text text-anchor="middle" x="350" y="-300.3" font-family="Times,serif" font-size="14.00" fill="#000000">资本</text>
</g>
<!-- 《资本》&#45;&gt;资本 -->
<g id="edge10" class="edge">
<title>《资本》&#45;&gt;资本</title>
<path fill="none" stroke="#000000" d="M256.1889,-304C273.7287,-304 294.6224,-304 312.2347,-304"/>
<polygon fill="#000000" stroke="#000000" points="312.7175,-307.5001 322.7175,-304 312.7174,-300.5001 312.7175,-307.5001"/>
</g>
<!-- 两者的统一 -->
<g id="node12" class="node">
<title>两者的统一</title>
<text text-anchor="middle" x="488" y="-192.3" font-family="Times,serif" font-size="14.00" fill="#000000">两者的统一</text>
</g>
<!-- 资本&#45;&gt;两者的统一 -->
<g id="edge11" class="edge">
<title>资本&#45;&gt;两者的统一</title>
<path fill="none" stroke="#000000" d="M377.3921,-289.7339C383.2228,-286.0242 389.0938,-281.725 394,-277 414.7761,-256.9911 408.1112,-241.7851 430,-223 431.7121,-221.5307 433.5176,-220.1246 435.391,-218.7808"/>
<polygon fill="#000000" stroke="#000000" points="437.4309,-221.6306 443.9599,-213.2866 433.6525,-215.7379 437.4309,-221.6306"/>
</g>
<!-- 资本的流通过程 -->
<g id="node13" class="node">
<title>资本的流通过程</title>
<text text-anchor="middle" x="488" y="-246.3" font-family="Times,serif" font-size="14.00" fill="#000000">资本的流通过程</text>
</g>
<!-- 资本&#45;&gt;资本的流通过程 -->
<g id="edge12" class="edge">
<title>资本&#45;&gt;资本的流通过程</title>
<path fill="none" stroke="#000000" d="M377.2644,-293.3313C392.9884,-287.1785 413.3443,-279.2131 432.3065,-271.7931"/>
<polygon fill="#000000" stroke="#000000" points="433.7321,-274.9937 441.7691,-268.0903 431.1813,-268.475 433.7321,-274.9937"/>
</g>
<!-- 资本的生产过程 -->
<g id="node14" class="node">
<title>资本的生产过程</title>
<text text-anchor="middle" x="488" y="-300.3" font-family="Times,serif" font-size="14.00" fill="#000000">资本的生产过程</text>
</g>
<!-- 资本&#45;&gt;资本的生产过程 -->
<g id="edge13" class="edge">
<title>资本&#45;&gt;资本的生产过程</title>
<path fill="none" stroke="#000000" d="M377.2644,-304C389.5181,-304 404.5848,-304 419.6128,-304"/>
<polygon fill="#000000" stroke="#000000" points="419.9755,-307.5001 429.9755,-304 419.9754,-300.5001 419.9755,-307.5001"/>
</g>
</g>
</svg>
