<?xml version="1.0" encoding="UTF-8" standalone="no"?>
<!DOCTYPE svg PUBLIC "-//W3C//DTD SVG 1.1//EN"
 "http://www.w3.org/Graphics/SVG/1.1/DTD/svg11.dtd">
<!-- Generated by graphviz version 2.40.1 (20161225.0304)
 -->
<!-- Title: asd Pages: 1 -->
<svg width="552pt" height="99pt"
 viewBox="0.00 0.00 551.87 99.00" xmlns="http://www.w3.org/2000/svg" xmlns:xlink="http://www.w3.org/1999/xlink">
<g id="graph0" class="graph" transform="scale(1 1) rotate(0) translate(4 95)">
<title>asd</title>
<polygon fill="#f5deb3" stroke="transparent" points="-4,4 -4,-95 547.8674,-95 547.8674,4 -4,4"/>
<text text-anchor="middle" x="271.9337" y="-7.8" font-family="Times,serif" font-size="14.00" fill="#000000">认识</text>
<g id="clust1" class="cluster">
<title>cluster_2</title>
<polygon fill="#f5deb3" stroke="#000000" points="8,-31 8,-83 535.8674,-83 535.8674,-31 8,-31"/>
</g>
<!-- 客观现实 -->
<g id="node1" class="node">
<title>客观现实</title>
<ellipse fill="none" stroke="#000000" cx="64.0957" cy="-57" rx="48.1917" ry="18"/>
<text text-anchor="middle" x="64.0957" y="-53.3" font-family="Times,serif" font-size="14.00" fill="#000000">客观现实</text>
</g>
<!-- 经验 -->
<g id="node2" class="node">
<title>经验</title>
<ellipse fill="none" stroke="#000000" cx="177.4389" cy="-57" rx="29.4969" ry="18"/>
<text text-anchor="middle" x="177.4389" y="-53.3" font-family="Times,serif" font-size="14.00" fill="#000000">经验</text>
</g>
<!-- 客观现实&#45;&gt;经验 -->
<g id="edge1" class="edge">
<title>客观现实&#45;&gt;经验</title>
<path fill="none" stroke="#000000" d="M112.4922,-57C120.9534,-57 129.6661,-57 137.8539,-57"/>
<polygon fill="#000000" stroke="#000000" points="137.8859,-60.5001 147.8859,-57 137.8859,-53.5001 137.8859,-60.5001"/>
</g>
<!-- 逻辑规律 -->
<g id="node3" class="node">
<title>逻辑规律</title>
<ellipse fill="none" stroke="#000000" cx="290.782" cy="-57" rx="48.1917" ry="18"/>
<text text-anchor="middle" x="290.782" y="-53.3" font-family="Times,serif" font-size="14.00" fill="#000000">逻辑规律</text>
</g>
<!-- 经验&#45;&gt;逻辑规律 -->
<g id="edge2" class="edge">
<title>经验&#45;&gt;逻辑规律</title>
<path fill="none" stroke="#000000" d="M206.9226,-57C214.8336,-57 223.6709,-57 232.5591,-57"/>
<polygon fill="#000000" stroke="#000000" points="232.5693,-60.5001 242.5692,-57 232.5692,-53.5001 232.5693,-60.5001"/>
</g>
<!-- 方法 -->
<g id="node4" class="node">
<title>方法</title>
<ellipse fill="none" stroke="#000000" cx="404.1251" cy="-57" rx="29.4969" ry="18"/>
<text text-anchor="middle" x="404.1251" y="-53.3" font-family="Times,serif" font-size="14.00" fill="#000000">方法</text>
</g>
<!-- 逻辑规律&#45;&gt;方法 -->
<g id="edge3" class="edge">
<title>逻辑规律&#45;&gt;方法</title>
<path fill="none" stroke="#000000" d="M339.1785,-57C347.6397,-57 356.3524,-57 364.5402,-57"/>
<polygon fill="#000000" stroke="#000000" points="364.5722,-60.5001 374.5722,-57 364.5721,-53.5001 364.5722,-60.5001"/>
</g>
<!-- 理论 -->
<g id="node5" class="node">
<title>理论</title>
<ellipse fill="none" stroke="#000000" cx="498.62" cy="-57" rx="29.4969" ry="18"/>
<text text-anchor="middle" x="498.62" y="-53.3" font-family="Times,serif" font-size="14.00" fill="#000000">理论</text>
</g>
<!-- 方法&#45;&gt;理论 -->
<g id="edge4" class="edge">
<title>方法&#45;&gt;理论</title>
<path fill="none" stroke="#000000" d="M433.5059,-57C441.5945,-57 450.5024,-57 459.0641,-57"/>
<polygon fill="#000000" stroke="#000000" points="459.2574,-60.5001 469.2574,-57 459.2573,-53.5001 459.2574,-60.5001"/>
</g>
</g>
</svg>
