<?xml version="1.0" encoding="UTF-8" standalone="no"?>
<!DOCTYPE svg PUBLIC "-//W3C//DTD SVG 1.1//EN"
 "http://www.w3.org/Graphics/SVG/1.1/DTD/svg11.dtd">
<!-- Generated by graphviz version 2.40.1 (20161225.0304)
 -->
<!-- Title: asd Pages: 1 -->
<svg width="606pt" height="220pt"
 viewBox="0.00 0.00 606.00 220.00" xmlns="http://www.w3.org/2000/svg" xmlns:xlink="http://www.w3.org/1999/xlink">
<g id="graph0" class="graph" transform="scale(1 1) rotate(0) translate(4 216)">
<title>asd</title>
<polygon fill="#f5deb3" stroke="transparent" points="-4,4 -4,-216 602,-216 602,4 -4,4"/>
<g id="clust1" class="cluster">
<title>cluster_2</title>
<polygon fill="#f5deb3" stroke="#000000" points="8,-8 8,-204 590,-204 590,-8 8,-8"/>
</g>
<!-- 看书 -->
<g id="node1" class="node">
<title>看书</title>
<text text-anchor="middle" x="555" y="-30.3" font-family="Times,serif" font-size="14.00" fill="#000000">看书</text>
</g>
<!-- 想问题 -->
<g id="node2" class="node">
<title>想问题</title>
<text text-anchor="middle" x="480" y="-30.3" font-family="Times,serif" font-size="14.00" fill="#000000">想问题</text>
</g>
<!-- 敲代码 -->
<g id="node3" class="node">
<title>敲代码</title>
<text text-anchor="middle" x="403" y="-30.3" font-family="Times,serif" font-size="14.00" fill="#000000">敲代码</text>
</g>
<!-- 实践 -->
<g id="node4" class="node">
<title>实践</title>
<text text-anchor="middle" x="411" y="-102.3" font-family="Times,serif" font-size="14.00" fill="#000000">实践</text>
</g>
<!-- 实践&#45;&gt;敲代码 -->
<g id="edge7" class="edge">
<title>实践&#45;&gt;敲代码</title>
<path fill="none" stroke="#000000" d="M408.9813,-87.8314C408.1257,-80.131 407.1083,-70.9743 406.1574,-62.4166"/>
<polygon fill="#000000" stroke="#000000" points="409.6289,-61.9656 405.0459,-52.4133 402.6717,-62.7386 409.6289,-61.9656"/>
</g>
<!-- 思考 -->
<g id="node5" class="node">
<title>思考</title>
<text text-anchor="middle" x="483" y="-102.3" font-family="Times,serif" font-size="14.00" fill="#000000">思考</text>
</g>
<!-- 实践&#45;&gt;思考 -->
<g id="edge5" class="edge">
<title>实践&#45;&gt;思考</title>
<path fill="none" stroke="#000000" d="M438.2813,-118.7082C440.7377,-119.1544 443.1942,-119.412 445.6507,-119.481"/>
<polygon fill="#000000" stroke="#000000" points="446.0481,-122.9609 455.7495,-118.7026 445.5101,-115.9816 446.0481,-122.9609"/>
</g>
<!-- 思考&#45;&gt;想问题 -->
<g id="edge9" class="edge">
<title>思考&#45;&gt;想问题</title>
<path fill="none" stroke="#000000" d="M482.243,-87.8314C481.9221,-80.131 481.5406,-70.9743 481.184,-62.4166"/>
<polygon fill="#000000" stroke="#000000" points="484.6806,-62.2589 480.7672,-52.4133 477.6867,-62.5503 484.6806,-62.2589"/>
</g>
<!-- 思考&#45;&gt;实践 -->
<g id="edge4" class="edge">
<title>思考&#45;&gt;实践</title>
<path fill="none" stroke="#000000" d="M455.7495,-93.2974C453.293,-92.8497 450.8366,-92.5905 448.3801,-92.5198"/>
<polygon fill="#000000" stroke="#000000" points="447.9854,-89.0397 438.2813,-93.2918 448.519,-96.0193 447.9854,-89.0397"/>
</g>
<!-- 学习 -->
<g id="node6" class="node">
<title>学习</title>
<text text-anchor="middle" x="555" y="-102.3" font-family="Times,serif" font-size="14.00" fill="#000000">学习</text>
</g>
<!-- 思考&#45;&gt;学习 -->
<g id="edge6" class="edge">
<title>思考&#45;&gt;学习</title>
<path fill="none" stroke="#000000" d="M510.2813,-106C512.7377,-106 515.1942,-106 517.6507,-106"/>
<polygon fill="#000000" stroke="#000000" points="517.7495,-109.5001 527.7495,-106 517.7495,-102.5001 517.7495,-109.5001"/>
</g>
<!-- 学习&#45;&gt;看书 -->
<g id="edge8" class="edge">
<title>学习&#45;&gt;看书</title>
<path fill="none" stroke="#000000" d="M555,-87.8314C555,-80.131 555,-70.9743 555,-62.4166"/>
<polygon fill="#000000" stroke="#000000" points="558.5001,-62.4132 555,-52.4133 551.5001,-62.4133 558.5001,-62.4132"/>
</g>
<!-- 方法论 -->
<g id="node7" class="node">
<title>方法论</title>
<text text-anchor="middle" x="483" y="-174.3" font-family="Times,serif" font-size="14.00" fill="#000000">方法论</text>
</g>
<!-- 方法论&#45;&gt;实践 -->
<g id="edge1" class="edge">
<title>方法论&#45;&gt;实践</title>
<path fill="none" stroke="#000000" d="M464.8314,-159.8314C456.2848,-151.2848 445.9443,-140.9443 436.6198,-131.6198"/>
<polygon fill="#000000" stroke="#000000" points="438.9592,-129.0095 429.4133,-124.4133 434.0095,-133.9592 438.9592,-129.0095"/>
</g>
<!-- 方法论&#45;&gt;思考 -->
<g id="edge2" class="edge">
<title>方法论&#45;&gt;思考</title>
<path fill="none" stroke="#000000" d="M483,-159.8314C483,-152.131 483,-142.9743 483,-134.4166"/>
<polygon fill="#000000" stroke="#000000" points="486.5001,-134.4132 483,-124.4133 479.5001,-134.4133 486.5001,-134.4132"/>
</g>
<!-- 方法论&#45;&gt;学习 -->
<g id="edge3" class="edge">
<title>方法论&#45;&gt;学习</title>
<path fill="none" stroke="#000000" d="M501.1686,-159.8314C509.7152,-151.2848 520.0557,-140.9443 529.3802,-131.6198"/>
<polygon fill="#000000" stroke="#000000" points="531.9905,-133.9592 536.5867,-124.4133 527.0408,-129.0095 531.9905,-133.9592"/>
</g>
<!-- 传情达意 -->
<g id="node8" class="node">
<title>传情达意</title>
<text text-anchor="middle" x="260" y="-174.3" font-family="Times,serif" font-size="14.00" fill="#000000">传情达意</text>
</g>
<!-- 静态语义 -->
<g id="node9" class="node">
<title>静态语义</title>
<text text-anchor="middle" x="237" y="-102.3" font-family="Times,serif" font-size="14.00" fill="#000000">静态语义</text>
</g>
<!-- 传情达意&#45;&gt;静态语义 -->
<g id="edge10" class="edge">
<title>传情达意&#45;&gt;静态语义</title>
<path fill="none" stroke="#000000" d="M254.1961,-159.8314C251.7092,-152.0463 248.7469,-142.7729 245.9875,-134.1347"/>
<polygon fill="#000000" stroke="#000000" points="249.2591,-132.874 242.882,-124.4133 242.591,-135.0041 249.2591,-132.874"/>
</g>
<!-- 动态语义 -->
<g id="node10" class="node">
<title>动态语义</title>
<text text-anchor="middle" x="329" y="-102.3" font-family="Times,serif" font-size="14.00" fill="#000000">动态语义</text>
</g>
<!-- 传情达意&#45;&gt;动态语义 -->
<g id="edge11" class="edge">
<title>传情达意&#45;&gt;动态语义</title>
<path fill="none" stroke="#000000" d="M277.4116,-159.8314C285.521,-151.3694 295.3156,-141.1489 304.182,-131.8971"/>
<polygon fill="#000000" stroke="#000000" points="306.9618,-134.0549 311.354,-124.4133 301.9079,-129.2115 306.9618,-134.0549"/>
</g>
<!-- 文献 -->
<g id="node11" class="node">
<title>文献</title>
<text text-anchor="middle" x="222" y="-30.3" font-family="Times,serif" font-size="14.00" fill="#000000">文献</text>
</g>
<!-- 静态语义&#45;&gt;文献 -->
<g id="edge12" class="edge">
<title>静态语义&#45;&gt;文献</title>
<path fill="none" stroke="#000000" d="M233.2149,-87.8314C231.6106,-80.131 229.703,-70.9743 227.9201,-62.4166"/>
<polygon fill="#000000" stroke="#000000" points="231.3021,-61.4892 225.8361,-52.4133 224.4493,-62.9169 231.3021,-61.4892"/>
</g>
<!-- 对话机器人 -->
<g id="node12" class="node">
<title>对话机器人</title>
<text text-anchor="middle" x="311" y="-30.3" font-family="Times,serif" font-size="14.00" fill="#000000">对话机器人</text>
</g>
<!-- 动态语义&#45;&gt;对话机器人 -->
<g id="edge13" class="edge">
<title>动态语义&#45;&gt;对话机器人</title>
<path fill="none" stroke="#000000" d="M324.4578,-87.8314C322.5116,-80.0463 320.1932,-70.7729 318.0337,-62.1347"/>
<polygon fill="#000000" stroke="#000000" points="321.4242,-61.2658 315.6033,-52.4133 314.6332,-62.9636 321.4242,-61.2658"/>
</g>
<!-- 如何理解神经网络 -->
<g id="node13" class="node">
<title>如何理解神经网络</title>
<text text-anchor="middle" x="122" y="-174.3" font-family="Times,serif" font-size="14.00" fill="#000000">如何理解神经网络</text>
</g>
<!-- 特征选择 -->
<g id="node14" class="node">
<title>特征选择</title>
<text text-anchor="middle" x="53" y="-102.3" font-family="Times,serif" font-size="14.00" fill="#000000">特征选择</text>
</g>
<!-- 如何理解神经网络&#45;&gt;特征选择 -->
<g id="edge14" class="edge">
<title>如何理解神经网络&#45;&gt;特征选择</title>
<path fill="none" stroke="#000000" d="M104.5884,-159.8314C96.479,-151.3694 86.6844,-141.1489 77.818,-131.8971"/>
<polygon fill="#000000" stroke="#000000" points="80.0921,-129.2115 70.646,-124.4133 75.0382,-134.0549 80.0921,-129.2115"/>
</g>
<!-- 问题解法 -->
<g id="node15" class="node">
<title>问题解法</title>
<text text-anchor="middle" x="145" y="-102.3" font-family="Times,serif" font-size="14.00" fill="#000000">问题解法</text>
</g>
<!-- 如何理解神经网络&#45;&gt;问题解法 -->
<g id="edge15" class="edge">
<title>如何理解神经网络&#45;&gt;问题解法</title>
<path fill="none" stroke="#000000" d="M127.8039,-159.8314C130.2908,-152.0463 133.2531,-142.7729 136.0125,-134.1347"/>
<polygon fill="#000000" stroke="#000000" points="139.409,-135.0041 139.118,-124.4133 132.7409,-132.874 139.409,-135.0041"/>
</g>
</g>
</svg>
