<?xml version="1.0" encoding="utf-8" standalone="no"?>
<!DOCTYPE svg PUBLIC "-//W3C//DTD SVG 1.1//EN"
  "http://www.w3.org/Graphics/SVG/1.1/DTD/svg11.dtd">
<!-- Created with matplotlib (https://matplotlib.org/) -->
<svg height="345.6pt" version="1.1" viewBox="0 0 460.8 345.6" width="460.8pt" xmlns="http://www.w3.org/2000/svg" xmlns:xlink="http://www.w3.org/1999/xlink">
 <defs>
  <style type="text/css">
*{stroke-linecap:butt;stroke-linejoin:round;}
  </style>
 </defs>
 <g id="figure_1">
  <g id="patch_1">
   <path d="M 0 345.6 
L 460.8 345.6 
L 460.8 0 
L 0 0 
z
" style="fill:#ffffff;"/>
  </g>
  <g id="axes_1">
   <g id="patch_2">
    <path d="M 369.216 174.528 
C 369.216 157.055246 365.774248 139.752393 359.087715 123.609673 
C 352.401182 107.466954 342.599903 92.798303 330.2448 80.4432 
C 317.889697 68.088097 303.221046 58.286818 287.078327 51.600285 
C 270.935607 44.913752 253.632754 41.472 236.16 41.472 
C 218.687246 41.472 201.384393 44.913752 185.241673 51.600285 
C 169.098954 58.286818 154.430303 68.088097 142.0752 80.4432 
C 129.720097 92.798303 119.918818 107.466954 113.232285 123.609673 
C 106.545752 139.752393 103.104 157.055246 103.104 174.528 
C 103.104 192.000754 106.545752 209.303607 113.232285 225.446327 
C 119.918818 241.589046 129.720097 256.257697 142.0752 268.6128 
C 154.430303 280.967903 169.098954 290.769182 185.241673 297.455715 
C 201.384393 304.142248 218.687246 307.584 236.16 307.584 
C 253.632754 307.584 270.935607 304.142248 287.078327 297.455715 
C 303.221046 290.769182 317.889697 280.967903 330.2448 268.6128 
C 342.599903 256.257697 352.401182 241.589046 359.087715 225.446327 
C 365.774248 209.303607 369.216 192.000754 369.216 174.528 
M 236.16 174.528 
C 236.16 174.528 236.16 174.528 236.16 174.528 
C 236.16 174.528 236.16 174.528 236.16 174.528 
C 236.16 174.528 236.16 174.528 236.16 174.528 
C 236.16 174.528 236.16 174.528 236.16 174.528 
C 236.16 174.528 236.16 174.528 236.16 174.528 
C 236.16 174.528 236.16 174.528 236.16 174.528 
C 236.16 174.528 236.16 174.528 236.16 174.528 
C 236.16 174.528 236.16 174.528 236.16 174.528 
C 236.16 174.528 236.16 174.528 236.16 174.528 
C 236.16 174.528 236.16 174.528 236.16 174.528 
C 236.16 174.528 236.16 174.528 236.16 174.528 
C 236.16 174.528 236.16 174.528 236.16 174.528 
C 236.16 174.528 236.16 174.528 236.16 174.528 
C 236.16 174.528 236.16 174.528 236.16 174.528 
C 236.16 174.528 236.16 174.528 236.16 174.528 
C 236.16 174.528 236.16 174.528 236.16 174.528 
M 369.216 174.528 
z
" style="fill:#ffffff;"/>
   </g>
   <g id="matplotlib.axis_1">
    <g id="xtick_1">
     <g id="line2d_1">
      <path clip-path="url(#p1b2e50ec4c)" d="M 236.16 174.528 
L 369.216 174.528 
" style="fill:none;stroke:#b0b0b0;stroke-linecap:square;stroke-width:0.8;"/>
     </g>
     <g id="text_1">
      <!-- 0° -->
      <defs>
       <path d="M 31.78125 66.40625 
Q 24.171875 66.40625 20.328125 58.90625 
Q 16.5 51.421875 16.5 36.375 
Q 16.5 21.390625 20.328125 13.890625 
Q 24.171875 6.390625 31.78125 6.390625 
Q 39.453125 6.390625 43.28125 13.890625 
Q 47.125 21.390625 47.125 36.375 
Q 47.125 51.421875 43.28125 58.90625 
Q 39.453125 66.40625 31.78125 66.40625 
z
M 31.78125 74.21875 
Q 44.046875 74.21875 50.515625 64.515625 
Q 56.984375 54.828125 56.984375 36.375 
Q 56.984375 17.96875 50.515625 8.265625 
Q 44.046875 -1.421875 31.78125 -1.421875 
Q 19.53125 -1.421875 13.0625 8.265625 
Q 6.59375 17.96875 6.59375 36.375 
Q 6.59375 54.828125 13.0625 64.515625 
Q 19.53125 74.21875 31.78125 74.21875 
z
" id="DejaVuSans-48"/>
       <path d="M 25 67.921875 
Q 21.09375 67.921875 18.40625 65.203125 
Q 15.71875 62.5 15.71875 58.59375 
Q 15.71875 54.734375 18.40625 52.078125 
Q 21.09375 49.421875 25 49.421875 
Q 28.90625 49.421875 31.59375 52.078125 
Q 34.28125 54.734375 34.28125 58.59375 
Q 34.28125 62.453125 31.5625 65.1875 
Q 28.859375 67.921875 25 67.921875 
z
M 25 74.21875 
Q 28.125 74.21875 31 73.015625 
Q 33.890625 71.828125 35.984375 69.578125 
Q 38.234375 67.390625 39.359375 64.59375 
Q 40.484375 61.8125 40.484375 58.59375 
Q 40.484375 52.15625 35.96875 47.6875 
Q 31.453125 43.21875 24.90625 43.21875 
Q 18.3125 43.21875 13.90625 47.609375 
Q 9.515625 52 9.515625 58.59375 
Q 9.515625 65.140625 14 69.671875 
Q 18.5 74.21875 25 74.21875 
z
" id="DejaVuSans-176"/>
      </defs>
      <g transform="translate(377.53475 177.287375)scale(0.1 -0.1)">
       <use xlink:href="#DejaVuSans-48"/>
       <use x="63.623047" xlink:href="#DejaVuSans-176"/>
      </g>
     </g>
    </g>
    <g id="xtick_2">
     <g id="line2d_2">
      <path clip-path="url(#p1b2e50ec4c)" d="M 236.16 174.528 
L 330.2448 80.4432 
" style="fill:none;stroke:#b0b0b0;stroke-linecap:square;stroke-width:0.8;"/>
     </g>
     <g id="text_2">
      <!-- 45° -->
      <defs>
       <path d="M 37.796875 64.3125 
L 12.890625 25.390625 
L 37.796875 25.390625 
z
M 35.203125 72.90625 
L 47.609375 72.90625 
L 47.609375 25.390625 
L 58.015625 25.390625 
L 58.015625 17.1875 
L 47.609375 17.1875 
L 47.609375 0 
L 37.796875 0 
L 37.796875 17.1875 
L 4.890625 17.1875 
L 4.890625 26.703125 
z
" id="DejaVuSans-52"/>
       <path d="M 10.796875 72.90625 
L 49.515625 72.90625 
L 49.515625 64.59375 
L 19.828125 64.59375 
L 19.828125 46.734375 
Q 21.96875 47.46875 24.109375 47.828125 
Q 26.265625 48.1875 28.421875 48.1875 
Q 40.625 48.1875 47.75 41.5 
Q 54.890625 34.8125 54.890625 23.390625 
Q 54.890625 11.625 47.5625 5.09375 
Q 40.234375 -1.421875 26.90625 -1.421875 
Q 22.3125 -1.421875 17.546875 -0.640625 
Q 12.796875 0.140625 7.71875 1.703125 
L 7.71875 11.625 
Q 12.109375 9.234375 16.796875 8.0625 
Q 21.484375 6.890625 26.703125 6.890625 
Q 35.15625 6.890625 40.078125 11.328125 
Q 45.015625 15.765625 45.015625 23.390625 
Q 45.015625 31 40.078125 35.4375 
Q 35.15625 39.890625 26.703125 39.890625 
Q 22.75 39.890625 18.8125 39.015625 
Q 14.890625 38.140625 10.796875 36.28125 
z
" id="DejaVuSans-53"/>
      </defs>
      <g transform="translate(331.281795 73.30308)scale(0.1 -0.1)">
       <use xlink:href="#DejaVuSans-52"/>
       <use x="63.623047" xlink:href="#DejaVuSans-53"/>
       <use x="127.246094" xlink:href="#DejaVuSans-176"/>
      </g>
     </g>
    </g>
    <g id="xtick_3">
     <g id="line2d_3">
      <path clip-path="url(#p1b2e50ec4c)" d="M 236.16 174.528 
L 236.16 41.472 
" style="fill:none;stroke:#b0b0b0;stroke-linecap:square;stroke-width:0.8;"/>
     </g>
     <g id="text_3">
      <!-- 90° -->
      <defs>
       <path d="M 10.984375 1.515625 
L 10.984375 10.5 
Q 14.703125 8.734375 18.5 7.8125 
Q 22.3125 6.890625 25.984375 6.890625 
Q 35.75 6.890625 40.890625 13.453125 
Q 46.046875 20.015625 46.78125 33.40625 
Q 43.953125 29.203125 39.59375 26.953125 
Q 35.25 24.703125 29.984375 24.703125 
Q 19.046875 24.703125 12.671875 31.3125 
Q 6.296875 37.9375 6.296875 49.421875 
Q 6.296875 60.640625 12.9375 67.421875 
Q 19.578125 74.21875 30.609375 74.21875 
Q 43.265625 74.21875 49.921875 64.515625 
Q 56.59375 54.828125 56.59375 36.375 
Q 56.59375 19.140625 48.40625 8.859375 
Q 40.234375 -1.421875 26.421875 -1.421875 
Q 22.703125 -1.421875 18.890625 -0.6875 
Q 15.09375 0.046875 10.984375 1.515625 
z
M 30.609375 32.421875 
Q 37.25 32.421875 41.125 36.953125 
Q 45.015625 41.5 45.015625 49.421875 
Q 45.015625 57.28125 41.125 61.84375 
Q 37.25 66.40625 30.609375 66.40625 
Q 23.96875 66.40625 20.09375 61.84375 
Q 16.21875 57.28125 16.21875 49.421875 
Q 16.21875 41.5 20.09375 36.953125 
Q 23.96875 32.421875 30.609375 32.421875 
z
" id="DejaVuSans-57"/>
      </defs>
      <g transform="translate(227.2975 30.231375)scale(0.1 -0.1)">
       <use xlink:href="#DejaVuSans-57"/>
       <use x="63.623047" xlink:href="#DejaVuSans-48"/>
       <use x="127.246094" xlink:href="#DejaVuSans-176"/>
      </g>
     </g>
    </g>
    <g id="xtick_4">
     <g id="line2d_4">
      <path clip-path="url(#p1b2e50ec4c)" d="M 236.16 174.528 
L 142.0752 80.4432 
" style="fill:none;stroke:#b0b0b0;stroke-linecap:square;stroke-width:0.8;"/>
     </g>
     <g id="text_4">
      <!-- 135° -->
      <defs>
       <path d="M 12.40625 8.296875 
L 28.515625 8.296875 
L 28.515625 63.921875 
L 10.984375 60.40625 
L 10.984375 69.390625 
L 28.421875 72.90625 
L 38.28125 72.90625 
L 38.28125 8.296875 
L 54.390625 8.296875 
L 54.390625 0 
L 12.40625 0 
z
" id="DejaVuSans-49"/>
       <path d="M 40.578125 39.3125 
Q 47.65625 37.796875 51.625 33 
Q 55.609375 28.21875 55.609375 21.1875 
Q 55.609375 10.40625 48.1875 4.484375 
Q 40.765625 -1.421875 27.09375 -1.421875 
Q 22.515625 -1.421875 17.65625 -0.515625 
Q 12.796875 0.390625 7.625 2.203125 
L 7.625 11.71875 
Q 11.71875 9.328125 16.59375 8.109375 
Q 21.484375 6.890625 26.8125 6.890625 
Q 36.078125 6.890625 40.9375 10.546875 
Q 45.796875 14.203125 45.796875 21.1875 
Q 45.796875 27.640625 41.28125 31.265625 
Q 36.765625 34.90625 28.71875 34.90625 
L 20.21875 34.90625 
L 20.21875 43.015625 
L 29.109375 43.015625 
Q 36.375 43.015625 40.234375 45.921875 
Q 44.09375 48.828125 44.09375 54.296875 
Q 44.09375 59.90625 40.109375 62.90625 
Q 36.140625 65.921875 28.71875 65.921875 
Q 24.65625 65.921875 20.015625 65.03125 
Q 15.375 64.15625 9.8125 62.3125 
L 9.8125 71.09375 
Q 15.4375 72.65625 20.34375 73.4375 
Q 25.25 74.21875 29.59375 74.21875 
Q 40.828125 74.21875 47.359375 69.109375 
Q 53.90625 64.015625 53.90625 55.328125 
Q 53.90625 49.265625 50.4375 45.09375 
Q 46.96875 40.921875 40.578125 39.3125 
z
" id="DejaVuSans-51"/>
      </defs>
      <g transform="translate(120.131955 73.30308)scale(0.1 -0.1)">
       <use xlink:href="#DejaVuSans-49"/>
       <use x="63.623047" xlink:href="#DejaVuSans-51"/>
       <use x="127.246094" xlink:href="#DejaVuSans-53"/>
       <use x="190.869141" xlink:href="#DejaVuSans-176"/>
      </g>
     </g>
    </g>
    <g id="xtick_5">
     <g id="line2d_5">
      <path clip-path="url(#p1b2e50ec4c)" d="M 236.16 174.528 
L 103.104 174.528 
" style="fill:none;stroke:#b0b0b0;stroke-linecap:square;stroke-width:0.8;"/>
     </g>
     <g id="text_5">
      <!-- 180° -->
      <defs>
       <path d="M 31.78125 34.625 
Q 24.75 34.625 20.71875 30.859375 
Q 16.703125 27.09375 16.703125 20.515625 
Q 16.703125 13.921875 20.71875 10.15625 
Q 24.75 6.390625 31.78125 6.390625 
Q 38.8125 6.390625 42.859375 10.171875 
Q 46.921875 13.96875 46.921875 20.515625 
Q 46.921875 27.09375 42.890625 30.859375 
Q 38.875 34.625 31.78125 34.625 
z
M 21.921875 38.8125 
Q 15.578125 40.375 12.03125 44.71875 
Q 8.5 49.078125 8.5 55.328125 
Q 8.5 64.0625 14.71875 69.140625 
Q 20.953125 74.21875 31.78125 74.21875 
Q 42.671875 74.21875 48.875 69.140625 
Q 55.078125 64.0625 55.078125 55.328125 
Q 55.078125 49.078125 51.53125 44.71875 
Q 48 40.375 41.703125 38.8125 
Q 48.828125 37.15625 52.796875 32.3125 
Q 56.78125 27.484375 56.78125 20.515625 
Q 56.78125 9.90625 50.3125 4.234375 
Q 43.84375 -1.421875 31.78125 -1.421875 
Q 19.734375 -1.421875 13.25 4.234375 
Q 6.78125 9.90625 6.78125 20.515625 
Q 6.78125 27.484375 10.78125 32.3125 
Q 14.796875 37.15625 21.921875 38.8125 
z
M 18.3125 54.390625 
Q 18.3125 48.734375 21.84375 45.5625 
Q 25.390625 42.390625 31.78125 42.390625 
Q 38.140625 42.390625 41.71875 45.5625 
Q 45.3125 48.734375 45.3125 54.390625 
Q 45.3125 60.0625 41.71875 63.234375 
Q 38.140625 66.40625 31.78125 66.40625 
Q 25.390625 66.40625 21.84375 63.234375 
Q 18.3125 60.0625 18.3125 54.390625 
z
" id="DejaVuSans-56"/>
      </defs>
      <g transform="translate(77.06025 177.287375)scale(0.1 -0.1)">
       <use xlink:href="#DejaVuSans-49"/>
       <use x="63.623047" xlink:href="#DejaVuSans-56"/>
       <use x="127.246094" xlink:href="#DejaVuSans-48"/>
       <use x="190.869141" xlink:href="#DejaVuSans-176"/>
      </g>
     </g>
    </g>
    <g id="xtick_6">
     <g id="line2d_6">
      <path clip-path="url(#p1b2e50ec4c)" d="M 236.16 174.528 
L 142.0752 268.6128 
" style="fill:none;stroke:#b0b0b0;stroke-linecap:square;stroke-width:0.8;"/>
     </g>
     <g id="text_6">
      <!-- 225° -->
      <defs>
       <path d="M 19.1875 8.296875 
L 53.609375 8.296875 
L 53.609375 0 
L 7.328125 0 
L 7.328125 8.296875 
Q 12.9375 14.109375 22.625 23.890625 
Q 32.328125 33.6875 34.8125 36.53125 
Q 39.546875 41.84375 41.421875 45.53125 
Q 43.3125 49.21875 43.3125 52.78125 
Q 43.3125 58.59375 39.234375 62.25 
Q 35.15625 65.921875 28.609375 65.921875 
Q 23.96875 65.921875 18.8125 64.3125 
Q 13.671875 62.703125 7.8125 59.421875 
L 7.8125 69.390625 
Q 13.765625 71.78125 18.9375 73 
Q 24.125 74.21875 28.421875 74.21875 
Q 39.75 74.21875 46.484375 68.546875 
Q 53.21875 62.890625 53.21875 53.421875 
Q 53.21875 48.921875 51.53125 44.890625 
Q 49.859375 40.875 45.40625 35.40625 
Q 44.1875 33.984375 37.640625 27.21875 
Q 31.109375 20.453125 19.1875 8.296875 
z
" id="DejaVuSans-50"/>
      </defs>
      <g transform="translate(120.131955 281.27167)scale(0.1 -0.1)">
       <use xlink:href="#DejaVuSans-50"/>
       <use x="63.623047" xlink:href="#DejaVuSans-50"/>
       <use x="127.246094" xlink:href="#DejaVuSans-53"/>
       <use x="190.869141" xlink:href="#DejaVuSans-176"/>
      </g>
     </g>
    </g>
    <g id="xtick_7">
     <g id="line2d_7">
      <path clip-path="url(#p1b2e50ec4c)" d="M 236.16 174.528 
L 236.16 307.584 
" style="fill:none;stroke:#b0b0b0;stroke-linecap:square;stroke-width:0.8;"/>
     </g>
     <g id="text_7">
      <!-- 270° -->
      <defs>
       <path d="M 8.203125 72.90625 
L 55.078125 72.90625 
L 55.078125 68.703125 
L 28.609375 0 
L 18.3125 0 
L 43.21875 64.59375 
L 8.203125 64.59375 
z
" id="DejaVuSans-55"/>
      </defs>
      <g transform="translate(224.11625 324.343375)scale(0.1 -0.1)">
       <use xlink:href="#DejaVuSans-50"/>
       <use x="63.623047" xlink:href="#DejaVuSans-55"/>
       <use x="127.246094" xlink:href="#DejaVuSans-48"/>
       <use x="190.869141" xlink:href="#DejaVuSans-176"/>
      </g>
     </g>
    </g>
    <g id="xtick_8">
     <g id="line2d_8">
      <path clip-path="url(#p1b2e50ec4c)" d="M 236.16 174.528 
L 330.2448 268.6128 
" style="fill:none;stroke:#b0b0b0;stroke-linecap:square;stroke-width:0.8;"/>
     </g>
     <g id="text_8">
      <!-- 315° -->
      <g transform="translate(328.100545 281.27167)scale(0.1 -0.1)">
       <use xlink:href="#DejaVuSans-51"/>
       <use x="63.623047" xlink:href="#DejaVuSans-49"/>
       <use x="127.246094" xlink:href="#DejaVuSans-53"/>
       <use x="190.869141" xlink:href="#DejaVuSans-176"/>
      </g>
     </g>
    </g>
   </g>
   <g id="matplotlib.axis_2">
    <g id="ytick_1">
     <g id="line2d_9">
      <path clip-path="url(#p1b2e50ec4c)" d="M 264.469787 174.528 
L 264.314703 171.568821 
L 263.85115 168.642064 
L 263.084208 165.779795 
L 262.022278 163.013372 
L 260.676995 160.373106 
L 259.063099 157.887925 
L 257.198272 155.585055 
L 255.102945 153.489728 
L 252.800075 151.624901 
L 250.314894 150.011005 
L 247.674628 148.665722 
L 244.908205 147.603792 
L 242.045936 146.83685 
L 239.119179 146.373297 
L 236.16 146.218213 
L 233.200821 146.373297 
L 230.274064 146.83685 
L 227.411795 147.603792 
L 224.645372 148.665722 
L 222.005106 150.011005 
L 219.519925 151.624901 
L 217.217055 153.489728 
L 215.121728 155.585055 
L 213.256901 157.887925 
L 211.643005 160.373106 
L 210.297722 163.013372 
L 209.235792 165.779795 
L 208.46885 168.642064 
L 208.005297 171.568821 
L 207.850213 174.528 
L 208.005297 177.487179 
L 208.46885 180.413936 
L 209.235792 183.276205 
L 210.297722 186.042628 
L 211.643005 188.682894 
L 213.256901 191.168075 
L 215.121728 193.470945 
L 217.217055 195.566272 
L 219.519925 197.431099 
L 222.005106 199.044995 
L 224.645372 200.390278 
L 227.411795 201.452208 
L 230.274064 202.21915 
L 233.200821 202.682703 
L 236.16 202.837787 
L 239.119179 202.682703 
L 242.045936 202.21915 
L 244.908205 201.452208 
L 247.674628 200.390278 
L 250.314894 199.044995 
L 252.800075 197.431099 
L 255.102945 195.566272 
L 257.198272 193.470945 
L 259.063099 191.168075 
L 260.676995 188.682894 
L 262.022278 186.042628 
L 263.084208 183.276205 
L 263.85115 180.413936 
L 264.314703 177.487179 
L 264.469787 174.528 
L 264.469787 174.528 
" style="fill:none;stroke:#b0b0b0;stroke-linecap:square;stroke-width:0.8;"/>
     </g>
     <g id="text_9">
      <!-- 2 -->
      <g transform="translate(262.314833 161.614626)scale(0.1 -0.1)">
       <use xlink:href="#DejaVuSans-50"/>
      </g>
     </g>
    </g>
    <g id="ytick_2">
     <g id="line2d_10">
      <path clip-path="url(#p1b2e50ec4c)" d="M 292.779574 174.528 
L 292.641652 170.578418 
L 292.228557 166.648078 
L 291.542301 162.756129 
L 290.586228 158.92153 
L 289.364996 155.162965 
L 287.884555 151.498744 
L 286.152117 147.94672 
L 284.176122 144.524197 
L 281.966198 141.247849 
L 279.53311 138.133639 
L 276.888713 135.196739 
L 274.04589 132.451456 
L 271.018491 129.911166 
L 267.821264 127.588245 
L 264.469787 125.49401 
L 260.980388 123.638664 
L 257.370066 122.031245 
L 253.656411 120.679585 
L 249.857515 119.590269 
L 245.991886 118.768604 
L 242.078357 118.218593 
L 238.135995 117.942917 
L 234.184005 117.942917 
L 230.241643 118.218593 
L 226.328114 118.768604 
L 222.462485 119.590269 
L 218.663589 120.679585 
L 214.949934 122.031245 
L 211.339612 123.638664 
L 207.850213 125.49401 
L 204.498736 127.588245 
L 201.301509 129.911166 
L 198.27411 132.451456 
L 195.431287 135.196739 
L 192.78689 138.133639 
L 190.353802 141.247849 
L 188.143878 144.524197 
L 186.167883 147.94672 
L 184.435445 151.498744 
L 182.955004 155.162965 
L 181.733772 158.92153 
L 180.777699 162.756129 
L 180.091443 166.648078 
L 179.678348 170.578418 
L 179.540426 174.528 
L 179.678348 178.477582 
L 180.091443 182.407922 
L 180.777699 186.299871 
L 181.733772 190.13447 
L 182.955004 193.893035 
L 184.435445 197.557256 
L 186.167883 201.10928 
L 188.143878 204.531803 
L 190.353802 207.808151 
L 192.78689 210.922361 
L 195.431287 213.859261 
L 198.27411 216.604544 
L 201.301509 219.144834 
L 204.498736 221.467755 
L 207.850213 223.56199 
L 211.339612 225.417336 
L 214.949934 227.024755 
L 218.663589 228.376415 
L 222.462485 229.465731 
L 226.328114 230.287396 
L 230.241643 230.837407 
L 234.184005 231.113083 
L 238.135995 231.113083 
L 242.078357 230.837407 
L 245.991886 230.287396 
L 249.857515 229.465731 
L 253.656411 228.376415 
L 257.370066 227.024755 
L 260.980388 225.417336 
L 264.469787 223.56199 
L 267.821264 221.467755 
L 271.018491 219.144834 
L 274.04589 216.604544 
L 276.888713 213.859261 
L 279.53311 210.922361 
L 281.966198 207.808151 
L 284.176122 204.531803 
L 286.152117 201.10928 
L 287.884555 197.557256 
L 289.364996 193.893035 
L 290.586228 190.13447 
L 291.542301 186.299871 
L 292.228557 182.407922 
L 292.641652 178.477582 
L 292.779574 174.528 
L 292.779574 174.528 
" style="fill:none;stroke:#b0b0b0;stroke-linecap:square;stroke-width:0.8;"/>
     </g>
     <g id="text_10">
      <!-- 4 -->
      <g transform="translate(288.469666 150.780939)scale(0.1 -0.1)">
       <use xlink:href="#DejaVuSans-52"/>
      </g>
     </g>
    </g>
    <g id="ytick_3">
     <g id="line2d_11">
      <path clip-path="url(#p1b2e50ec4c)" d="M 321.089362 174.528 
L 320.882478 168.603627 
L 320.262835 162.708117 
L 319.233451 156.870193 
L 317.799342 151.118295 
L 315.967494 145.480448 
L 313.746833 139.984117 
L 311.148175 134.65608 
L 308.184183 129.522295 
L 304.869297 124.607774 
L 301.219666 119.936459 
L 297.25307 115.531108 
L 292.988835 111.413184 
L 288.447736 107.60275 
L 283.651896 104.118368 
L 278.624681 100.977015 
L 273.390582 98.193995 
L 267.975099 95.782867 
L 262.404616 93.755377 
L 256.706272 92.121403 
L 250.907829 90.888906 
L 245.037536 90.06389 
L 239.123992 89.650375 
L 233.196008 89.650375 
L 227.282464 90.06389 
L 221.412171 90.888906 
L 215.613728 92.121403 
L 209.915384 93.755377 
L 204.344901 95.782867 
L 198.929418 98.193995 
L 193.695319 100.977015 
L 188.668104 104.118368 
L 183.872264 107.60275 
L 179.331165 111.413184 
L 175.06693 115.531108 
L 171.100334 119.936459 
L 167.450703 124.607774 
L 164.135817 129.522295 
L 161.171825 134.65608 
L 158.573167 139.984117 
L 156.352506 145.480448 
L 154.520658 151.118295 
L 153.086549 156.870193 
L 152.057165 162.708117 
L 151.437522 168.603627 
L 151.230638 174.528 
L 151.437522 180.452373 
L 152.057165 186.347883 
L 153.086549 192.185807 
L 154.520658 197.937705 
L 156.352506 203.575552 
L 158.573167 209.071883 
L 161.171825 214.39992 
L 164.135817 219.533705 
L 167.450703 224.448226 
L 171.100334 229.119541 
L 175.06693 233.524892 
L 179.331165 237.642816 
L 183.872264 241.45325 
L 188.668104 244.937632 
L 193.695319 248.078985 
L 198.929418 250.862005 
L 204.344901 253.273133 
L 209.915384 255.300623 
L 215.613728 256.934597 
L 221.412171 258.167094 
L 227.282464 258.99211 
L 233.196008 259.405625 
L 239.123992 259.405625 
L 245.037536 258.99211 
L 250.907829 258.167094 
L 256.706272 256.934597 
L 262.404616 255.300623 
L 267.975099 253.273133 
L 273.390582 250.862005 
L 278.624681 248.078985 
L 283.651896 244.937632 
L 288.447736 241.45325 
L 292.988835 237.642816 
L 297.25307 233.524892 
L 301.219666 229.119541 
L 304.869297 224.448226 
L 308.184183 219.533705 
L 311.148175 214.39992 
L 313.746833 209.071883 
L 315.967494 203.575552 
L 317.799342 197.937705 
L 319.233451 192.185807 
L 320.262835 186.347883 
L 320.882478 180.452373 
L 321.089362 174.528 
L 321.089362 174.528 
" style="fill:none;stroke:#b0b0b0;stroke-linecap:square;stroke-width:0.8;"/>
     </g>
     <g id="text_11">
      <!-- 6 -->
      <defs>
       <path d="M 33.015625 40.375 
Q 26.375 40.375 22.484375 35.828125 
Q 18.609375 31.296875 18.609375 23.390625 
Q 18.609375 15.53125 22.484375 10.953125 
Q 26.375 6.390625 33.015625 6.390625 
Q 39.65625 6.390625 43.53125 10.953125 
Q 47.40625 15.53125 47.40625 23.390625 
Q 47.40625 31.296875 43.53125 35.828125 
Q 39.65625 40.375 33.015625 40.375 
z
M 52.59375 71.296875 
L 52.59375 62.3125 
Q 48.875 64.0625 45.09375 64.984375 
Q 41.3125 65.921875 37.59375 65.921875 
Q 27.828125 65.921875 22.671875 59.328125 
Q 17.53125 52.734375 16.796875 39.40625 
Q 19.671875 43.65625 24.015625 45.921875 
Q 28.375 48.1875 33.59375 48.1875 
Q 44.578125 48.1875 50.953125 41.515625 
Q 57.328125 34.859375 57.328125 23.390625 
Q 57.328125 12.15625 50.6875 5.359375 
Q 44.046875 -1.421875 33.015625 -1.421875 
Q 20.359375 -1.421875 13.671875 8.265625 
Q 6.984375 17.96875 6.984375 36.375 
Q 6.984375 53.65625 15.1875 63.9375 
Q 23.390625 74.21875 37.203125 74.21875 
Q 40.921875 74.21875 44.703125 73.484375 
Q 48.484375 72.75 52.59375 71.296875 
z
" id="DejaVuSans-54"/>
      </defs>
      <g transform="translate(314.624499 139.947253)scale(0.1 -0.1)">
       <use xlink:href="#DejaVuSans-54"/>
      </g>
     </g>
    </g>
    <g id="ytick_4">
     <g id="line2d_12">
      <path clip-path="url(#p1b2e50ec4c)" d="M 349.399149 174.528 
L 349.330167 170.576011 
L 349.123304 166.628836 
L 348.778813 162.691286 
L 348.297113 158.768156 
L 347.678792 154.864228 
L 346.924602 150.984257 
L 346.035462 147.13297 
L 345.012456 143.31506 
L 343.85683 139.535179 
L 342.569993 135.79793 
L 341.153511 132.107868 
L 339.60911 128.469489 
L 337.938673 124.887224 
L 336.144234 121.36544 
L 334.22798 117.908426 
L 332.192245 114.520394 
L 330.039509 111.205472 
L 327.772396 107.967698 
L 325.393667 104.811019 
L 322.906221 101.739278 
L 320.313088 98.75622 
L 317.617427 95.865477 
L 314.822523 93.070573 
L 311.93178 90.374912 
L 308.948722 87.781779 
L 305.876981 85.294333 
L 302.720302 82.915604 
L 299.482528 80.648491 
L 296.167606 78.495755 
L 292.779574 76.46002 
L 289.32256 74.543766 
L 285.800776 72.749327 
L 282.218511 71.07889 
L 278.580132 69.534489 
L 274.89007 68.118007 
L 271.152821 66.83117 
L 267.37294 65.675544 
L 263.55503 64.652538 
L 259.703743 63.763398 
L 255.823772 63.009208 
L 251.919844 62.390887 
L 247.996714 61.909187 
L 244.059164 61.564696 
L 240.111989 61.357833 
L 236.16 61.288851 
L 232.208011 61.357833 
L 228.260836 61.564696 
L 224.323286 61.909187 
L 220.400156 62.390887 
L 216.496228 63.009208 
L 212.616257 63.763398 
L 208.76497 64.652538 
L 204.94706 65.675544 
L 201.167179 66.83117 
L 197.42993 68.118007 
L 193.739868 69.534489 
L 190.101489 71.07889 
L 186.519224 72.749327 
L 182.99744 74.543766 
L 179.540426 76.46002 
L 176.152394 78.495755 
L 172.837472 80.648491 
L 169.599698 82.915604 
L 166.443019 85.294333 
L 163.371278 87.781779 
L 160.38822 90.374912 
L 157.497477 93.070573 
L 154.702573 95.865477 
L 152.006912 98.75622 
L 149.413779 101.739278 
L 146.926333 104.811019 
L 144.547604 107.967698 
L 142.280491 111.205472 
L 140.127755 114.520394 
L 138.09202 117.908426 
L 136.175766 121.36544 
L 134.381327 124.887224 
L 132.71089 128.469489 
L 131.166489 132.107868 
L 129.750007 135.79793 
L 128.46317 139.535179 
L 127.307544 143.31506 
L 126.284538 147.13297 
L 125.395398 150.984257 
L 124.641208 154.864228 
L 124.022887 158.768156 
L 123.541187 162.691286 
L 123.196696 166.628836 
L 122.989833 170.576011 
L 122.920851 174.528 
L 122.989833 178.479989 
L 123.196696 182.427164 
L 123.541187 186.364714 
L 124.022887 190.287844 
L 124.641208 194.191772 
L 125.395398 198.071743 
L 126.284538 201.92303 
L 127.307544 205.74094 
L 128.46317 209.520821 
L 129.750007 213.25807 
L 131.166489 216.948132 
L 132.71089 220.586511 
L 134.381327 224.168776 
L 136.175766 227.69056 
L 138.09202 231.147574 
L 140.127755 234.535606 
L 142.280491 237.850528 
L 144.547604 241.088302 
L 146.926333 244.244981 
L 149.413779 247.316722 
L 152.006912 250.29978 
L 154.702573 253.190523 
L 157.497477 255.985427 
L 160.38822 258.681088 
L 163.371278 261.274221 
L 166.443019 263.761667 
L 169.599698 266.140396 
L 172.837472 268.407509 
L 176.152394 270.560245 
L 179.540426 272.59598 
L 182.99744 274.512234 
L 186.519224 276.306673 
L 190.101489 277.97711 
L 193.739868 279.521511 
L 197.42993 280.937993 
L 201.167179 282.22483 
L 204.94706 283.380456 
L 208.76497 284.403462 
L 212.616257 285.292602 
L 216.496228 286.046792 
L 220.400156 286.665113 
L 224.323286 287.146813 
L 228.260836 287.491304 
L 232.208011 287.698167 
L 236.16 287.767149 
L 240.111989 287.698167 
L 244.059164 287.491304 
L 247.996714 287.146813 
L 251.919844 286.665113 
L 255.823772 286.046792 
L 259.703743 285.292602 
L 263.55503 284.403462 
L 267.37294 283.380456 
L 271.152821 282.22483 
L 274.89007 280.937993 
L 278.580132 279.521511 
L 282.218511 277.97711 
L 285.800776 276.306673 
L 289.32256 274.512234 
L 292.779574 272.59598 
L 296.167606 270.560245 
L 299.482528 268.407509 
L 302.720302 266.140396 
L 305.876981 263.761667 
L 308.948722 261.274221 
L 311.93178 258.681088 
L 314.822523 255.985427 
L 317.617427 253.190523 
L 320.313088 250.29978 
L 322.906221 247.316722 
L 325.393667 244.244981 
L 327.772396 241.088302 
L 330.039509 237.850528 
L 332.192245 234.535606 
L 334.22798 231.147574 
L 336.144234 227.69056 
L 337.938673 224.168776 
L 339.60911 220.586511 
L 341.153511 216.948132 
L 342.569993 213.25807 
L 343.85683 209.520821 
L 345.012456 205.74094 
L 346.035462 201.92303 
L 346.924602 198.071743 
L 347.678792 194.191772 
L 348.297113 190.287844 
L 348.778813 186.364714 
L 349.123304 182.427164 
L 349.330167 178.479989 
L 349.399149 174.528 
L 349.399149 174.528 
" style="fill:none;stroke:#b0b0b0;stroke-linecap:square;stroke-width:0.8;"/>
     </g>
     <g id="text_12">
      <!-- 8 -->
      <g transform="translate(340.779332 129.113566)scale(0.1 -0.1)">
       <use xlink:href="#DejaVuSans-56"/>
      </g>
     </g>
    </g>
   </g>
   <g id="line2d_13">
    <path clip-path="url(#p1b2e50ec4c)" d="M 250.314894 174.528 
L 251.455843 150.706135 
L 218.488457 135.914975 
L 180.107046 166.537845 
L 189.89872 228.090294 
L 260.251248 255.968827 
L 331.297758 202.213677 
L 321.53125 100.131397 
L 217.624163 48.489653 
L 132.984385 127.860053 
" style="fill:none;stroke:#1f77b4;stroke-linecap:square;stroke-width:1.5;"/>
   </g>
   <g id="patch_3">
    <path d="M 369.216 174.528 
C 369.216 157.055246 365.774248 139.752393 359.087715 123.609673 
C 352.401182 107.466954 342.599903 92.798303 330.2448 80.4432 
C 317.889697 68.088097 303.221046 58.286818 287.078327 51.600285 
C 270.935607 44.913752 253.632754 41.472 236.16 41.472 
C 218.687246 41.472 201.384393 44.913752 185.241673 51.600285 
C 169.098954 58.286818 154.430303 68.088097 142.0752 80.4432 
C 129.720097 92.798303 119.918818 107.466954 113.232285 123.609673 
C 106.545752 139.752393 103.104 157.055246 103.104 174.528 
C 103.104 192.000754 106.545752 209.303607 113.232285 225.446327 
C 119.918818 241.589046 129.720097 256.257697 142.0752 268.6128 
C 154.430303 280.967903 169.098954 290.769182 185.241673 297.455715 
C 201.384393 304.142248 218.687246 307.584 236.16 307.584 
C 253.632754 307.584 270.935607 304.142248 287.078327 297.455715 
C 303.221046 290.769182 317.889697 280.967903 330.2448 268.6128 
C 342.599903 256.257697 352.401182 241.589046 359.087715 225.446327 
C 365.774248 209.303607 369.216 192.000754 369.216 174.528 
" style="fill:none;stroke:#000000;stroke-linecap:square;stroke-linejoin:miter;stroke-width:0.8;"/>
   </g>
  </g>
 </g>
 <defs>
  <clipPath id="p1b2e50ec4c">
   <path d="M 369.216 174.528 
C 369.216 157.055246 365.774248 139.752393 359.087715 123.609673 
C 352.401182 107.466954 342.599903 92.798303 330.2448 80.4432 
C 317.889697 68.088097 303.221046 58.286818 287.078327 51.600285 
C 270.935607 44.913752 253.632754 41.472 236.16 41.472 
C 218.687246 41.472 201.384393 44.913752 185.241673 51.600285 
C 169.098954 58.286818 154.430303 68.088097 142.0752 80.4432 
C 129.720097 92.798303 119.918818 107.466954 113.232285 123.609673 
C 106.545752 139.752393 103.104 157.055246 103.104 174.528 
C 103.104 192.000754 106.545752 209.303607 113.232285 225.446327 
C 119.918818 241.589046 129.720097 256.257697 142.0752 268.6128 
C 154.430303 280.967903 169.098954 290.769182 185.241673 297.455715 
C 201.384393 304.142248 218.687246 307.584 236.16 307.584 
C 253.632754 307.584 270.935607 304.142248 287.078327 297.455715 
C 303.221046 290.769182 317.889697 280.967903 330.2448 268.6128 
C 342.599903 256.257697 352.401182 241.589046 359.087715 225.446327 
C 365.774248 209.303607 369.216 192.000754 369.216 174.528 
M 236.16 174.528 
C 236.16 174.528 236.16 174.528 236.16 174.528 
C 236.16 174.528 236.16 174.528 236.16 174.528 
C 236.16 174.528 236.16 174.528 236.16 174.528 
C 236.16 174.528 236.16 174.528 236.16 174.528 
C 236.16 174.528 236.16 174.528 236.16 174.528 
C 236.16 174.528 236.16 174.528 236.16 174.528 
C 236.16 174.528 236.16 174.528 236.16 174.528 
C 236.16 174.528 236.16 174.528 236.16 174.528 
C 236.16 174.528 236.16 174.528 236.16 174.528 
C 236.16 174.528 236.16 174.528 236.16 174.528 
C 236.16 174.528 236.16 174.528 236.16 174.528 
C 236.16 174.528 236.16 174.528 236.16 174.528 
C 236.16 174.528 236.16 174.528 236.16 174.528 
C 236.16 174.528 236.16 174.528 236.16 174.528 
C 236.16 174.528 236.16 174.528 236.16 174.528 
C 236.16 174.528 236.16 174.528 236.16 174.528 
M 369.216 174.528 
z
"/>
  </clipPath>
 </defs>
</svg>
