<?xml version="1.0" encoding="UTF-8" standalone="no"?>
<!DOCTYPE svg PUBLIC "-//W3C//DTD SVG 1.1//EN"
 "http://www.w3.org/Graphics/SVG/1.1/DTD/svg11.dtd">
<!-- Generated by graphviz version 2.40.1 (20161225.0304)
 -->
<!-- Title: asd Pages: 1 -->
<svg width="428pt" height="283pt"
 viewBox="0.00 0.00 427.59 283.00" xmlns="http://www.w3.org/2000/svg" xmlns:xlink="http://www.w3.org/1999/xlink">
<g id="graph0" class="graph" transform="scale(1 1) rotate(0) translate(4 279)">
<title>asd</title>
<polygon fill="#fffafa" stroke="transparent" points="-4,4 -4,-279 423.594,-279 423.594,4 -4,4"/>
<text text-anchor="middle" x="209.797" y="-7.8" font-family="Times,serif" font-size="14.00" fill="#000000">纯粹理性批判</text>
<!-- 哲学 -->
<g id="node1" class="node">
<title>哲学</title>
<ellipse fill="none" stroke="#000000" cx="38.3466" cy="-257" rx="29.4969" ry="18"/>
<text text-anchor="middle" x="38.3466" y="-253.3" font-family="Times,serif" font-size="14.00" fill="#000000">哲学</text>
</g>
<!-- 从哪来 -->
<g id="node2" class="node">
<title>从哪来</title>
<ellipse fill="none" stroke="#000000" cx="38.3466" cy="-185" rx="38.1938" ry="18"/>
<text text-anchor="middle" x="38.3466" y="-181.3" font-family="Times,serif" font-size="14.00" fill="#000000">从哪来</text>
</g>
<!-- 哲学&#45;&gt;从哪来 -->
<g id="edge1" class="edge">
<title>哲学&#45;&gt;从哪来</title>
<path fill="none" stroke="#000000" d="M38.3466,-238.8314C38.3466,-231.131 38.3466,-221.9743 38.3466,-213.4166"/>
<polygon fill="#000000" stroke="#000000" points="41.8467,-213.4132 38.3466,-203.4133 34.8467,-213.4133 41.8467,-213.4132"/>
</g>
<!-- 来干啥 -->
<g id="node3" class="node">
<title>来干啥</title>
<ellipse fill="none" stroke="#000000" cx="38.3466" cy="-113" rx="38.1938" ry="18"/>
<text text-anchor="middle" x="38.3466" y="-109.3" font-family="Times,serif" font-size="14.00" fill="#000000">来干啥</text>
</g>
<!-- 从哪来&#45;&gt;来干啥 -->
<g id="edge2" class="edge">
<title>从哪来&#45;&gt;来干啥</title>
<path fill="none" stroke="#000000" d="M38.3466,-166.8314C38.3466,-159.131 38.3466,-149.9743 38.3466,-141.4166"/>
<polygon fill="#000000" stroke="#000000" points="41.8467,-141.4132 38.3466,-131.4133 34.8467,-141.4133 41.8467,-141.4132"/>
</g>
<!-- 到哪去 -->
<g id="node4" class="node">
<title>到哪去</title>
<ellipse fill="none" stroke="#000000" cx="38.3466" cy="-41" rx="38.1938" ry="18"/>
<text text-anchor="middle" x="38.3466" y="-37.3" font-family="Times,serif" font-size="14.00" fill="#000000">到哪去</text>
</g>
<!-- 来干啥&#45;&gt;到哪去 -->
<g id="edge3" class="edge">
<title>来干啥&#45;&gt;到哪去</title>
<path fill="none" stroke="#000000" d="M38.3466,-94.8314C38.3466,-87.131 38.3466,-77.9743 38.3466,-69.4166"/>
<polygon fill="#000000" stroke="#000000" points="41.8467,-69.4132 38.3466,-59.4133 34.8467,-69.4133 41.8467,-69.4132"/>
</g>
<!-- 时间 -->
<g id="node5" class="node">
<title>时间</title>
<ellipse fill="none" stroke="#000000" cx="124.3466" cy="-257" rx="29.4969" ry="18"/>
<text text-anchor="middle" x="124.3466" y="-253.3" font-family="Times,serif" font-size="14.00" fill="#000000">时间</text>
</g>
<!-- 昨天 -->
<g id="node6" class="node">
<title>昨天</title>
<ellipse fill="none" stroke="#000000" cx="124.3466" cy="-185" rx="29.4969" ry="18"/>
<text text-anchor="middle" x="124.3466" y="-181.3" font-family="Times,serif" font-size="14.00" fill="#000000">昨天</text>
</g>
<!-- 时间&#45;&gt;昨天 -->
<g id="edge4" class="edge">
<title>时间&#45;&gt;昨天</title>
<path fill="none" stroke="#000000" d="M124.3466,-238.8314C124.3466,-231.131 124.3466,-221.9743 124.3466,-213.4166"/>
<polygon fill="#000000" stroke="#000000" points="127.8467,-213.4132 124.3466,-203.4133 120.8467,-213.4133 127.8467,-213.4132"/>
</g>
<!-- 今天 -->
<g id="node7" class="node">
<title>今天</title>
<ellipse fill="none" stroke="#000000" cx="124.3466" cy="-113" rx="29.4969" ry="18"/>
<text text-anchor="middle" x="124.3466" y="-109.3" font-family="Times,serif" font-size="14.00" fill="#000000">今天</text>
</g>
<!-- 昨天&#45;&gt;今天 -->
<g id="edge5" class="edge">
<title>昨天&#45;&gt;今天</title>
<path fill="none" stroke="#000000" d="M124.3466,-166.8314C124.3466,-159.131 124.3466,-149.9743 124.3466,-141.4166"/>
<polygon fill="#000000" stroke="#000000" points="127.8467,-141.4132 124.3466,-131.4133 120.8467,-141.4133 127.8467,-141.4132"/>
</g>
<!-- 明天 -->
<g id="node8" class="node">
<title>明天</title>
<ellipse fill="none" stroke="#000000" cx="124.3466" cy="-41" rx="29.4969" ry="18"/>
<text text-anchor="middle" x="124.3466" y="-37.3" font-family="Times,serif" font-size="14.00" fill="#000000">明天</text>
</g>
<!-- 今天&#45;&gt;明天 -->
<g id="edge6" class="edge">
<title>今天&#45;&gt;明天</title>
<path fill="none" stroke="#000000" d="M124.3466,-94.8314C124.3466,-87.131 124.3466,-77.9743 124.3466,-69.4166"/>
<polygon fill="#000000" stroke="#000000" points="127.8467,-69.4132 124.3466,-59.4133 120.8467,-69.4133 127.8467,-69.4132"/>
</g>
<!-- 社科 -->
<g id="node9" class="node">
<title>社科</title>
<ellipse fill="none" stroke="#000000" cx="219.3466" cy="-257" rx="29.4969" ry="18"/>
<text text-anchor="middle" x="219.3466" y="-253.3" font-family="Times,serif" font-size="14.00" fill="#000000">社科</text>
</g>
<!-- 历史 -->
<g id="node10" class="node">
<title>历史</title>
<ellipse fill="none" stroke="#000000" cx="219.3466" cy="-185" rx="29.4969" ry="18"/>
<text text-anchor="middle" x="219.3466" y="-181.3" font-family="Times,serif" font-size="14.00" fill="#000000">历史</text>
</g>
<!-- 社科&#45;&gt;历史 -->
<g id="edge7" class="edge">
<title>社科&#45;&gt;历史</title>
<path fill="none" stroke="#000000" d="M219.3466,-238.8314C219.3466,-231.131 219.3466,-221.9743 219.3466,-213.4166"/>
<polygon fill="#000000" stroke="#000000" points="222.8467,-213.4132 219.3466,-203.4133 215.8467,-213.4133 222.8467,-213.4132"/>
</g>
<!-- 现实 -->
<g id="node11" class="node">
<title>现实</title>
<ellipse fill="none" stroke="#000000" cx="219.3466" cy="-113" rx="29.4969" ry="18"/>
<text text-anchor="middle" x="219.3466" y="-109.3" font-family="Times,serif" font-size="14.00" fill="#000000">现实</text>
</g>
<!-- 历史&#45;&gt;现实 -->
<g id="edge8" class="edge">
<title>历史&#45;&gt;现实</title>
<path fill="none" stroke="#000000" d="M219.3466,-166.8314C219.3466,-159.131 219.3466,-149.9743 219.3466,-141.4166"/>
<polygon fill="#000000" stroke="#000000" points="222.8467,-141.4132 219.3466,-131.4133 215.8467,-141.4133 222.8467,-141.4132"/>
</g>
<!-- 预测未来 -->
<g id="node12" class="node">
<title>预测未来</title>
<ellipse fill="none" stroke="#000000" cx="219.3466" cy="-41" rx="48.1917" ry="18"/>
<text text-anchor="middle" x="219.3466" y="-37.3" font-family="Times,serif" font-size="14.00" fill="#000000">预测未来</text>
</g>
<!-- 现实&#45;&gt;预测未来 -->
<g id="edge9" class="edge">
<title>现实&#45;&gt;预测未来</title>
<path fill="none" stroke="#000000" d="M219.3466,-94.8314C219.3466,-87.131 219.3466,-77.9743 219.3466,-69.4166"/>
<polygon fill="#000000" stroke="#000000" points="222.8467,-69.4132 219.3466,-59.4133 215.8467,-69.4133 222.8467,-69.4132"/>
</g>
<!-- + -->
<g id="node13" class="node">
<title>+</title>
<ellipse fill="none" stroke="#000000" cx="352.3466" cy="-257" rx="27" ry="18"/>
<text text-anchor="middle" x="352.3466" y="-253.3" font-family="Times,serif" font-size="14.00" fill="#000000">+</text>
</g>
<!-- 感性 -->
<g id="node14" class="node">
<title>感性</title>
<ellipse fill="none" stroke="#000000" cx="314.3466" cy="-185" rx="29.4969" ry="18"/>
<text text-anchor="middle" x="314.3466" y="-181.3" font-family="Times,serif" font-size="14.00" fill="#000000">感性</text>
</g>
<!-- +&#45;&gt;感性 -->
<g id="edge10" class="edge">
<title>+&#45;&gt;感性</title>
<path fill="none" stroke="#000000" d="M343.3411,-239.937C338.8638,-231.4537 333.3514,-221.0092 328.3396,-211.513"/>
<polygon fill="#000000" stroke="#000000" points="331.3144,-209.6509 323.5514,-202.4407 325.1237,-212.9182 331.3144,-209.6509"/>
</g>
<!-- 感官 -->
<g id="node17" class="node">
<title>感官</title>
<ellipse fill="none" stroke="#000000" cx="390.3466" cy="-185" rx="29.4969" ry="18"/>
<text text-anchor="middle" x="390.3466" y="-181.3" font-family="Times,serif" font-size="14.00" fill="#000000">感官</text>
</g>
<!-- +&#45;&gt;感官 -->
<g id="edge13" class="edge">
<title>+&#45;&gt;感官</title>
<path fill="none" stroke="#000000" d="M361.3521,-239.937C365.8294,-231.4537 371.3418,-221.0092 376.3536,-211.513"/>
<polygon fill="#000000" stroke="#000000" points="379.5695,-212.9182 381.1418,-202.4407 373.3788,-209.6509 379.5695,-212.9182"/>
</g>
<!-- 抽象 -->
<g id="node15" class="node">
<title>抽象</title>
<ellipse fill="none" stroke="#000000" cx="314.3466" cy="-113" rx="29.4969" ry="18"/>
<text text-anchor="middle" x="314.3466" y="-109.3" font-family="Times,serif" font-size="14.00" fill="#000000">抽象</text>
</g>
<!-- 感性&#45;&gt;抽象 -->
<g id="edge11" class="edge">
<title>感性&#45;&gt;抽象</title>
<path fill="none" stroke="#000000" d="M314.3466,-166.8314C314.3466,-159.131 314.3466,-149.9743 314.3466,-141.4166"/>
<polygon fill="#000000" stroke="#000000" points="317.8467,-141.4132 314.3466,-131.4133 310.8467,-141.4133 317.8467,-141.4132"/>
</g>
<!-- 逻辑 -->
<g id="node16" class="node">
<title>逻辑</title>
<ellipse fill="none" stroke="#000000" cx="314.3466" cy="-41" rx="29.4969" ry="18"/>
<text text-anchor="middle" x="314.3466" y="-37.3" font-family="Times,serif" font-size="14.00" fill="#000000">逻辑</text>
</g>
<!-- 抽象&#45;&gt;逻辑 -->
<g id="edge12" class="edge">
<title>抽象&#45;&gt;逻辑</title>
<path fill="none" stroke="#000000" d="M314.3466,-94.8314C314.3466,-87.131 314.3466,-77.9743 314.3466,-69.4166"/>
<polygon fill="#000000" stroke="#000000" points="317.8467,-69.4132 314.3466,-59.4133 310.8467,-69.4133 317.8467,-69.4132"/>
</g>
<!-- 知性 -->
<g id="node18" class="node">
<title>知性</title>
<ellipse fill="none" stroke="#000000" cx="390.3466" cy="-113" rx="29.4969" ry="18"/>
<text text-anchor="middle" x="390.3466" y="-109.3" font-family="Times,serif" font-size="14.00" fill="#000000">知性</text>
</g>
<!-- 感官&#45;&gt;知性 -->
<g id="edge14" class="edge">
<title>感官&#45;&gt;知性</title>
<path fill="none" stroke="#000000" d="M390.3466,-166.8314C390.3466,-159.131 390.3466,-149.9743 390.3466,-141.4166"/>
<polygon fill="#000000" stroke="#000000" points="393.8467,-141.4132 390.3466,-131.4133 386.8467,-141.4133 393.8467,-141.4132"/>
</g>
<!-- 理性 -->
<g id="node19" class="node">
<title>理性</title>
<ellipse fill="none" stroke="#000000" cx="390.3466" cy="-41" rx="29.4969" ry="18"/>
<text text-anchor="middle" x="390.3466" y="-37.3" font-family="Times,serif" font-size="14.00" fill="#000000">理性</text>
</g>
<!-- 知性&#45;&gt;理性 -->
<g id="edge15" class="edge">
<title>知性&#45;&gt;理性</title>
<path fill="none" stroke="#000000" d="M390.3466,-94.8314C390.3466,-87.131 390.3466,-77.9743 390.3466,-69.4166"/>
<polygon fill="#000000" stroke="#000000" points="393.8467,-69.4132 390.3466,-59.4133 386.8467,-69.4133 393.8467,-69.4132"/>
</g>
</g>
</svg>
