<?xml version="1.0" encoding="UTF-8" standalone="no"?>
<!DOCTYPE svg PUBLIC "-//W3C//DTD SVG 1.1//EN"
 "http://www.w3.org/Graphics/SVG/1.1/DTD/svg11.dtd">
<!-- Generated by graphviz version 2.40.1 (20161225.0304)
 -->
<!-- Title: asd Pages: 1 -->
<svg width="618pt" height="963pt"
 viewBox="0.00 0.00 618.00 963.00" xmlns="http://www.w3.org/2000/svg" xmlns:xlink="http://www.w3.org/1999/xlink">
<g id="graph0" class="graph" transform="scale(1 1) rotate(0) translate(4 959)">
<title>asd</title>
<polygon fill="#f5deb3" stroke="transparent" points="-4,4 -4,-959 614,-959 614,4 -4,4"/>
<g id="clust1" class="cluster">
<title>cluster_2</title>
<polygon fill="#f5deb3" stroke="#000000" points="8,-8 8,-947 602,-947 602,-8 8,-8"/>
<text text-anchor="middle" x="305" y="-931.8" font-family="Times,serif" font-size="14.00" fill="#000000">吴国</text>
</g>
<!-- 太王 -->
<g id="node1" class="node">
<title>太王</title>
<text text-anchor="middle" x="398" y="-894.3" font-family="Times,serif" font-size="14.00" fill="#000000">太王</text>
</g>
<!-- 吴太伯 -->
<g id="node2" class="node">
<title>吴太伯</title>
<text text-anchor="middle" x="321" y="-822.3" font-family="Times,serif" font-size="14.00" fill="#000000">吴太伯</text>
</g>
<!-- 太王&#45;&gt;吴太伯 -->
<g id="edge1" class="edge">
<title>太王&#45;&gt;吴太伯</title>
<path fill="none" stroke="#000000" d="M378.5696,-879.8314C369.268,-871.1337 357.9796,-860.5783 347.8714,-851.1265"/>
<polygon fill="#000000" stroke="#000000" points="350.1189,-848.4363 340.4241,-844.1628 345.3379,-853.5493 350.1189,-848.4363"/>
</g>
<!-- 吴仲雍 -->
<g id="node3" class="node">
<title>吴仲雍</title>
<text text-anchor="middle" x="398" y="-822.3" font-family="Times,serif" font-size="14.00" fill="#000000">吴仲雍</text>
</g>
<!-- 太王&#45;&gt;吴仲雍 -->
<g id="edge2" class="edge">
<title>太王&#45;&gt;吴仲雍</title>
<path fill="none" stroke="#000000" d="M398,-879.8314C398,-872.131 398,-862.9743 398,-854.4166"/>
<polygon fill="#000000" stroke="#000000" points="401.5001,-854.4132 398,-844.4133 394.5001,-854.4133 401.5001,-854.4132"/>
</g>
<!-- 季历 -->
<g id="node4" class="node">
<title>季历</title>
<text text-anchor="middle" x="474" y="-822.3" font-family="Times,serif" font-size="14.00" fill="#000000">季历</text>
</g>
<!-- 太王&#45;&gt;季历 -->
<g id="edge3" class="edge">
<title>太王&#45;&gt;季历</title>
<path fill="none" stroke="#000000" d="M417.178,-879.8314C426.3588,-871.1337 437.5006,-860.5783 447.4776,-851.1265"/>
<polygon fill="#000000" stroke="#000000" points="449.9757,-853.5811 454.8281,-844.1628 445.1615,-848.4995 449.9757,-853.5811"/>
</g>
<!-- 季简 -->
<g id="node7" class="node">
<title>季简</title>
<text text-anchor="middle" x="397" y="-750.3" font-family="Times,serif" font-size="14.00" fill="#000000">季简</text>
</g>
<!-- 吴仲雍&#45;&gt;季简 -->
<g id="edge6" class="edge">
<title>吴仲雍&#45;&gt;季简</title>
<path fill="none" stroke="#000000" d="M397.7477,-807.8314C397.6407,-800.131 397.5135,-790.9743 397.3947,-782.4166"/>
<polygon fill="#000000" stroke="#000000" points="400.8944,-782.3637 397.2557,-772.4133 393.8951,-782.4609 400.8944,-782.3637"/>
</g>
<!-- 昌.文王 -->
<g id="node5" class="node">
<title>昌.文王</title>
<text text-anchor="middle" x="474" y="-750.3" font-family="Times,serif" font-size="14.00" fill="#000000">昌.文王</text>
</g>
<!-- 季历&#45;&gt;昌.文王 -->
<g id="edge4" class="edge">
<title>季历&#45;&gt;昌.文王</title>
<path fill="none" stroke="#000000" d="M474,-807.8314C474,-800.131 474,-790.9743 474,-782.4166"/>
<polygon fill="#000000" stroke="#000000" points="477.5001,-782.4132 474,-772.4133 470.5001,-782.4133 477.5001,-782.4132"/>
</g>
<!-- 周武王 -->
<g id="node6" class="node">
<title>周武王</title>
<text text-anchor="middle" x="474" y="-678.3" font-family="Times,serif" font-size="14.00" fill="#000000">周武王</text>
</g>
<!-- 昌.文王&#45;&gt;周武王 -->
<g id="edge5" class="edge">
<title>昌.文王&#45;&gt;周武王</title>
<path fill="none" stroke="#000000" d="M474,-735.8314C474,-728.131 474,-718.9743 474,-710.4166"/>
<polygon fill="#000000" stroke="#000000" points="477.5001,-710.4132 474,-700.4133 470.5001,-710.4133 477.5001,-710.4132"/>
</g>
<!-- 叔达 -->
<g id="node8" class="node">
<title>叔达</title>
<text text-anchor="middle" x="397" y="-678.3" font-family="Times,serif" font-size="14.00" fill="#000000">叔达</text>
</g>
<!-- 季简&#45;&gt;叔达 -->
<g id="edge7" class="edge">
<title>季简&#45;&gt;叔达</title>
<path fill="none" stroke="#000000" d="M397,-735.8314C397,-728.131 397,-718.9743 397,-710.4166"/>
<polygon fill="#000000" stroke="#000000" points="400.5001,-710.4132 397,-700.4133 393.5001,-710.4133 400.5001,-710.4132"/>
</g>
<!-- 周章 -->
<g id="node9" class="node">
<title>周章</title>
<text text-anchor="middle" x="310" y="-606.3" font-family="Times,serif" font-size="14.00" fill="#000000">周章</text>
</g>
<!-- 叔达&#45;&gt;周章 -->
<g id="edge8" class="edge">
<title>叔达&#45;&gt;周章</title>
<path fill="none" stroke="#000000" d="M375.0462,-663.8314C364.3305,-654.9632 351.2811,-644.1637 339.691,-634.5718"/>
<polygon fill="#000000" stroke="#000000" points="341.8822,-631.8422 331.9467,-628.1628 337.4192,-637.2349 341.8822,-631.8422"/>
</g>
<!-- 虞仲(虞国) -->
<g id="node10" class="node">
<title>虞仲(虞国)</title>
<text text-anchor="middle" x="500" y="-606.3" font-family="Times,serif" font-size="14.00" fill="#000000">虞仲(虞国)</text>
</g>
<!-- 叔达&#45;&gt;虞仲(虞国) -->
<g id="edge9" class="edge">
<title>叔达&#45;&gt;虞仲(虞国)</title>
<path fill="none" stroke="#000000" d="M422.9912,-663.8314C435.9216,-654.7927 451.7222,-643.7476 465.6383,-634.0198"/>
<polygon fill="#000000" stroke="#000000" points="467.8263,-636.7608 474.0171,-628.1628 463.8157,-631.0235 467.8263,-636.7608"/>
</g>
<!-- 熊遂&#45;&gt;柯相&#45;&gt;彊鸠夷&#45;&gt;馀桥疑吾&#45;&gt;柯卢&#45;&gt;周繇&#45;&gt;屈羽&#45;&gt;夷吾&#45;&gt;禽处&#45;&gt;转&#45;&gt;颇高 -->
<g id="node11" class="node">
<title>熊遂&#45;&gt;柯相&#45;&gt;彊鸠夷&#45;&gt;馀桥疑吾&#45;&gt;柯卢&#45;&gt;周繇&#45;&gt;屈羽&#45;&gt;夷吾&#45;&gt;禽处&#45;&gt;转&#45;&gt;颇高</title>
<text text-anchor="middle" x="259" y="-534.3" font-family="Times,serif" font-size="14.00" fill="#000000">熊遂&#45;&gt;柯相&#45;&gt;彊鸠夷&#45;&gt;馀桥疑吾&#45;&gt;柯卢&#45;&gt;周繇&#45;&gt;屈羽&#45;&gt;夷吾&#45;&gt;禽处&#45;&gt;转&#45;&gt;颇高</text>
</g>
<!-- 周章&#45;&gt;熊遂&#45;&gt;柯相&#45;&gt;彊鸠夷&#45;&gt;馀桥疑吾&#45;&gt;柯卢&#45;&gt;周繇&#45;&gt;屈羽&#45;&gt;夷吾&#45;&gt;禽处&#45;&gt;转&#45;&gt;颇高 -->
<g id="edge10" class="edge">
<title>周章&#45;&gt;熊遂&#45;&gt;柯相&#45;&gt;彊鸠夷&#45;&gt;馀桥疑吾&#45;&gt;柯卢&#45;&gt;周繇&#45;&gt;屈羽&#45;&gt;夷吾&#45;&gt;禽处&#45;&gt;转&#45;&gt;颇高</title>
<path fill="none" stroke="#000000" d="M297.1305,-591.8314C291.3165,-583.6232 284.3304,-573.7606 277.9354,-564.7323"/>
<polygon fill="#000000" stroke="#000000" points="280.679,-562.5505 272.0427,-556.4133 274.9669,-566.5966 280.679,-562.5505"/>
</g>
<!-- 晋灭虞虢 -->
<g id="node15" class="node">
<title>晋灭虞虢</title>
<text text-anchor="middle" x="557" y="-534.3" font-family="Times,serif" font-size="14.00" fill="#000000">晋灭虞虢</text>
</g>
<!-- 虞仲(虞国)&#45;&gt;晋灭虞虢 -->
<g id="edge14" class="edge">
<title>虞仲(虞国)&#45;&gt;晋灭虞虢</title>
<path fill="none" stroke="#000000" d="M514.3835,-591.8314C520.9486,-583.5386 528.8507,-573.557 536.0578,-564.4533"/>
<polygon fill="#000000" stroke="#000000" points="538.9599,-566.4262 542.4228,-556.4133 533.4716,-562.0813 538.9599,-566.4262"/>
</g>
<!-- 句卑 -->
<g id="node12" class="node">
<title>句卑</title>
<text text-anchor="middle" x="330" y="-462.3" font-family="Times,serif" font-size="14.00" fill="#000000">句卑</text>
</g>
<!-- 熊遂&#45;&gt;柯相&#45;&gt;彊鸠夷&#45;&gt;馀桥疑吾&#45;&gt;柯卢&#45;&gt;周繇&#45;&gt;屈羽&#45;&gt;夷吾&#45;&gt;禽处&#45;&gt;转&#45;&gt;颇高&#45;&gt;句卑 -->
<g id="edge11" class="edge">
<title>熊遂&#45;&gt;柯相&#45;&gt;彊鸠夷&#45;&gt;馀桥疑吾&#45;&gt;柯卢&#45;&gt;周繇&#45;&gt;屈羽&#45;&gt;夷吾&#45;&gt;禽处&#45;&gt;转&#45;&gt;颇高&#45;&gt;句卑</title>
<path fill="none" stroke="#000000" d="M276.9163,-519.8314C285.3442,-511.2848 295.541,-500.9443 304.736,-491.6198"/>
<polygon fill="#000000" stroke="#000000" points="307.3131,-493.9912 311.8425,-484.4133 302.3289,-489.0761 307.3131,-493.9912"/>
</g>
<!-- 去齐 -->
<g id="node13" class="node">
<title>去齐</title>
<text text-anchor="middle" x="330" y="-390.3" font-family="Times,serif" font-size="14.00" fill="#000000">去齐</text>
</g>
<!-- 句卑&#45;&gt;去齐 -->
<g id="edge12" class="edge">
<title>句卑&#45;&gt;去齐</title>
<path fill="none" stroke="#000000" d="M330,-447.8314C330,-440.131 330,-430.9743 330,-422.4166"/>
<polygon fill="#000000" stroke="#000000" points="333.5001,-422.4132 330,-412.4133 326.5001,-422.4133 333.5001,-422.4132"/>
</g>
<!-- 寿梦 -->
<g id="node14" class="node">
<title>寿梦</title>
<text text-anchor="middle" x="330" y="-318.3" font-family="Times,serif" font-size="14.00" fill="#000000">寿梦</text>
</g>
<!-- 去齐&#45;&gt;寿梦 -->
<g id="edge13" class="edge">
<title>去齐&#45;&gt;寿梦</title>
<path fill="none" stroke="#000000" d="M330,-375.8314C330,-368.131 330,-358.9743 330,-350.4166"/>
<polygon fill="#000000" stroke="#000000" points="333.5001,-350.4132 330,-340.4133 326.5001,-350.4133 333.5001,-350.4132"/>
</g>
<!-- 诸樊1 -->
<g id="node16" class="node">
<title>诸樊1</title>
<text text-anchor="middle" x="222" y="-246.3" font-family="Times,serif" font-size="14.00" fill="#000000">诸樊1</text>
</g>
<!-- 寿梦&#45;&gt;诸樊1 -->
<g id="edge16" class="edge">
<title>寿梦&#45;&gt;诸樊1</title>
<path fill="none" stroke="#000000" d="M302.747,-303.8314C289.0611,-294.7074 272.3085,-283.539 257.6173,-273.7449"/>
<polygon fill="#000000" stroke="#000000" points="259.5062,-270.7977 249.2442,-268.1628 255.6233,-276.6221 259.5062,-270.7977"/>
</g>
<!-- 馀祭2 -->
<g id="node17" class="node">
<title>馀祭2</title>
<text text-anchor="middle" x="294" y="-246.3" font-family="Times,serif" font-size="14.00" fill="#000000">馀祭2</text>
</g>
<!-- 寿梦&#45;&gt;馀祭2 -->
<g id="edge17" class="edge">
<title>寿梦&#45;&gt;馀祭2</title>
<path fill="none" stroke="#000000" d="M320.9157,-303.8314C316.9385,-295.8771 312.1845,-286.369 307.7861,-277.5723"/>
<polygon fill="#000000" stroke="#000000" points="310.8093,-275.7923 303.2066,-268.4133 304.5483,-278.9228 310.8093,-275.7923"/>
</g>
<!-- 馀眛3 -->
<g id="node18" class="node">
<title>馀眛3</title>
<text text-anchor="middle" x="366" y="-246.3" font-family="Times,serif" font-size="14.00" fill="#000000">馀眛3</text>
</g>
<!-- 寿梦&#45;&gt;馀眛3 -->
<g id="edge18" class="edge">
<title>寿梦&#45;&gt;馀眛3</title>
<path fill="none" stroke="#000000" d="M339.0843,-303.8314C343.0615,-295.8771 347.8155,-286.369 352.2139,-277.5723"/>
<polygon fill="#000000" stroke="#000000" points="355.4517,-278.9228 356.7934,-268.4133 349.1907,-275.7923 355.4517,-278.9228"/>
</g>
<!-- 季札(延陵季子) -->
<g id="node19" class="node">
<title>季札(延陵季子)</title>
<text text-anchor="middle" x="467" y="-246.3" font-family="Times,serif" font-size="14.00" fill="#000000">季札(延陵季子)</text>
</g>
<!-- 寿梦&#45;&gt;季札(延陵季子) -->
<g id="edge19" class="edge">
<title>寿梦&#45;&gt;季札(延陵季子)</title>
<path fill="none" stroke="#000000" d="M357.0668,-307.7751C376.0355,-297.8061 401.7941,-284.2688 423.6093,-272.8038"/>
<polygon fill="#000000" stroke="#000000" points="425.4623,-275.784 432.686,-268.0336 422.2057,-269.5876 425.4623,-275.784"/>
</g>
<!-- 晋灭虞虢&#45;&gt;句卑 -->
<g id="edge15" class="edge">
<title>晋灭虞虢&#45;&gt;句卑</title>
<path fill="none" stroke="#000000" d="M519.9409,-523.1937C516.9271,-522.0827 513.9192,-521.0047 511,-520 461.6838,-503.0274 403.7824,-486.301 366.9986,-476.066"/>
<polygon fill="#000000" stroke="#000000" points="367.7797,-472.6507 357.2084,-473.3566 365.9125,-479.3971 367.7797,-472.6507"/>
</g>
<!-- (阖庐)光5 -->
<g id="node23" class="node">
<title>(阖庐)光5</title>
<text text-anchor="middle" x="222" y="-174.3" font-family="Times,serif" font-size="14.00" fill="#000000">(阖庐)光5</text>
</g>
<!-- 诸樊1&#45;&gt;(阖庐)光5 -->
<g id="edge23" class="edge">
<title>诸樊1&#45;&gt;(阖庐)光5</title>
<path fill="none" stroke="#000000" d="M222,-231.8314C222,-224.131 222,-214.9743 222,-206.4166"/>
<polygon fill="#000000" stroke="#000000" points="225.5001,-206.4132 222,-196.4133 218.5001,-206.4133 225.5001,-206.4132"/>
</g>
<!-- 僚4 -->
<g id="node20" class="node">
<title>僚4</title>
<text text-anchor="middle" x="366" y="-174.3" font-family="Times,serif" font-size="14.00" fill="#000000">僚4</text>
</g>
<!-- 馀眛3&#45;&gt;僚4 -->
<g id="edge20" class="edge">
<title>馀眛3&#45;&gt;僚4</title>
<path fill="none" stroke="#000000" d="M366,-231.8314C366,-224.131 366,-214.9743 366,-206.4166"/>
<polygon fill="#000000" stroke="#000000" points="369.5001,-206.4132 366,-196.4133 362.5001,-206.4133 369.5001,-206.4132"/>
</g>
<!-- 烛庸 -->
<g id="node21" class="node">
<title>烛庸</title>
<text text-anchor="middle" x="330" y="-102.3" font-family="Times,serif" font-size="14.00" fill="#000000">烛庸</text>
</g>
<!-- 僚4&#45;&gt;烛庸 -->
<g id="edge21" class="edge">
<title>僚4&#45;&gt;烛庸</title>
<path fill="none" stroke="#000000" d="M356.9157,-159.8314C352.9385,-151.8771 348.1845,-142.369 343.7861,-133.5723"/>
<polygon fill="#000000" stroke="#000000" points="346.8093,-131.7923 339.2066,-124.4133 340.5483,-134.9228 346.8093,-131.7923"/>
</g>
<!-- 盖馀 -->
<g id="node22" class="node">
<title>盖馀</title>
<text text-anchor="middle" x="402" y="-102.3" font-family="Times,serif" font-size="14.00" fill="#000000">盖馀</text>
</g>
<!-- 僚4&#45;&gt;盖馀 -->
<g id="edge22" class="edge">
<title>僚4&#45;&gt;盖馀</title>
<path fill="none" stroke="#000000" d="M375.0843,-159.8314C379.0615,-151.8771 383.8155,-142.369 388.2139,-133.5723"/>
<polygon fill="#000000" stroke="#000000" points="391.4517,-134.9228 392.7934,-124.4133 385.1907,-131.7923 391.4517,-134.9228"/>
</g>
<!-- 夫差6 -->
<g id="node24" class="node">
<title>夫差6</title>
<text text-anchor="middle" x="222" y="-102.3" font-family="Times,serif" font-size="14.00" fill="#000000">夫差6</text>
</g>
<!-- (阖庐)光5&#45;&gt;夫差6 -->
<g id="edge24" class="edge">
<title>(阖庐)光5&#45;&gt;夫差6</title>
<path fill="none" stroke="#000000" d="M222,-159.8314C222,-152.131 222,-142.9743 222,-134.4166"/>
<polygon fill="#000000" stroke="#000000" points="225.5001,-134.4132 222,-124.4133 218.5001,-134.4133 225.5001,-134.4132"/>
</g>
<!-- 友 -->
<g id="node25" class="node">
<title>友</title>
<text text-anchor="middle" x="222" y="-30.3" font-family="Times,serif" font-size="14.00" fill="#000000">友</text>
</g>
<!-- 夫差6&#45;&gt;友 -->
<g id="edge25" class="edge">
<title>夫差6&#45;&gt;友</title>
<path fill="none" stroke="#000000" d="M222,-87.8314C222,-80.131 222,-70.9743 222,-62.4166"/>
<polygon fill="#000000" stroke="#000000" points="225.5001,-62.4132 222,-52.4133 218.5001,-62.4133 225.5001,-62.4132"/>
</g>
</g>
</svg>
