<?xml version="1.0" encoding="UTF-8" standalone="no"?>
<!DOCTYPE svg PUBLIC "-//W3C//DTD SVG 1.1//EN"
 "http://www.w3.org/Graphics/SVG/1.1/DTD/svg11.dtd">
<!-- Generated by graphviz version 2.40.1 (20161225.0304)
 -->
<!-- Title: asd Pages: 1 -->
<svg width="875pt" height="139pt"
 viewBox="0.00 0.00 874.64 139.00" xmlns="http://www.w3.org/2000/svg" xmlns:xlink="http://www.w3.org/1999/xlink">
<g id="graph0" class="graph" transform="scale(1 1) rotate(0) translate(4 135)">
<title>asd</title>
<polygon fill="#fffafa" stroke="transparent" points="-4,4 -4,-135 870.6407,-135 870.6407,4 -4,4"/>
<text text-anchor="middle" x="433.3204" y="-7.8" font-family="Times,serif" font-size="14.00" fill="#000000">纯粹理性批判</text>
<!-- 自然的形而上学 -->
<g id="node1" class="node">
<title>自然的形而上学</title>
<ellipse fill="none" stroke="#000000" cx="75.3933" cy="-113" rx="75.2868" ry="18"/>
<text text-anchor="middle" x="75.3933" y="-109.3" font-family="Times,serif" font-size="14.00" fill="#000000">自然的形而上学</text>
</g>
<!-- 思辨理性 -->
<g id="node2" class="node">
<title>思辨理性</title>
<ellipse fill="none" stroke="#000000" cx="75.3933" cy="-41" rx="48.1917" ry="18"/>
<text text-anchor="middle" x="75.3933" y="-37.3" font-family="Times,serif" font-size="14.00" fill="#000000">思辨理性</text>
</g>
<!-- 自然的形而上学&#45;&gt;思辨理性 -->
<g id="edge1" class="edge">
<title>自然的形而上学&#45;&gt;思辨理性</title>
<path fill="none" stroke="#000000" d="M75.3933,-94.8314C75.3933,-87.131 75.3933,-77.9743 75.3933,-69.4166"/>
<polygon fill="#000000" stroke="#000000" points="78.8934,-69.4132 75.3933,-59.4133 71.8934,-69.4133 78.8934,-69.4132"/>
</g>
<!-- 道德的形而上学 -->
<g id="node3" class="node">
<title>道德的形而上学</title>
<ellipse fill="none" stroke="#000000" cx="244.3933" cy="-113" rx="75.2868" ry="18"/>
<text text-anchor="middle" x="244.3933" y="-109.3" font-family="Times,serif" font-size="14.00" fill="#000000">道德的形而上学</text>
</g>
<!-- 纯粹理性 -->
<g id="node4" class="node">
<title>纯粹理性</title>
<ellipse fill="none" stroke="#000000" cx="244.3933" cy="-41" rx="48.1917" ry="18"/>
<text text-anchor="middle" x="244.3933" y="-37.3" font-family="Times,serif" font-size="14.00" fill="#000000">纯粹理性</text>
</g>
<!-- 道德的形而上学&#45;&gt;纯粹理性 -->
<g id="edge2" class="edge">
<title>道德的形而上学&#45;&gt;纯粹理性</title>
<path fill="none" stroke="#000000" d="M244.3933,-94.8314C244.3933,-87.131 244.3933,-77.9743 244.3933,-69.4166"/>
<polygon fill="#000000" stroke="#000000" points="247.8934,-69.4132 244.3933,-59.4133 240.8934,-69.4133 247.8934,-69.4132"/>
</g>
<!-- 分析判断的主词 -->
<g id="node5" class="node">
<title>分析判断的主词</title>
<ellipse fill="none" stroke="#000000" cx="457.3933" cy="-113" rx="75.2868" ry="18"/>
<text text-anchor="middle" x="457.3933" y="-109.3" font-family="Times,serif" font-size="14.00" fill="#000000">分析判断的主词</text>
</g>
<!-- 分概念1 -->
<g id="node6" class="node">
<title>分概念1</title>
<ellipse fill="none" stroke="#000000" cx="353.3933" cy="-41" rx="42.7926" ry="18"/>
<text text-anchor="middle" x="353.3933" y="-37.3" font-family="Times,serif" font-size="14.00" fill="#000000">分概念1</text>
</g>
<!-- 分析判断的主词&#45;&gt;分概念1 -->
<g id="edge3" class="edge">
<title>分析判断的主词&#45;&gt;分概念1</title>
<path fill="none" stroke="#000000" d="M432.7468,-95.937C418.1505,-85.8319 399.5346,-72.944 384.0025,-62.1909"/>
<polygon fill="#000000" stroke="#000000" points="385.95,-59.2824 375.7358,-56.4679 381.9655,-65.0377 385.95,-59.2824"/>
</g>
<!-- 分概念2 -->
<g id="node7" class="node">
<title>分概念2</title>
<ellipse fill="none" stroke="#000000" cx="457.3933" cy="-41" rx="42.7926" ry="18"/>
<text text-anchor="middle" x="457.3933" y="-37.3" font-family="Times,serif" font-size="14.00" fill="#000000">分概念2</text>
</g>
<!-- 分析判断的主词&#45;&gt;分概念2 -->
<g id="edge4" class="edge">
<title>分析判断的主词&#45;&gt;分概念2</title>
<path fill="none" stroke="#000000" d="M457.3933,-94.8314C457.3933,-87.131 457.3933,-77.9743 457.3933,-69.4166"/>
<polygon fill="#000000" stroke="#000000" points="460.8934,-69.4132 457.3933,-59.4133 453.8934,-69.4133 460.8934,-69.4132"/>
</g>
<!-- ... -->
<g id="node8" class="node">
<title>...</title>
<ellipse fill="none" stroke="#000000" cx="545.3933" cy="-41" rx="27" ry="18"/>
<text text-anchor="middle" x="545.3933" y="-37.3" font-family="Times,serif" font-size="14.00" fill="#000000">...</text>
</g>
<!-- 分析判断的主词&#45;&gt;... -->
<g id="edge5" class="edge">
<title>分析判断的主词&#45;&gt;...</title>
<path fill="none" stroke="#000000" d="M478.6957,-95.5708C491.2486,-85.3002 507.1958,-72.2525 520.3489,-61.4909"/>
<polygon fill="#000000" stroke="#000000" points="522.5989,-64.1722 528.1222,-55.1309 518.1662,-58.7545 522.5989,-64.1722"/>
</g>
<!-- 主词 -->
<g id="node9" class="node">
<title>主词</title>
<ellipse fill="none" stroke="#000000" cx="595.3933" cy="-113" rx="29.4969" ry="18"/>
<text text-anchor="middle" x="595.3933" y="-109.3" font-family="Times,serif" font-size="14.00" fill="#000000">主词</text>
</g>
<!-- 综合判断 -->
<g id="node11" class="node">
<title>综合判断</title>
<ellipse fill="none" stroke="#000000" cx="638.3933" cy="-41" rx="48.1917" ry="18"/>
<text text-anchor="middle" x="638.3933" y="-37.3" font-family="Times,serif" font-size="14.00" fill="#000000">综合判断</text>
</g>
<!-- 主词&#45;&gt;综合判断 -->
<g id="edge6" class="edge">
<title>主词&#45;&gt;综合判断</title>
<path fill="none" stroke="#000000" d="M605.5837,-95.937C610.6652,-87.4284 616.9251,-76.9468 622.61,-67.4279"/>
<polygon fill="#000000" stroke="#000000" points="625.7045,-69.0725 627.827,-58.6924 619.6946,-65.4833 625.7045,-69.0725"/>
</g>
<!-- 谓词 -->
<g id="node10" class="node">
<title>谓词</title>
<ellipse fill="none" stroke="#000000" cx="671.3933" cy="-113" rx="29.4969" ry="18"/>
<text text-anchor="middle" x="671.3933" y="-109.3" font-family="Times,serif" font-size="14.00" fill="#000000">谓词</text>
</g>
<!-- 谓词&#45;&gt;综合判断 -->
<g id="edge7" class="edge">
<title>谓词&#45;&gt;综合判断</title>
<path fill="none" stroke="#000000" d="M663.4049,-95.5708C659.6108,-87.2927 654.9898,-77.2104 650.7569,-67.9752"/>
<polygon fill="#000000" stroke="#000000" points="653.8857,-66.4012 646.5374,-58.7689 647.5223,-69.3178 653.8857,-66.4012"/>
</g>
<!-- 7+5=? -->
<g id="node12" class="node">
<title>7+5=?</title>
<ellipse fill="none" stroke="#000000" cx="755.3933" cy="-113" rx="34.394" ry="18"/>
<text text-anchor="middle" x="755.3933" y="-109.3" font-family="Times,serif" font-size="14.00" fill="#000000">7+5=?</text>
</g>
<!-- 7+5=12 -->
<g id="node14" class="node">
<title>7+5=12</title>
<ellipse fill="none" stroke="#000000" cx="770.3933" cy="-41" rx="38.9931" ry="18"/>
<text text-anchor="middle" x="770.3933" y="-37.3" font-family="Times,serif" font-size="14.00" fill="#000000">7+5=12</text>
</g>
<!-- 7+5=?&#45;&gt;7+5=12 -->
<g id="edge8" class="edge">
<title>7+5=?&#45;&gt;7+5=12</title>
<path fill="none" stroke="#000000" d="M759.1784,-94.8314C760.7827,-87.131 762.6903,-77.9743 764.4732,-69.4166"/>
<polygon fill="#000000" stroke="#000000" points="767.944,-69.9169 766.5572,-59.4133 761.0912,-68.4892 767.944,-69.9169"/>
</g>
<!-- 数列 -->
<g id="node13" class="node">
<title>数列</title>
<ellipse fill="none" stroke="#000000" cx="837.3933" cy="-113" rx="29.4969" ry="18"/>
<text text-anchor="middle" x="837.3933" y="-109.3" font-family="Times,serif" font-size="14.00" fill="#000000">数列</text>
</g>
<!-- 数列&#45;&gt;7+5=12 -->
<g id="edge9" class="edge">
<title>数列&#45;&gt;7+5=12</title>
<path fill="none" stroke="#000000" d="M822.8553,-97.3771C814.0599,-87.9253 802.6642,-75.6792 792.7418,-65.0163"/>
<polygon fill="#000000" stroke="#000000" points="795.21,-62.5309 785.8354,-57.5945 790.0855,-67.2996 795.21,-62.5309"/>
</g>
</g>
</svg>
