<?xml version="1.0" encoding="UTF-8" standalone="no"?>
<!DOCTYPE svg PUBLIC "-//W3C//DTD SVG 1.1//EN"
 "http://www.w3.org/Graphics/SVG/1.1/DTD/svg11.dtd">
<!-- Generated by graphviz version 2.40.1 (20161225.0304)
 -->
<!-- Title: asd Pages: 1 -->
<svg width="524pt" height="349pt"
 viewBox="0.00 0.00 524.00 349.00" xmlns="http://www.w3.org/2000/svg" xmlns:xlink="http://www.w3.org/1999/xlink">
<g id="graph0" class="graph" transform="scale(1 1) rotate(0) translate(4 345)">
<title>asd</title>
<polygon fill="#fffafa" stroke="transparent" points="-4,4 -4,-345 520,-345 520,4 -4,4"/>
<text text-anchor="middle" x="258" y="-7.8" font-family="Times,serif" font-size="14.00" fill="#000000">资本原始积累</text>
<g id="clust1" class="cluster">
<title>cluster_1</title>
<polygon fill="#fffafa" stroke="#000000" points="8,-258 8,-333 176,-333 176,-258 8,-258"/>
<text text-anchor="middle" x="92" y="-317.8" font-family="Times,serif" font-size="14.00" fill="#000000">农村</text>
</g>
<g id="clust2" class="cluster">
<title>cluster_2</title>
<polygon fill="#fffafa" stroke="#000000" points="15,-175 15,-250 183,-250 183,-175 15,-175"/>
<text text-anchor="middle" x="99" y="-234.8" font-family="Times,serif" font-size="14.00" fill="#000000">城市</text>
</g>
<g id="clust3" class="cluster">
<title>cluster_3</title>
<polygon fill="#fffafa" stroke="#000000" points="191,-31 191,-333 508,-333 508,-31 191,-31"/>
<text text-anchor="middle" x="349.5" y="-317.8" font-family="Times,serif" font-size="14.00" fill="#000000">恶性循环</text>
</g>
<!-- 自耕农 -->
<g id="node1" class="node">
<title>自耕农</title>
<text text-anchor="middle" x="138" y="-280.3" font-family="Times,serif" font-size="14.00" fill="#000000">自耕农</text>
</g>
<!-- 雇佣工人 -->
<g id="node3" class="node">
<title>雇佣工人</title>
<text text-anchor="middle" x="138" y="-197.3" font-family="Times,serif" font-size="14.00" fill="#000000">雇佣工人</text>
</g>
<!-- 自耕农&#45;&gt;雇佣工人 -->
<g id="edge1" class="edge">
<title>自耕农&#45;&gt;雇佣工人</title>
<path fill="none" stroke="#000000" d="M138,-265.9902C138,-255.2963 138,-241.4994 138,-229.3706"/>
<polygon fill="#000000" stroke="#000000" points="141.5001,-229.2612 138,-219.2612 134.5001,-229.2613 141.5001,-229.2612"/>
</g>
<!-- 劳动力池 -->
<g id="node2" class="node">
<title>劳动力池</title>
<text text-anchor="middle" x="53" y="-280.3" font-family="Times,serif" font-size="14.00" fill="#000000">劳动力池</text>
</g>
<!-- 资本池 -->
<g id="node4" class="node">
<title>资本池</title>
<text text-anchor="middle" x="53" y="-197.3" font-family="Times,serif" font-size="14.00" fill="#000000">资本池</text>
</g>
<!-- 劳动力池&#45;&gt;资本池 -->
<g id="edge2" class="edge">
<title>劳动力池&#45;&gt;资本池</title>
<path fill="none" stroke="#000000" d="M53,-265.9902C53,-255.2963 53,-241.4994 53,-229.3706"/>
<polygon fill="#000000" stroke="#000000" points="56.5001,-229.2612 53,-219.2612 49.5001,-229.2613 56.5001,-229.2612"/>
</g>
<!-- 国民财富增长 -->
<g id="node5" class="node">
<title>国民财富增长</title>
<ellipse fill="none" stroke="#000000" cx="387" cy="-284" rx="66.0889" ry="18"/>
<text text-anchor="middle" x="387" y="-280.3" font-family="Times,serif" font-size="14.00" fill="#000000">国民财富增长</text>
</g>
<!-- 土地被剥夺 -->
<g id="node6" class="node">
<title>土地被剥夺</title>
<ellipse fill="none" stroke="#000000" cx="349" cy="-201" rx="57.3905" ry="18"/>
<text text-anchor="middle" x="349" y="-197.3" font-family="Times,serif" font-size="14.00" fill="#000000">土地被剥夺</text>
</g>
<!-- 国民财富增长&#45;&gt;土地被剥夺 -->
<g id="edge3" class="edge">
<title>国民财富增长&#45;&gt;土地被剥夺</title>
<path fill="none" stroke="#000000" d="M378.7546,-265.9902C373.7252,-255.005 367.1967,-240.7455 361.5369,-228.3833"/>
<polygon fill="#000000" stroke="#000000" points="364.5745,-226.61 357.2293,-218.9746 358.2098,-229.524 364.5745,-226.61"/>
</g>
<!-- 人民贫困 -->
<g id="node7" class="node">
<title>人民贫困</title>
<ellipse fill="none" stroke="#000000" cx="349" cy="-129" rx="48.1917" ry="18"/>
<text text-anchor="middle" x="349" y="-125.3" font-family="Times,serif" font-size="14.00" fill="#000000">人民贫困</text>
</g>
<!-- 土地被剥夺&#45;&gt;人民贫困 -->
<g id="edge4" class="edge">
<title>土地被剥夺&#45;&gt;人民贫困</title>
<path fill="none" stroke="#000000" d="M349,-182.8314C349,-175.131 349,-165.9743 349,-157.4166"/>
<polygon fill="#000000" stroke="#000000" points="352.5001,-157.4132 349,-147.4133 345.5001,-157.4133 352.5001,-157.4132"/>
</g>
<!-- 劳动力价格下降 -->
<g id="node8" class="node">
<title>劳动力价格下降</title>
<ellipse fill="none" stroke="#000000" cx="425" cy="-57" rx="75.2868" ry="18"/>
<text text-anchor="middle" x="425" y="-53.3" font-family="Times,serif" font-size="14.00" fill="#000000">劳动力价格下降</text>
</g>
<!-- 人民贫困&#45;&gt;劳动力价格下降 -->
<g id="edge5" class="edge">
<title>人民贫困&#45;&gt;劳动力价格下降</title>
<path fill="none" stroke="#000000" d="M367.0109,-111.937C376.5478,-102.9021 388.4329,-91.6425 398.956,-81.6733"/>
<polygon fill="#000000" stroke="#000000" points="401.4722,-84.1107 406.3247,-74.6924 396.658,-79.0291 401.4722,-84.1107"/>
</g>
<!-- 国家力量下滑 -->
<g id="node9" class="node">
<title>国家力量下滑</title>
<ellipse fill="none" stroke="#000000" cx="265" cy="-57" rx="66.0889" ry="18"/>
<text text-anchor="middle" x="265" y="-53.3" font-family="Times,serif" font-size="14.00" fill="#000000">国家力量下滑</text>
</g>
<!-- 人民贫困&#45;&gt;国家力量下滑 -->
<g id="edge7" class="edge">
<title>人民贫困&#45;&gt;国家力量下滑</title>
<path fill="none" stroke="#000000" d="M329.5176,-112.3008C318.6241,-102.9636 304.8614,-91.1669 292.848,-80.8697"/>
<polygon fill="#000000" stroke="#000000" points="295.1241,-78.2109 285.2537,-74.3603 290.5685,-83.5257 295.1241,-78.2109"/>
</g>
<!-- 劳动力价格下降&#45;&gt;国民财富增长 -->
<g id="edge6" class="edge">
<title>劳动力价格下降&#45;&gt;国民财富增长</title>
<path fill="none" stroke="#000000" d="M427.7047,-75.072C432.1869,-110.1832 438.4981,-189.4787 415,-250 413.9362,-252.74 412.5606,-255.4236 410.9908,-258.0061"/>
<polygon fill="#000000" stroke="#000000" points="408.0146,-256.1522 405.0767,-266.3315 413.7213,-260.2061 408.0146,-256.1522"/>
</g>
</g>
</svg>
