<?xml version="1.0" encoding="UTF-8" standalone="no"?>
<!DOCTYPE svg PUBLIC "-//W3C//DTD SVG 1.1//EN"
 "http://www.w3.org/Graphics/SVG/1.1/DTD/svg11.dtd">
<!-- Generated by graphviz version 2.40.1 (20161225.0304)
 -->
<!-- Title: asd Pages: 1 -->
<svg width="360pt" height="410pt"
 viewBox="0.00 0.00 360.00 410.00" xmlns="http://www.w3.org/2000/svg" xmlns:xlink="http://www.w3.org/1999/xlink">
<g id="graph0" class="graph" transform="scale(1 1) rotate(0) translate(4 406)">
<title>asd</title>
<polygon fill="#fffafa" stroke="transparent" points="-4,4 -4,-406 356,-406 356,4 -4,4"/>
<text text-anchor="middle" x="176" y="-7.8" font-family="Times,serif" font-size="14.00" fill="#000000">反馈系统</text>
<g id="clust1" class="cluster">
<title>cluster_1</title>
<polygon fill="#fffafa" stroke="#000000" points="8,-31 8,-394 174,-394 174,-31 8,-31"/>
<text text-anchor="middle" x="91" y="-378.8" font-family="Times,serif" font-size="14.00" fill="#000000">结构1</text>
</g>
<g id="clust2" class="cluster">
<title>cluster_2</title>
<polygon fill="#fffafa" stroke="#000000" points="182,-31 182,-394 344,-394 344,-31 182,-31"/>
<text text-anchor="middle" x="263" y="-378.8" font-family="Times,serif" font-size="14.00" fill="#000000">结构2</text>
</g>
<!-- 减法器  -->
<g id="node1" class="node">
<title>减法器 </title>
<text text-anchor="middle" x="101" y="-197.3" font-family="Times,serif" font-size="14.00" fill="#000000">减法器 </text>
</g>
<!-- 效应器  -->
<g id="node5" class="node">
<title>效应器 </title>
<polygon fill="none" stroke="#000000" points="107.5,-147 44.5,-147 44.5,-111 107.5,-111 107.5,-147"/>
<text text-anchor="middle" x="76" y="-125.3" font-family="Times,serif" font-size="14.00" fill="#000000">效应器 </text>
</g>
<!-- 减法器 &#45;&gt;效应器  -->
<g id="edge3" class="edge">
<title>减法器 &#45;&gt;效应器 </title>
<path fill="none" stroke="#000000" d="M94.6914,-182.8314C91.9883,-175.0463 88.7684,-165.7729 85.769,-157.1347"/>
<polygon fill="#000000" stroke="#000000" points="88.98,-155.7119 82.3935,-147.4133 82.3673,-158.0081 88.98,-155.7119"/>
</g>
<!--   -->
<g id="node2" class="node">
<title> </title>
<text text-anchor="middle" x="101" y="-341.3" font-family="Times,serif" font-size="14.00" fill="#000000"> </text>
</g>
<!-- 补偿器  -->
<g id="node4" class="node">
<title>补偿器 </title>
<polygon fill="none" stroke="#000000" points="132.5,-291 69.5,-291 69.5,-255 132.5,-255 132.5,-291"/>
<text text-anchor="middle" x="101" y="-269.3" font-family="Times,serif" font-size="14.00" fill="#000000">补偿器 </text>
</g>
<!--  &#45;&gt;补偿器  -->
<g id="edge1" class="edge">
<title> &#45;&gt;补偿器 </title>
<path fill="none" stroke="#000000" d="M101,-326.8314C101,-319.131 101,-309.9743 101,-301.4166"/>
<polygon fill="#000000" stroke="#000000" points="104.5001,-301.4132 101,-291.4133 97.5001,-301.4133 104.5001,-301.4132"/>
</g>
<!-- 输出  -->
<g id="node3" class="node">
<title>输出 </title>
<text text-anchor="middle" x="43" y="-53.3" font-family="Times,serif" font-size="14.00" fill="#000000">输出 </text>
</g>
<!-- 补偿器 &#45;&gt;减法器  -->
<g id="edge2" class="edge">
<title>补偿器 &#45;&gt;减法器 </title>
<path fill="none" stroke="#000000" d="M101,-254.8314C101,-247.131 101,-237.9743 101,-229.4166"/>
<polygon fill="#000000" stroke="#000000" points="104.5001,-229.4132 101,-219.4133 97.5001,-229.4133 104.5001,-229.4132"/>
</g>
<!-- 效应器 &#45;&gt;输出  -->
<g id="edge6" class="edge">
<title>效应器 &#45;&gt;输出 </title>
<path fill="none" stroke="#000000" d="M67.6727,-110.8314C64.027,-102.8771 59.6691,-93.369 55.6373,-84.5723"/>
<polygon fill="#000000" stroke="#000000" points="58.7877,-83.0456 51.4394,-75.4133 52.4243,-85.9622 58.7877,-83.0456"/>
</g>
<!-- 反馈回路  -->
<g id="node6" class="node">
<title>反馈回路 </title>
<polygon fill="none" stroke="#000000" points="165.5,-75 88.5,-75 88.5,-39 165.5,-39 165.5,-75"/>
<text text-anchor="middle" x="127" y="-53.3" font-family="Times,serif" font-size="14.00" fill="#000000">反馈回路 </text>
</g>
<!-- 效应器 &#45;&gt;反馈回路  -->
<g id="edge4" class="edge">
<title>效应器 &#45;&gt;反馈回路 </title>
<path fill="none" stroke="#000000" d="M88.8695,-110.8314C94.6835,-102.6232 101.6696,-92.7606 108.0646,-83.7323"/>
<polygon fill="#000000" stroke="#000000" points="111.0331,-85.5966 113.9573,-75.4133 105.321,-81.5505 111.0331,-85.5966"/>
</g>
<!-- 反馈回路 &#45;&gt;减法器  -->
<g id="edge5" class="edge">
<title>反馈回路 &#45;&gt;减法器 </title>
<path fill="none" stroke="#000000" d="M125.9375,-75.075C124.6423,-93.352 121.9814,-122.3443 117,-147 115.2654,-155.5854 112.7857,-164.7742 110.2947,-173.093"/>
<polygon fill="#000000" stroke="#000000" points="106.9316,-172.1211 107.3,-182.7096 113.6151,-174.2025 106.9316,-172.1211"/>
</g>
<!-- 减法器 -->
<g id="node7" class="node">
<title>减法器</title>
<text text-anchor="middle" x="274" y="-269.3" font-family="Times,serif" font-size="14.00" fill="#000000">减法器</text>
</g>
<!-- 补偿器 -->
<g id="node10" class="node">
<title>补偿器</title>
<polygon fill="none" stroke="#000000" points="279.5,-219 220.5,-219 220.5,-183 279.5,-183 279.5,-219"/>
<text text-anchor="middle" x="250" y="-197.3" font-family="Times,serif" font-size="14.00" fill="#000000">补偿器</text>
</g>
<!-- 减法器&#45;&gt;补偿器 -->
<g id="edge8" class="edge">
<title>减法器&#45;&gt;补偿器</title>
<path fill="none" stroke="#000000" d="M267.9438,-254.8314C265.3488,-247.0463 262.2576,-237.7729 259.3782,-229.1347"/>
<polygon fill="#000000" stroke="#000000" points="262.6205,-227.7933 256.1378,-219.4133 255.9797,-230.0069 262.6205,-227.7933"/>
</g>
<!--  &#160; -->
<g id="node8" class="node">
<title> &#160;</title>
<text text-anchor="middle" x="274" y="-341.3" font-family="Times,serif" font-size="14.00" fill="#000000"> &#160;</text>
</g>
<!--  &#160;&#45;&gt;减法器 -->
<g id="edge7" class="edge">
<title> &#160;&#45;&gt;减法器</title>
<path fill="none" stroke="#000000" d="M274,-326.8314C274,-319.131 274,-309.9743 274,-301.4166"/>
<polygon fill="#000000" stroke="#000000" points="277.5001,-301.4132 274,-291.4133 270.5001,-301.4133 277.5001,-301.4132"/>
</g>
<!-- 输出 -->
<g id="node9" class="node">
<title>输出</title>
<text text-anchor="middle" x="217" y="-53.3" font-family="Times,serif" font-size="14.00" fill="#000000">输出</text>
</g>
<!-- 效应器 -->
<g id="node11" class="node">
<title>效应器</title>
<polygon fill="none" stroke="#000000" points="279.5,-147 220.5,-147 220.5,-111 279.5,-111 279.5,-147"/>
<text text-anchor="middle" x="250" y="-125.3" font-family="Times,serif" font-size="14.00" fill="#000000">效应器</text>
</g>
<!-- 补偿器&#45;&gt;效应器 -->
<g id="edge9" class="edge">
<title>补偿器&#45;&gt;效应器</title>
<path fill="none" stroke="#000000" d="M250,-182.8314C250,-175.131 250,-165.9743 250,-157.4166"/>
<polygon fill="#000000" stroke="#000000" points="253.5001,-157.4132 250,-147.4133 246.5001,-157.4133 253.5001,-157.4132"/>
</g>
<!-- 效应器&#45;&gt;输出 -->
<g id="edge10" class="edge">
<title>效应器&#45;&gt;输出</title>
<path fill="none" stroke="#000000" d="M241.6727,-110.8314C238.027,-102.8771 233.6691,-93.369 229.6373,-84.5723"/>
<polygon fill="#000000" stroke="#000000" points="232.7877,-83.0456 225.4394,-75.4133 226.4243,-85.9622 232.7877,-83.0456"/>
</g>
<!-- 反馈回路 -->
<g id="node12" class="node">
<title>反馈回路</title>
<polygon fill="none" stroke="#000000" points="336,-75 262,-75 262,-39 336,-39 336,-75"/>
<text text-anchor="middle" x="299" y="-53.3" font-family="Times,serif" font-size="14.00" fill="#000000">反馈回路</text>
</g>
<!-- 效应器&#45;&gt;反馈回路 -->
<g id="edge11" class="edge">
<title>效应器&#45;&gt;反馈回路</title>
<path fill="none" stroke="#000000" d="M262.3648,-110.8314C267.9509,-102.6232 274.663,-92.7606 280.8072,-83.7323"/>
<polygon fill="#000000" stroke="#000000" points="283.736,-85.6496 286.4687,-75.4133 277.949,-81.7112 283.736,-85.6496"/>
</g>
<!-- 反馈回路&#45;&gt;减法器 -->
<g id="edge12" class="edge">
<title>反馈回路&#45;&gt;减法器</title>
<path fill="none" stroke="#000000" d="M299.1119,-75.1192C299.0236,-105.2139 297.6759,-167.311 289,-219 287.5572,-227.5957 285.2875,-236.7876 282.9463,-245.1061"/>
<polygon fill="#000000" stroke="#000000" points="279.5826,-244.1389 280.1058,-254.7208 286.2957,-246.1222 279.5826,-244.1389"/>
</g>
</g>
</svg>
