<?xml version="1.0" encoding="UTF-8" standalone="no"?>
<!DOCTYPE svg PUBLIC "-//W3C//DTD SVG 1.1//EN"
 "http://www.w3.org/Graphics/SVG/1.1/DTD/svg11.dtd">
<!-- Generated by graphviz version 2.40.1 (20161225.0304)
 -->
<!-- Title: asd Pages: 1 -->
<svg width="801pt" height="229pt"
 viewBox="0.00 0.00 801.15 229.00" xmlns="http://www.w3.org/2000/svg" xmlns:xlink="http://www.w3.org/1999/xlink">
<g id="graph0" class="graph" transform="scale(1 1) rotate(0) translate(4 225)">
<title>asd</title>
<polygon fill="#fffafa" stroke="transparent" points="-4,4 -4,-225 797.1488,-225 797.1488,4 -4,4"/>
<text text-anchor="middle" x="396.5744" y="-7.8" font-family="Times,serif" font-size="14.00" fill="#000000">政治经济学批判:竞争与垄断</text>
<!-- 地租 -->
<g id="node1" class="node">
<title>地租</title>
<ellipse fill="none" stroke="#000000" cx="283.2313" cy="-203" rx="29.4969" ry="18"/>
<text text-anchor="middle" x="283.2313" y="-199.3" font-family="Times,serif" font-size="14.00" fill="#000000">地租</text>
</g>
<!-- 劳动租 -->
<g id="node2" class="node">
<title>劳动租</title>
<ellipse fill="none" stroke="#000000" cx="283.2313" cy="-149" rx="38.1938" ry="18"/>
<text text-anchor="middle" x="283.2313" y="-145.3" font-family="Times,serif" font-size="14.00" fill="#000000">劳动租</text>
</g>
<!-- 地租&#45;&gt;劳动租 -->
<g id="edge20" class="edge">
<title>地租&#45;&gt;劳动租</title>
<path fill="none" stroke="#000000" d="M283.2313,-184.7902C283.2313,-182.3082 283.2313,-179.8262 283.2313,-177.3443"/>
<polygon fill="#000000" stroke="#000000" points="286.7314,-177.1406 283.2313,-167.1406 279.7314,-177.1407 286.7314,-177.1406"/>
</g>
<!-- 土地 -->
<g id="node4" class="node">
<title>土地</title>
<ellipse fill="none" stroke="#000000" cx="395.9245" cy="-203" rx="29.4969" ry="18"/>
<text text-anchor="middle" x="395.9245" y="-199.3" font-family="Times,serif" font-size="14.00" fill="#000000">土地</text>
</g>
<!-- 地租&#45;&gt;土地 -->
<g id="edge1" class="edge">
<title>地租&#45;&gt;土地</title>
<path fill="none" stroke="#000000" d="M312.5459,-203C325.8754,-203 341.8499,-203 356.2334,-203"/>
<polygon fill="#000000" stroke="#000000" points="356.3651,-206.5001 366.3651,-203 356.3651,-199.5001 356.3651,-206.5001"/>
</g>
<!-- 利息 -->
<g id="node3" class="node">
<title>利息</title>
<ellipse fill="none" stroke="#000000" cx="283.2313" cy="-95" rx="29.4969" ry="18"/>
<text text-anchor="middle" x="283.2313" y="-91.3" font-family="Times,serif" font-size="14.00" fill="#000000">利息</text>
</g>
<!-- 劳动租&#45;&gt;利息 -->
<g id="edge21" class="edge">
<title>劳动租&#45;&gt;利息</title>
<path fill="none" stroke="#000000" d="M283.2313,-130.7902C283.2313,-128.3082 283.2313,-125.8262 283.2313,-123.3443"/>
<polygon fill="#000000" stroke="#000000" points="286.7314,-123.1406 283.2313,-113.1406 279.7314,-123.1407 286.7314,-123.1406"/>
</g>
<!-- 劳动力 -->
<g id="node5" class="node">
<title>劳动力</title>
<ellipse fill="none" stroke="#000000" cx="395.9245" cy="-149" rx="38.1938" ry="18"/>
<text text-anchor="middle" x="395.9245" y="-145.3" font-family="Times,serif" font-size="14.00" fill="#000000">劳动力</text>
</g>
<!-- 劳动租&#45;&gt;劳动力 -->
<g id="edge4" class="edge">
<title>劳动租&#45;&gt;劳动力</title>
<path fill="none" stroke="#000000" d="M321.6987,-149C329.8583,-149 338.5759,-149 347.0629,-149"/>
<polygon fill="#000000" stroke="#000000" points="347.2478,-152.5001 357.2478,-149 347.2478,-145.5001 347.2478,-152.5001"/>
</g>
<!-- 资本 -->
<g id="node6" class="node">
<title>资本</title>
<ellipse fill="none" stroke="#000000" cx="395.9245" cy="-95" rx="29.4969" ry="18"/>
<text text-anchor="middle" x="395.9245" y="-91.3" font-family="Times,serif" font-size="14.00" fill="#000000">资本</text>
</g>
<!-- 利息&#45;&gt;资本 -->
<g id="edge8" class="edge">
<title>利息&#45;&gt;资本</title>
<path fill="none" stroke="#000000" d="M312.5459,-95C325.8754,-95 341.8499,-95 356.2334,-95"/>
<polygon fill="#000000" stroke="#000000" points="356.3651,-98.5001 366.3651,-95 356.3651,-91.5001 356.3651,-98.5001"/>
</g>
<!-- 债市 -->
<g id="node16" class="node">
<title>债市</title>
<ellipse fill="none" stroke="#000000" cx="395.9245" cy="-41" rx="29.4969" ry="18"/>
<text text-anchor="middle" x="395.9245" y="-37.3" font-family="Times,serif" font-size="14.00" fill="#000000">债市</text>
</g>
<!-- 利息&#45;&gt;债市 -->
<g id="edge22" class="edge">
<title>利息&#45;&gt;债市</title>
<path fill="none" stroke="#000000" d="M306.5814,-83.8112C323.0514,-75.9191 345.3287,-65.2443 363.5177,-56.5286"/>
<polygon fill="#000000" stroke="#000000" points="365.0986,-59.6522 372.6043,-52.1745 362.0737,-53.3395 365.0986,-59.6522"/>
</g>
<!-- 土地&#45;&gt;劳动力 -->
<g id="edge16" class="edge">
<title>土地&#45;&gt;劳动力</title>
<path fill="none" stroke="#000000" d="M395.9245,-184.7902C395.9245,-182.3082 395.9245,-179.8262 395.9245,-177.3443"/>
<polygon fill="#000000" stroke="#000000" points="399.4246,-177.1406 395.9245,-167.1406 392.4246,-177.1407 399.4246,-177.1406"/>
</g>
<!-- 生产资料 -->
<g id="node7" class="node">
<title>生产资料</title>
<ellipse fill="none" stroke="#000000" cx="518.3668" cy="-203" rx="48.1917" ry="18"/>
<text text-anchor="middle" x="518.3668" y="-199.3" font-family="Times,serif" font-size="14.00" fill="#000000">生产资料</text>
</g>
<!-- 土地&#45;&gt;生产资料 -->
<g id="edge2" class="edge">
<title>土地&#45;&gt;生产资料</title>
<path fill="none" stroke="#000000" d="M425.2524,-203C435.7542,-203 447.9932,-203 460.0793,-203"/>
<polygon fill="#000000" stroke="#000000" points="460.1542,-206.5001 470.1542,-203 460.1542,-199.5001 460.1542,-206.5001"/>
</g>
<!-- 劳动力&#45;&gt;资本 -->
<g id="edge17" class="edge">
<title>劳动力&#45;&gt;资本</title>
<path fill="none" stroke="#000000" d="M395.9245,-130.7902C395.9245,-128.3082 395.9245,-125.8262 395.9245,-123.3443"/>
<polygon fill="#000000" stroke="#000000" points="399.4246,-123.1406 395.9245,-113.1406 392.4246,-123.1407 399.4246,-123.1406"/>
</g>
<!-- 工人 -->
<g id="node8" class="node">
<title>工人</title>
<ellipse fill="none" stroke="#000000" cx="518.3668" cy="-149" rx="29.4969" ry="18"/>
<text text-anchor="middle" x="518.3668" y="-145.3" font-family="Times,serif" font-size="14.00" fill="#000000">工人</text>
</g>
<!-- 劳动力&#45;&gt;工人 -->
<g id="edge5" class="edge">
<title>劳动力&#45;&gt;工人</title>
<path fill="none" stroke="#000000" d="M434.33,-149C448.5518,-149 464.6904,-149 478.9966,-149"/>
<polygon fill="#000000" stroke="#000000" points="479.0364,-152.5001 489.0364,-149 479.0363,-145.5001 479.0364,-152.5001"/>
</g>
<!-- 金钱 -->
<g id="node9" class="node">
<title>金钱</title>
<ellipse fill="none" stroke="#000000" cx="518.3668" cy="-95" rx="29.4969" ry="18"/>
<text text-anchor="middle" x="518.3668" y="-91.3" font-family="Times,serif" font-size="14.00" fill="#000000">金钱</text>
</g>
<!-- 资本&#45;&gt;金钱 -->
<g id="edge9" class="edge">
<title>资本&#45;&gt;金钱</title>
<path fill="none" stroke="#000000" d="M425.2524,-95C441.1886,-95 461.125,-95 478.4574,-95"/>
<polygon fill="#000000" stroke="#000000" points="478.8538,-98.5001 488.8537,-95 478.8537,-91.5001 478.8538,-98.5001"/>
</g>
<!-- 生产资料&#45;&gt;工人 -->
<g id="edge18" class="edge">
<title>生产资料&#45;&gt;工人</title>
<path fill="none" stroke="#000000" d="M518.3668,-184.7902C518.3668,-182.3082 518.3668,-179.8262 518.3668,-177.3443"/>
<polygon fill="#000000" stroke="#000000" points="521.8669,-177.1406 518.3668,-167.1406 514.8669,-177.1407 521.8669,-177.1406"/>
</g>
<!-- 上层建筑 -->
<g id="node10" class="node">
<title>上层建筑</title>
<ellipse fill="none" stroke="#000000" cx="650.5582" cy="-203" rx="48.1917" ry="18"/>
<text text-anchor="middle" x="650.5582" y="-199.3" font-family="Times,serif" font-size="14.00" fill="#000000">上层建筑</text>
</g>
<!-- 生产资料&#45;&gt;上层建筑 -->
<g id="edge3" class="edge">
<title>生产资料&#45;&gt;上层建筑</title>
<path fill="none" stroke="#000000" d="M566.4649,-203C574.8483,-203 583.6498,-203 592.2716,-203"/>
<polygon fill="#000000" stroke="#000000" points="592.2745,-206.5001 602.2744,-203 592.2744,-199.5001 592.2745,-206.5001"/>
</g>
<!-- 工人&#45;&gt;金钱 -->
<g id="edge19" class="edge">
<title>工人&#45;&gt;金钱</title>
<path fill="none" stroke="#000000" d="M518.3668,-130.7902C518.3668,-128.3082 518.3668,-125.8262 518.3668,-123.3443"/>
<polygon fill="#000000" stroke="#000000" points="521.8669,-123.1406 518.3668,-113.1406 514.8669,-123.1407 521.8669,-123.1406"/>
</g>
<!-- 工会 -->
<g id="node11" class="node">
<title>工会</title>
<ellipse fill="none" stroke="#000000" cx="650.5582" cy="-149" rx="29.4969" ry="18"/>
<text text-anchor="middle" x="650.5582" y="-145.3" font-family="Times,serif" font-size="14.00" fill="#000000">工会</text>
</g>
<!-- 工人&#45;&gt;工会 -->
<g id="edge6" class="edge">
<title>工人&#45;&gt;工会</title>
<path fill="none" stroke="#000000" d="M547.7044,-149C566.359,-149 590.7416,-149 611.0846,-149"/>
<polygon fill="#000000" stroke="#000000" points="611.3027,-152.5001 621.3027,-149 611.3027,-145.5001 611.3027,-152.5001"/>
</g>
<!-- 期市 -->
<g id="node13" class="node">
<title>期市</title>
<ellipse fill="none" stroke="#000000" cx="650.5582" cy="-68" rx="29.4969" ry="18"/>
<text text-anchor="middle" x="650.5582" y="-64.3" font-family="Times,serif" font-size="14.00" fill="#000000">期市</text>
</g>
<!-- 金钱&#45;&gt;期市 -->
<g id="edge10" class="edge">
<title>金钱&#45;&gt;期市</title>
<path fill="none" stroke="#000000" d="M546.4012,-89.274C565.6798,-85.3363 591.512,-80.0602 612.627,-75.7474"/>
<polygon fill="#000000" stroke="#000000" points="613.467,-79.1482 622.5642,-73.7178 612.0661,-72.2898 613.467,-79.1482"/>
</g>
<!-- 农会 -->
<g id="node12" class="node">
<title>农会</title>
<ellipse fill="none" stroke="#000000" cx="763.9014" cy="-149" rx="29.4969" ry="18"/>
<text text-anchor="middle" x="763.9014" y="-145.3" font-family="Times,serif" font-size="14.00" fill="#000000">农会</text>
</g>
<!-- 工会&#45;&gt;农会 -->
<g id="edge7" class="edge">
<title>工会&#45;&gt;农会</title>
<path fill="none" stroke="#000000" d="M680.0419,-149C693.5539,-149 709.7681,-149 724.3229,-149"/>
<polygon fill="#000000" stroke="#000000" points="724.5653,-152.5001 734.5653,-149 724.5653,-145.5001 724.5653,-152.5001"/>
</g>
<!-- 汇市 -->
<g id="node18" class="node">
<title>汇市</title>
<ellipse fill="none" stroke="#000000" cx="763.9014" cy="-68" rx="29.4969" ry="18"/>
<text text-anchor="middle" x="763.9014" y="-64.3" font-family="Times,serif" font-size="14.00" fill="#000000">汇市</text>
</g>
<!-- 期市&#45;&gt;汇市 -->
<g id="edge15" class="edge">
<title>期市&#45;&gt;汇市</title>
<path fill="none" stroke="#000000" d="M680.0419,-68C693.5539,-68 709.7681,-68 724.3229,-68"/>
<polygon fill="#000000" stroke="#000000" points="724.5653,-71.5001 734.5653,-68 724.5653,-64.5001 724.5653,-71.5001"/>
</g>
<!-- 银行 -->
<g id="node14" class="node">
<title>银行</title>
<ellipse fill="none" stroke="#000000" cx="160.7889" cy="-41" rx="29.4969" ry="18"/>
<text text-anchor="middle" x="160.7889" y="-37.3" font-family="Times,serif" font-size="14.00" fill="#000000">银行</text>
</g>
<!-- 投行 -->
<g id="node15" class="node">
<title>投行</title>
<ellipse fill="none" stroke="#000000" cx="283.2313" cy="-41" rx="29.4969" ry="18"/>
<text text-anchor="middle" x="283.2313" y="-37.3" font-family="Times,serif" font-size="14.00" fill="#000000">投行</text>
</g>
<!-- 银行&#45;&gt;投行 -->
<g id="edge11" class="edge">
<title>银行&#45;&gt;投行</title>
<path fill="none" stroke="#000000" d="M190.1169,-41C206.0531,-41 225.9895,-41 243.3219,-41"/>
<polygon fill="#000000" stroke="#000000" points="243.7182,-44.5001 253.7182,-41 243.7182,-37.5001 243.7182,-44.5001"/>
</g>
<!-- 投行&#45;&gt;债市 -->
<g id="edge12" class="edge">
<title>投行&#45;&gt;债市</title>
<path fill="none" stroke="#000000" d="M312.5459,-41C325.8754,-41 341.8499,-41 356.2334,-41"/>
<polygon fill="#000000" stroke="#000000" points="356.3651,-44.5001 366.3651,-41 356.3651,-37.5001 356.3651,-44.5001"/>
</g>
<!-- 股市 -->
<g id="node17" class="node">
<title>股市</title>
<ellipse fill="none" stroke="#000000" cx="518.3668" cy="-41" rx="29.4969" ry="18"/>
<text text-anchor="middle" x="518.3668" y="-37.3" font-family="Times,serif" font-size="14.00" fill="#000000">股市</text>
</g>
<!-- 债市&#45;&gt;股市 -->
<g id="edge13" class="edge">
<title>债市&#45;&gt;股市</title>
<path fill="none" stroke="#000000" d="M425.2524,-41C441.1886,-41 461.125,-41 478.4574,-41"/>
<polygon fill="#000000" stroke="#000000" points="478.8538,-44.5001 488.8537,-41 478.8537,-37.5001 478.8538,-44.5001"/>
</g>
<!-- 股市&#45;&gt;期市 -->
<g id="edge14" class="edge">
<title>股市&#45;&gt;期市</title>
<path fill="none" stroke="#000000" d="M546.4012,-46.726C565.6798,-50.6637 591.512,-55.9398 612.627,-60.2526"/>
<polygon fill="#000000" stroke="#000000" points="612.0661,-63.7102 622.5642,-62.2822 613.467,-56.8518 612.0661,-63.7102"/>
</g>
<!-- 私有制 -->
<g id="node19" class="node">
<title>私有制</title>
<ellipse fill="none" stroke="#000000" cx="38.3466" cy="-149" rx="38.1938" ry="18"/>
<text text-anchor="middle" x="38.3466" y="-145.3" font-family="Times,serif" font-size="14.00" fill="#000000">私有制</text>
</g>
<!-- 垄断收益 -->
<g id="node20" class="node">
<title>垄断收益</title>
<ellipse fill="none" stroke="#000000" cx="160.7889" cy="-149" rx="48.1917" ry="18"/>
<text text-anchor="middle" x="160.7889" y="-145.3" font-family="Times,serif" font-size="14.00" fill="#000000">垄断收益</text>
</g>
<!-- 私有制&#45;&gt;垄断收益 -->
<g id="edge23" class="edge">
<title>私有制&#45;&gt;垄断收益</title>
<path fill="none" stroke="#000000" d="M76.7522,-149C84.9183,-149 93.7165,-149 102.4369,-149"/>
<polygon fill="#000000" stroke="#000000" points="102.5956,-152.5001 112.5956,-149 102.5955,-145.5001 102.5956,-152.5001"/>
</g>
<!-- 垄断收益&#45;&gt;地租 -->
<g id="edge24" class="edge">
<title>垄断收益&#45;&gt;地租</title>
<path fill="none" stroke="#000000" d="M192.0031,-162.7662C209.6986,-170.5703 231.8376,-180.3342 249.8746,-188.2889"/>
<polygon fill="#000000" stroke="#000000" points="248.8568,-191.6653 259.4189,-192.4982 251.6815,-185.2605 248.8568,-191.6653"/>
</g>
<!-- 垄断收益&#45;&gt;劳动租 -->
<g id="edge25" class="edge">
<title>垄断收益&#45;&gt;劳动租</title>
<path fill="none" stroke="#000000" d="M209.1814,-149C217.5454,-149 226.2439,-149 234.6138,-149"/>
<polygon fill="#000000" stroke="#000000" points="234.6158,-152.5001 244.6158,-149 234.6158,-145.5001 234.6158,-152.5001"/>
</g>
<!-- 垄断收益&#45;&gt;利息 -->
<g id="edge26" class="edge">
<title>垄断收益&#45;&gt;利息</title>
<path fill="none" stroke="#000000" d="M192.0031,-135.2338C209.6986,-127.4297 231.8376,-117.6658 249.8746,-109.7111"/>
<polygon fill="#000000" stroke="#000000" points="251.6815,-112.7395 259.4189,-105.5018 248.8568,-106.3347 251.6815,-112.7395"/>
</g>
</g>
</svg>
