<?xml version="1.0" encoding="UTF-8" standalone="no"?>
<!DOCTYPE svg PUBLIC "-//W3C//DTD SVG 1.1//EN"
 "http://www.w3.org/Graphics/SVG/1.1/DTD/svg11.dtd">
<!-- Generated by graphviz version 2.40.1 (20161225.0304)
 -->
<!-- Title: asd Pages: 1 -->
<svg width="486pt" height="99pt"
 viewBox="0.00 0.00 486.00 99.00" xmlns="http://www.w3.org/2000/svg" xmlns:xlink="http://www.w3.org/1999/xlink">
<g id="graph0" class="graph" transform="scale(1 1) rotate(0) translate(4 95)">
<title>asd</title>
<polygon fill="#f5deb3" stroke="transparent" points="-4,4 -4,-95 482,-95 482,4 -4,4"/>
<g id="clust1" class="cluster">
<title>cluster_2</title>
<polygon fill="#f5deb3" stroke="#000000" points="8,-8 8,-83 470,-83 470,-8 8,-8"/>
<text text-anchor="middle" x="239" y="-67.8" font-family="Times,serif" font-size="14.00" fill="#000000">调查研究</text>
</g>
<!-- 考察情况 -->
<g id="node1" class="node">
<title>考察情况</title>
<text text-anchor="middle" x="53" y="-30.3" font-family="Times,serif" font-size="14.00" fill="#000000">考察情况</text>
</g>
<!-- 提出方案 -->
<g id="node2" class="node">
<title>提出方案</title>
<text text-anchor="middle" x="163" y="-30.3" font-family="Times,serif" font-size="14.00" fill="#000000">提出方案</text>
</g>
<!-- 考察情况&#45;&gt;提出方案 -->
<g id="edge1" class="edge">
<title>考察情况&#45;&gt;提出方案</title>
<path fill="none" stroke="#000000" d="M90.241,-34C98.3942,-34 107.1308,-34 115.6203,-34"/>
<polygon fill="#000000" stroke="#000000" points="115.7974,-37.5001 125.7974,-34 115.7973,-30.5001 115.7974,-37.5001"/>
</g>
<!-- 集中讨论 -->
<g id="node3" class="node">
<title>集中讨论</title>
<text text-anchor="middle" x="273" y="-30.3" font-family="Times,serif" font-size="14.00" fill="#000000">集中讨论</text>
</g>
<!-- 提出方案&#45;&gt;集中讨论 -->
<g id="edge2" class="edge">
<title>提出方案&#45;&gt;集中讨论</title>
<path fill="none" stroke="#000000" d="M200.241,-34C208.3942,-34 217.1308,-34 225.6203,-34"/>
<polygon fill="#000000" stroke="#000000" points="225.7974,-37.5001 235.7974,-34 225.7973,-30.5001 225.7974,-37.5001"/>
</g>
<!-- 征求党内外意见 -->
<g id="node4" class="node">
<title>征求党内外意见</title>
<text text-anchor="middle" x="404" y="-30.3" font-family="Times,serif" font-size="14.00" fill="#000000">征求党内外意见</text>
</g>
<!-- 集中讨论&#45;&gt;征求党内外意见 -->
<g id="edge3" class="edge">
<title>集中讨论&#45;&gt;征求党内外意见</title>
<path fill="none" stroke="#000000" d="M310.1889,-34C318.1267,-34 326.7515,-34 335.4481,-34"/>
<polygon fill="#000000" stroke="#000000" points="335.6534,-37.5001 345.6534,-34 335.6533,-30.5001 335.6534,-37.5001"/>
</g>
</g>
</svg>
