<?xml version="1.0" encoding="UTF-8" standalone="no"?>
<!DOCTYPE svg PUBLIC "-//W3C//DTD SVG 1.1//EN"
 "http://www.w3.org/Graphics/SVG/1.1/DTD/svg11.dtd">
<!-- Generated by graphviz version 2.40.1 (20161225.0304)
 -->
<!-- Title: asd Pages: 1 -->
<svg width="497pt" height="229pt"
 viewBox="0.00 0.00 497.26 229.00" xmlns="http://www.w3.org/2000/svg" xmlns:xlink="http://www.w3.org/1999/xlink">
<g id="graph0" class="graph" transform="scale(1 1) rotate(0) translate(4 225)">
<title>asd</title>
<polygon fill="#fffafa" stroke="transparent" points="-4,4 -4,-225 493.263,-225 493.263,4 -4,4"/>
<text text-anchor="middle" x="244.6315" y="-7.8" font-family="Times,serif" font-size="14.00" fill="#000000">三级资本市场</text>
<!-- 一级市场 -->
<g id="node1" class="node">
<title>一级市场</title>
<ellipse fill="none" stroke="#000000" cx="48.0957" cy="-41" rx="48.1917" ry="18"/>
<text text-anchor="middle" x="48.0957" y="-37.3" font-family="Times,serif" font-size="14.00" fill="#000000">一级市场</text>
</g>
<!-- 发行市场 -->
<g id="node2" class="node">
<title>发行市场</title>
<ellipse fill="none" stroke="#000000" cx="207.5848" cy="-41" rx="48.1917" ry="18"/>
<text text-anchor="middle" x="207.5848" y="-37.3" font-family="Times,serif" font-size="14.00" fill="#000000">发行市场</text>
</g>
<!-- 一级市场&#45;&gt;发行市场 -->
<g id="edge1" class="edge">
<title>一级市场&#45;&gt;发行市场</title>
<path fill="none" stroke="#000000" d="M96.3805,-41C113.0883,-41 131.9904,-41 149.4081,-41"/>
<polygon fill="#000000" stroke="#000000" points="149.4641,-44.5001 159.4641,-41 149.4641,-37.5001 149.4641,-44.5001"/>
</g>
<!-- 企业,机构 -->
<g id="node3" class="node">
<title>企业,机构</title>
<ellipse fill="none" stroke="#000000" cx="404.1205" cy="-41" rx="50.0912" ry="18"/>
<text text-anchor="middle" x="404.1205" y="-37.3" font-family="Times,serif" font-size="14.00" fill="#000000">企业,机构</text>
</g>
<!-- 发行市场&#45;&gt;企业,机构 -->
<g id="edge2" class="edge">
<title>发行市场&#45;&gt;企业,机构</title>
<path fill="none" stroke="#000000" d="M255.9145,-41C282.4357,-41 315.5664,-41 343.7733,-41"/>
<polygon fill="#000000" stroke="#000000" points="343.9213,-44.5001 353.9212,-41 343.9212,-37.5001 343.9213,-44.5001"/>
</g>
<!-- 二级市场 -->
<g id="node4" class="node">
<title>二级市场</title>
<ellipse fill="none" stroke="#000000" cx="48.0957" cy="-95" rx="48.1917" ry="18"/>
<text text-anchor="middle" x="48.0957" y="-91.3" font-family="Times,serif" font-size="14.00" fill="#000000">二级市场</text>
</g>
<!-- 交易市场 -->
<g id="node5" class="node">
<title>交易市场</title>
<ellipse fill="none" stroke="#000000" cx="207.5848" cy="-95" rx="48.1917" ry="18"/>
<text text-anchor="middle" x="207.5848" y="-91.3" font-family="Times,serif" font-size="14.00" fill="#000000">交易市场</text>
</g>
<!-- 二级市场&#45;&gt;交易市场 -->
<g id="edge3" class="edge">
<title>二级市场&#45;&gt;交易市场</title>
<path fill="none" stroke="#000000" d="M96.3805,-95C113.0883,-95 131.9904,-95 149.4081,-95"/>
<polygon fill="#000000" stroke="#000000" points="149.4641,-98.5001 159.4641,-95 149.4641,-91.5001 149.4641,-98.5001"/>
</g>
<!-- 市场价格形成 -->
<g id="node6" class="node">
<title>市场价格形成</title>
<ellipse fill="none" stroke="#000000" cx="404.1205" cy="-95" rx="66.0889" ry="18"/>
<text text-anchor="middle" x="404.1205" y="-91.3" font-family="Times,serif" font-size="14.00" fill="#000000">市场价格形成</text>
</g>
<!-- 交易市场&#45;&gt;市场价格形成 -->
<g id="edge4" class="edge">
<title>交易市场&#45;&gt;市场价格形成</title>
<path fill="none" stroke="#000000" d="M255.9145,-95C277.4952,-95 303.4521,-95 327.5716,-95"/>
<polygon fill="#000000" stroke="#000000" points="327.7779,-98.5001 337.7778,-95 327.7778,-91.5001 327.7779,-98.5001"/>
</g>
<!-- 三级市场 -->
<g id="node7" class="node">
<title>三级市场</title>
<ellipse fill="none" stroke="#000000" cx="48.0957" cy="-149" rx="48.1917" ry="18"/>
<text text-anchor="middle" x="48.0957" y="-145.3" font-family="Times,serif" font-size="14.00" fill="#000000">三级市场</text>
</g>
<!-- 退市股票和其他 -->
<g id="node8" class="node">
<title>退市股票和其他</title>
<ellipse fill="none" stroke="#000000" cx="207.5848" cy="-149" rx="75.2868" ry="18"/>
<text text-anchor="middle" x="207.5848" y="-145.3" font-family="Times,serif" font-size="14.00" fill="#000000">退市股票和其他</text>
</g>
<!-- 三级市场&#45;&gt;退市股票和其他 -->
<g id="edge5" class="edge">
<title>三级市场&#45;&gt;退市股票和其他</title>
<path fill="none" stroke="#000000" d="M96.3805,-149C104.4859,-149 113.1076,-149 121.8258,-149"/>
<polygon fill="#000000" stroke="#000000" points="122.0794,-152.5001 132.0793,-149 122.0793,-145.5001 122.0794,-152.5001"/>
</g>
<!-- 四级市场 -->
<g id="node9" class="node">
<title>四级市场</title>
<ellipse fill="none" stroke="#000000" cx="48.0957" cy="-203" rx="48.1917" ry="18"/>
<text text-anchor="middle" x="48.0957" y="-199.3" font-family="Times,serif" font-size="14.00" fill="#000000">四级市场</text>
</g>
<!-- 非交易所 -->
<g id="node10" class="node">
<title>非交易所</title>
<ellipse fill="none" stroke="#000000" cx="207.5848" cy="-203" rx="48.1917" ry="18"/>
<text text-anchor="middle" x="207.5848" y="-199.3" font-family="Times,serif" font-size="14.00" fill="#000000">非交易所</text>
</g>
<!-- 四级市场&#45;&gt;非交易所 -->
<g id="edge6" class="edge">
<title>四级市场&#45;&gt;非交易所</title>
<path fill="none" stroke="#000000" d="M96.3805,-203C113.0883,-203 131.9904,-203 149.4081,-203"/>
<polygon fill="#000000" stroke="#000000" points="149.4641,-206.5001 159.4641,-203 149.4641,-199.5001 149.4641,-206.5001"/>
</g>
<!-- 区域产权交易中心 -->
<g id="node11" class="node">
<title>区域产权交易中心</title>
<ellipse fill="none" stroke="#000000" cx="404.1205" cy="-203" rx="85.2851" ry="18"/>
<text text-anchor="middle" x="404.1205" y="-199.3" font-family="Times,serif" font-size="14.00" fill="#000000">区域产权交易中心</text>
</g>
<!-- 非交易所&#45;&gt;区域产权交易中心 -->
<g id="edge7" class="edge">
<title>非交易所&#45;&gt;区域产权交易中心</title>
<path fill="none" stroke="#000000" d="M255.9145,-203C271.9295,-203 290.3546,-203 308.6503,-203"/>
<polygon fill="#000000" stroke="#000000" points="308.7852,-206.5001 318.7851,-203 308.7851,-199.5001 308.7852,-206.5001"/>
</g>
</g>
</svg>
