<?xml version="1.0" encoding="UTF-8" standalone="no"?>
<!DOCTYPE svg PUBLIC "-//W3C//DTD SVG 1.1//EN"
 "http://www.w3.org/Graphics/SVG/1.1/DTD/svg11.dtd">
<!-- Generated by graphviz version 2.40.1 (20161225.0304)
 -->
<!-- Title: asd Pages: 1 -->
<svg width="970pt" height="724pt"
 viewBox="0.00 0.00 970.00 724.00" xmlns="http://www.w3.org/2000/svg" xmlns:xlink="http://www.w3.org/1999/xlink">
<g id="graph0" class="graph" transform="scale(1 1) rotate(0) translate(4 720)">
<title>asd</title>
<polygon fill="#f5deb3" stroke="transparent" points="-4,4 -4,-720 966,-720 966,4 -4,4"/>
<g id="clust1" class="cluster">
<title>cluster_2</title>
<polygon fill="#f5deb3" stroke="#000000" points="8,-8 8,-708 560,-708 560,-8 8,-8"/>
<text text-anchor="middle" x="284" y="-692.8" font-family="Times,serif" font-size="14.00" fill="#000000">宏观经济</text>
</g>
<g id="clust3" class="cluster">
<title>cluster_1</title>
<polygon fill="#f5deb3" stroke="#000000" points="568,-8 568,-708 954,-708 954,-8 568,-8"/>
<text text-anchor="middle" x="761" y="-692.8" font-family="Times,serif" font-size="14.00" fill="#000000">微观经济</text>
</g>
<!-- 货 -->
<g id="node1" class="node">
<title>货</title>
<ellipse fill="none" stroke="#000000" cx="378" cy="-534" rx="27" ry="18"/>
<text text-anchor="middle" x="378" y="-530.3" font-family="Times,serif" font-size="14.00" fill="#000000">货</text>
</g>
<!-- 钱 -->
<g id="node2" class="node">
<title>钱</title>
<ellipse fill="none" stroke="#000000" cx="374" cy="-409" rx="27" ry="18"/>
<text text-anchor="middle" x="374" y="-405.3" font-family="Times,serif" font-size="14.00" fill="#000000">钱</text>
</g>
<!-- 货&#45;&gt;钱 -->
<g id="edge1" class="edge">
<title>货&#45;&gt;钱</title>
<path fill="none" stroke="#000000" d="M371.1092,-516.4809C367.2937,-505.8293 362.9402,-491.847 361,-479 358.859,-464.8235 361.327,-449.1229 364.6669,-436.1898"/>
<polygon fill="#000000" stroke="#000000" points="368.0553,-437.0711 367.461,-426.4929 361.329,-435.1329 368.0553,-437.0711"/>
<text text-anchor="middle" x="368.5" y="-467.8" font-family="Times,serif" font-size="14.00" fill="#000000">卖</text>
</g>
<!-- 钱&#45;&gt;货 -->
<g id="edge2" class="edge">
<title>钱&#45;&gt;货</title>
<path fill="none" stroke="#000000" d="M374.7023,-427.3321C375.1031,-438.0261 375.6031,-451.7761 376,-464 376.4469,-477.7652 376.8899,-493.0548 377.245,-505.8243"/>
<polygon fill="#000000" stroke="#000000" points="373.7475,-505.969 377.5207,-515.8692 380.7449,-505.7769 373.7475,-505.969"/>
<text text-anchor="middle" x="383.5" y="-467.8" font-family="Times,serif" font-size="14.00" fill="#000000">买</text>
</g>
<!-- 投资 -->
<g id="node3" class="node">
<title>投资</title>
<ellipse fill="none" stroke="#000000" cx="409" cy="-284" rx="29.4969" ry="18"/>
<text text-anchor="middle" x="409" y="-280.3" font-family="Times,serif" font-size="14.00" fill="#000000">投资</text>
</g>
<!-- 钱&#45;&gt;投资 -->
<g id="edge12" class="edge">
<title>钱&#45;&gt;投资</title>
<path fill="none" stroke="#000000" d="M379.0146,-391.0905C384.8365,-370.2984 394.5049,-335.7681 401.2853,-311.5527"/>
<polygon fill="#000000" stroke="#000000" points="404.6687,-312.4496 403.9947,-301.8762 397.9279,-310.5621 404.6687,-312.4496"/>
</g>
<!-- 等价交换 -->
<g id="node9" class="node">
<title>等价交换</title>
<ellipse fill="none" stroke="#000000" cx="504" cy="-284" rx="48.1917" ry="18"/>
<text text-anchor="middle" x="504" y="-280.3" font-family="Times,serif" font-size="14.00" fill="#000000">等价交换</text>
</g>
<!-- 钱&#45;&gt;等价交换 -->
<g id="edge9" class="edge">
<title>钱&#45;&gt;等价交换</title>
<path fill="none" stroke="#000000" d="M389.4232,-394.17C411.5829,-372.8626 452.6693,-333.3564 479.1471,-307.8971"/>
<polygon fill="#000000" stroke="#000000" points="481.7463,-310.2533 486.5288,-300.7992 476.8945,-305.2074 481.7463,-310.2533"/>
</g>
<!-- 资源货币化 -->
<g id="node10" class="node">
<title>资源货币化</title>
<ellipse fill="none" stroke="#000000" cx="149" cy="-284" rx="57.3905" ry="18"/>
<text text-anchor="middle" x="149" y="-280.3" font-family="Times,serif" font-size="14.00" fill="#000000">资源货币化</text>
</g>
<!-- 钱&#45;&gt;资源货币化 -->
<g id="edge10" class="edge">
<title>钱&#45;&gt;资源货币化</title>
<path fill="none" stroke="#000000" d="M353.2358,-397.4644C315.2161,-376.3423 233.9445,-331.1914 186.1796,-304.6553"/>
<polygon fill="#000000" stroke="#000000" points="187.8238,-301.5649 177.3824,-299.768 184.4242,-307.684 187.8238,-301.5649"/>
</g>
<!-- 通货膨胀/紧缩 -->
<g id="node11" class="node">
<title>通货膨胀/紧缩</title>
<ellipse fill="none" stroke="#000000" cx="293" cy="-284" rx="68.7879" ry="18"/>
<text text-anchor="middle" x="293" y="-280.3" font-family="Times,serif" font-size="14.00" fill="#000000">通货膨胀/紧缩</text>
</g>
<!-- 钱&#45;&gt;通货膨胀/紧缩 -->
<g id="edge11" class="edge">
<title>钱&#45;&gt;通货膨胀/紧缩</title>
<path fill="none" stroke="#000000" d="M363.2438,-392.401C349.6759,-371.4628 326.1821,-335.2069 310.1316,-310.4376"/>
<polygon fill="#000000" stroke="#000000" points="312.9625,-308.3702 304.5872,-301.8814 307.088,-312.1769 312.9625,-308.3702"/>
</g>
<!-- 生产 -->
<g id="node4" class="node">
<title>生产</title>
<ellipse fill="none" stroke="#000000" cx="409" cy="-159" rx="29.4969" ry="18"/>
<text text-anchor="middle" x="409" y="-155.3" font-family="Times,serif" font-size="14.00" fill="#000000">生产</text>
</g>
<!-- 投资&#45;&gt;生产 -->
<g id="edge3" class="edge">
<title>投资&#45;&gt;生产</title>
<path fill="none" stroke="#000000" d="M409,-265.8239C409,-245.2723 409,-211.5472 409,-187.4893"/>
<polygon fill="#000000" stroke="#000000" points="412.5001,-187.198 409,-177.198 405.5001,-187.198 412.5001,-187.198"/>
</g>
<!-- 利润 -->
<g id="node5" class="node">
<title>利润</title>
<ellipse fill="none" stroke="#000000" cx="319" cy="-34" rx="29.4969" ry="18"/>
<text text-anchor="middle" x="319" y="-30.3" font-family="Times,serif" font-size="14.00" fill="#000000">利润</text>
</g>
<!-- 生产&#45;&gt;利润 -->
<g id="edge4" class="edge">
<title>生产&#45;&gt;利润</title>
<path fill="none" stroke="#000000" d="M397.0487,-142.401C381.6505,-121.0145 354.7462,-83.6474 336.9012,-58.8628"/>
<polygon fill="#000000" stroke="#000000" points="339.6842,-56.738 331.0007,-50.6677 334.0034,-60.8281 339.6842,-56.738"/>
</g>
<!-- 利润&#45;&gt;投资 -->
<g id="edge5" class="edge">
<title>利润&#45;&gt;投资</title>
<path fill="none" stroke="#000000" d="M319,-52.0511C319,-64.5341 319,-81.526 319,-96.5 319,-221.5 319,-221.5 319,-221.5 319,-235.9011 350.4811,-255.1296 376.2056,-268.438"/>
<polygon fill="#000000" stroke="#000000" points="374.8489,-271.6737 385.3536,-273.0533 378.002,-265.424 374.8489,-271.6737"/>
<text text-anchor="middle" x="340.5" y="-155.3" font-family="Times,serif" font-size="14.00" fill="#000000">钱生钱</text>
</g>
<!-- 人 -->
<g id="node6" class="node">
<title>人</title>
<ellipse fill="none" stroke="#000000" cx="378" cy="-659" rx="27" ry="18"/>
<text text-anchor="middle" x="378" y="-655.3" font-family="Times,serif" font-size="14.00" fill="#000000">人</text>
</g>
<!-- 人&#45;&gt;货 -->
<g id="edge6" class="edge">
<title>人&#45;&gt;货</title>
<path fill="none" stroke="#000000" d="M378,-640.8239C378,-620.2723 378,-586.5472 378,-562.4893"/>
<polygon fill="#000000" stroke="#000000" points="381.5001,-562.198 378,-552.198 374.5001,-562.198 381.5001,-562.198"/>
</g>
<!-- 土地 -->
<g id="node7" class="node">
<title>土地</title>
<ellipse fill="none" stroke="#000000" cx="304" cy="-659" rx="29.4969" ry="18"/>
<text text-anchor="middle" x="304" y="-655.3" font-family="Times,serif" font-size="14.00" fill="#000000">土地</text>
</g>
<!-- 土地&#45;&gt;货 -->
<g id="edge7" class="edge">
<title>土地&#45;&gt;货</title>
<path fill="none" stroke="#000000" d="M314.1342,-641.8814C326.6998,-620.6557 348.2346,-584.2793 362.7863,-559.6988"/>
<polygon fill="#000000" stroke="#000000" points="365.9057,-561.3 367.9882,-550.9119 359.8821,-557.734 365.9057,-561.3"/>
</g>
<!-- 资本 -->
<g id="node8" class="node">
<title>资本</title>
<ellipse fill="none" stroke="#000000" cx="452" cy="-659" rx="29.4969" ry="18"/>
<text text-anchor="middle" x="452" y="-655.3" font-family="Times,serif" font-size="14.00" fill="#000000">资本</text>
</g>
<!-- 资本&#45;&gt;货 -->
<g id="edge8" class="edge">
<title>资本&#45;&gt;货</title>
<path fill="none" stroke="#000000" d="M441.8658,-641.8814C429.3002,-620.6557 407.7654,-584.2793 393.2137,-559.6988"/>
<polygon fill="#000000" stroke="#000000" points="396.1179,-557.734 388.0118,-550.9119 390.0943,-561.3 396.1179,-557.734"/>
</g>
<!-- 投资品 -->
<g id="node12" class="node">
<title>投资品</title>
<ellipse fill="none" stroke="#000000" cx="214" cy="-659" rx="38.1938" ry="18"/>
<text text-anchor="middle" x="214" y="-655.3" font-family="Times,serif" font-size="14.00" fill="#000000">投资品</text>
</g>
<!-- 股票 -->
<g id="node13" class="node">
<title>股票</title>
<ellipse fill="none" stroke="#000000" cx="288" cy="-534" rx="29.4969" ry="18"/>
<text text-anchor="middle" x="288" y="-530.3" font-family="Times,serif" font-size="14.00" fill="#000000">股票</text>
</g>
<!-- 投资品&#45;&gt;股票 -->
<g id="edge13" class="edge">
<title>投资品&#45;&gt;股票</title>
<path fill="none" stroke="#000000" d="M224.2894,-641.6193C236.8257,-620.443 258.1219,-584.4698 272.6108,-559.9953"/>
<polygon fill="#000000" stroke="#000000" points="275.7155,-561.6213 277.798,-551.2331 269.6919,-558.0553 275.7155,-561.6213"/>
</g>
<!-- 债券 -->
<g id="node14" class="node">
<title>债券</title>
<ellipse fill="none" stroke="#000000" cx="140" cy="-534" rx="29.4969" ry="18"/>
<text text-anchor="middle" x="140" y="-530.3" font-family="Times,serif" font-size="14.00" fill="#000000">债券</text>
</g>
<!-- 投资品&#45;&gt;债券 -->
<g id="edge14" class="edge">
<title>投资品&#45;&gt;债券</title>
<path fill="none" stroke="#000000" d="M203.7106,-641.6193C191.1743,-620.443 169.8781,-584.4698 155.3892,-559.9953"/>
<polygon fill="#000000" stroke="#000000" points="158.3081,-558.0553 150.202,-551.2331 152.2845,-561.6213 158.3081,-558.0553"/>
</g>
<!-- ... -->
<g id="node15" class="node">
<title>...</title>
<ellipse fill="none" stroke="#000000" cx="214" cy="-534" rx="27" ry="18"/>
<text text-anchor="middle" x="214" y="-530.3" font-family="Times,serif" font-size="14.00" fill="#000000">...</text>
</g>
<!-- 投资品&#45;&gt;... -->
<g id="edge15" class="edge">
<title>投资品&#45;&gt;...</title>
<path fill="none" stroke="#000000" d="M214,-640.8239C214,-620.2723 214,-586.5472 214,-562.4893"/>
<polygon fill="#000000" stroke="#000000" points="217.5001,-562.198 214,-552.198 210.5001,-562.198 217.5001,-562.198"/>
</g>
<!-- 定价 -->
<g id="node16" class="node">
<title>定价</title>
<ellipse fill="none" stroke="#000000" cx="184" cy="-409" rx="29.4969" ry="18"/>
<text text-anchor="middle" x="184" y="-405.3" font-family="Times,serif" font-size="14.00" fill="#000000">定价</text>
</g>
<!-- 股票&#45;&gt;定价 -->
<g id="edge16" class="edge">
<title>股票&#45;&gt;定价</title>
<path fill="none" stroke="#000000" d="M274.6167,-517.9143C256.6755,-496.3504 224.6838,-457.8988 203.9103,-432.9306"/>
<polygon fill="#000000" stroke="#000000" points="206.4183,-430.4727 197.3319,-425.0239 201.0372,-434.9497 206.4183,-430.4727"/>
</g>
<!-- 债券&#45;&gt;定价 -->
<g id="edge17" class="edge">
<title>债券&#45;&gt;定价</title>
<path fill="none" stroke="#000000" d="M146.2108,-516.3557C153.5069,-495.628 165.7,-460.9887 174.258,-436.6761"/>
<polygon fill="#000000" stroke="#000000" points="177.6594,-437.5542 177.6783,-426.9593 171.0565,-435.2299 177.6594,-437.5542"/>
</g>
<!-- ...&#45;&gt;定价 -->
<g id="edge18" class="edge">
<title>...&#45;&gt;定价</title>
<path fill="none" stroke="#000000" d="M209.7017,-516.0905C204.7339,-495.3912 196.4983,-461.0762 190.6906,-436.8776"/>
<polygon fill="#000000" stroke="#000000" points="194.0275,-435.7833 188.2903,-426.8762 187.2207,-437.4169 194.0275,-435.7833"/>
</g>
<!-- 定价&#45;&gt;资源货币化 -->
<g id="edge19" class="edge">
<title>定价&#45;&gt;资源货币化</title>
<path fill="none" stroke="#000000" d="M178.9854,-391.0905C173.1966,-370.4165 163.6048,-336.1601 156.8306,-311.9664"/>
<polygon fill="#000000" stroke="#000000" points="160.1859,-310.9686 154.1192,-302.2827 153.4452,-312.8561 160.1859,-310.9686"/>
</g>
<!-- 恶性竞争 -->
<g id="node17" class="node">
<title>恶性竞争</title>
<ellipse fill="none" stroke="#000000" cx="64" cy="-659" rx="48.1917" ry="18"/>
<text text-anchor="middle" x="64" y="-655.3" font-family="Times,serif" font-size="14.00" fill="#000000">恶性竞争</text>
</g>
<!-- 生产率 -->
<g id="node18" class="node">
<title>生产率</title>
<ellipse fill="none" stroke="#000000" cx="54" cy="-534" rx="38.1938" ry="18"/>
<text text-anchor="middle" x="54" y="-530.3" font-family="Times,serif" font-size="14.00" fill="#000000">生产率</text>
</g>
<!-- 恶性竞争&#45;&gt;生产率 -->
<g id="edge20" class="edge">
<title>恶性竞争&#45;&gt;生产率</title>
<path fill="none" stroke="#000000" d="M62.5459,-640.8239C60.9018,-620.2723 58.2038,-586.5472 56.2791,-562.4893"/>
<polygon fill="#000000" stroke="#000000" points="59.7422,-561.887 55.4558,-552.198 52.7645,-562.4453 59.7422,-561.887"/>
<text text-anchor="middle" x="73.5" y="-592.8" font-family="Times,serif" font-size="14.00" fill="#000000">提高</text>
</g>
<!-- 成本 -->
<g id="node19" class="node">
<title>成本</title>
<ellipse fill="none" stroke="#000000" cx="49" cy="-409" rx="29.4969" ry="18"/>
<text text-anchor="middle" x="49" y="-405.3" font-family="Times,serif" font-size="14.00" fill="#000000">成本</text>
</g>
<!-- 生产率&#45;&gt;成本 -->
<g id="edge21" class="edge">
<title>生产率&#45;&gt;成本</title>
<path fill="none" stroke="#000000" d="M53.273,-515.8239C52.4509,-495.2723 51.1019,-461.5472 50.1396,-437.4893"/>
<polygon fill="#000000" stroke="#000000" points="53.6249,-437.0501 49.7279,-427.198 46.6305,-437.3299 53.6249,-437.0501"/>
<text text-anchor="middle" x="65.5" y="-467.8" font-family="Times,serif" font-size="14.00" fill="#000000">降低</text>
</g>
<!-- 价格 -->
<g id="node20" class="node">
<title>价格</title>
<ellipse fill="none" stroke="#000000" cx="45" cy="-284" rx="29.4969" ry="18"/>
<text text-anchor="middle" x="45" y="-280.3" font-family="Times,serif" font-size="14.00" fill="#000000">价格</text>
</g>
<!-- 成本&#45;&gt;价格 -->
<g id="edge22" class="edge">
<title>成本&#45;&gt;价格</title>
<path fill="none" stroke="#000000" d="M48.4184,-390.8239C47.7607,-370.2723 46.6815,-336.5472 45.9117,-312.4893"/>
<polygon fill="#000000" stroke="#000000" points="49.4005,-312.0809 45.5823,-302.198 42.4041,-312.3049 49.4005,-312.0809"/>
<text text-anchor="middle" x="61.5" y="-342.8" font-family="Times,serif" font-size="14.00" fill="#000000">降低</text>
</g>
<!-- 销量 -->
<g id="node21" class="node">
<title>销量</title>
<ellipse fill="none" stroke="#000000" cx="93" cy="-159" rx="29.4969" ry="18"/>
<text text-anchor="middle" x="93" y="-155.3" font-family="Times,serif" font-size="14.00" fill="#000000">销量</text>
</g>
<!-- 价格&#45;&gt;销量 -->
<g id="edge23" class="edge">
<title>价格&#45;&gt;销量</title>
<path fill="none" stroke="#000000" d="M51.7754,-266.3557C59.8158,-245.4172 73.3075,-210.2826 82.656,-185.9375"/>
<polygon fill="#000000" stroke="#000000" points="85.9416,-187.1447 86.259,-176.5546 79.4068,-184.6353 85.9416,-187.1447"/>
<text text-anchor="middle" x="85.5" y="-217.8" font-family="Times,serif" font-size="14.00" fill="#000000">提高</text>
</g>
<!-- 有限性 -->
<g id="node22" class="node">
<title>有限性</title>
<ellipse fill="none" stroke="#000000" cx="67" cy="-34" rx="38.1938" ry="18"/>
<text text-anchor="middle" x="67" y="-30.3" font-family="Times,serif" font-size="14.00" fill="#000000">有限性</text>
</g>
<!-- 价格&#45;&gt;有限性 -->
<g id="edge25" class="edge">
<title>价格&#45;&gt;有限性</title>
<path fill="none" stroke="#000000" d="M45,-265.9489C45,-253.4659 45,-236.474 45,-221.5 45,-221.5 45,-221.5 45,-96.5 45,-84.3461 48.7474,-71.5784 53.149,-60.7738"/>
<polygon fill="#000000" stroke="#000000" points="56.4181,-62.0363 57.2864,-51.4771 50.0228,-59.1901 56.4181,-62.0363"/>
</g>
<!-- 销量&#45;&gt;利润 -->
<g id="edge24" class="edge">
<title>销量&#45;&gt;利润</title>
<path fill="none" stroke="#000000" d="M115.0813,-146.7869C155.6064,-124.3726 241.9297,-76.6274 288.1975,-51.0368"/>
<polygon fill="#000000" stroke="#000000" points="290.1051,-53.9814 297.1618,-46.0787 286.7171,-47.8559 290.1051,-53.9814"/>
<text text-anchor="middle" x="231.5" y="-92.8" font-family="Times,serif" font-size="14.00" fill="#000000">提高</text>
</g>
<!-- 销量&#45;&gt;有限性 -->
<g id="edge26" class="edge">
<title>销量&#45;&gt;有限性</title>
<path fill="none" stroke="#000000" d="M89.2748,-141.0905C84.9938,-120.5088 77.9129,-86.4657 72.8845,-62.291"/>
<polygon fill="#000000" stroke="#000000" points="76.266,-61.3604 70.8028,-52.2827 69.4126,-62.7859 76.266,-61.3604"/>
</g>
<!-- 收入 -->
<g id="node23" class="node">
<title>收入</title>
<text text-anchor="middle" x="765" y="-405.3" font-family="Times,serif" font-size="14.00" fill="#000000">收入</text>
</g>
<!-- 消费 -->
<g id="node24" class="node">
<title>消费</title>
<text text-anchor="middle" x="683" y="-280.3" font-family="Times,serif" font-size="14.00" fill="#000000">消费</text>
</g>
<!-- 收入&#45;&gt;消费 -->
<g id="edge27" class="edge">
<title>收入&#45;&gt;消费</title>
<path fill="none" stroke="#000000" d="M753.0765,-390.8239C739.2303,-369.7169 716.2688,-334.7146 700.4236,-310.5603"/>
<polygon fill="#000000" stroke="#000000" points="703.3496,-308.6397 694.9379,-302.198 697.4965,-312.4793 703.3496,-308.6397"/>
</g>
<!-- 储蓄 -->
<g id="node25" class="node">
<title>储蓄</title>
<text text-anchor="middle" x="765" y="-280.3" font-family="Times,serif" font-size="14.00" fill="#000000">储蓄</text>
</g>
<!-- 收入&#45;&gt;储蓄 -->
<g id="edge28" class="edge">
<title>收入&#45;&gt;储蓄</title>
<path fill="none" stroke="#000000" d="M765,-390.8239C765,-370.2723 765,-336.5472 765,-312.4893"/>
<polygon fill="#000000" stroke="#000000" points="768.5001,-312.198 765,-302.198 761.5001,-312.198 768.5001,-312.198"/>
</g>
<!-- 投资  -->
<g id="node26" class="node">
<title>投资 </title>
<text text-anchor="middle" x="847" y="-280.3" font-family="Times,serif" font-size="14.00" fill="#000000">投资 </text>
</g>
<!-- 收入&#45;&gt;投资  -->
<g id="edge29" class="edge">
<title>收入&#45;&gt;投资 </title>
<path fill="none" stroke="#000000" d="M776.9235,-390.8239C790.7697,-369.7169 813.7312,-334.7146 829.5764,-310.5603"/>
<polygon fill="#000000" stroke="#000000" points="832.5035,-312.4793 835.0621,-302.198 826.6504,-308.6397 832.5035,-312.4793"/>
</g>
<!-- 资本湮灭 -->
<g id="node35" class="node">
<title>资本湮灭</title>
<text text-anchor="middle" x="673" y="-155.3" font-family="Times,serif" font-size="14.00" fill="#000000">资本湮灭</text>
</g>
<!-- 消费&#45;&gt;资本湮灭 -->
<g id="edge38" class="edge">
<title>消费&#45;&gt;资本湮灭</title>
<path fill="none" stroke="#000000" d="M681.5459,-265.8239C679.9018,-245.2723 677.2038,-211.5472 675.2791,-187.4893"/>
<polygon fill="#000000" stroke="#000000" points="678.7422,-186.887 674.4558,-177.198 671.7645,-187.4453 678.7422,-186.887"/>
</g>
<!-- 收益率低 -->
<g id="node33" class="node">
<title>收益率低</title>
<text text-anchor="middle" x="765" y="-155.3" font-family="Times,serif" font-size="14.00" fill="#000000">收益率低</text>
</g>
<!-- 储蓄&#45;&gt;收益率低 -->
<g id="edge36" class="edge">
<title>储蓄&#45;&gt;收益率低</title>
<path fill="none" stroke="#000000" d="M765,-265.8239C765,-245.2723 765,-211.5472 765,-187.4893"/>
<polygon fill="#000000" stroke="#000000" points="768.5001,-187.198 765,-177.198 761.5001,-187.198 768.5001,-187.198"/>
</g>
<!-- 风险虚高 -->
<g id="node31" class="node">
<title>风险虚高</title>
<text text-anchor="middle" x="857" y="-155.3" font-family="Times,serif" font-size="14.00" fill="#000000">风险虚高</text>
</g>
<!-- 投资 &#45;&gt;风险虚高 -->
<g id="edge34" class="edge">
<title>投资 &#45;&gt;风险虚高</title>
<path fill="none" stroke="#000000" d="M848.4541,-265.8239C850.0982,-245.2723 852.7962,-211.5472 854.7209,-187.4893"/>
<polygon fill="#000000" stroke="#000000" points="858.2355,-187.4453 855.5442,-177.198 851.2578,-186.887 858.2355,-187.4453"/>
</g>
<!-- 资本收入 -->
<g id="node27" class="node">
<title>资本收入</title>
<text text-anchor="middle" x="841" y="-530.3" font-family="Times,serif" font-size="14.00" fill="#000000">资本收入</text>
</g>
<!-- 资本收入&#45;&gt;收入 -->
<g id="edge30" class="edge">
<title>资本收入&#45;&gt;收入</title>
<path fill="none" stroke="#000000" d="M829.9489,-515.8239C817.1722,-494.8095 796.021,-460.0213 781.3423,-435.8787"/>
<polygon fill="#000000" stroke="#000000" points="784.2502,-433.9243 776.0644,-427.198 778.2689,-437.561 784.2502,-433.9243"/>
</g>
<!-- 长期资本收益率4% -->
<g id="node29" class="node">
<title>长期资本收益率4%</title>
<text text-anchor="middle" x="878" y="-405.3" font-family="Times,serif" font-size="14.00" fill="#000000">长期资本收益率4%</text>
</g>
<!-- 资本收入&#45;&gt;长期资本收益率4% -->
<g id="edge32" class="edge">
<title>资本收入&#45;&gt;长期资本收益率4%</title>
<path fill="none" stroke="#000000" d="M846.3801,-515.8239C852.5182,-495.0872 862.6262,-460.9384 869.7589,-436.8415"/>
<polygon fill="#000000" stroke="#000000" points="873.1311,-437.7802 872.6134,-427.198 866.419,-435.7933 873.1311,-437.7802"/>
</g>
<!-- 劳动收入 -->
<g id="node28" class="node">
<title>劳动收入</title>
<text text-anchor="middle" x="712" y="-530.3" font-family="Times,serif" font-size="14.00" fill="#000000">劳动收入</text>
</g>
<!-- 劳动收入&#45;&gt;收入 -->
<g id="edge31" class="edge">
<title>劳动收入&#45;&gt;收入</title>
<path fill="none" stroke="#000000" d="M719.7067,-515.8239C728.5383,-494.9946 743.1075,-460.6333 753.3318,-436.5193"/>
<polygon fill="#000000" stroke="#000000" points="756.6027,-437.7709 757.284,-427.198 750.1581,-435.0384 756.6027,-437.7709"/>
</g>
<!-- 长期经济增长率&lt;1% -->
<g id="node30" class="node">
<title>长期经济增长率&lt;1%</title>
<text text-anchor="middle" x="648" y="-405.3" font-family="Times,serif" font-size="14.00" fill="#000000">长期经济增长率&lt;1%</text>
</g>
<!-- 劳动收入&#45;&gt;长期经济增长率&lt;1% -->
<g id="edge33" class="edge">
<title>劳动收入&#45;&gt;长期经济增长率&lt;1%</title>
<path fill="none" stroke="#000000" d="M702.6939,-515.8239C691.9818,-494.902 674.2797,-460.3276 661.9256,-436.1984"/>
<polygon fill="#000000" stroke="#000000" points="664.9902,-434.5041 657.3174,-427.198 658.7594,-437.6943 664.9902,-434.5041"/>
</g>
<!-- 国债 -->
<g id="node32" class="node">
<title>国债</title>
<text text-anchor="middle" x="857" y="-30.3" font-family="Times,serif" font-size="14.00" fill="#000000">国债</text>
</g>
<!-- 风险虚高&#45;&gt;国债 -->
<g id="edge35" class="edge">
<title>风险虚高&#45;&gt;国债</title>
<path fill="none" stroke="#000000" d="M857,-140.8239C857,-120.2723 857,-86.5472 857,-62.4893"/>
<polygon fill="#000000" stroke="#000000" points="860.5001,-62.198 857,-52.198 853.5001,-62.198 860.5001,-62.198"/>
</g>
<!-- 基金 -->
<g id="node34" class="node">
<title>基金</title>
<text text-anchor="middle" x="765" y="-30.3" font-family="Times,serif" font-size="14.00" fill="#000000">基金</text>
</g>
<!-- 收益率低&#45;&gt;基金 -->
<g id="edge37" class="edge">
<title>收益率低&#45;&gt;基金</title>
<path fill="none" stroke="#000000" d="M765,-140.8239C765,-120.2723 765,-86.5472 765,-62.4893"/>
<polygon fill="#000000" stroke="#000000" points="768.5001,-62.198 765,-52.198 761.5001,-62.198 768.5001,-62.198"/>
</g>
<!-- (营收&#45;成本&#45;税收&#45;利息&#45;资本收入)/人数 -->
<g id="node36" class="node">
<title>(营收&#45;成本&#45;税收&#45;利息&#45;资本收入)/人数</title>
<text text-anchor="middle" x="712" y="-655.3" font-family="Times,serif" font-size="14.00" fill="#000000">(营收&#45;成本&#45;税收&#45;利息&#45;资本收入)/人数</text>
</g>
<!-- (营收&#45;成本&#45;税收&#45;利息&#45;资本收入)/人数&#45;&gt;劳动收入 -->
<g id="edge39" class="edge">
<title>(营收&#45;成本&#45;税收&#45;利息&#45;资本收入)/人数&#45;&gt;劳动收入</title>
<path fill="none" stroke="#000000" d="M712,-640.8239C712,-620.2723 712,-586.5472 712,-562.4893"/>
<polygon fill="#000000" stroke="#000000" points="715.5001,-562.198 712,-552.198 708.5001,-562.198 715.5001,-562.198"/>
</g>
</g>
</svg>
