<?xml version="1.0" encoding="UTF-8" standalone="no"?>
<!DOCTYPE svg PUBLIC "-//W3C//DTD SVG 1.1//EN"
 "http://www.w3.org/Graphics/SVG/1.1/DTD/svg11.dtd">
<!-- Generated by graphviz version 2.40.1 (20161225.0304)
 -->
<!-- Title: asd Pages: 1 -->
<svg width="422pt" height="255pt"
 viewBox="0.00 0.00 422.00 255.00" xmlns="http://www.w3.org/2000/svg" xmlns:xlink="http://www.w3.org/1999/xlink">
<g id="graph0" class="graph" transform="scale(1 1) rotate(0) translate(4 251)">
<title>asd</title>
<polygon fill="#fffafa" stroke="transparent" points="-4,4 -4,-251 418,-251 418,4 -4,4"/>
<text text-anchor="middle" x="207" y="-7.8" font-family="Times,serif" font-size="14.00" fill="#000000">拉链散列表</text>
<!-- struct1 -->
<g id="node1" class="node">
<title>struct1</title>
<polygon fill="none" stroke="#000000" points="0,-23.5 0,-207.5 54,-207.5 54,-23.5 0,-23.5"/>
<text text-anchor="middle" x="27" y="-192.3" font-family="Times,serif" font-size="14.00" fill="#000000">head0</text>
<polyline fill="none" stroke="#000000" points="0,-184.5 54,-184.5 "/>
<text text-anchor="middle" x="27" y="-169.3" font-family="Times,serif" font-size="14.00" fill="#000000">head2</text>
<polyline fill="none" stroke="#000000" points="0,-161.5 54,-161.5 "/>
<text text-anchor="middle" x="27" y="-146.3" font-family="Times,serif" font-size="14.00" fill="#000000">head3</text>
<polyline fill="none" stroke="#000000" points="0,-138.5 54,-138.5 "/>
<text text-anchor="middle" x="27" y="-123.3" font-family="Times,serif" font-size="14.00" fill="#000000">head4</text>
<polyline fill="none" stroke="#000000" points="0,-115.5 54,-115.5 "/>
<text text-anchor="middle" x="27" y="-100.3" font-family="Times,serif" font-size="14.00" fill="#000000">head5</text>
<polyline fill="none" stroke="#000000" points="0,-92.5 54,-92.5 "/>
<text text-anchor="middle" x="27" y="-77.3" font-family="Times,serif" font-size="14.00" fill="#000000">head6</text>
<polyline fill="none" stroke="#000000" points="0,-69.5 54,-69.5 "/>
<text text-anchor="middle" x="27" y="-54.3" font-family="Times,serif" font-size="14.00" fill="#000000">head7</text>
<polyline fill="none" stroke="#000000" points="0,-46.5 54,-46.5 "/>
<text text-anchor="middle" x="27" y="-31.3" font-family="Times,serif" font-size="14.00" fill="#000000">head8</text>
</g>
<!-- a1 -->
<g id="node2" class="node">
<title>a1</title>
<polygon fill="none" stroke="#000000" points="90,-210.5 90,-246.5 144,-246.5 144,-210.5 90,-210.5"/>
<text text-anchor="middle" x="117" y="-224.8" font-family="Times,serif" font-size="14.00" fill="#000000">date</text>
</g>
<!-- struct1&#45;&gt;a1 -->
<g id="edge1" class="edge">
<title>struct1:f0&#45;&gt;a1</title>
<path fill="none" stroke="#000000" d="M54,-196.5C64.8769,-196.5 75.7766,-200.3385 85.3786,-205.3567"/>
<polygon fill="#000000" stroke="#000000" points="83.7379,-208.4512 94.1439,-210.4426 87.251,-202.3966 83.7379,-208.4512"/>
</g>
<!-- b1 -->
<g id="node3" class="node">
<title>b1</title>
<polygon fill="none" stroke="#000000" points="90,-155.5 90,-191.5 144,-191.5 144,-155.5 90,-155.5"/>
<text text-anchor="middle" x="117" y="-169.8" font-family="Times,serif" font-size="14.00" fill="#000000">date</text>
</g>
<!-- struct1&#45;&gt;b1 -->
<g id="edge2" class="edge">
<title>struct1:f1&#45;&gt;b1</title>
<path fill="none" stroke="#000000" d="M54,-173.5C62.2288,-173.5 71.0621,-173.5 79.434,-173.5"/>
<polygon fill="#000000" stroke="#000000" points="79.7113,-177.0001 89.7113,-173.5 79.7112,-170.0001 79.7113,-177.0001"/>
</g>
<!-- c1 -->
<g id="node7" class="node">
<title>c1</title>
<polygon fill="none" stroke="#000000" points="90,-100.5 90,-136.5 144,-136.5 144,-100.5 90,-100.5"/>
<text text-anchor="middle" x="117" y="-114.8" font-family="Times,serif" font-size="14.00" fill="#000000">date</text>
</g>
<!-- struct1&#45;&gt;c1 -->
<g id="edge6" class="edge">
<title>struct1:f2&#45;&gt;c1</title>
<path fill="none" stroke="#000000" d="M54,-150.5C64.8769,-150.5 75.7766,-146.6615 85.3786,-141.6433"/>
<polygon fill="#000000" stroke="#000000" points="87.251,-144.6034 94.1439,-136.5574 83.7379,-138.5488 87.251,-144.6034"/>
</g>
<!-- e1 -->
<g id="node8" class="node">
<title>e1</title>
<polygon fill="none" stroke="#000000" points="90,-39.5 90,-75.5 144,-75.5 144,-39.5 90,-39.5"/>
<text text-anchor="middle" x="117" y="-53.8" font-family="Times,serif" font-size="14.00" fill="#000000">date</text>
</g>
<!-- struct1&#45;&gt;e1 -->
<g id="edge7" class="edge">
<title>struct1:f3&#45;&gt;e1</title>
<path fill="none" stroke="#000000" d="M54,-57.5C62.2288,-57.5 71.0621,-57.5 79.434,-57.5"/>
<polygon fill="#000000" stroke="#000000" points="79.7113,-61.0001 89.7113,-57.5 79.7112,-54.0001 79.7113,-61.0001"/>
</g>
<!-- b2 -->
<g id="node4" class="node">
<title>b2</title>
<polygon fill="none" stroke="#000000" points="180,-155.5 180,-191.5 234,-191.5 234,-155.5 180,-155.5"/>
<text text-anchor="middle" x="207" y="-169.8" font-family="Times,serif" font-size="14.00" fill="#000000">date</text>
</g>
<!-- b1&#45;&gt;b2 -->
<g id="edge3" class="edge">
<title>b1&#45;&gt;b2</title>
<path fill="none" stroke="#000000" d="M144.003,-173.5C152.0277,-173.5 160.9665,-173.5 169.5309,-173.5"/>
<polygon fill="#000000" stroke="#000000" points="169.7051,-177.0001 179.705,-173.5 169.705,-170.0001 169.7051,-177.0001"/>
</g>
<!-- b3 -->
<g id="node5" class="node">
<title>b3</title>
<polygon fill="none" stroke="#000000" points="270,-155.5 270,-191.5 324,-191.5 324,-155.5 270,-155.5"/>
<text text-anchor="middle" x="297" y="-169.8" font-family="Times,serif" font-size="14.00" fill="#000000">date</text>
</g>
<!-- b2&#45;&gt;b3 -->
<g id="edge4" class="edge">
<title>b2&#45;&gt;b3</title>
<path fill="none" stroke="#000000" d="M234.003,-173.5C242.0277,-173.5 250.9665,-173.5 259.5309,-173.5"/>
<polygon fill="#000000" stroke="#000000" points="259.7051,-177.0001 269.705,-173.5 259.705,-170.0001 259.7051,-177.0001"/>
</g>
<!-- b4 -->
<g id="node6" class="node">
<title>b4</title>
<polygon fill="none" stroke="#000000" points="360,-155.5 360,-191.5 414,-191.5 414,-155.5 360,-155.5"/>
<text text-anchor="middle" x="387" y="-169.8" font-family="Times,serif" font-size="14.00" fill="#000000">date</text>
</g>
<!-- b3&#45;&gt;b4 -->
<g id="edge5" class="edge">
<title>b3&#45;&gt;b4</title>
<path fill="none" stroke="#000000" d="M324.003,-173.5C332.0277,-173.5 340.9665,-173.5 349.5309,-173.5"/>
<polygon fill="#000000" stroke="#000000" points="349.7051,-177.0001 359.705,-173.5 349.705,-170.0001 349.7051,-177.0001"/>
</g>
<!-- e2 -->
<g id="node9" class="node">
<title>e2</title>
<polygon fill="none" stroke="#000000" points="180,-39.5 180,-75.5 234,-75.5 234,-39.5 180,-39.5"/>
<text text-anchor="middle" x="207" y="-53.8" font-family="Times,serif" font-size="14.00" fill="#000000">date</text>
</g>
<!-- e1&#45;&gt;e2 -->
<g id="edge8" class="edge">
<title>e1&#45;&gt;e2</title>
<path fill="none" stroke="#000000" d="M144.003,-57.5C152.0277,-57.5 160.9665,-57.5 169.5309,-57.5"/>
<polygon fill="#000000" stroke="#000000" points="169.7051,-61.0001 179.705,-57.5 169.705,-54.0001 169.7051,-61.0001"/>
</g>
</g>
</svg>
