<?xml version="1.0" encoding="UTF-8" standalone="no"?>
<!DOCTYPE svg PUBLIC "-//W3C//DTD SVG 1.1//EN"
 "http://www.w3.org/Graphics/SVG/1.1/DTD/svg11.dtd">
<!-- Generated by graphviz version 2.40.1 (20161225.0304)
 -->
<!-- Title: asd Pages: 1 -->
<svg width="330pt" height="337pt"
 viewBox="0.00 0.00 329.58 337.00" xmlns="http://www.w3.org/2000/svg" xmlns:xlink="http://www.w3.org/1999/xlink">
<g id="graph0" class="graph" transform="scale(1 1) rotate(0) translate(4 333)">
<title>asd</title>
<polygon fill="#fffafa" stroke="transparent" points="-4,4 -4,-333 325.5779,-333 325.5779,4 -4,4"/>
<text text-anchor="middle" x="160.7889" y="-7.8" font-family="Times,serif" font-size="14.00" fill="#000000">进制转换</text>
<!-- 二进制 -->
<g id="node1" class="node">
<title>二进制</title>
<ellipse fill="none" stroke="#000000" cx="48.0957" cy="-311" rx="38.1938" ry="18"/>
<text text-anchor="middle" x="48.0957" y="-307.3" font-family="Times,serif" font-size="14.00" fill="#000000">二进制</text>
</g>
<!-- 十进制 -->
<g id="node7" class="node">
<title>十进制</title>
<ellipse fill="none" stroke="#000000" cx="170.5381" cy="-176" rx="38.1938" ry="18"/>
<text text-anchor="middle" x="170.5381" y="-172.3" font-family="Times,serif" font-size="14.00" fill="#000000">十进制</text>
</g>
<!-- 二进制&#45;&gt;十进制 -->
<g id="edge1" class="edge">
<title>二进制&#45;&gt;十进制</title>
<path fill="none" stroke="#000000" d="M75.758,-298.2972C82.8572,-294.3064 90.1793,-289.4866 96.1915,-284 122.0532,-260.3992 143.6762,-226.1722 156.8184,-202.6071"/>
<polygon fill="#000000" stroke="#000000" points="160.0522,-203.9866 161.7564,-193.5297 153.9032,-200.6415 160.0522,-203.9866"/>
</g>
<!-- 三进制 -->
<g id="node2" class="node">
<title>三进制</title>
<ellipse fill="none" stroke="#000000" cx="48.0957" cy="-257" rx="38.1938" ry="18"/>
<text text-anchor="middle" x="48.0957" y="-253.3" font-family="Times,serif" font-size="14.00" fill="#000000">三进制</text>
</g>
<!-- 三进制&#45;&gt;十进制 -->
<g id="edge2" class="edge">
<title>三进制&#45;&gt;十进制</title>
<path fill="none" stroke="#000000" d="M73.8824,-243.2516C81.196,-239.1574 89.0964,-234.5463 96.1915,-230 111.8753,-219.9503 128.719,-207.834 142.4017,-197.6271"/>
<polygon fill="#000000" stroke="#000000" points="144.587,-200.3629 150.4739,-191.5541 140.3787,-194.7692 144.587,-200.3629"/>
</g>
<!-- 八进制 -->
<g id="node3" class="node">
<title>八进制</title>
<ellipse fill="none" stroke="#000000" cx="48.0957" cy="-203" rx="38.1938" ry="18"/>
<text text-anchor="middle" x="48.0957" y="-199.3" font-family="Times,serif" font-size="14.00" fill="#000000">八进制</text>
</g>
<!-- 八进制&#45;&gt;十进制 -->
<g id="edge3" class="edge">
<title>八进制&#45;&gt;十进制</title>
<path fill="none" stroke="#000000" d="M82.8553,-195.3351C96.1682,-192.3994 111.5484,-189.0079 125.6746,-185.8929"/>
<polygon fill="#000000" stroke="#000000" points="126.6799,-189.2554 135.6916,-183.6841 125.1725,-182.4196 126.6799,-189.2554"/>
</g>
<!-- 十二进制 -->
<g id="node4" class="node">
<title>十二进制</title>
<ellipse fill="none" stroke="#000000" cx="48.0957" cy="-149" rx="48.1917" ry="18"/>
<text text-anchor="middle" x="48.0957" y="-145.3" font-family="Times,serif" font-size="14.00" fill="#000000">十二进制</text>
</g>
<!-- 十二进制&#45;&gt;十进制 -->
<g id="edge4" class="edge">
<title>十二进制&#45;&gt;十进制</title>
<path fill="none" stroke="#000000" d="M89.5491,-158.141C101.1396,-160.6968 113.7889,-163.4861 125.5722,-166.0845"/>
<polygon fill="#000000" stroke="#000000" points="125.1367,-169.5725 135.6558,-168.308 126.6441,-162.7367 125.1367,-169.5725"/>
</g>
<!-- 十六进制 -->
<g id="node5" class="node">
<title>十六进制</title>
<ellipse fill="none" stroke="#000000" cx="48.0957" cy="-95" rx="48.1917" ry="18"/>
<text text-anchor="middle" x="48.0957" y="-91.3" font-family="Times,serif" font-size="14.00" fill="#000000">十六进制</text>
</g>
<!-- 十六进制&#45;&gt;十进制 -->
<g id="edge5" class="edge">
<title>十六进制&#45;&gt;十进制</title>
<path fill="none" stroke="#000000" d="M75.8905,-109.8774C82.6258,-113.6804 89.7414,-117.867 96.1915,-122 111.8753,-132.0497 128.719,-144.166 142.4017,-154.3729"/>
<polygon fill="#000000" stroke="#000000" points="140.3787,-157.2308 150.4739,-160.4459 144.587,-151.6371 140.3787,-157.2308"/>
</g>
<!-- ... -->
<g id="node6" class="node">
<title>...</title>
<ellipse fill="none" stroke="#000000" cx="48.0957" cy="-41" rx="27" ry="18"/>
<text text-anchor="middle" x="48.0957" y="-37.3" font-family="Times,serif" font-size="14.00" fill="#000000">...</text>
</g>
<!-- ...&#45;&gt;十进制 -->
<g id="edge6" class="edge">
<title>...&#45;&gt;十进制</title>
<path fill="none" stroke="#000000" d="M71.0479,-51.1526C79.5184,-55.5723 88.8354,-61.287 96.1915,-68 122.0532,-91.6008 143.6762,-125.8278 156.8184,-149.3929"/>
<polygon fill="#000000" stroke="#000000" points="153.9032,-151.3585 161.7564,-158.4703 160.0522,-148.0134 153.9032,-151.3585"/>
</g>
<!-- 2进制 -->
<g id="node8" class="node">
<title>2进制</title>
<ellipse fill="none" stroke="#000000" cx="283.2313" cy="-311" rx="33.5952" ry="18"/>
<text text-anchor="middle" x="283.2313" y="-307.3" font-family="Times,serif" font-size="14.00" fill="#000000">2进制</text>
</g>
<!-- 十进制&#45;&gt;2进制 -->
<g id="edge7" class="edge">
<title>十进制&#45;&gt;2进制</title>
<path fill="none" stroke="#000000" d="M179.9604,-193.4777C192.6915,-216.07 217.0262,-255.8452 244.8847,-284 247.3651,-286.5068 250.1038,-288.9382 252.9425,-291.248"/>
<polygon fill="#000000" stroke="#000000" points="250.9881,-294.1581 261.0757,-297.3971 255.2098,-288.5744 250.9881,-294.1581"/>
</g>
<!-- 3进制 -->
<g id="node9" class="node">
<title>3进制</title>
<ellipse fill="none" stroke="#000000" cx="283.2313" cy="-257" rx="33.5952" ry="18"/>
<text text-anchor="middle" x="283.2313" y="-253.3" font-family="Times,serif" font-size="14.00" fill="#000000">3进制</text>
</g>
<!-- 十进制&#45;&gt;3进制 -->
<g id="edge8" class="edge">
<title>十进制&#45;&gt;3进制</title>
<path fill="none" stroke="#000000" d="M191.3093,-191.2117C206.1864,-202.0763 226.7183,-217.0082 244.8847,-230 247.9104,-232.1639 251.0776,-234.4154 254.2392,-236.6543"/>
<polygon fill="#000000" stroke="#000000" points="252.3068,-239.5743 262.4947,-242.4826 256.344,-233.8558 252.3068,-239.5743"/>
</g>
<!-- 8进制 -->
<g id="node10" class="node">
<title>8进制</title>
<ellipse fill="none" stroke="#000000" cx="283.2313" cy="-203" rx="33.5952" ry="18"/>
<text text-anchor="middle" x="283.2313" y="-199.3" font-family="Times,serif" font-size="14.00" fill="#000000">8进制</text>
</g>
<!-- 十进制&#45;&gt;8进制 -->
<g id="edge9" class="edge">
<title>十进制&#45;&gt;8进制</title>
<path fill="none" stroke="#000000" d="M204.9621,-184.2476C216.6941,-187.0585 229.9284,-190.2292 242.131,-193.1529"/>
<polygon fill="#000000" stroke="#000000" points="241.5427,-196.6109 252.083,-195.5372 243.1737,-189.8035 241.5427,-196.6109"/>
</g>
<!-- 12进制 -->
<g id="node11" class="node">
<title>12进制</title>
<ellipse fill="none" stroke="#000000" cx="283.2313" cy="-149" rx="38.1938" ry="18"/>
<text text-anchor="middle" x="283.2313" y="-145.3" font-family="Times,serif" font-size="14.00" fill="#000000">12进制</text>
</g>
<!-- 十进制&#45;&gt;12进制 -->
<g id="edge10" class="edge">
<title>十进制&#45;&gt;12进制</title>
<path fill="none" stroke="#000000" d="M204.9621,-167.7524C215.7758,-165.1616 227.8657,-162.2649 239.2478,-159.5379"/>
<polygon fill="#000000" stroke="#000000" points="240.1088,-162.9308 249.018,-157.1971 238.4778,-156.1234 240.1088,-162.9308"/>
</g>
<!-- 16进制 -->
<g id="node12" class="node">
<title>16进制</title>
<ellipse fill="none" stroke="#000000" cx="283.2313" cy="-95" rx="38.1938" ry="18"/>
<text text-anchor="middle" x="283.2313" y="-91.3" font-family="Times,serif" font-size="14.00" fill="#000000">16进制</text>
</g>
<!-- 十进制&#45;&gt;16进制 -->
<g id="edge11" class="edge">
<title>十进制&#45;&gt;16进制</title>
<path fill="none" stroke="#000000" d="M191.3093,-160.7883C206.1864,-149.9237 226.7183,-134.9918 244.8847,-122 247.6,-120.0581 250.4292,-118.0457 253.266,-116.0351"/>
<polygon fill="#000000" stroke="#000000" points="255.5457,-118.71 261.6938,-110.0814 251.5068,-112.9927 255.5457,-118.71"/>
</g>
<!-- .... -->
<g id="node13" class="node">
<title>....</title>
<ellipse fill="none" stroke="#000000" cx="283.2313" cy="-41" rx="27" ry="18"/>
<text text-anchor="middle" x="283.2313" y="-37.3" font-family="Times,serif" font-size="14.00" fill="#000000">....</text>
</g>
<!-- 十进制&#45;&gt;.... -->
<g id="edge12" class="edge">
<title>十进制&#45;&gt;....</title>
<path fill="none" stroke="#000000" d="M179.9604,-158.5223C192.6915,-135.93 217.0262,-96.1548 244.8847,-68 247.9127,-64.9398 251.3258,-61.9918 254.8356,-59.2404"/>
<polygon fill="#000000" stroke="#000000" points="257.0633,-61.9473 263.0654,-53.2165 252.9288,-56.2987 257.0633,-61.9473"/>
</g>
</g>
</svg>
