<?xml version="1.0" encoding="UTF-8" standalone="no"?>
<!DOCTYPE svg PUBLIC "-//W3C//DTD SVG 1.1//EN"
 "http://www.w3.org/Graphics/SVG/1.1/DTD/svg11.dtd">
<!-- Generated by graphviz version 2.40.1 (20161225.0304)
 -->
<!-- Title: asd Pages: 1 -->
<svg width="503pt" height="202pt"
 viewBox="0.00 0.00 502.88 202.00" xmlns="http://www.w3.org/2000/svg" xmlns:xlink="http://www.w3.org/1999/xlink">
<g id="graph0" class="graph" transform="scale(1 1) rotate(0) translate(4 198)">
<title>asd</title>
<polygon fill="#fffafa" stroke="transparent" points="-4,4 -4,-198 498.8847,-198 498.8847,4 -4,4"/>
<text text-anchor="middle" x="247.4423" y="-7.8" font-family="Times,serif" font-size="14.00" fill="#000000">map_reduce网络跳转处理</text>
<g id="clust1" class="cluster">
<title>cluster0</title>
<polygon fill="#fffafa" stroke="#000000" points="116.3922,-31 116.3922,-186 276.3922,-186 276.3922,-31 116.3922,-31"/>
<text text-anchor="middle" x="196.3922" y="-170.8" font-family="Times,serif" font-size="14.00" fill="#000000">map</text>
</g>
<g id="clust2" class="cluster">
<title>cluster1</title>
<polygon fill="#fffafa" stroke="#000000" points="296.3922,-54 296.3922,-186 486.8847,-186 486.8847,-54 296.3922,-54"/>
<text text-anchor="middle" x="391.6384" y="-170.8" font-family="Times,serif" font-size="14.00" fill="#000000">reduce</text>
</g>
<!-- dataarray -->
<g id="node1" class="node">
<title>dataarray</title>
<polygon fill="none" stroke="#000000" points="124.3922,-39.5 124.3922,-154.5 178.3922,-154.5 178.3922,-39.5 124.3922,-39.5"/>
<text text-anchor="middle" x="151.3922" y="-139.3" font-family="Times,serif" font-size="14.00" fill="#000000">url_1</text>
<polyline fill="none" stroke="#000000" points="124.3922,-131.5 178.3922,-131.5 "/>
<text text-anchor="middle" x="151.3922" y="-116.3" font-family="Times,serif" font-size="14.00" fill="#000000">url_2</text>
<polyline fill="none" stroke="#000000" points="124.3922,-108.5 178.3922,-108.5 "/>
<text text-anchor="middle" x="151.3922" y="-93.3" font-family="Times,serif" font-size="14.00" fill="#000000">url_3</text>
<polyline fill="none" stroke="#000000" points="124.3922,-85.5 178.3922,-85.5 "/>
<text text-anchor="middle" x="151.3922" y="-70.3" font-family="Times,serif" font-size="14.00" fill="#000000">url_4</text>
<polyline fill="none" stroke="#000000" points="124.3922,-62.5 178.3922,-62.5 "/>
<text text-anchor="middle" x="151.3922" y="-47.3" font-family="Times,serif" font-size="14.00" fill="#000000">.....</text>
</g>
<!-- newdata -->
<g id="node2" class="node">
<title>newdata</title>
<polygon fill="none" stroke="#000000" points="214.3922,-39.5 214.3922,-154.5 268.3922,-154.5 268.3922,-39.5 214.3922,-39.5"/>
<text text-anchor="middle" x="241.3922" y="-139.3" font-family="Times,serif" font-size="14.00" fill="#000000">url_4</text>
<polyline fill="none" stroke="#000000" points="214.3922,-131.5 268.3922,-131.5 "/>
<text text-anchor="middle" x="241.3922" y="-116.3" font-family="Times,serif" font-size="14.00" fill="#000000">url_5</text>
<polyline fill="none" stroke="#000000" points="214.3922,-108.5 268.3922,-108.5 "/>
<text text-anchor="middle" x="241.3922" y="-93.3" font-family="Times,serif" font-size="14.00" fill="#000000">url_6</text>
<polyline fill="none" stroke="#000000" points="214.3922,-85.5 268.3922,-85.5 "/>
<text text-anchor="middle" x="241.3922" y="-70.3" font-family="Times,serif" font-size="14.00" fill="#000000">url_7</text>
<polyline fill="none" stroke="#000000" points="214.3922,-62.5 268.3922,-62.5 "/>
<text text-anchor="middle" x="241.3922" y="-47.3" font-family="Times,serif" font-size="14.00" fill="#000000">.....</text>
</g>
<!-- dataarray&#45;&gt;newdata -->
<g id="edge1" class="edge">
<title>dataarray:d1&#45;&gt;newdata:d1</title>
<path fill="none" stroke="#000000" d="M178.3922,-143C190.3922,-143 195.6422,-143 204.2672,-143"/>
<polygon fill="#000000" stroke="#000000" points="204.3922,-146.5001 214.3922,-143 204.3921,-139.5001 204.3922,-146.5001"/>
</g>
<!-- dataarray&#45;&gt;newdata -->
<g id="edge2" class="edge">
<title>dataarray:d1&#45;&gt;newdata:d2</title>
<path fill="none" stroke="#000000" d="M178.3922,-143C193.2255,-143 195.2659,-128.9619 204.5023,-122.8203"/>
<polygon fill="#000000" stroke="#000000" points="205.7354,-126.1082 214.3922,-120 203.8157,-119.3766 205.7354,-126.1082"/>
</g>
<!-- dataarray&#45;&gt;newdata -->
<g id="edge3" class="edge">
<title>dataarray:d1&#45;&gt;newdata:d3</title>
<path fill="none" stroke="#000000" d="M178.3922,-143C200.094,-143 192.5282,-110.8556 204.6266,-100.3082"/>
<polygon fill="#000000" stroke="#000000" points="206.0439,-103.5235 214.3922,-97 203.7979,-96.8936 206.0439,-103.5235"/>
</g>
<!-- local_file -->
<g id="node5" class="node">
<title>local_file</title>
<ellipse fill="none" stroke="#000000" cx="44.1961" cy="-97" rx="44.393" ry="18"/>
<text text-anchor="middle" x="44.1961" y="-93.3" font-family="Times,serif" font-size="14.00" fill="#000000">local_file</text>
</g>
<!-- dataarray&#45;&gt;local_file -->
<g id="edge9" class="edge">
<title>dataarray&#45;&gt;local_file</title>
<path fill="none" stroke="#000000" d="M124.1168,-91.0329C115.3812,-90.4678 105.4046,-90.2086 95.5306,-90.2554"/>
<polygon fill="#000000" stroke="#000000" points="95.2783,-86.7588 85.3343,-90.4148 95.3878,-93.7579 95.2783,-86.7588"/>
</g>
<!-- less -->
<g id="node3" class="node">
<title>less</title>
<polygon fill="none" stroke="#000000" points="304.3922,-62 304.3922,-154 358.3922,-154 358.3922,-62 304.3922,-62"/>
<text text-anchor="middle" x="331.3922" y="-138.8" font-family="Times,serif" font-size="14.00" fill="#000000">url</text>
<polyline fill="none" stroke="#000000" points="304.3922,-131 358.3922,-131 "/>
<text text-anchor="middle" x="331.3922" y="-115.8" font-family="Times,serif" font-size="14.00" fill="#000000">url</text>
<polyline fill="none" stroke="#000000" points="304.3922,-108 358.3922,-108 "/>
<text text-anchor="middle" x="331.3922" y="-92.8" font-family="Times,serif" font-size="14.00" fill="#000000">url</text>
<polyline fill="none" stroke="#000000" points="304.3922,-85 358.3922,-85 "/>
<text text-anchor="middle" x="331.3922" y="-69.8" font-family="Times,serif" font-size="14.00" fill="#000000">...</text>
</g>
<!-- newdata&#45;&gt;less -->
<g id="edge4" class="edge">
<title>newdata:d1&#45;&gt;less:d1</title>
<path fill="none" stroke="#000000" d="M268.3922,-143C280.3922,-143 285.6422,-143 294.2672,-143"/>
<polygon fill="#000000" stroke="#000000" points="294.3922,-146.5001 304.3922,-143 294.3921,-139.5001 294.3922,-146.5001"/>
</g>
<!-- newdata&#45;&gt;less -->
<g id="edge5" class="edge">
<title>newdata:d2&#45;&gt;less:d2</title>
<path fill="none" stroke="#000000" d="M268.3922,-120C280.3922,-120 285.6422,-120 294.2672,-120"/>
<polygon fill="#000000" stroke="#000000" points="294.3922,-123.5001 304.3922,-120 294.3921,-116.5001 294.3922,-123.5001"/>
</g>
<!-- newdata&#45;&gt;less -->
<g id="edge6" class="edge">
<title>newdata:d3&#45;&gt;less:d3</title>
<path fill="none" stroke="#000000" d="M268.3922,-97C280.3968,-97 285.641,-96.4375 294.2654,-96.1563"/>
<polygon fill="#000000" stroke="#000000" points="294.4474,-99.654 304.3922,-96 294.3393,-92.6548 294.4474,-99.654"/>
</g>
<!-- URL_set -->
<g id="node4" class="node">
<title>URL_set</title>
<ellipse fill="none" stroke="#000000" cx="436.6384" cy="-108" rx="42.4939" ry="18"/>
<text text-anchor="middle" x="436.6384" y="-104.3" font-family="Times,serif" font-size="14.00" fill="#000000">URL_set</text>
</g>
<!-- less&#45;&gt;URL_set -->
<g id="edge7" class="edge">
<title>less:d1&#45;&gt;URL_set</title>
<path fill="none" stroke="#000000" d="M358.3922,-143C375.1164,-143 392.2363,-136.2549 406.1814,-128.6869"/>
<polygon fill="#000000" stroke="#000000" points="407.9574,-131.7029 414.8508,-123.6573 404.4447,-125.6481 407.9574,-131.7029"/>
</g>
<!-- URL_set&#45;&gt;dataarray -->
<g id="edge8" class="edge">
<title>URL_set&#45;&gt;dataarray</title>
<path fill="none" stroke="#000000" d="M417.5318,-91.768C402.3577,-79.596 380.144,-63.322 358.3922,-53 324.1961,-36.7728 313.8898,-35.1593 276.3922,-30 249.0938,-26.244 239.685,-19.0647 214.3922,-30 203.7372,-34.6067 194.0529,-42.0006 185.6475,-50.2271"/>
<polygon fill="#000000" stroke="#000000" points="182.9648,-47.9687 178.5977,-57.6217 188.0313,-52.7989 182.9648,-47.9687"/>
</g>
<!-- local_file&#45;&gt;dataarray -->
<g id="edge10" class="edge">
<title>local_file&#45;&gt;dataarray</title>
<path fill="none" stroke="#000000" d="M85.3343,-103.5852C94.7719,-103.839 104.7551,-103.7996 114.0235,-103.4671"/>
<polygon fill="#000000" stroke="#000000" points="114.3022,-106.9577 124.1168,-102.9671 113.9558,-99.9662 114.3022,-106.9577"/>
</g>
</g>
</svg>
