<?xml version="1.0" encoding="UTF-8" standalone="no"?>
<!DOCTYPE svg PUBLIC "-//W3C//DTD SVG 1.1//EN"
 "http://www.w3.org/Graphics/SVG/1.1/DTD/svg11.dtd">
<!-- Generated by graphviz version 2.40.1 (20161225.0304)
 -->
<!-- Title: asd Pages: 1 -->
<svg width="371pt" height="557pt"
 viewBox="0.00 0.00 370.59 557.00" xmlns="http://www.w3.org/2000/svg" xmlns:xlink="http://www.w3.org/1999/xlink">
<g id="graph0" class="graph" transform="scale(1 1) rotate(0) translate(4 553)">
<title>asd</title>
<polygon fill="#f5deb3" stroke="transparent" points="-4,4 -4,-553 366.594,-553 366.594,4 -4,4"/>
<text text-anchor="middle" x="181.297" y="-7.8" font-family="Times,serif" font-size="14.00" fill="#000000">八次危机的思维模式</text>
<g id="clust1" class="cluster">
<title>cluster_2</title>
<polygon fill="#f5deb3" stroke="#000000" points="6,-31 6,-538 80,-538 80,-31 6,-31"/>
<text text-anchor="middle" x="43" y="-522.8" font-family="Times,serif" font-size="14.00" fill="#000000">事实罗列</text>
</g>
<g id="clust2" class="cluster">
<title>cluster_1</title>
<polygon fill="#f5deb3" stroke="#000000" points="164,-34 164,-541 238,-541 238,-34 164,-34"/>
<text text-anchor="middle" x="201" y="-525.8" font-family="Times,serif" font-size="14.00" fill="#000000">经验罗列</text>
</g>
<!-- 事实1 -->
<g id="node1" class="node">
<title>事实1</title>
<text text-anchor="middle" x="43" y="-485.3" font-family="Times,serif" font-size="14.00" fill="#000000">事实1</text>
</g>
<!-- 经验1 -->
<g id="node10" class="node">
<title>经验1</title>
<text text-anchor="middle" x="201" y="-488.3" font-family="Times,serif" font-size="14.00" fill="#000000">经验1</text>
</g>
<!-- 事实1&#45;&gt;经验1 -->
<g id="edge1" class="edge">
<title>事实1&#45;&gt;经验1</title>
<path fill="none" stroke="#000000" d="M70.1612,-489.5157C96.0144,-490.0066 135.1289,-490.7493 163.8584,-491.2948"/>
<polygon fill="#000000" stroke="#000000" points="163.8647,-494.7954 173.9293,-491.486 163.9976,-487.7967 163.8647,-494.7954"/>
<text text-anchor="middle" x="122" y="-494.8" font-family="Times,serif" font-size="14.00" fill="#000000">基本概念1</text>
</g>
<!-- 事实2 -->
<g id="node2" class="node">
<title>事实2</title>
<text text-anchor="middle" x="43" y="-431.3" font-family="Times,serif" font-size="14.00" fill="#000000">事实2</text>
</g>
<!-- 经验2 -->
<g id="node11" class="node">
<title>经验2</title>
<text text-anchor="middle" x="201" y="-434.3" font-family="Times,serif" font-size="14.00" fill="#000000">经验2</text>
</g>
<!-- 事实2&#45;&gt;经验2 -->
<g id="edge2" class="edge">
<title>事实2&#45;&gt;经验2</title>
<path fill="none" stroke="#000000" d="M70.1612,-435.5157C96.0144,-436.0066 135.1289,-436.7493 163.8584,-437.2948"/>
<polygon fill="#000000" stroke="#000000" points="163.8647,-440.7954 173.9293,-437.486 163.9976,-433.7967 163.8647,-440.7954"/>
</g>
<!-- 事实3 -->
<g id="node3" class="node">
<title>事实3</title>
<text text-anchor="middle" x="43" y="-161.3" font-family="Times,serif" font-size="14.00" fill="#000000">事实3</text>
</g>
<!-- 经验4 -->
<g id="node13" class="node">
<title>经验4</title>
<text text-anchor="middle" x="201" y="-164.3" font-family="Times,serif" font-size="14.00" fill="#000000">经验4</text>
</g>
<!-- 事实3&#45;&gt;经验4 -->
<g id="edge4" class="edge">
<title>事实3&#45;&gt;经验4</title>
<path fill="none" stroke="#000000" d="M70.1612,-165.5157C96.0144,-166.0066 135.1289,-166.7493 163.8584,-167.2948"/>
<polygon fill="#000000" stroke="#000000" points="163.8647,-170.7954 173.9293,-167.486 163.9976,-163.7967 163.8647,-170.7954"/>
</g>
<!-- 事实4 -->
<g id="node4" class="node">
<title>事实4</title>
<text text-anchor="middle" x="43" y="-215.3" font-family="Times,serif" font-size="14.00" fill="#000000">事实4</text>
</g>
<!-- 事实4&#45;&gt;经验4 -->
<g id="edge3" class="edge">
<title>事实4&#45;&gt;经验4</title>
<path fill="none" stroke="#000000" d="M70.1612,-210.2328C96.1278,-201.8512 135.4723,-189.1514 164.2359,-179.8669"/>
<polygon fill="#000000" stroke="#000000" points="165.488,-183.1406 173.9293,-176.738 163.3377,-176.4791 165.488,-183.1406"/>
</g>
<!-- 经验5 -->
<g id="node14" class="node">
<title>经验5</title>
<text text-anchor="middle" x="201" y="-218.3" font-family="Times,serif" font-size="14.00" fill="#000000">经验5</text>
</g>
<!-- 事实4&#45;&gt;经验5 -->
<g id="edge5" class="edge">
<title>事实4&#45;&gt;经验5</title>
<path fill="none" stroke="#000000" d="M70.1612,-219.5157C96.0144,-220.0066 135.1289,-220.7493 163.8584,-221.2948"/>
<polygon fill="#000000" stroke="#000000" points="163.8647,-224.7954 173.9293,-221.486 163.9976,-217.7967 163.8647,-224.7954"/>
<text text-anchor="middle" x="122" y="-224.8" font-family="Times,serif" font-size="14.00" fill="#000000">抽象化</text>
</g>
<!-- 事实5 -->
<g id="node5" class="node">
<title>事实5</title>
<text text-anchor="middle" x="43" y="-377.3" font-family="Times,serif" font-size="14.00" fill="#000000">事实5</text>
</g>
<!-- 经验6 -->
<g id="node15" class="node">
<title>经验6</title>
<text text-anchor="middle" x="201" y="-326.3" font-family="Times,serif" font-size="14.00" fill="#000000">经验6</text>
</g>
<!-- 事实5&#45;&gt;经验6 -->
<g id="edge6" class="edge">
<title>事实5&#45;&gt;经验6</title>
<path fill="none" stroke="#000000" d="M70.1612,-372.2328C96.1278,-363.8512 135.4723,-351.1514 164.2359,-341.8669"/>
<polygon fill="#000000" stroke="#000000" points="165.488,-345.1406 173.9293,-338.738 163.3377,-338.4791 165.488,-345.1406"/>
<text text-anchor="middle" x="122" y="-367.8" font-family="Times,serif" font-size="14.00" fill="#000000">基本概念2</text>
</g>
<!-- 事实6 -->
<g id="node6" class="node">
<title>事实6</title>
<text text-anchor="middle" x="43" y="-269.3" font-family="Times,serif" font-size="14.00" fill="#000000">事实6</text>
</g>
<!-- 经验7 -->
<g id="node16" class="node">
<title>经验7</title>
<text text-anchor="middle" x="201" y="-272.3" font-family="Times,serif" font-size="14.00" fill="#000000">经验7</text>
</g>
<!-- 事实6&#45;&gt;经验7 -->
<g id="edge8" class="edge">
<title>事实6&#45;&gt;经验7</title>
<path fill="none" stroke="#000000" d="M70.1612,-273.5157C96.0144,-274.0066 135.1289,-274.7493 163.8584,-275.2948"/>
<polygon fill="#000000" stroke="#000000" points="163.8647,-278.7954 173.9293,-275.486 163.9976,-271.7967 163.8647,-278.7954"/>
</g>
<!-- 事实7 -->
<g id="node7" class="node">
<title>事实7</title>
<text text-anchor="middle" x="43" y="-323.3" font-family="Times,serif" font-size="14.00" fill="#000000">事实7</text>
</g>
<!-- 事实7&#45;&gt;经验7 -->
<g id="edge7" class="edge">
<title>事实7&#45;&gt;经验7</title>
<path fill="none" stroke="#000000" d="M70.1612,-318.2328C96.1278,-309.8512 135.4723,-297.1514 164.2359,-287.8669"/>
<polygon fill="#000000" stroke="#000000" points="165.488,-291.1406 173.9293,-284.738 163.3377,-284.4791 165.488,-291.1406"/>
</g>
<!-- 事实8 -->
<g id="node8" class="node">
<title>事实8</title>
<text text-anchor="middle" x="43" y="-107.3" font-family="Times,serif" font-size="14.00" fill="#000000">事实8</text>
</g>
<!-- 经验8 -->
<g id="node17" class="node">
<title>经验8</title>
<text text-anchor="middle" x="201" y="-110.3" font-family="Times,serif" font-size="14.00" fill="#000000">经验8</text>
</g>
<!-- 事实8&#45;&gt;经验8 -->
<g id="edge9" class="edge">
<title>事实8&#45;&gt;经验8</title>
<path fill="none" stroke="#000000" d="M70.1612,-111.5157C96.0144,-112.0066 135.1289,-112.7493 163.8584,-113.2948"/>
<polygon fill="#000000" stroke="#000000" points="163.8647,-116.7954 173.9293,-113.486 163.9976,-109.7967 163.8647,-116.7954"/>
<text text-anchor="middle" x="122" y="-116.8" font-family="Times,serif" font-size="14.00" fill="#000000">基本概念3</text>
</g>
<!-- .... -->
<g id="node18" class="node">
<title>....</title>
<text text-anchor="middle" x="201" y="-56.3" font-family="Times,serif" font-size="14.00" fill="#000000">....</text>
</g>
<!-- 事实8&#45;&gt;.... -->
<g id="edge18" class="edge">
<title>事实8&#45;&gt;....</title>
<path fill="none" stroke="#000000" d="M70.1612,-102.2328C96.1278,-93.8512 135.4723,-81.1514 164.2359,-71.8669"/>
<polygon fill="#000000" stroke="#000000" points="165.488,-75.1406 173.9293,-68.738 163.3377,-68.4791 165.488,-75.1406"/>
</g>
<!-- ... -->
<g id="node9" class="node">
<title>...</title>
<text text-anchor="middle" x="43" y="-53.3" font-family="Times,serif" font-size="14.00" fill="#000000">...</text>
</g>
<!-- 理论1 -->
<g id="node19" class="node">
<title>理论1</title>
<ellipse fill="none" stroke="#000000" cx="328.797" cy="-411" rx="33.5952" ry="18"/>
<text text-anchor="middle" x="328.797" y="-407.3" font-family="Times,serif" font-size="14.00" fill="#000000">理论1</text>
</g>
<!-- 经验1&#45;&gt;理论1 -->
<g id="edge10" class="edge">
<title>经验1&#45;&gt;理论1</title>
<path fill="none" stroke="#000000" d="M228.1025,-474.822C248.6177,-461.819 276.8094,-443.9507 298.1458,-430.4273"/>
<polygon fill="#000000" stroke="#000000" points="300.2553,-433.2341 306.8279,-424.9244 296.5078,-427.3217 300.2553,-433.2341"/>
</g>
<!-- 经验2&#45;&gt;理论1 -->
<g id="edge11" class="edge">
<title>经验2&#45;&gt;理论1</title>
<path fill="none" stroke="#000000" d="M228.1025,-432.274C245.3229,-428.6358 267.9521,-423.8549 287.3955,-419.747"/>
<polygon fill="#000000" stroke="#000000" points="288.1667,-423.1614 297.2272,-417.6698 286.7197,-416.3126 288.1667,-423.1614"/>
</g>
<!-- 经验3 -->
<g id="node12" class="node">
<title>经验3</title>
<text text-anchor="middle" x="201" y="-380.3" font-family="Times,serif" font-size="14.00" fill="#000000">经验3</text>
</g>
<!-- 经验3&#45;&gt;理论1 -->
<g id="edge13" class="edge">
<title>经验3&#45;&gt;理论1</title>
<path fill="none" stroke="#000000" d="M228.1025,-389.726C245.3229,-393.3642 267.9521,-398.1451 287.3955,-402.253"/>
<polygon fill="#000000" stroke="#000000" points="286.7197,-405.6874 297.2272,-404.3302 288.1667,-398.8386 286.7197,-405.6874"/>
<text text-anchor="middle" x="262.5" y="-402.8" font-family="Times,serif" font-size="14.00" fill="#000000">总结</text>
</g>
<!-- 理论2 -->
<g id="node20" class="node">
<title>理论2</title>
<ellipse fill="none" stroke="#000000" cx="328.797" cy="-188" rx="33.5952" ry="18"/>
<text text-anchor="middle" x="328.797" y="-184.3" font-family="Times,serif" font-size="14.00" fill="#000000">理论2</text>
</g>
<!-- 经验4&#45;&gt;理论2 -->
<g id="edge14" class="edge">
<title>经验4&#45;&gt;理论2</title>
<path fill="none" stroke="#000000" d="M228.1025,-172.2415C244.9955,-174.8852 267.0935,-178.3435 286.283,-181.3466"/>
<polygon fill="#000000" stroke="#000000" points="285.8796,-184.826 296.3005,-182.9144 286.962,-177.9102 285.8796,-184.826"/>
</g>
<!-- 经验5&#45;&gt;理论2 -->
<g id="edge15" class="edge">
<title>经验5&#45;&gt;理论2</title>
<path fill="none" stroke="#000000" d="M228.1025,-214.7895C245.5725,-210.1416 268.6091,-204.0128 288.2388,-198.7904"/>
<polygon fill="#000000" stroke="#000000" points="289.3818,-202.1081 298.1458,-196.1547 287.5821,-195.3434 289.3818,-202.1081"/>
</g>
<!-- 经验6&#45;&gt;理论1 -->
<g id="edge12" class="edge">
<title>经验6&#45;&gt;理论1</title>
<path fill="none" stroke="#000000" d="M228.1025,-347.178C248.6177,-360.181 276.8094,-378.0493 298.1458,-391.5727"/>
<polygon fill="#000000" stroke="#000000" points="296.5078,-394.6783 306.8279,-397.0756 300.2553,-388.7659 296.5078,-394.6783"/>
</g>
<!-- 经验7&#45;&gt;理论2 -->
<g id="edge16" class="edge">
<title>经验7&#45;&gt;理论2</title>
<path fill="none" stroke="#000000" d="M227.17,-257.9795C248.1863,-243.5079 277.686,-223.1946 299.4917,-208.1794"/>
<polygon fill="#000000" stroke="#000000" points="301.4796,-211.0601 307.7309,-202.506 297.5096,-205.2947 301.4796,-211.0601"/>
</g>
<!-- 经验8&#45;&gt;理论2 -->
<g id="edge17" class="edge">
<title>经验8&#45;&gt;理论2</title>
<path fill="none" stroke="#000000" d="M228.1025,-129.6935C248.1432,-141.298 275.5093,-157.1441 296.6544,-169.388"/>
<polygon fill="#000000" stroke="#000000" points="295.1813,-172.5795 305.5891,-174.5616 298.689,-166.5217 295.1813,-172.5795"/>
</g>
</g>
</svg>
