<?xml version="1.0" encoding="UTF-8" standalone="no"?>
<!DOCTYPE svg PUBLIC "-//W3C//DTD SVG 1.1//EN"
 "http://www.w3.org/Graphics/SVG/1.1/DTD/svg11.dtd">
<!-- Generated by graphviz version 2.40.1 (20161225.0304)
 -->
<!-- Title: asd Pages: 1 -->
<svg width="631pt" height="338pt"
 viewBox="0.00 0.00 631.44 338.00" xmlns="http://www.w3.org/2000/svg" xmlns:xlink="http://www.w3.org/1999/xlink">
<g id="graph0" class="graph" transform="scale(1 1) rotate(0) translate(4 334)">
<title>asd</title>
<polygon fill="#f5deb3" stroke="transparent" points="-4,4 -4,-334 627.4378,-334 627.4378,4 -4,4"/>
<text text-anchor="middle" x="311.7189" y="-7.8" font-family="Times,serif" font-size="14.00" fill="#000000">唯物主义的物质决定意识之思想体系</text>
<g id="clust1" class="cluster">
<title>cluster_2</title>
<polygon fill="#f5deb3" stroke="#000000" points="8,-31 8,-322 126.4378,-322 126.4378,-31 8,-31"/>
<text text-anchor="middle" x="67.2189" y="-306.8" font-family="Times,serif" font-size="14.00" fill="#000000">存在</text>
</g>
<g id="clust2" class="cluster">
<title>cluster_1</title>
<polygon fill="#f5deb3" stroke="#000000" points="236.4378,-56 236.4378,-293 615.4378,-293 615.4378,-56 236.4378,-56"/>
<text text-anchor="middle" x="425.9378" y="-277.8" font-family="Times,serif" font-size="14.00" fill="#000000">意识</text>
</g>
<!-- 社会事件 -->
<g id="node1" class="node">
<title>社会事件</title>
<polygon fill="none" stroke="#000000" points="71.9789,-255.0493 75.1304,-255.1479 78.2493,-255.2953 81.3229,-255.4913 84.3386,-255.7353 87.2846,-256.0266 90.149,-256.3645 92.9208,-256.7479 95.5894,-257.1759 98.145,-257.6472 100.5782,-258.1606 102.8807,-258.7147 105.0448,-259.308 107.0635,-259.9388 108.931,-260.6054 110.6422,-261.3059 112.1927,-262.0385 113.5792,-262.8012 114.7994,-263.5918 115.8516,-264.4082 116.7352,-265.2481 117.4503,-266.1093 117.998,-266.9894 118.38,-267.886 118.5988,-268.7965 118.6577,-269.7186 118.5605,-270.6497 118.3117,-271.5873 117.9162,-272.5287 117.3796,-273.4713 116.7077,-274.4127 115.9067,-275.3503 114.9832,-276.2814 113.9438,-277.2035 112.7956,-278.114 111.5453,-279.0106 110.2,-279.8907 108.7667,-280.7519 107.2523,-281.5918 105.6635,-282.4082 104.0068,-283.1988 102.2886,-283.9615 100.5149,-284.6941 98.6916,-285.3946 96.8241,-286.0612 94.9175,-286.692 92.9766,-287.2853 91.0058,-287.8394 89.0091,-288.3528 86.9901,-288.8241 84.9524,-289.2521 82.8987,-289.6355 80.8319,-289.9734 78.7542,-290.2647 76.6679,-290.5087 74.5748,-290.7047 72.4766,-290.8521 70.3749,-290.9507 68.2711,-291 66.1667,-291 64.0629,-290.9507 61.9613,-290.8521 59.8631,-290.7047 57.77,-290.5087 55.6836,-290.2647 53.606,-289.9734 51.5391,-289.6355 49.4855,-289.2521 47.4477,-288.8241 45.4288,-288.3528 43.4321,-287.8394 41.4612,-287.2853 39.5203,-286.692 37.6137,-286.0612 35.7462,-285.3946 33.9229,-284.6941 32.1493,-283.9615 30.4311,-283.1988 28.7744,-282.4082 27.1855,-281.5918 25.6711,-280.7519 24.2378,-279.8907 22.8926,-279.0106 21.6423,-278.114 20.494,-277.2035 19.4547,-276.2814 18.5311,-275.3503 17.7302,-274.4127 17.0583,-273.4713 16.5216,-272.5287 16.1262,-271.5873 15.8773,-270.6497 15.7801,-269.7186 15.839,-268.7965 16.0578,-267.886 16.4398,-266.9894 16.9875,-266.1093 17.7027,-265.2481 18.5863,-264.4082 19.6385,-263.5918 20.8586,-262.8012 22.2452,-262.0385 23.7957,-261.3059 25.5068,-260.6054 27.3743,-259.9388 29.3931,-259.308 31.5571,-258.7147 33.8596,-258.1606 36.2929,-257.6472 38.8484,-257.1759 41.517,-256.7479 44.2888,-256.3645 47.1533,-256.0266 50.0992,-255.7353 53.115,-255.4913 56.1886,-255.2953 59.3075,-255.1479 62.459,-255.0493 65.6301,-255 68.8078,-255 71.9789,-255.0493"/>
<text text-anchor="middle" x="67.2189" y="-269.3" font-family="Times,serif" font-size="14.00" fill="#000000">社会事件</text>
</g>
<g id="node17" class="node">
<title></title>
<polygon fill="none" stroke="#000000" points="181.4378,-183 154.4378,-165 181.4378,-147 208.4378,-165 181.4378,-183"/>
</g>
<!-- 社会事件&#45;&gt; -->
<g id="edge11" class="edge">
<title>社会事件&#45;&gt;</title>
<path fill="none" stroke="#000000" d="M105.3849,-259.3384C112.8167,-255.679 120.2209,-251.2475 126.4378,-246 145.3983,-229.9962 160.618,-205.9083 170.1985,-188.1584"/>
<polygon fill="#000000" stroke="#000000" points="173.4303,-189.5294 174.9288,-179.041 167.2167,-186.3056 173.4303,-189.5294"/>
</g>
<!-- 各种现象 -->
<g id="node2" class="node">
<title>各种现象</title>
<polygon fill="none" stroke="#000000" points="71.9789,-201.0493 75.1304,-201.1479 78.2493,-201.2953 81.3229,-201.4913 84.3386,-201.7353 87.2846,-202.0266 90.149,-202.3645 92.9208,-202.7479 95.5894,-203.1759 98.145,-203.6472 100.5782,-204.1606 102.8807,-204.7147 105.0448,-205.308 107.0635,-205.9388 108.931,-206.6054 110.6422,-207.3059 112.1927,-208.0385 113.5792,-208.8012 114.7994,-209.5918 115.8516,-210.4082 116.7352,-211.2481 117.4503,-212.1093 117.998,-212.9894 118.38,-213.886 118.5988,-214.7965 118.6577,-215.7186 118.5605,-216.6497 118.3117,-217.5873 117.9162,-218.5287 117.3796,-219.4713 116.7077,-220.4127 115.9067,-221.3503 114.9832,-222.2814 113.9438,-223.2035 112.7956,-224.114 111.5453,-225.0106 110.2,-225.8907 108.7667,-226.7519 107.2523,-227.5918 105.6635,-228.4082 104.0068,-229.1988 102.2886,-229.9615 100.5149,-230.6941 98.6916,-231.3946 96.8241,-232.0612 94.9175,-232.692 92.9766,-233.2853 91.0058,-233.8394 89.0091,-234.3528 86.9901,-234.8241 84.9524,-235.2521 82.8987,-235.6355 80.8319,-235.9734 78.7542,-236.2647 76.6679,-236.5087 74.5748,-236.7047 72.4766,-236.8521 70.3749,-236.9507 68.2711,-237 66.1667,-237 64.0629,-236.9507 61.9613,-236.8521 59.8631,-236.7047 57.77,-236.5087 55.6836,-236.2647 53.606,-235.9734 51.5391,-235.6355 49.4855,-235.2521 47.4477,-234.8241 45.4288,-234.3528 43.4321,-233.8394 41.4612,-233.2853 39.5203,-232.692 37.6137,-232.0612 35.7462,-231.3946 33.9229,-230.6941 32.1493,-229.9615 30.4311,-229.1988 28.7744,-228.4082 27.1855,-227.5918 25.6711,-226.7519 24.2378,-225.8907 22.8926,-225.0106 21.6423,-224.114 20.494,-223.2035 19.4547,-222.2814 18.5311,-221.3503 17.7302,-220.4127 17.0583,-219.4713 16.5216,-218.5287 16.1262,-217.5873 15.8773,-216.6497 15.7801,-215.7186 15.839,-214.7965 16.0578,-213.886 16.4398,-212.9894 16.9875,-212.1093 17.7027,-211.2481 18.5863,-210.4082 19.6385,-209.5918 20.8586,-208.8012 22.2452,-208.0385 23.7957,-207.3059 25.5068,-206.6054 27.3743,-205.9388 29.3931,-205.308 31.5571,-204.7147 33.8596,-204.1606 36.2929,-203.6472 38.8484,-203.1759 41.517,-202.7479 44.2888,-202.3645 47.1533,-202.0266 50.0992,-201.7353 53.115,-201.4913 56.1886,-201.2953 59.3075,-201.1479 62.459,-201.0493 65.6301,-201 68.8078,-201 71.9789,-201.0493"/>
<text text-anchor="middle" x="67.2189" y="-215.3" font-family="Times,serif" font-size="14.00" fill="#000000">各种现象</text>
</g>
<!-- 各种现象&#45;&gt; -->
<g id="edge12" class="edge">
<title>各种现象&#45;&gt;</title>
<path fill="none" stroke="#000000" d="M100.4959,-204.0295C108.9776,-200.1585 118.0631,-195.9638 126.4378,-192 136.2853,-187.3392 147.0569,-182.0859 156.4368,-177.4604"/>
<polygon fill="#000000" stroke="#000000" points="158.202,-180.492 165.6109,-172.9185 155.0962,-174.2187 158.202,-180.492"/>
</g>
<!-- 历史事实 -->
<g id="node3" class="node">
<title>历史事实</title>
<polygon fill="none" stroke="#000000" points="71.9789,-147.0493 75.1304,-147.1479 78.2493,-147.2953 81.3229,-147.4913 84.3386,-147.7353 87.2846,-148.0266 90.149,-148.3645 92.9208,-148.7479 95.5894,-149.1759 98.145,-149.6472 100.5782,-150.1606 102.8807,-150.7147 105.0448,-151.308 107.0635,-151.9388 108.931,-152.6054 110.6422,-153.3059 112.1927,-154.0385 113.5792,-154.8012 114.7994,-155.5918 115.8516,-156.4082 116.7352,-157.2481 117.4503,-158.1093 117.998,-158.9894 118.38,-159.886 118.5988,-160.7965 118.6577,-161.7186 118.5605,-162.6497 118.3117,-163.5873 117.9162,-164.5287 117.3796,-165.4713 116.7077,-166.4127 115.9067,-167.3503 114.9832,-168.2814 113.9438,-169.2035 112.7956,-170.114 111.5453,-171.0106 110.2,-171.8907 108.7667,-172.7519 107.2523,-173.5918 105.6635,-174.4082 104.0068,-175.1988 102.2886,-175.9615 100.5149,-176.6941 98.6916,-177.3946 96.8241,-178.0612 94.9175,-178.692 92.9766,-179.2853 91.0058,-179.8394 89.0091,-180.3528 86.9901,-180.8241 84.9524,-181.2521 82.8987,-181.6355 80.8319,-181.9734 78.7542,-182.2647 76.6679,-182.5087 74.5748,-182.7047 72.4766,-182.8521 70.3749,-182.9507 68.2711,-183 66.1667,-183 64.0629,-182.9507 61.9613,-182.8521 59.8631,-182.7047 57.77,-182.5087 55.6836,-182.2647 53.606,-181.9734 51.5391,-181.6355 49.4855,-181.2521 47.4477,-180.8241 45.4288,-180.3528 43.4321,-179.8394 41.4612,-179.2853 39.5203,-178.692 37.6137,-178.0612 35.7462,-177.3946 33.9229,-176.6941 32.1493,-175.9615 30.4311,-175.1988 28.7744,-174.4082 27.1855,-173.5918 25.6711,-172.7519 24.2378,-171.8907 22.8926,-171.0106 21.6423,-170.114 20.494,-169.2035 19.4547,-168.2814 18.5311,-167.3503 17.7302,-166.4127 17.0583,-165.4713 16.5216,-164.5287 16.1262,-163.5873 15.8773,-162.6497 15.7801,-161.7186 15.839,-160.7965 16.0578,-159.886 16.4398,-158.9894 16.9875,-158.1093 17.7027,-157.2481 18.5863,-156.4082 19.6385,-155.5918 20.8586,-154.8012 22.2452,-154.0385 23.7957,-153.3059 25.5068,-152.6054 27.3743,-151.9388 29.3931,-151.308 31.5571,-150.7147 33.8596,-150.1606 36.2929,-149.6472 38.8484,-149.1759 41.517,-148.7479 44.2888,-148.3645 47.1533,-148.0266 50.0992,-147.7353 53.115,-147.4913 56.1886,-147.2953 59.3075,-147.1479 62.459,-147.0493 65.6301,-147 68.8078,-147 71.9789,-147.0493"/>
<text text-anchor="middle" x="67.2189" y="-161.3" font-family="Times,serif" font-size="14.00" fill="#000000">历史事实</text>
</g>
<!-- 历史事实&#45;&gt; -->
<g id="edge13" class="edge">
<title>历史事实&#45;&gt;</title>
<path fill="none" stroke="#000000" d="M117.6495,-165C126.4736,-165 135.5133,-165 143.9105,-165"/>
<polygon fill="#000000" stroke="#000000" points="144.1386,-168.5001 154.1385,-165 144.1385,-161.5001 144.1386,-168.5001"/>
</g>
<!-- 生活经验 -->
<g id="node4" class="node">
<title>生活经验</title>
<polygon fill="none" stroke="#000000" points="71.9789,-93.0493 75.1304,-93.1479 78.2493,-93.2953 81.3229,-93.4913 84.3386,-93.7353 87.2846,-94.0266 90.149,-94.3645 92.9208,-94.7479 95.5894,-95.1759 98.145,-95.6472 100.5782,-96.1606 102.8807,-96.7147 105.0448,-97.308 107.0635,-97.9388 108.931,-98.6054 110.6422,-99.3059 112.1927,-100.0385 113.5792,-100.8012 114.7994,-101.5918 115.8516,-102.4082 116.7352,-103.2481 117.4503,-104.1093 117.998,-104.9894 118.38,-105.886 118.5988,-106.7965 118.6577,-107.7186 118.5605,-108.6497 118.3117,-109.5873 117.9162,-110.5287 117.3796,-111.4713 116.7077,-112.4127 115.9067,-113.3503 114.9832,-114.2814 113.9438,-115.2035 112.7956,-116.114 111.5453,-117.0106 110.2,-117.8907 108.7667,-118.7519 107.2523,-119.5918 105.6635,-120.4082 104.0068,-121.1988 102.2886,-121.9615 100.5149,-122.6941 98.6916,-123.3946 96.8241,-124.0612 94.9175,-124.692 92.9766,-125.2853 91.0058,-125.8394 89.0091,-126.3528 86.9901,-126.8241 84.9524,-127.2521 82.8987,-127.6355 80.8319,-127.9734 78.7542,-128.2647 76.6679,-128.5087 74.5748,-128.7047 72.4766,-128.8521 70.3749,-128.9507 68.2711,-129 66.1667,-129 64.0629,-128.9507 61.9613,-128.8521 59.8631,-128.7047 57.77,-128.5087 55.6836,-128.2647 53.606,-127.9734 51.5391,-127.6355 49.4855,-127.2521 47.4477,-126.8241 45.4288,-126.3528 43.4321,-125.8394 41.4612,-125.2853 39.5203,-124.692 37.6137,-124.0612 35.7462,-123.3946 33.9229,-122.6941 32.1493,-121.9615 30.4311,-121.1988 28.7744,-120.4082 27.1855,-119.5918 25.6711,-118.7519 24.2378,-117.8907 22.8926,-117.0106 21.6423,-116.114 20.494,-115.2035 19.4547,-114.2814 18.5311,-113.3503 17.7302,-112.4127 17.0583,-111.4713 16.5216,-110.5287 16.1262,-109.5873 15.8773,-108.6497 15.7801,-107.7186 15.839,-106.7965 16.0578,-105.886 16.4398,-104.9894 16.9875,-104.1093 17.7027,-103.2481 18.5863,-102.4082 19.6385,-101.5918 20.8586,-100.8012 22.2452,-100.0385 23.7957,-99.3059 25.5068,-98.6054 27.3743,-97.9388 29.3931,-97.308 31.5571,-96.7147 33.8596,-96.1606 36.2929,-95.6472 38.8484,-95.1759 41.517,-94.7479 44.2888,-94.3645 47.1533,-94.0266 50.0992,-93.7353 53.115,-93.4913 56.1886,-93.2953 59.3075,-93.1479 62.459,-93.0493 65.6301,-93 68.8078,-93 71.9789,-93.0493"/>
<text text-anchor="middle" x="67.2189" y="-107.3" font-family="Times,serif" font-size="14.00" fill="#000000">生活经验</text>
</g>
<!-- 生活经验&#45;&gt; -->
<g id="edge14" class="edge">
<title>生活经验&#45;&gt;</title>
<path fill="none" stroke="#000000" d="M96.8151,-124.2936C106.3032,-128.6089 116.8376,-133.4562 126.4378,-138 136.2853,-142.6608 147.0569,-147.9141 156.4368,-152.5396"/>
<polygon fill="#000000" stroke="#000000" points="155.0962,-155.7813 165.6109,-157.0815 158.202,-149.508 155.0962,-155.7813"/>
</g>
<!-- 现实结构 -->
<g id="node5" class="node">
<title>现实结构</title>
<polygon fill="none" stroke="#000000" points="71.9789,-39.0493 75.1304,-39.1479 78.2493,-39.2953 81.3229,-39.4913 84.3386,-39.7353 87.2846,-40.0266 90.149,-40.3645 92.9208,-40.7479 95.5894,-41.1759 98.145,-41.6472 100.5782,-42.1606 102.8807,-42.7147 105.0448,-43.308 107.0635,-43.9388 108.931,-44.6054 110.6422,-45.3059 112.1927,-46.0385 113.5792,-46.8012 114.7994,-47.5918 115.8516,-48.4082 116.7352,-49.2481 117.4503,-50.1093 117.998,-50.9894 118.38,-51.886 118.5988,-52.7965 118.6577,-53.7186 118.5605,-54.6497 118.3117,-55.5873 117.9162,-56.5287 117.3796,-57.4713 116.7077,-58.4127 115.9067,-59.3503 114.9832,-60.2814 113.9438,-61.2035 112.7956,-62.114 111.5453,-63.0106 110.2,-63.8907 108.7667,-64.7519 107.2523,-65.5918 105.6635,-66.4082 104.0068,-67.1988 102.2886,-67.9615 100.5149,-68.6941 98.6916,-69.3946 96.8241,-70.0612 94.9175,-70.692 92.9766,-71.2853 91.0058,-71.8394 89.0091,-72.3528 86.9901,-72.8241 84.9524,-73.2521 82.8987,-73.6355 80.8319,-73.9734 78.7542,-74.2647 76.6679,-74.5087 74.5748,-74.7047 72.4766,-74.8521 70.3749,-74.9507 68.2711,-75 66.1667,-75 64.0629,-74.9507 61.9613,-74.8521 59.8631,-74.7047 57.77,-74.5087 55.6836,-74.2647 53.606,-73.9734 51.5391,-73.6355 49.4855,-73.2521 47.4477,-72.8241 45.4288,-72.3528 43.4321,-71.8394 41.4612,-71.2853 39.5203,-70.692 37.6137,-70.0612 35.7462,-69.3946 33.9229,-68.6941 32.1493,-67.9615 30.4311,-67.1988 28.7744,-66.4082 27.1855,-65.5918 25.6711,-64.7519 24.2378,-63.8907 22.8926,-63.0106 21.6423,-62.114 20.494,-61.2035 19.4547,-60.2814 18.5311,-59.3503 17.7302,-58.4127 17.0583,-57.4713 16.5216,-56.5287 16.1262,-55.5873 15.8773,-54.6497 15.7801,-53.7186 15.839,-52.7965 16.0578,-51.886 16.4398,-50.9894 16.9875,-50.1093 17.7027,-49.2481 18.5863,-48.4082 19.6385,-47.5918 20.8586,-46.8012 22.2452,-46.0385 23.7957,-45.3059 25.5068,-44.6054 27.3743,-43.9388 29.3931,-43.308 31.5571,-42.7147 33.8596,-42.1606 36.2929,-41.6472 38.8484,-41.1759 41.517,-40.7479 44.2888,-40.3645 47.1533,-40.0266 50.0992,-39.7353 53.115,-39.4913 56.1886,-39.2953 59.3075,-39.1479 62.459,-39.0493 65.6301,-39 68.8078,-39 71.9789,-39.0493"/>
<text text-anchor="middle" x="67.2189" y="-53.3" font-family="Times,serif" font-size="14.00" fill="#000000">现实结构</text>
</g>
<!-- 现实结构&#45;&gt; -->
<g id="edge15" class="edge">
<title>现实结构&#45;&gt;</title>
<path fill="none" stroke="#000000" d="M101.055,-68.6142C109.8924,-72.6285 119.0121,-77.7322 126.4378,-84 145.3983,-100.0038 160.618,-124.0917 170.1985,-141.8416"/>
<polygon fill="#000000" stroke="#000000" points="167.2167,-143.6944 174.9288,-150.959 173.4303,-140.4706 167.2167,-143.6944"/>
</g>
<!-- 抽象 -->
<g id="node6" class="node">
<title>抽象</title>
<text text-anchor="middle" x="273.9378" y="-93.3" font-family="Times,serif" font-size="14.00" fill="#000000">抽象</text>
</g>
<!-- 方法论 -->
<g id="node7" class="node">
<title>方法论</title>
<polygon fill="none" stroke="#000000" points="303.4378,-183 244.4378,-183 244.4378,-147 303.4378,-147 303.4378,-183"/>
<text text-anchor="middle" x="273.9378" y="-161.3" font-family="Times,serif" font-size="14.00" fill="#000000">方法论</text>
</g>
<!-- 抽象&#45;&gt;方法论 -->
<g id="edge5" class="edge">
<title>抽象&#45;&gt;方法论</title>
<path fill="none" stroke="#000000" d="M273.9378,-115.0625C273.9378,-122.1398 273.9378,-129.2171 273.9378,-136.2945"/>
<polygon fill="#000000" stroke="#000000" points="270.4379,-136.6635 273.9378,-146.6636 277.4379,-136.6636 270.4379,-136.6635"/>
</g>
<!-- 多对一映射 -->
<g id="node15" class="node">
<title>多对一映射</title>
<text text-anchor="middle" x="383.4378" y="-80.3" font-family="Times,serif" font-size="14.00" fill="#000000">多对一映射</text>
</g>
<!-- 抽象&#45;&gt;多对一映射 -->
<g id="edge9" class="edge">
<title>抽象&#45;&gt;多对一映射</title>
<path fill="none" stroke="#000000" d="M301.0053,-93.7865C309.5601,-92.7709 319.3385,-91.61 329.0995,-90.4511"/>
<polygon fill="#000000" stroke="#000000" points="329.6956,-93.905 339.2132,-89.2504 328.8702,-86.9538 329.6956,-93.905"/>
</g>
<!-- 回归 -->
<g id="node8" class="node">
<title>回归</title>
<text text-anchor="middle" x="273.9378" y="-225.3" font-family="Times,serif" font-size="14.00" fill="#000000">回归</text>
</g>
<!-- 方法论&#45;&gt;回归 -->
<g id="edge6" class="edge">
<title>方法论&#45;&gt;回归</title>
<path fill="none" stroke="#000000" d="M273.9378,-183.5C273.9378,-189.2023 273.9378,-194.9046 273.9378,-200.6069"/>
<polygon fill="#000000" stroke="#000000" points="270.4379,-200.8711 273.9378,-210.8711 277.4379,-200.8711 270.4379,-200.8711"/>
</g>
<!-- 逻辑 -->
<g id="node9" class="node">
<title>逻辑</title>
<text text-anchor="middle" x="383.4378" y="-161.3" font-family="Times,serif" font-size="14.00" fill="#000000">逻辑</text>
</g>
<!-- 方法论&#45;&gt;逻辑 -->
<g id="edge17" class="edge">
<title>方法论&#45;&gt;逻辑</title>
<path fill="none" stroke="#000000" d="M303.5701,-165C316.6929,-165 332.2736,-165 346.174,-165"/>
<polygon fill="#000000" stroke="#000000" points="346.4078,-168.5001 356.4077,-165 346.4077,-161.5001 346.4078,-168.5001"/>
</g>
<!-- 推论 -->
<g id="node10" class="node">
<title>推论</title>
<text text-anchor="middle" x="490.4378" y="-132.3" font-family="Times,serif" font-size="14.00" fill="#000000">推论</text>
</g>
<!-- 方法论&#45;&gt;推论 -->
<g id="edge18" class="edge">
<title>方法论&#45;&gt;推论</title>
<path fill="none" stroke="#000000" d="M303.5123,-150.0345C314.5055,-145.2225 327.268,-140.4938 339.4378,-138 377.5764,-130.1848 422.2753,-130.7631 453.0921,-132.6271"/>
<polygon fill="#000000" stroke="#000000" points="453.165,-136.1401 463.3799,-133.3283 453.6411,-129.1563 453.165,-136.1401"/>
</g>
<!-- 观点 -->
<g id="node11" class="node">
<title>观点</title>
<text text-anchor="middle" x="490.4378" y="-186.3" font-family="Times,serif" font-size="14.00" fill="#000000">观点</text>
</g>
<!-- 方法论&#45;&gt;观点 -->
<g id="edge19" class="edge">
<title>方法论&#45;&gt;观点</title>
<path fill="none" stroke="#000000" d="M303.4944,-180.0542C314.4858,-184.8751 327.2517,-189.5868 339.4378,-192 377.6273,-199.5625 422.3181,-197.6788 453.119,-194.7631"/>
<polygon fill="#000000" stroke="#000000" points="453.8129,-198.2101 463.401,-193.7025 453.0946,-191.2471 453.8129,-198.2101"/>
</g>
<!-- 一对多分类 -->
<g id="node13" class="node">
<title>一对多分类</title>
<text text-anchor="middle" x="383.4378" y="-238.3" font-family="Times,serif" font-size="14.00" fill="#000000">一对多分类</text>
</g>
<!-- 回归&#45;&gt;一对多分类 -->
<g id="edge7" class="edge">
<title>回归&#45;&gt;一对多分类</title>
<path fill="none" stroke="#000000" d="M301.0053,-232.2135C309.5601,-233.2291 319.3385,-234.39 329.0995,-235.5489"/>
<polygon fill="#000000" stroke="#000000" points="328.8702,-239.0462 339.2132,-236.7496 329.6956,-232.095 328.8702,-239.0462"/>
</g>
<!-- 逻辑&#45;&gt;推论 -->
<g id="edge1" class="edge">
<title>逻辑&#45;&gt;推论</title>
<path fill="none" stroke="#000000" d="M410.4385,-157.6821C423.3912,-154.1715 439.1163,-149.9096 453.1853,-146.0965"/>
<polygon fill="#000000" stroke="#000000" points="454.3375,-149.4106 463.0737,-143.4165 452.5063,-142.6543 454.3375,-149.4106"/>
</g>
<!-- 逻辑&#45;&gt;观点 -->
<g id="edge2" class="edge">
<title>逻辑&#45;&gt;观点</title>
<path fill="none" stroke="#000000" d="M410.4385,-171.3086C423.3912,-174.3349 439.1163,-178.009 453.1853,-181.2961"/>
<polygon fill="#000000" stroke="#000000" points="452.5396,-184.7395 463.0737,-183.6065 454.1323,-177.923 452.5396,-184.7395"/>
</g>
<!-- 认识 -->
<g id="node12" class="node">
<title>认识</title>
<text text-anchor="middle" x="580.4378" y="-159.3" font-family="Times,serif" font-size="14.00" fill="#000000">认识</text>
</g>
<!-- 推论&#45;&gt;认识 -->
<g id="edge3" class="edge">
<title>推论&#45;&gt;认识</title>
<path fill="none" stroke="#000000" d="M517.4408,-144.1009C525.6419,-146.5612 534.7977,-149.308 543.5328,-151.9285"/>
<polygon fill="#000000" stroke="#000000" points="542.5589,-155.2904 553.1429,-154.8115 544.5703,-148.5856 542.5589,-155.2904"/>
</g>
<!-- 观点&#45;&gt;认识 -->
<g id="edge4" class="edge">
<title>观点&#45;&gt;认识</title>
<path fill="none" stroke="#000000" d="M517.4408,-181.8991C525.6419,-179.4388 534.7977,-176.692 543.5328,-174.0715"/>
<polygon fill="#000000" stroke="#000000" points="544.5703,-177.4144 553.1429,-171.1885 542.5589,-170.7096 544.5703,-177.4144"/>
</g>
<!-- 分析 -->
<g id="node14" class="node">
<title>分析</title>
<text text-anchor="middle" x="490.4378" y="-240.3" font-family="Times,serif" font-size="14.00" fill="#000000">分析</text>
</g>
<!-- 一对多分类&#45;&gt;分析 -->
<g id="edge8" class="edge">
<title>一对多分类&#45;&gt;分析</title>
<path fill="none" stroke="#000000" d="M427.5766,-242.825C436.0767,-242.9839 444.9023,-243.1489 453.1586,-243.3032"/>
<polygon fill="#000000" stroke="#000000" points="453.1811,-246.8041 463.2448,-243.4917 453.312,-239.8053 453.1811,-246.8041"/>
</g>
<!-- 综合 -->
<g id="node16" class="node">
<title>综合</title>
<text text-anchor="middle" x="490.4378" y="-78.3" font-family="Times,serif" font-size="14.00" fill="#000000">综合</text>
</g>
<!-- 多对一映射&#45;&gt;综合 -->
<g id="edge10" class="edge">
<title>多对一映射&#45;&gt;综合</title>
<path fill="none" stroke="#000000" d="M427.5766,-83.175C436.0767,-83.0161 444.9023,-82.8511 453.1586,-82.6968"/>
<polygon fill="#000000" stroke="#000000" points="453.312,-86.1947 463.2448,-82.5083 453.1811,-79.1959 453.312,-86.1947"/>
</g>
<!-- &#45;&gt;方法论 -->
<g id="edge16" class="edge">
<title>&#45;&gt;方法论</title>
<path fill="none" stroke="#000000" d="M208.6906,-165C216.6468,-165 225.5109,-165 234.0769,-165"/>
<polygon fill="#000000" stroke="#000000" points="234.2966,-168.5001 244.2965,-165 234.2965,-161.5001 234.2966,-168.5001"/>
</g>
</g>
</svg>
