<?xml version="1.0" encoding="UTF-8" standalone="no"?>
<!DOCTYPE svg PUBLIC "-//W3C//DTD SVG 1.1//EN"
 "http://www.w3.org/Graphics/SVG/1.1/DTD/svg11.dtd">
<!-- Generated by graphviz version 2.40.1 (20161225.0304)
 -->
<!-- Title: asd Pages: 1 -->
<svg width="1244pt" height="585pt"
 viewBox="0.00 0.00 1244.00 585.00" xmlns="http://www.w3.org/2000/svg" xmlns:xlink="http://www.w3.org/1999/xlink">
<g id="graph0" class="graph" transform="scale(1 1) rotate(0) translate(4 581)">
<title>asd</title>
<polygon fill="#f5deb3" stroke="transparent" points="-4,4 -4,-581 1240,-581 1240,4 -4,4"/>
<text text-anchor="middle" x="618" y="-7.8" font-family="Times,serif" font-size="14.00" fill="#000000">诸子百家</text>
<g id="clust1" class="cluster">
<title>cluster_2</title>
<polygon fill="#f5deb3" stroke="#000000" points="8,-31 8,-569 1228,-569 1228,-31 8,-31"/>
</g>
<!-- 慎子 -->
<g id="node1" class="node">
<title>慎子</title>
<text text-anchor="middle" x="835" y="-377.3" font-family="Times,serif" font-size="14.00" fill="#000000">慎子</text>
</g>
<!-- 申不害 -->
<g id="node2" class="node">
<title>申不害</title>
<text text-anchor="middle" x="835" y="-323.3" font-family="Times,serif" font-size="14.00" fill="#000000">申不害</text>
</g>
<!-- 商鞅 -->
<g id="node3" class="node">
<title>商鞅</title>
<text text-anchor="middle" x="835" y="-269.3" font-family="Times,serif" font-size="14.00" fill="#000000">商鞅</text>
</g>
<!-- 韩非 -->
<g id="node11" class="node">
<title>韩非</title>
<text text-anchor="middle" x="1033.5" y="-430.3" font-family="Times,serif" font-size="14.00" fill="#000000">韩非</text>
</g>
<!-- 商鞅&#45;&gt;韩非 -->
<g id="edge21" class="edge">
<title>商鞅&#45;&gt;韩非</title>
<path fill="none" stroke="#000000" d="M860.2347,-291.0915C864.2026,-294.0288 868.2352,-297.069 872,-300 919.4388,-336.9318 972.8233,-381.9286 1004.7777,-409.248"/>
<polygon fill="#000000" stroke="#000000" points="1002.5517,-411.9497 1012.4233,-415.797 1007.1055,-406.6334 1002.5517,-411.9497"/>
</g>
<!-- 公孙衍 -->
<g id="node23" class="node">
<title>公孙衍</title>
<text text-anchor="middle" x="1033.5" y="-297.3" font-family="Times,serif" font-size="14.00" fill="#000000">公孙衍</text>
</g>
<!-- 商鞅&#45;&gt;公孙衍 -->
<g id="edge20" class="edge">
<title>商鞅&#45;&gt;公孙衍</title>
<path fill="none" stroke="#000000" d="M862.1844,-276.8346C896.2014,-281.6329 954.7233,-289.8879 993.7647,-295.395"/>
<polygon fill="#000000" stroke="#000000" points="993.3422,-298.87 1003.7331,-296.8011 994.32,-291.9386 993.3422,-298.87"/>
</g>
<!-- 尸子 -->
<g id="node24" class="node">
<title>尸子</title>
<text text-anchor="middle" x="1033.5" y="-189.3" font-family="Times,serif" font-size="14.00" fill="#000000">尸子</text>
</g>
<!-- 商鞅&#45;&gt;尸子 -->
<g id="edge22" class="edge">
<title>商鞅&#45;&gt;尸子</title>
<path fill="none" stroke="#000000" d="M860.8745,-254.9119C864.6805,-252.0251 868.496,-248.999 872,-246 889.6682,-230.8781 888.1265,-219.2536 909,-209 936.1622,-195.6572 970.4905,-192.0819 996.2178,-191.6036"/>
<polygon fill="#000000" stroke="#000000" points="996.3343,-195.1033 1006.3208,-191.5648 996.3074,-188.1033 996.3343,-195.1033"/>
<text text-anchor="middle" x="938" y="-212.8" font-family="Times,serif" font-size="14.00" fill="#000000">门客</text>
</g>
<!-- 杂家 -->
<g id="node4" class="node">
<title>杂家</title>
<text text-anchor="middle" x="45.5" y="-492.3" font-family="Times,serif" font-size="14.00" fill="#000000">杂家</text>
</g>
<!-- 吕不韦 -->
<g id="node5" class="node">
<title>吕不韦</title>
<text text-anchor="middle" x="207.5" y="-485.3" font-family="Times,serif" font-size="14.00" fill="#000000">吕不韦</text>
</g>
<!-- 杂家&#45;&gt;吕不韦 -->
<g id="edge1" class="edge">
<title>杂家&#45;&gt;吕不韦</title>
<path fill="none" stroke="#000000" d="M72.6152,-494.8284C98.6403,-493.7038 138.2478,-491.9924 167.82,-490.7146"/>
<polygon fill="#000000" stroke="#000000" points="167.9832,-494.2109 177.8228,-490.2823 167.681,-487.2174 167.9832,-494.2109"/>
</g>
<!-- 淮南子 -->
<g id="node6" class="node">
<title>淮南子</title>
<text text-anchor="middle" x="207.5" y="-539.3" font-family="Times,serif" font-size="14.00" fill="#000000">淮南子</text>
</g>
<!-- 杂家&#45;&gt;淮南子 -->
<g id="edge2" class="edge">
<title>杂家&#45;&gt;淮南子</title>
<path fill="none" stroke="#000000" d="M72.6152,-503.8667C98.754,-511.4502 138.594,-523.0087 168.2068,-531.6001"/>
<polygon fill="#000000" stroke="#000000" points="167.2436,-534.9649 177.8228,-534.3899 169.1941,-528.2421 167.2436,-534.9649"/>
</g>
<!-- 阴阳家 -->
<g id="node7" class="node">
<title>阴阳家</title>
<text text-anchor="middle" x="45.5" y="-428.3" font-family="Times,serif" font-size="14.00" fill="#000000">阴阳家</text>
</g>
<!-- 邹衍 -->
<g id="node8" class="node">
<title>邹衍</title>
<text text-anchor="middle" x="207.5" y="-377.3" font-family="Times,serif" font-size="14.00" fill="#000000">邹衍</text>
</g>
<!-- 阴阳家&#45;&gt;邹衍 -->
<g id="edge3" class="edge">
<title>阴阳家&#45;&gt;邹衍</title>
<path fill="none" stroke="#000000" d="M75.2133,-422.6458C102.0958,-414.1828 141.7817,-401.6891 170.67,-392.5946"/>
<polygon fill="#000000" stroke="#000000" points="171.9116,-395.8732 180.3991,-389.5318 169.8096,-389.1962 171.9116,-395.8732"/>
</g>
<!-- 邹奭 -->
<g id="node9" class="node">
<title>邹奭</title>
<text text-anchor="middle" x="207.5" y="-431.3" font-family="Times,serif" font-size="14.00" fill="#000000">邹奭</text>
</g>
<!-- 阴阳家&#45;&gt;邹奭 -->
<g id="edge4" class="edge">
<title>阴阳家&#45;&gt;邹奭</title>
<path fill="none" stroke="#000000" d="M75.2133,-432.5502C101.9785,-433.0459 141.4353,-433.7766 170.2909,-434.3109"/>
<polygon fill="#000000" stroke="#000000" points="170.336,-437.8123 180.3991,-434.4981 170.4657,-430.8135 170.336,-437.8123"/>
</g>
<!-- 荀子 -->
<g id="node10" class="node">
<title>荀子</title>
<text text-anchor="middle" x="835" y="-539.3" font-family="Times,serif" font-size="14.00" fill="#000000">荀子</text>
</g>
<!-- 荀子&#45;&gt;韩非 -->
<g id="edge5" class="edge">
<title>荀子&#45;&gt;韩非</title>
<path fill="none" stroke="#000000" d="M862.1844,-528.0726C897.2773,-508.8024 958.4497,-475.2115 997.4093,-453.8181"/>
<polygon fill="#000000" stroke="#000000" points="999.2454,-456.8029 1006.3262,-448.9217 995.8761,-450.6671 999.2454,-456.8029"/>
</g>
<!-- 张苍 -->
<g id="node12" class="node">
<title>张苍</title>
<text text-anchor="middle" x="1033.5" y="-243.3" font-family="Times,serif" font-size="14.00" fill="#000000">张苍</text>
</g>
<!-- 荀子&#45;&gt;张苍 -->
<g id="edge6" class="edge">
<title>荀子&#45;&gt;张苍</title>
<path fill="none" stroke="#000000" d="M862.0873,-525.4416C865.6421,-522.5237 869.0641,-519.3483 872,-516 952.7727,-423.8819 928.4508,-370.4484 1004,-274 1004.3746,-273.5218 1004.7581,-273.0447 1005.1494,-272.5692"/>
<polygon fill="#000000" stroke="#000000" points="1007.832,-274.8223 1012.0073,-265.0849 1002.6709,-270.0932 1007.832,-274.8223"/>
</g>
<!-- 李斯 -->
<g id="node13" class="node">
<title>李斯</title>
<text text-anchor="middle" x="1033.5" y="-539.3" font-family="Times,serif" font-size="14.00" fill="#000000">李斯</text>
</g>
<!-- 荀子&#45;&gt;李斯 -->
<g id="edge7" class="edge">
<title>荀子&#45;&gt;李斯</title>
<path fill="none" stroke="#000000" d="M862.1844,-543C896.8331,-543 956.9052,-543 995.9192,-543"/>
<polygon fill="#000000" stroke="#000000" points="996.3262,-546.5001 1006.3262,-543 996.3261,-539.5001 996.3262,-546.5001"/>
<text text-anchor="middle" x="938" y="-546.8" font-family="Times,serif" font-size="14.00" fill="#000000">帝王之术</text>
</g>
<!-- 贾谊 -->
<g id="node14" class="node">
<title>贾谊</title>
<text text-anchor="middle" x="1193" y="-216.3" font-family="Times,serif" font-size="14.00" fill="#000000">贾谊</text>
</g>
<!-- 张苍&#45;&gt;贾谊 -->
<g id="edge8" class="edge">
<title>张苍&#45;&gt;贾谊</title>
<path fill="none" stroke="#000000" d="M1060.557,-242.4198C1086.6791,-237.9979 1126.4534,-231.2649 1155.5985,-226.3313"/>
<polygon fill="#000000" stroke="#000000" points="1156.5347,-229.7227 1165.8103,-224.6027 1155.3663,-222.8209 1156.5347,-229.7227"/>
<text text-anchor="middle" x="1114.5" y="-238.8" font-family="Times,serif" font-size="14.00" fill="#000000">师徒</text>
</g>
<!-- 张耳 -->
<g id="node15" class="node">
<title>张耳</title>
<text text-anchor="middle" x="1193" y="-270.3" font-family="Times,serif" font-size="14.00" fill="#000000">张耳</text>
</g>
<!-- 张苍&#45;&gt;张耳 -->
<g id="edge9" class="edge">
<title>张苍&#45;&gt;张耳</title>
<path fill="none" stroke="#000000" d="M1060.557,-251.5802C1086.6791,-256.0021 1126.4534,-262.7351 1155.5985,-267.6687"/>
<polygon fill="#000000" stroke="#000000" points="1155.3663,-271.1791 1165.8103,-269.3973 1156.5347,-264.2773 1155.3663,-271.1791"/>
<text text-anchor="middle" x="1114.5" y="-266.8" font-family="Times,serif" font-size="14.00" fill="#000000">侄子</text>
</g>
<!-- 张仪 -->
<g id="node16" class="node">
<title>张仪</title>
<text text-anchor="middle" x="835" y="-107.3" font-family="Times,serif" font-size="14.00" fill="#000000">张仪</text>
</g>
<!-- 张仪&#45;&gt;张苍 -->
<g id="edge10" class="edge">
<title>张仪&#45;&gt;张苍</title>
<path fill="none" stroke="#000000" d="M862.0012,-127.9997C865.6517,-131.0367 869.1238,-134.3945 872,-138 897.9479,-170.5279 876.4785,-198.0441 909,-224 933.4936,-243.5487 969.3211,-248.4568 996.2609,-248.9685"/>
<polygon fill="#000000" stroke="#000000" points="996.4736,-252.4685 1006.472,-248.9638 996.4704,-245.4685 996.4736,-252.4685"/>
<text text-anchor="middle" x="938" y="-249.8" font-family="Times,serif" font-size="14.00" fill="#000000">爷孙</text>
</g>
<!-- 苏秦 -->
<g id="node47" class="node">
<title>苏秦</title>
<text text-anchor="middle" x="1033.5" y="-107.3" font-family="Times,serif" font-size="14.00" fill="#000000">苏秦</text>
</g>
<!-- 张仪&#45;&gt;苏秦 -->
<g id="edge46" class="edge">
<title>张仪&#45;&gt;苏秦</title>
<path fill="none" stroke="#000000" d="M862.1844,-111C896.8331,-111 956.9052,-111 995.9192,-111"/>
<polygon fill="#000000" stroke="#000000" points="996.3262,-114.5001 1006.3262,-111 996.3261,-107.5001 996.3262,-114.5001"/>
<text text-anchor="middle" x="938" y="-114.8" font-family="Times,serif" font-size="14.00" fill="#000000">师弟</text>
</g>
<!-- 墨子 -->
<g id="node17" class="node">
<title>墨子</title>
<text text-anchor="middle" x="531.5" y="-377.3" font-family="Times,serif" font-size="14.00" fill="#000000">墨子</text>
</g>
<!-- 禽滑厘 -->
<g id="node18" class="node">
<title>禽滑厘</title>
<text text-anchor="middle" x="665.5" y="-377.3" font-family="Times,serif" font-size="14.00" fill="#000000">禽滑厘</text>
</g>
<!-- 墨子&#45;&gt;禽滑厘 -->
<g id="edge11" class="edge">
<title>墨子&#45;&gt;禽滑厘</title>
<path fill="none" stroke="#000000" d="M558.6169,-381C577.8073,-381 603.8612,-381 625.4411,-381"/>
<polygon fill="#000000" stroke="#000000" points="625.6258,-384.5001 635.6258,-381 625.6258,-377.5001 625.6258,-384.5001"/>
</g>
<!-- 禽滑厘&#45;&gt;慎子 -->
<g id="edge16" class="edge">
<title>禽滑厘&#45;&gt;慎子</title>
<path fill="none" stroke="#000000" d="M695.0246,-381C723.448,-381 766.55,-381 797.4113,-381"/>
<polygon fill="#000000" stroke="#000000" points="797.7728,-384.5001 807.7728,-381 797.7727,-377.5001 797.7728,-384.5001"/>
<text text-anchor="middle" x="746.5" y="-384.8" font-family="Times,serif" font-size="14.00" fill="#000000">?</text>
</g>
<!-- 农家许行 -->
<g id="node19" class="node">
<title>农家许行</title>
<text text-anchor="middle" x="835" y="-431.3" font-family="Times,serif" font-size="14.00" fill="#000000">农家许行</text>
</g>
<!-- 禽滑厘&#45;&gt;农家许行 -->
<g id="edge12" class="edge">
<title>禽滑厘&#45;&gt;农家许行</title>
<path fill="none" stroke="#000000" d="M695.0246,-390.4061C720.6747,-398.5778 758.2789,-410.5579 788.0534,-420.0436"/>
<polygon fill="#000000" stroke="#000000" points="787.2315,-423.455 797.8222,-423.1557 789.3565,-416.7853 787.2315,-423.455"/>
</g>
<!-- 子夏 -->
<g id="node20" class="node">
<title>子夏</title>
<text text-anchor="middle" x="531.5" y="-323.3" font-family="Times,serif" font-size="14.00" fill="#000000">子夏</text>
</g>
<!-- 子夏&#45;&gt;禽滑厘 -->
<g id="edge13" class="edge">
<title>子夏&#45;&gt;禽滑厘</title>
<path fill="none" stroke="#000000" d="M558.6169,-337.9277C578.069,-345.7666 604.5731,-356.4474 626.3214,-365.2116"/>
<polygon fill="#000000" stroke="#000000" points="625.0424,-368.4696 635.6258,-368.9611 627.6589,-361.977 625.0424,-368.4696"/>
</g>
<!-- 李悝 -->
<g id="node21" class="node">
<title>李悝</title>
<text text-anchor="middle" x="665.5" y="-323.3" font-family="Times,serif" font-size="14.00" fill="#000000">李悝</text>
</g>
<!-- 子夏&#45;&gt;李悝 -->
<g id="edge14" class="edge">
<title>子夏&#45;&gt;李悝</title>
<path fill="none" stroke="#000000" d="M558.6169,-327C578.6868,-327 606.2637,-327 628.3787,-327"/>
<polygon fill="#000000" stroke="#000000" points="628.4235,-330.5001 638.4234,-327 628.4234,-323.5001 628.4235,-330.5001"/>
</g>
<!-- 吴起 -->
<g id="node22" class="node">
<title>吴起</title>
<text text-anchor="middle" x="665.5" y="-269.3" font-family="Times,serif" font-size="14.00" fill="#000000">吴起</text>
</g>
<!-- 子夏&#45;&gt;吴起 -->
<g id="edge15" class="edge">
<title>子夏&#45;&gt;吴起</title>
<path fill="none" stroke="#000000" d="M558.6169,-316.0723C578.8684,-307.9112 606.7634,-296.67 628.9778,-287.7179"/>
<polygon fill="#000000" stroke="#000000" points="630.4565,-290.8956 638.4234,-283.9115 627.84,-284.403 630.4565,-290.8956"/>
</g>
<!-- 李悝&#45;&gt;慎子 -->
<g id="edge17" class="edge">
<title>李悝&#45;&gt;慎子</title>
<path fill="none" stroke="#000000" d="M692.6428,-321.8594C699.6597,-321.3199 707.162,-321.4458 714,-323 744.2818,-329.8827 775.8361,-345.3242 799.1267,-358.5448"/>
<polygon fill="#000000" stroke="#000000" points="797.5377,-361.6694 807.9426,-363.667 801.0544,-355.6169 797.5377,-361.6694"/>
</g>
<!-- 李悝&#45;&gt;申不害 -->
<g id="edge18" class="edge">
<title>李悝&#45;&gt;申不害</title>
<path fill="none" stroke="#000000" d="M692.7331,-327C720.3945,-327 763.5338,-327 795.0604,-327"/>
<polygon fill="#000000" stroke="#000000" points="795.2678,-330.5001 805.2677,-327 795.2677,-323.5001 795.2678,-330.5001"/>
</g>
<!-- 李悝&#45;&gt;商鞅 -->
<g id="edge19" class="edge">
<title>李悝&#45;&gt;商鞅</title>
<path fill="none" stroke="#000000" d="M692.7331,-318.324C721.2747,-309.2311 766.2951,-294.8883 798.034,-284.7768"/>
<polygon fill="#000000" stroke="#000000" points="799.3688,-288.0249 807.8345,-281.6545 797.2439,-281.3552 799.3688,-288.0249"/>
</g>
<!-- 黄帝 -->
<g id="node25" class="node">
<title>黄帝</title>
<text text-anchor="middle" x="45.5" y="-323.3" font-family="Times,serif" font-size="14.00" fill="#000000">黄帝</text>
</g>
<!-- 老子 -->
<g id="node26" class="node">
<title>老子</title>
<text text-anchor="middle" x="207.5" y="-323.3" font-family="Times,serif" font-size="14.00" fill="#000000">老子</text>
</g>
<!-- 黄帝&#45;&gt;老子 -->
<g id="edge23" class="edge">
<title>黄帝&#45;&gt;老子</title>
<path fill="none" stroke="#000000" d="M72.6152,-327C99.3655,-327 140.4656,-327 170.2681,-327"/>
<polygon fill="#000000" stroke="#000000" points="170.2964,-330.5001 180.2964,-327 170.2963,-323.5001 170.2964,-330.5001"/>
</g>
<!-- 孔子 -->
<g id="node27" class="node">
<title>孔子</title>
<text text-anchor="middle" x="369.5" y="-323.3" font-family="Times,serif" font-size="14.00" fill="#000000">孔子</text>
</g>
<!-- 老子&#45;&gt;孔子 -->
<g id="edge24" class="edge">
<title>老子&#45;&gt;孔子</title>
<path fill="none" stroke="#000000" d="M234.6152,-327C261.3655,-327 302.4656,-327 332.2681,-327"/>
<polygon fill="#000000" stroke="#000000" points="332.2964,-330.5001 342.2964,-327 332.2963,-323.5001 332.2964,-330.5001"/>
</g>
<!-- 文子 -->
<g id="node31" class="node">
<title>文子</title>
<text text-anchor="middle" x="369.5" y="-377.3" font-family="Times,serif" font-size="14.00" fill="#000000">文子</text>
</g>
<!-- 老子&#45;&gt;文子 -->
<g id="edge29" class="edge">
<title>老子&#45;&gt;文子</title>
<path fill="none" stroke="#000000" d="M234.6152,-336.0384C261.4823,-344.9941 302.8248,-358.7749 332.6579,-368.7193"/>
<polygon fill="#000000" stroke="#000000" points="331.7027,-372.0902 342.2964,-371.9321 333.9164,-365.4494 331.7027,-372.0902"/>
</g>
<!-- 庄子 -->
<g id="node33" class="node">
<title>庄子</title>
<text text-anchor="middle" x="369.5" y="-269.3" font-family="Times,serif" font-size="14.00" fill="#000000">庄子</text>
</g>
<!-- 老子&#45;&gt;庄子 -->
<g id="edge31" class="edge">
<title>老子&#45;&gt;庄子</title>
<path fill="none" stroke="#000000" d="M234.6152,-317.9616C261.4823,-309.0059 302.8248,-295.2251 332.6579,-285.2807"/>
<polygon fill="#000000" stroke="#000000" points="333.9164,-288.5506 342.2964,-282.0679 331.7027,-281.9098 333.9164,-288.5506"/>
</g>
<!-- 杨朱 -->
<g id="node34" class="node">
<title>杨朱</title>
<text text-anchor="middle" x="369.5" y="-431.3" font-family="Times,serif" font-size="14.00" fill="#000000">杨朱</text>
</g>
<!-- 老子&#45;&gt;杨朱 -->
<g id="edge32" class="edge">
<title>老子&#45;&gt;杨朱</title>
<path fill="none" stroke="#000000" d="M234.6152,-345.0768C261.8327,-363.2218 303.9058,-391.2705 333.8193,-411.2129"/>
<polygon fill="#000000" stroke="#000000" points="332.0344,-414.2294 342.2964,-416.8643 335.9173,-408.405 332.0344,-414.2294"/>
</g>
<!-- 孔子&#45;&gt;子夏 -->
<g id="edge25" class="edge">
<title>孔子&#45;&gt;子夏</title>
<path fill="none" stroke="#000000" d="M396.6152,-327C423.3655,-327 464.4656,-327 494.2681,-327"/>
<polygon fill="#000000" stroke="#000000" points="494.2964,-330.5001 504.2964,-327 494.2963,-323.5001 494.2964,-330.5001"/>
<text text-anchor="middle" x="450.5" y="-330.8" font-family="Times,serif" font-size="14.00" fill="#000000">私学</text>
</g>
<!-- 曾参 -->
<g id="node28" class="node">
<title>曾参</title>
<text text-anchor="middle" x="531.5" y="-431.3" font-family="Times,serif" font-size="14.00" fill="#000000">曾参</text>
</g>
<!-- 孔子&#45;&gt;曾参 -->
<g id="edge26" class="edge">
<title>孔子&#45;&gt;曾参</title>
<path fill="none" stroke="#000000" d="M396.6152,-345.0768C423.8327,-363.2218 465.9058,-391.2705 495.8193,-411.2129"/>
<polygon fill="#000000" stroke="#000000" points="494.0344,-414.2294 504.2964,-416.8643 497.9173,-408.405 494.0344,-414.2294"/>
<text text-anchor="middle" x="450.5" y="-392.8" font-family="Times,serif" font-size="14.00" fill="#000000">私学</text>
</g>
<!-- 子思 -->
<g id="node29" class="node">
<title>子思</title>
<text text-anchor="middle" x="665.5" y="-438.3" font-family="Times,serif" font-size="14.00" fill="#000000">子思</text>
</g>
<!-- 曾参&#45;&gt;子思 -->
<g id="edge27" class="edge">
<title>曾参&#45;&gt;子思</title>
<path fill="none" stroke="#000000" d="M558.6169,-436.4166C578.6868,-437.465 606.2637,-438.9056 628.3787,-440.0608"/>
<polygon fill="#000000" stroke="#000000" points="628.2544,-443.559 638.4234,-440.5856 628.6197,-436.5685 628.2544,-443.559"/>
</g>
<!-- 孟子 -->
<g id="node30" class="node">
<title>孟子</title>
<text text-anchor="middle" x="835" y="-485.3" font-family="Times,serif" font-size="14.00" fill="#000000">孟子</text>
</g>
<!-- 子思&#45;&gt;孟子 -->
<g id="edge28" class="edge">
<title>子思&#45;&gt;孟子</title>
<path fill="none" stroke="#000000" d="M692.7331,-449.5514C721.2747,-457.4656 766.2951,-469.9491 798.034,-478.7499"/>
<polygon fill="#000000" stroke="#000000" points="797.2628,-482.168 807.8345,-481.4674 799.1333,-475.4225 797.2628,-482.168"/>
</g>
<!-- 范蠡 -->
<g id="node32" class="node">
<title>范蠡</title>
<text text-anchor="middle" x="531.5" y="-485.3" font-family="Times,serif" font-size="14.00" fill="#000000">范蠡</text>
</g>
<!-- 文子&#45;&gt;范蠡 -->
<g id="edge30" class="edge">
<title>文子&#45;&gt;范蠡</title>
<path fill="none" stroke="#000000" d="M396.6152,-399.0768C423.8327,-417.2218 465.9058,-445.2705 495.8193,-465.2129"/>
<polygon fill="#000000" stroke="#000000" points="494.0344,-468.2294 504.2964,-470.8643 497.9173,-462.405 494.0344,-468.2294"/>
</g>
<!-- 邓析 -->
<g id="node35" class="node">
<title>邓析</title>
<text text-anchor="middle" x="45.5" y="-269.3" font-family="Times,serif" font-size="14.00" fill="#000000">邓析</text>
</g>
<!-- 惠施 -->
<g id="node36" class="node">
<title>惠施</title>
<text text-anchor="middle" x="207.5" y="-269.3" font-family="Times,serif" font-size="14.00" fill="#000000">惠施</text>
</g>
<!-- 邓析&#45;&gt;惠施 -->
<g id="edge33" class="edge">
<title>邓析&#45;&gt;惠施</title>
<path fill="none" stroke="#000000" d="M72.6152,-273C99.3655,-273 140.4656,-273 170.2681,-273"/>
<polygon fill="#000000" stroke="#000000" points="170.2964,-276.5001 180.2964,-273 170.2963,-269.5001 170.2964,-276.5001"/>
<text text-anchor="middle" x="126.5" y="-276.8" font-family="Times,serif" font-size="14.00" fill="#000000">名家</text>
</g>
<!-- 惠施&#45;&gt;庄子 -->
<g id="edge34" class="edge">
<title>惠施&#45;&gt;庄子</title>
<path fill="none" stroke="#000000" d="M234.6152,-273C261.3655,-273 302.4656,-273 332.2681,-273"/>
<polygon fill="#000000" stroke="#000000" points="332.2964,-276.5001 342.2964,-273 332.2963,-269.5001 332.2964,-276.5001"/>
<text text-anchor="middle" x="288.5" y="-276.8" font-family="Times,serif" font-size="14.00" fill="#000000">至交</text>
</g>
<!-- 公孙龙 -->
<g id="node37" class="node">
<title>公孙龙</title>
<text text-anchor="middle" x="369.5" y="-215.3" font-family="Times,serif" font-size="14.00" fill="#000000">公孙龙</text>
</g>
<!-- 惠施&#45;&gt;公孙龙 -->
<g id="edge35" class="edge">
<title>惠施&#45;&gt;公孙龙</title>
<path fill="none" stroke="#000000" d="M234.6152,-263.9616C260.754,-255.2487 300.594,-241.9687 330.2068,-232.0977"/>
<polygon fill="#000000" stroke="#000000" points="331.4428,-235.3751 339.8228,-228.8924 329.2291,-228.7344 331.4428,-235.3751"/>
</g>
<!-- 兵家 -->
<g id="node38" class="node">
<title>兵家</title>
<text text-anchor="middle" x="531.5" y="-194.3" font-family="Times,serif" font-size="14.00" fill="#000000">兵家</text>
</g>
<!-- 兵家&#45;&gt;吴起 -->
<g id="edge37" class="edge">
<title>兵家&#45;&gt;吴起</title>
<path fill="none" stroke="#000000" d="M558.6169,-213.1774C579.0501,-224.6138 607.2644,-240.4054 629.5741,-252.8922"/>
<polygon fill="#000000" stroke="#000000" points="627.9878,-256.0153 638.4234,-257.8452 631.4067,-249.9069 627.9878,-256.0153"/>
</g>
<!-- 孙武 -->
<g id="node39" class="node">
<title>孙武</title>
<text text-anchor="middle" x="665.5" y="-161.3" font-family="Times,serif" font-size="14.00" fill="#000000">孙武</text>
</g>
<!-- 兵家&#45;&gt;孙武 -->
<g id="edge36" class="edge">
<title>兵家&#45;&gt;孙武</title>
<path fill="none" stroke="#000000" d="M558.6169,-191.322C578.7776,-186.357 606.5134,-179.5266 628.6786,-174.068"/>
<polygon fill="#000000" stroke="#000000" points="629.5505,-177.4579 638.4234,-171.6681 627.8766,-170.661 629.5505,-177.4579"/>
</g>
<!-- 剧辛 -->
<g id="node40" class="node">
<title>剧辛</title>
<text text-anchor="middle" x="665.5" y="-215.3" font-family="Times,serif" font-size="14.00" fill="#000000">剧辛</text>
</g>
<!-- 兵家&#45;&gt;剧辛 -->
<g id="edge38" class="edge">
<title>兵家&#45;&gt;剧辛</title>
<path fill="none" stroke="#000000" d="M558.6169,-202.2497C578.6868,-205.3949 606.2637,-209.7167 628.3787,-213.1825"/>
<polygon fill="#000000" stroke="#000000" points="628.0021,-216.6661 638.4234,-214.7567 629.0859,-209.7505 628.0021,-216.6661"/>
</g>
<!-- 尉缭子 -->
<g id="node41" class="node">
<title>尉缭子</title>
<text text-anchor="middle" x="665.5" y="-107.3" font-family="Times,serif" font-size="14.00" fill="#000000">尉缭子</text>
</g>
<!-- 兵家&#45;&gt;尉缭子 -->
<g id="edge39" class="edge">
<title>兵家&#45;&gt;尉缭子</title>
<path fill="none" stroke="#000000" d="M558.6169,-180.3943C578.8708,-167.2443 606.77,-149.1307 628.9857,-134.7071"/>
<polygon fill="#000000" stroke="#000000" points="631.0196,-137.5595 637.501,-129.1785 627.2078,-131.6884 631.0196,-137.5595"/>
</g>
<!-- 伍子胥 -->
<g id="node42" class="node">
<title>伍子胥</title>
<text text-anchor="middle" x="835" y="-215.3" font-family="Times,serif" font-size="14.00" fill="#000000">伍子胥</text>
</g>
<!-- 孙武&#45;&gt;伍子胥 -->
<g id="edge40" class="edge">
<title>孙武&#45;&gt;伍子胥</title>
<path fill="none" stroke="#000000" d="M692.7331,-173.676C720.5147,-182.5268 763.9093,-196.3516 795.471,-206.4067"/>
<polygon fill="#000000" stroke="#000000" points="794.6771,-209.827 805.2677,-209.5278 796.802,-203.1573 794.6771,-209.827"/>
<text text-anchor="middle" x="746.5" y="-198.8" font-family="Times,serif" font-size="14.00" fill="#000000">好友</text>
</g>
<!-- 孙膑 -->
<g id="node43" class="node">
<title>孙膑</title>
<text text-anchor="middle" x="835" y="-161.3" font-family="Times,serif" font-size="14.00" fill="#000000">孙膑</text>
</g>
<!-- 孙武&#45;&gt;孙膑 -->
<g id="edge41" class="edge">
<title>孙武&#45;&gt;孙膑</title>
<path fill="none" stroke="#000000" d="M692.7331,-165C721.1512,-165 765.9056,-165 797.6211,-165"/>
<polygon fill="#000000" stroke="#000000" points="797.8345,-168.5001 807.8345,-165 797.8344,-161.5001 797.8345,-168.5001"/>
<text text-anchor="middle" x="746.5" y="-168.8" font-family="Times,serif" font-size="14.00" fill="#000000">后人</text>
</g>
<!-- 纵横家 -->
<g id="node44" class="node">
<title>纵横家</title>
<text text-anchor="middle" x="531.5" y="-53.3" font-family="Times,serif" font-size="14.00" fill="#000000">纵横家</text>
</g>
<!-- 鬼谷子 -->
<g id="node45" class="node">
<title>鬼谷子</title>
<text text-anchor="middle" x="665.5" y="-53.3" font-family="Times,serif" font-size="14.00" fill="#000000">鬼谷子</text>
</g>
<!-- 纵横家&#45;&gt;鬼谷子 -->
<g id="edge42" class="edge">
<title>纵横家&#45;&gt;鬼谷子</title>
<path fill="none" stroke="#000000" d="M561.2389,-57C580.2356,-57 605.0919,-57 625.7698,-57"/>
<polygon fill="#000000" stroke="#000000" points="625.8442,-60.5001 635.8442,-57 625.8442,-53.5001 625.8442,-60.5001"/>
</g>
<!-- 鬼谷子&#45;&gt;张仪 -->
<g id="edge45" class="edge">
<title>鬼谷子&#45;&gt;张仪</title>
<path fill="none" stroke="#000000" d="M695.0246,-66.4061C723.6962,-75.5404 767.304,-89.4331 798.2171,-99.2816"/>
<polygon fill="#000000" stroke="#000000" points="797.1822,-102.6251 807.7728,-102.3258 799.3071,-95.9554 797.1822,-102.6251"/>
</g>
<!-- 鬼谷子&#45;&gt;孙膑 -->
<g id="edge44" class="edge">
<title>鬼谷子&#45;&gt;孙膑</title>
<path fill="none" stroke="#000000" d="M693.8705,-75.0768C722.9011,-93.5741 768.0843,-122.3635 799.476,-142.3652"/>
<polygon fill="#000000" stroke="#000000" points="797.6251,-145.336 807.9394,-147.7578 801.3866,-139.4325 797.6251,-145.336"/>
</g>
<!-- 庞涓 -->
<g id="node46" class="node">
<title>庞涓</title>
<text text-anchor="middle" x="835" y="-53.3" font-family="Times,serif" font-size="14.00" fill="#000000">庞涓</text>
</g>
<!-- 鬼谷子&#45;&gt;庞涓 -->
<g id="edge43" class="edge">
<title>鬼谷子&#45;&gt;庞涓</title>
<path fill="none" stroke="#000000" d="M695.0246,-57C723.448,-57 766.55,-57 797.4113,-57"/>
<polygon fill="#000000" stroke="#000000" points="797.7728,-60.5001 807.7728,-57 797.7727,-53.5001 797.7728,-60.5001"/>
</g>
<!-- 医家 -->
<g id="node48" class="node">
<title>医家</title>
<text text-anchor="middle" x="45.5" y="-215.3" font-family="Times,serif" font-size="14.00" fill="#000000">医家</text>
</g>
<!-- 扁鹊 -->
<g id="node49" class="node">
<title>扁鹊</title>
<text text-anchor="middle" x="207.5" y="-215.3" font-family="Times,serif" font-size="14.00" fill="#000000">扁鹊</text>
</g>
<!-- 医家&#45;&gt;扁鹊 -->
<g id="edge47" class="edge">
<title>医家&#45;&gt;扁鹊</title>
<path fill="none" stroke="#000000" d="M72.6152,-219C99.3655,-219 140.4656,-219 170.2681,-219"/>
<polygon fill="#000000" stroke="#000000" points="170.2964,-222.5001 180.2964,-219 170.2963,-215.5001 170.2964,-222.5001"/>
</g>
<!-- 列子 -->
<g id="node50" class="node">
<title>列子</title>
<text text-anchor="middle" x="45.5" y="-161.3" font-family="Times,serif" font-size="14.00" fill="#000000">列子</text>
</g>
<!-- 管子 -->
<g id="node51" class="node">
<title>管子</title>
<text text-anchor="middle" x="207.5" y="-161.3" font-family="Times,serif" font-size="14.00" fill="#000000">管子</text>
</g>
<!-- 列子&#45;&gt;管子 -->
<g id="edge48" class="edge">
<title>列子&#45;&gt;管子</title>
<path fill="none" stroke="#000000" d="M72.6152,-165C99.3655,-165 140.4656,-165 170.2681,-165"/>
<polygon fill="#000000" stroke="#000000" points="170.2964,-168.5001 180.2964,-165 170.2963,-161.5001 170.2964,-168.5001"/>
</g>
<!-- 鹖冠子 -->
<g id="node52" class="node">
<title>鹖冠子</title>
<text text-anchor="middle" x="369.5" y="-161.3" font-family="Times,serif" font-size="14.00" fill="#000000">鹖冠子</text>
</g>
<!-- 管子&#45;&gt;鹖冠子 -->
<g id="edge49" class="edge">
<title>管子&#45;&gt;鹖冠子</title>
<path fill="none" stroke="#000000" d="M234.6152,-165C260.6403,-165 300.2478,-165 329.82,-165"/>
<polygon fill="#000000" stroke="#000000" points="329.8228,-168.5001 339.8228,-165 329.8228,-161.5001 329.8228,-168.5001"/>
</g>
<!-- 子产 -->
<g id="node53" class="node">
<title>子产</title>
<text text-anchor="middle" x="45.5" y="-107.3" font-family="Times,serif" font-size="14.00" fill="#000000">子产</text>
</g>
<!-- 小说家 -->
<g id="node54" class="node">
<title>小说家</title>
<text text-anchor="middle" x="45.5" y="-53.3" font-family="Times,serif" font-size="14.00" fill="#000000">小说家</text>
</g>
</g>
</svg>
