<?xml version="1.0" encoding="UTF-8" standalone="no"?>
<!DOCTYPE svg PUBLIC "-//W3C//DTD SVG 1.1//EN"
 "http://www.w3.org/Graphics/SVG/1.1/DTD/svg11.dtd">
<!-- Generated by graphviz version 2.40.1 (20161225.0304)
 -->
<!-- Title: asd Pages: 1 -->
<svg width="779pt" height="907pt"
 viewBox="0.00 0.00 779.00 907.00" xmlns="http://www.w3.org/2000/svg" xmlns:xlink="http://www.w3.org/1999/xlink">
<g id="graph0" class="graph" transform="scale(1 1) rotate(0) translate(4 903)">
<title>asd</title>
<polygon fill="#f5deb3" stroke="transparent" points="-4,4 -4,-903 775,-903 775,4 -4,4"/>
<text text-anchor="middle" x="385.5" y="-7.8" font-family="Times,serif" font-size="14.00" fill="#000000">食利者政治经济学</text>
<g id="clust1" class="cluster">
<title>cluster_2</title>
<polygon fill="#f5deb3" stroke="#000000" points="8,-31 8,-484 763,-484 763,-31 8,-31"/>
<text text-anchor="middle" x="385.5" y="-468.8" font-family="Times,serif" font-size="14.00" fill="#000000">2</text>
</g>
<g id="clust2" class="cluster">
<title>cluster_1</title>
<polygon fill="#f5deb3" stroke="#000000" points="8,-492 8,-891 629,-891 629,-492 8,-492"/>
<text text-anchor="middle" x="318.5" y="-875.8" font-family="Times,serif" font-size="14.00" fill="#000000">1</text>
</g>
<!-- 唯物 -->
<g id="node1" class="node">
<title>唯物</title>
<text text-anchor="middle" x="237" y="-377.3" font-family="Times,serif" font-size="14.00" fill="#000000">唯物</text>
</g>
<!-- 马克思 -->
<g id="node2" class="node">
<title>马克思</title>
<text text-anchor="middle" x="428" y="-377.3" font-family="Times,serif" font-size="14.00" fill="#000000">马克思</text>
</g>
<!-- 唯物&#45;&gt;马克思 -->
<g id="edge1" class="edge">
<title>唯物&#45;&gt;马克思</title>
<path fill="none" stroke="#000000" d="M264.3656,-381C296.7554,-381 350.9633,-381 388.0451,-381"/>
<polygon fill="#000000" stroke="#000000" points="388.4884,-384.5001 398.4884,-381 388.4883,-377.5001 388.4884,-384.5001"/>
</g>
<!-- 历史 -->
<g id="node3" class="node">
<title>历史</title>
<text text-anchor="middle" x="53" y="-431.3" font-family="Times,serif" font-size="14.00" fill="#000000">历史</text>
</g>
<!-- 历史&#45;&gt;唯物 -->
<g id="edge7" class="edge">
<title>历史&#45;&gt;唯物</title>
<path fill="none" stroke="#000000" d="M80.1498,-427.0321C111.8126,-417.7398 164.3262,-402.3282 199.7761,-391.9244"/>
<polygon fill="#000000" stroke="#000000" points="201.1291,-395.175 209.7388,-389.0006 199.1578,-388.4583 201.1291,-395.175"/>
</g>
<!-- 经验 -->
<g id="node4" class="node">
<title>经验</title>
<text text-anchor="middle" x="237" y="-431.3" font-family="Times,serif" font-size="14.00" fill="#000000">经验</text>
</g>
<!-- 历史&#45;&gt;经验 -->
<g id="edge2" class="edge">
<title>历史&#45;&gt;经验</title>
<path fill="none" stroke="#000000" d="M80.1498,-435C111.6767,-435 163.8759,-435 199.3187,-435"/>
<polygon fill="#000000" stroke="#000000" points="199.7388,-438.5001 209.7388,-435 199.7387,-431.5001 199.7388,-438.5001"/>
</g>
<!-- 卡尔波兰尼 -->
<g id="node5" class="node">
<title>卡尔波兰尼</title>
<text text-anchor="middle" x="428" y="-431.3" font-family="Times,serif" font-size="14.00" fill="#000000">卡尔波兰尼</text>
</g>
<!-- 经验&#45;&gt;卡尔波兰尼 -->
<g id="edge3" class="edge">
<title>经验&#45;&gt;卡尔波兰尼</title>
<path fill="none" stroke="#000000" d="M264.3656,-435C292.7184,-435 337.7895,-435 373.457,-435"/>
<polygon fill="#000000" stroke="#000000" points="373.7195,-438.5001 383.7195,-435 373.7194,-431.5001 373.7195,-438.5001"/>
</g>
<!-- 辩证 -->
<g id="node6" class="node">
<title>辩证</title>
<text text-anchor="middle" x="53" y="-323.3" font-family="Times,serif" font-size="14.00" fill="#000000">辩证</text>
</g>
<!-- 辩证&#45;&gt;唯物 -->
<g id="edge8" class="edge">
<title>辩证&#45;&gt;唯物</title>
<path fill="none" stroke="#000000" d="M80.1498,-334.9679C111.8126,-344.2602 164.3262,-359.6718 199.7761,-370.0756"/>
<polygon fill="#000000" stroke="#000000" points="199.1578,-373.5417 209.7388,-372.9994 201.1291,-366.825 199.1578,-373.5417"/>
</g>
<!-- 逻辑 -->
<g id="node7" class="node">
<title>逻辑</title>
<text text-anchor="middle" x="237" y="-323.3" font-family="Times,serif" font-size="14.00" fill="#000000">逻辑</text>
</g>
<!-- 辩证&#45;&gt;逻辑 -->
<g id="edge4" class="edge">
<title>辩证&#45;&gt;逻辑</title>
<path fill="none" stroke="#000000" d="M80.1498,-327C111.6767,-327 163.8759,-327 199.3187,-327"/>
<polygon fill="#000000" stroke="#000000" points="199.7388,-330.5001 209.7388,-327 199.7387,-323.5001 199.7388,-330.5001"/>
</g>
<!-- 维特根斯坦 -->
<g id="node8" class="node">
<title>维特根斯坦</title>
<text text-anchor="middle" x="428" y="-323.3" font-family="Times,serif" font-size="14.00" fill="#000000">维特根斯坦</text>
</g>
<!-- 逻辑&#45;&gt;维特根斯坦 -->
<g id="edge5" class="edge">
<title>逻辑&#45;&gt;维特根斯坦</title>
<path fill="none" stroke="#000000" d="M264.3656,-327C292.7184,-327 337.7895,-327 373.457,-327"/>
<polygon fill="#000000" stroke="#000000" points="373.7195,-330.5001 383.7195,-327 373.7194,-323.5001 373.7195,-330.5001"/>
</g>
<!-- 客观 -->
<g id="node9" class="node">
<title>客观</title>
<text text-anchor="middle" x="53" y="-377.3" font-family="Times,serif" font-size="14.00" fill="#000000">客观</text>
</g>
<!-- 客观&#45;&gt;唯物 -->
<g id="edge6" class="edge">
<title>客观&#45;&gt;唯物</title>
<path fill="none" stroke="#000000" d="M80.1498,-381C111.6767,-381 163.8759,-381 199.3187,-381"/>
<polygon fill="#000000" stroke="#000000" points="199.7388,-384.5001 209.7388,-381 199.7387,-377.5001 199.7388,-384.5001"/>
</g>
<!-- 生产 -->
<g id="node10" class="node">
<title>生产</title>
<text text-anchor="middle" x="237" y="-269.3" font-family="Times,serif" font-size="14.00" fill="#000000">生产</text>
</g>
<!-- 流通 -->
<g id="node11" class="node">
<title>流通</title>
<text text-anchor="middle" x="428" y="-269.3" font-family="Times,serif" font-size="14.00" fill="#000000">流通</text>
</g>
<!-- 生产&#45;&gt;流通 -->
<g id="edge9" class="edge">
<title>生产&#45;&gt;流通</title>
<path fill="none" stroke="#000000" d="M264.3656,-273C297.5065,-273 353.489,-273 390.5966,-273"/>
<polygon fill="#000000" stroke="#000000" points="390.9937,-276.5001 400.9937,-273 390.9937,-269.5001 390.9937,-276.5001"/>
</g>
<!-- 利润 -->
<g id="node13" class="node">
<title>利润</title>
<text text-anchor="middle" x="428" y="-215.3" font-family="Times,serif" font-size="14.00" fill="#000000">利润</text>
</g>
<!-- 生产&#45;&gt;利润 -->
<g id="edge11" class="edge">
<title>生产&#45;&gt;利润</title>
<path fill="none" stroke="#000000" d="M264.3656,-265.2631C297.6487,-255.8532 353.97,-239.93 391.0734,-229.44"/>
<polygon fill="#000000" stroke="#000000" points="392.3231,-232.7239 400.9937,-226.6353 390.4186,-225.988 392.3231,-232.7239"/>
</g>
<!-- 消费 -->
<g id="node12" class="node">
<title>消费</title>
<text text-anchor="middle" x="584" y="-269.3" font-family="Times,serif" font-size="14.00" fill="#000000">消费</text>
</g>
<!-- 流通&#45;&gt;消费 -->
<g id="edge10" class="edge">
<title>流通&#45;&gt;消费</title>
<path fill="none" stroke="#000000" d="M455.1731,-273C480.4849,-273 518.4449,-273 546.6092,-273"/>
<polygon fill="#000000" stroke="#000000" points="546.877,-276.5001 556.877,-273 546.877,-269.5001 546.877,-276.5001"/>
</g>
<!-- 竞争 -->
<g id="node14" class="node">
<title>竞争</title>
<text text-anchor="middle" x="584" y="-215.3" font-family="Times,serif" font-size="14.00" fill="#000000">竞争</text>
</g>
<!-- 流通&#45;&gt;竞争 -->
<g id="edge12" class="edge">
<title>流通&#45;&gt;竞争</title>
<path fill="none" stroke="#000000" d="M455.1731,-263.5939C480.7079,-254.7549 519.1148,-241.4603 547.3513,-231.6861"/>
<polygon fill="#000000" stroke="#000000" points="548.572,-234.9674 556.877,-228.3887 546.2822,-228.3524 548.572,-234.9674"/>
</g>
<!-- 利润&#45;&gt;竞争 -->
<g id="edge14" class="edge">
<title>利润&#45;&gt;竞争</title>
<path fill="none" stroke="#000000" d="M455.1731,-219C480.4849,-219 518.4449,-219 546.6092,-219"/>
<polygon fill="#000000" stroke="#000000" points="546.877,-222.5001 556.877,-219 546.877,-215.5001 546.877,-222.5001"/>
</g>
<!-- 博弈论 -->
<g id="node15" class="node">
<title>博弈论</title>
<text text-anchor="middle" x="725.5" y="-192.3" font-family="Times,serif" font-size="14.00" fill="#000000">博弈论</text>
</g>
<!-- 竞争&#45;&gt;博弈论 -->
<g id="edge13" class="edge">
<title>竞争&#45;&gt;博弈论</title>
<path fill="none" stroke="#000000" d="M611.2826,-214.5654C632.4096,-211.1313 661.9794,-206.3249 685.7386,-202.463"/>
<polygon fill="#000000" stroke="#000000" points="686.5496,-205.8772 695.8585,-200.8181 685.4265,-198.9679 686.5496,-205.8772"/>
</g>
<!-- 价格 -->
<g id="node16" class="node">
<title>价格</title>
<text text-anchor="middle" x="725.5" y="-246.3" font-family="Times,serif" font-size="14.00" fill="#000000">价格</text>
</g>
<!-- 竞争&#45;&gt;价格 -->
<g id="edge15" class="edge">
<title>竞争&#45;&gt;价格</title>
<path fill="none" stroke="#000000" d="M611.2826,-224.9771C633.207,-229.7803 664.2237,-236.5755 688.4034,-241.8728"/>
<polygon fill="#000000" stroke="#000000" points="687.7838,-245.32 698.3011,-244.0412 689.2819,-238.4822 687.7838,-245.32"/>
</g>
<!-- 剩余价值 -->
<g id="node17" class="node">
<title>剩余价值</title>
<text text-anchor="middle" x="428" y="-107.3" font-family="Times,serif" font-size="14.00" fill="#000000">剩余价值</text>
</g>
<!-- 价差? -->
<g id="node18" class="node">
<title>价差?</title>
<text text-anchor="middle" x="584" y="-107.3" font-family="Times,serif" font-size="14.00" fill="#000000">价差?</text>
</g>
<!-- 剩余价值&#45;&gt;价差? -->
<g id="edge16" class="edge">
<title>剩余价值&#45;&gt;价差?</title>
<path fill="none" stroke="#000000" d="M465.3659,-111C489.9739,-111 522.0681,-111 546.669,-111"/>
<polygon fill="#000000" stroke="#000000" points="546.7098,-114.5001 556.7098,-111 546.7097,-107.5001 546.7098,-114.5001"/>
</g>
<!-- 价值 -->
<g id="node19" class="node">
<title>价值</title>
<text text-anchor="middle" x="53" y="-161.3" font-family="Times,serif" font-size="14.00" fill="#000000">价值</text>
</g>
<!-- 交换价值 -->
<g id="node20" class="node">
<title>交换价值</title>
<text text-anchor="middle" x="237" y="-161.3" font-family="Times,serif" font-size="14.00" fill="#000000">交换价值</text>
</g>
<!-- 价值&#45;&gt;交换价值 -->
<g id="edge17" class="edge">
<title>价值&#45;&gt;交换价值</title>
<path fill="none" stroke="#000000" d="M80.1498,-165C108.8682,-165 154.74,-165 189.4744,-165"/>
<polygon fill="#000000" stroke="#000000" points="189.8652,-168.5001 199.8652,-165 189.8652,-161.5001 189.8652,-168.5001"/>
</g>
<!-- 交换价值&#45;&gt;剩余价值 -->
<g id="edge19" class="edge">
<title>交换价值&#45;&gt;剩余价值</title>
<path fill="none" stroke="#000000" d="M274.2801,-154.4601C304.7797,-145.8372 348.0904,-133.5922 380.9704,-124.2963"/>
<polygon fill="#000000" stroke="#000000" points="382.1433,-127.602 390.8139,-121.5134 380.2388,-120.866 382.1433,-127.602"/>
</g>
<!-- 使用价值 -->
<g id="node21" class="node">
<title>使用价值</title>
<text text-anchor="middle" x="428" y="-53.3" font-family="Times,serif" font-size="14.00" fill="#000000">使用价值</text>
</g>
<!-- 交换价值&#45;&gt;使用价值 -->
<g id="edge18" class="edge">
<title>交换价值&#45;&gt;使用价值</title>
<path fill="none" stroke="#000000" d="M268.9691,-146.9232C301.3344,-128.6224 351.5165,-100.2472 386.837,-80.2754"/>
<polygon fill="#000000" stroke="#000000" points="388.9445,-83.1045 395.9266,-75.1357 385.4991,-77.0112 388.9445,-83.1045"/>
</g>
<!-- 人类 -->
<g id="node22" class="node">
<title>人类</title>
<text text-anchor="middle" x="53" y="-215.3" font-family="Times,serif" font-size="14.00" fill="#000000">人类</text>
</g>
<!-- 金钱 -->
<g id="node23" class="node">
<title>金钱</title>
<text text-anchor="middle" x="237" y="-215.3" font-family="Times,serif" font-size="14.00" fill="#000000">金钱</text>
</g>
<!-- 人类&#45;&gt;金钱 -->
<g id="edge20" class="edge">
<title>人类&#45;&gt;金钱</title>
<path fill="none" stroke="#000000" d="M80.1498,-219C111.6767,-219 163.8759,-219 199.3187,-219"/>
<polygon fill="#000000" stroke="#000000" points="199.7388,-222.5001 209.7388,-219 199.7387,-215.5001 199.7388,-222.5001"/>
<text text-anchor="middle" x="141.5" y="-222.8" font-family="Times,serif" font-size="14.00" fill="#000000">目的</text>
</g>
<!-- 金钱&#45;&gt;利润 -->
<g id="edge22" class="edge">
<title>金钱&#45;&gt;利润</title>
<path fill="none" stroke="#000000" d="M264.3656,-219C297.5065,-219 353.489,-219 390.5966,-219"/>
<polygon fill="#000000" stroke="#000000" points="390.9937,-222.5001 400.9937,-219 390.9937,-215.5001 390.9937,-222.5001"/>
<text text-anchor="middle" x="332.5" y="-222.8" font-family="Times,serif" font-size="14.00" fill="#000000">形式</text>
</g>
<!-- 产品 -->
<g id="node24" class="node">
<title>产品</title>
<text text-anchor="middle" x="428" y="-161.3" font-family="Times,serif" font-size="14.00" fill="#000000">产品</text>
</g>
<!-- 金钱&#45;&gt;产品 -->
<g id="edge21" class="edge">
<title>金钱&#45;&gt;产品</title>
<path fill="none" stroke="#000000" d="M264.3656,-211.2631C297.6487,-201.8532 353.97,-185.93 391.0734,-175.44"/>
<polygon fill="#000000" stroke="#000000" points="392.3231,-178.7239 400.9937,-172.6353 390.4186,-171.988 392.3231,-178.7239"/>
<text text-anchor="middle" x="332.5" y="-199.8" font-family="Times,serif" font-size="14.00" fill="#000000">目的</text>
</g>
<!-- 个人收入 -->
<g id="node25" class="node">
<title>个人收入</title>
<text text-anchor="middle" x="53" y="-53.3" font-family="Times,serif" font-size="14.00" fill="#000000">个人收入</text>
</g>
<!-- 个人购买力 -->
<g id="node26" class="node">
<title>个人购买力</title>
<text text-anchor="middle" x="237" y="-53.3" font-family="Times,serif" font-size="14.00" fill="#000000">个人购买力</text>
</g>
<!-- 个人收入&#45;&gt;个人购买力 -->
<g id="edge23" class="edge">
<title>个人收入&#45;&gt;个人购买力</title>
<path fill="none" stroke="#000000" d="M90.2351,-57C116.7248,-57 152.7384,-57 182.461,-57"/>
<polygon fill="#000000" stroke="#000000" points="182.686,-60.5001 192.6859,-57 182.6859,-53.5001 182.686,-60.5001"/>
<text text-anchor="middle" x="141.5" y="-60.8" font-family="Times,serif" font-size="14.00" fill="#000000">本质</text>
</g>
<!-- 劳动分工 -->
<g id="node27" class="node">
<title>劳动分工</title>
<text text-anchor="middle" x="53" y="-107.3" font-family="Times,serif" font-size="14.00" fill="#000000">劳动分工</text>
</g>
<!-- 劳动分工&#45;&gt;个人购买力 -->
<g id="edge25" class="edge">
<title>劳动分工&#45;&gt;个人购买力</title>
<path fill="none" stroke="#000000" d="M90.2351,-100.0723C116.8405,-92.2642 153.0531,-81.6366 182.85,-72.8918"/>
<polygon fill="#000000" stroke="#000000" points="184.0763,-76.1797 192.6859,-70.0052 182.105,-69.4629 184.0763,-76.1797"/>
</g>
<!-- 商品交换 -->
<g id="node28" class="node">
<title>商品交换</title>
<text text-anchor="middle" x="237" y="-107.3" font-family="Times,serif" font-size="14.00" fill="#000000">商品交换</text>
</g>
<!-- 劳动分工&#45;&gt;商品交换 -->
<g id="edge24" class="edge">
<title>劳动分工&#45;&gt;商品交换</title>
<path fill="none" stroke="#000000" d="M90.2351,-111C118.9161,-111 158.7618,-111 189.699,-111"/>
<polygon fill="#000000" stroke="#000000" points="189.8203,-114.5001 199.8202,-111 189.8202,-107.5001 189.8203,-114.5001"/>
<text text-anchor="middle" x="141.5" y="-114.8" font-family="Times,serif" font-size="14.00" fill="#000000">促进</text>
</g>
<!-- 1929 -->
<g id="node29" class="node">
<title>1929</title>
<text text-anchor="middle" x="53" y="-829.3" font-family="Times,serif" font-size="14.00" fill="#000000">1929</text>
</g>
<!-- 黄金 -->
<g id="node30" class="node">
<title>黄金</title>
<text text-anchor="middle" x="237" y="-829.3" font-family="Times,serif" font-size="14.00" fill="#000000">黄金</text>
</g>
<!-- 1929&#45;&gt;黄金 -->
<g id="edge26" class="edge">
<title>1929&#45;&gt;黄金</title>
<path fill="none" stroke="#000000" d="M80.1498,-833C111.6767,-833 163.8759,-833 199.3187,-833"/>
<polygon fill="#000000" stroke="#000000" points="199.7388,-836.5001 209.7388,-833 199.7387,-829.5001 199.7388,-836.5001"/>
</g>
<!-- 货币 -->
<g id="node31" class="node">
<title>货币</title>
<text text-anchor="middle" x="428" y="-838.3" font-family="Times,serif" font-size="14.00" fill="#000000">货币</text>
</g>
<!-- 黄金&#45;&gt;货币 -->
<g id="edge27" class="edge">
<title>黄金&#45;&gt;货币</title>
<path fill="none" stroke="#000000" d="M264.2925,-837.2172C279.9638,-839.4258 300.039,-841.8955 318,-843 342.1343,-844.4841 369.3022,-844.2557 390.5999,-843.6456"/>
<polygon fill="#000000" stroke="#000000" points="390.9689,-847.1355 400.849,-843.3101 390.7398,-840.1392 390.9689,-847.1355"/>
</g>
<!-- 货币&#45;&gt;黄金 -->
<g id="edge29" class="edge">
<title>货币&#45;&gt;黄金</title>
<path fill="none" stroke="#000000" d="M400.8787,-834.4152C385.2627,-830.4419 365.1858,-825.9963 347,-824 322.7751,-821.3408 295.4693,-823.5454 274.1236,-826.4373"/>
<polygon fill="#000000" stroke="#000000" points="273.5515,-822.9837 264.1632,-827.8939 274.5644,-829.91 273.5515,-822.9837"/>
<text text-anchor="middle" x="332.5" y="-827.8" font-family="Times,serif" font-size="14.00" fill="#000000">失效</text>
</g>
<!-- 商品 -->
<g id="node32" class="node">
<title>商品</title>
<text text-anchor="middle" x="584" y="-838.3" font-family="Times,serif" font-size="14.00" fill="#000000">商品</text>
</g>
<!-- 货币&#45;&gt;商品 -->
<g id="edge28" class="edge">
<title>货币&#45;&gt;商品</title>
<path fill="none" stroke="#000000" d="M455.1731,-842C480.4849,-842 518.4449,-842 546.6092,-842"/>
<polygon fill="#000000" stroke="#000000" points="546.877,-845.5001 556.877,-842 546.877,-838.5001 546.877,-845.5001"/>
</g>
<!-- 20** -->
<g id="node33" class="node">
<title>20**</title>
<text text-anchor="middle" x="53" y="-750.3" font-family="Times,serif" font-size="14.00" fill="#000000">20**</text>
</g>
<!-- 债券 -->
<g id="node34" class="node">
<title>债券</title>
<text text-anchor="middle" x="237" y="-750.3" font-family="Times,serif" font-size="14.00" fill="#000000">债券</text>
</g>
<!-- 20**&#45;&gt;债券 -->
<g id="edge30" class="edge">
<title>20**&#45;&gt;债券</title>
<path fill="none" stroke="#000000" d="M80.1498,-754C111.6767,-754 163.8759,-754 199.3187,-754"/>
<polygon fill="#000000" stroke="#000000" points="199.7388,-757.5001 209.7388,-754 199.7387,-750.5001 199.7388,-757.5001"/>
</g>
<!-- 债券&#45;&gt;货币 -->
<g id="edge31" class="edge">
<title>债券&#45;&gt;货币</title>
<path fill="none" stroke="#000000" d="M264.3656,-766.6083C297.7909,-782.0084 354.4518,-808.1139 391.548,-825.2054"/>
<polygon fill="#000000" stroke="#000000" points="390.4467,-828.5515 400.9937,-829.5573 393.3759,-822.1939 390.4467,-828.5515"/>
</g>
<!-- 美英 -->
<g id="node35" class="node">
<title>美英</title>
<text text-anchor="middle" x="428" y="-784.3" font-family="Times,serif" font-size="14.00" fill="#000000">美英</text>
</g>
<!-- 债券&#45;&gt;美英 -->
<g id="edge32" class="edge">
<title>债券&#45;&gt;美英</title>
<path fill="none" stroke="#000000" d="M264.3656,-758.8714C297.6487,-764.7961 353.97,-774.8219 391.0734,-781.4267"/>
<polygon fill="#000000" stroke="#000000" points="390.535,-784.8858 400.9937,-783.1926 391.7619,-777.9941 390.535,-784.8858"/>
</g>
<!-- 欧盟 -->
<g id="node38" class="node">
<title>欧盟</title>
<text text-anchor="middle" x="428" y="-676.3" font-family="Times,serif" font-size="14.00" fill="#000000">欧盟</text>
</g>
<!-- 债券&#45;&gt;欧盟 -->
<g id="edge35" class="edge">
<title>债券&#45;&gt;欧盟</title>
<path fill="none" stroke="#000000" d="M264.3656,-743.3976C297.7909,-730.4475 354.4518,-708.4951 391.548,-694.1228"/>
<polygon fill="#000000" stroke="#000000" points="392.9335,-697.3395 400.9937,-690.4632 390.4046,-690.8123 392.9335,-697.3395"/>
</g>
<!-- 中国 -->
<g id="node39" class="node">
<title>中国</title>
<text text-anchor="middle" x="428" y="-730.3" font-family="Times,serif" font-size="14.00" fill="#000000">中国</text>
</g>
<!-- 债券&#45;&gt;中国 -->
<g id="edge36" class="edge">
<title>债券&#45;&gt;中国</title>
<path fill="none" stroke="#000000" d="M264.3656,-751.1345C297.5065,-747.6642 353.489,-741.8022 390.5966,-737.9166"/>
<polygon fill="#000000" stroke="#000000" points="391.4126,-741.3504 400.9937,-736.8279 390.6835,-734.3884 391.4126,-741.3504"/>
</g>
<!-- 北美 -->
<g id="node36" class="node">
<title>北美</title>
<text text-anchor="middle" x="584" y="-784.3" font-family="Times,serif" font-size="14.00" fill="#000000">北美</text>
</g>
<!-- 美英&#45;&gt;北美 -->
<g id="edge33" class="edge">
<title>美英&#45;&gt;北美</title>
<path fill="none" stroke="#000000" d="M455.1731,-788C480.4849,-788 518.4449,-788 546.6092,-788"/>
<polygon fill="#000000" stroke="#000000" points="546.877,-791.5001 556.877,-788 546.877,-784.5001 546.877,-791.5001"/>
</g>
<!-- 日韩 -->
<g id="node37" class="node">
<title>日韩</title>
<text text-anchor="middle" x="584" y="-676.3" font-family="Times,serif" font-size="14.00" fill="#000000">日韩</text>
</g>
<!-- 美英&#45;&gt;日韩 -->
<g id="edge34" class="edge">
<title>美英&#45;&gt;日韩</title>
<path fill="none" stroke="#000000" d="M455.1966,-771.7555C460.8027,-768.2832 466.6317,-764.5808 472,-761 479.9148,-755.7205 521.0055,-725.8969 551.1303,-703.965"/>
<polygon fill="#000000" stroke="#000000" points="553.2767,-706.7317 559.2995,-698.0153 549.1556,-701.0733 553.2767,-706.7317"/>
</g>
<!-- 欧盟&#45;&gt;日韩 -->
<g id="edge37" class="edge">
<title>欧盟&#45;&gt;日韩</title>
<path fill="none" stroke="#000000" d="M455.1731,-680C480.4849,-680 518.4449,-680 546.6092,-680"/>
<polygon fill="#000000" stroke="#000000" points="546.877,-683.5001 556.877,-680 546.877,-676.5001 546.877,-683.5001"/>
</g>
<!-- 中国&#45;&gt;日韩 -->
<g id="edge38" class="edge">
<title>中国&#45;&gt;日韩</title>
<path fill="none" stroke="#000000" d="M455.1731,-724.5939C480.7079,-715.7549 519.1148,-702.4603 547.3513,-692.6861"/>
<polygon fill="#000000" stroke="#000000" points="548.572,-695.9674 556.877,-689.3887 546.2822,-689.3524 548.572,-695.9674"/>
</g>
<!-- 非洲 -->
<g id="node40" class="node">
<title>非洲</title>
<text text-anchor="middle" x="584" y="-730.3" font-family="Times,serif" font-size="14.00" fill="#000000">非洲</text>
</g>
<!-- 中国&#45;&gt;非洲 -->
<g id="edge39" class="edge">
<title>中国&#45;&gt;非洲</title>
<path fill="none" stroke="#000000" d="M455.1731,-734C480.4849,-734 518.4449,-734 546.6092,-734"/>
<polygon fill="#000000" stroke="#000000" points="546.877,-737.5001 556.877,-734 546.877,-730.5001 546.877,-737.5001"/>
</g>
<!-- 俄罗斯 -->
<g id="node41" class="node">
<title>俄罗斯</title>
<text text-anchor="middle" x="237" y="-693.3" font-family="Times,serif" font-size="14.00" fill="#000000">俄罗斯</text>
</g>
<!-- 俄罗斯&#45;&gt;欧盟 -->
<g id="edge41" class="edge">
<title>俄罗斯&#45;&gt;欧盟</title>
<path fill="none" stroke="#000000" d="M266.8438,-694.3438C300.2663,-691.369 354.4837,-686.5433 390.6817,-683.3215"/>
<polygon fill="#000000" stroke="#000000" points="391.1869,-686.7905 400.8372,-682.4176 390.5663,-679.8181 391.1869,-686.7905"/>
</g>
<!-- 俄罗斯&#45;&gt;中国 -->
<g id="edge40" class="edge">
<title>俄罗斯&#45;&gt;中国</title>
<path fill="none" stroke="#000000" d="M266.8438,-702.7813C300.2663,-709.2558 354.4837,-719.7586 390.6817,-726.7708"/>
<polygon fill="#000000" stroke="#000000" points="390.354,-730.2723 400.8372,-728.7381 391.6854,-723.4001 390.354,-730.2723"/>
</g>
<!-- 消费资料 -->
<g id="node42" class="node">
<title>消费资料</title>
<text text-anchor="middle" x="53" y="-568.3" font-family="Times,serif" font-size="14.00" fill="#000000">消费资料</text>
</g>
<!-- 生活资料 -->
<g id="node43" class="node">
<title>生活资料</title>
<text text-anchor="middle" x="237" y="-568.3" font-family="Times,serif" font-size="14.00" fill="#000000">生活资料</text>
</g>
<!-- 消费资料&#45;&gt;生活资料 -->
<g id="edge42" class="edge">
<title>消费资料&#45;&gt;生活资料</title>
<path fill="none" stroke="#000000" d="M90.2351,-572C118.9161,-572 158.7618,-572 189.699,-572"/>
<polygon fill="#000000" stroke="#000000" points="189.8203,-575.5001 199.8202,-572 189.8202,-568.5001 189.8203,-575.5001"/>
</g>
<!-- 消费品 -->
<g id="node44" class="node">
<title>消费品</title>
<text text-anchor="middle" x="428" y="-568.3" font-family="Times,serif" font-size="14.00" fill="#000000">消费品</text>
</g>
<!-- 生活资料&#45;&gt;消费品 -->
<g id="edge43" class="edge">
<title>生活资料&#45;&gt;消费品</title>
<path fill="none" stroke="#000000" d="M274.2801,-572C306.9993,-572 354.4621,-572 387.9742,-572"/>
<polygon fill="#000000" stroke="#000000" points="388.3282,-575.5001 398.3282,-572 388.3282,-568.5001 388.3282,-575.5001"/>
</g>
<!-- 生存资料 -->
<g id="node45" class="node">
<title>生存资料</title>
<text text-anchor="middle" x="584" y="-622.3" font-family="Times,serif" font-size="14.00" fill="#000000">生存资料</text>
</g>
<!-- 消费品&#45;&gt;生存资料 -->
<g id="edge44" class="edge">
<title>消费品&#45;&gt;生存资料</title>
<path fill="none" stroke="#000000" d="M457.7096,-582.2841C480.2069,-590.0716 511.5406,-600.9179 537.3684,-609.8583"/>
<polygon fill="#000000" stroke="#000000" points="536.3728,-613.2174 546.9676,-613.1811 538.6626,-606.6025 536.3728,-613.2174"/>
</g>
<!-- 发展资料 -->
<g id="node46" class="node">
<title>发展资料</title>
<text text-anchor="middle" x="584" y="-514.3" font-family="Times,serif" font-size="14.00" fill="#000000">发展资料</text>
</g>
<!-- 消费品&#45;&gt;发展资料 -->
<g id="edge45" class="edge">
<title>消费品&#45;&gt;发展资料</title>
<path fill="none" stroke="#000000" d="M457.7096,-561.7159C480.2069,-553.9284 511.5406,-543.0821 537.3684,-534.1417"/>
<polygon fill="#000000" stroke="#000000" points="538.6626,-537.3975 546.9676,-530.8189 536.3728,-530.7826 538.6626,-537.3975"/>
</g>
<!-- 享受资料 -->
<g id="node47" class="node">
<title>享受资料</title>
<text text-anchor="middle" x="584" y="-568.3" font-family="Times,serif" font-size="14.00" fill="#000000">享受资料</text>
</g>
<!-- 消费品&#45;&gt;享受资料 -->
<g id="edge46" class="edge">
<title>消费品&#45;&gt;享受资料</title>
<path fill="none" stroke="#000000" d="M457.7096,-572C480.0087,-572 510.9892,-572 536.6844,-572"/>
<polygon fill="#000000" stroke="#000000" points="536.9676,-575.5001 546.9676,-572 536.9676,-568.5001 536.9676,-575.5001"/>
</g>
</g>
</svg>
